0
SECTION
2
HEADER
9
$INSUNITS
70
4
9
$ACADVER
1
AC1014
9
$HANDSEED
5
FFFF
0
ENDSEC
0
SECTION
2
TABLES
0
TABLE
2
VPORT
5
8
100
AcDbSymbolTable
0
ENDTAB
0
TABLE
2
LTYPE
5
5
100
AcDbSymbolTable
0
LTYPE
5
14
100
AcDbSymbolTableRecord
100
AcDbLinetypeTableRecord
2
BYBLOCK
70
0
0
LTYPE
5
15
100
AcDbSymbolTableRecord
100
AcDbLinetypeTableRecord
2
BYLAYER
70
0
0
ENDTAB
0
TABLE
2
LAYER
5
2
100
AcDbSymbolTable
70
2
0
LAYER
5
50
100
AcDbSymbolTableRecord
100
AcDbLayerTableRecord
2
0
70
0
6
CONTINUOUS
0
ENDTAB
0
TABLE
2
STYLE
5
3
100
AcDbSymbolTable
70
1
0
STYLE
5
11
100
AcDbSymbolTableRecord
100
AcDbTextStyleTableRecord
2
STANDARD
70
0
0
ENDTAB
0
TABLE
2
VIEW
5
6
100
AcDbSymbolTable
70
0
0
ENDTAB
0
TABLE
2
UCS
5
7
100
AcDbSymbolTable
70
0
0
ENDTAB
0
TABLE
2
APPID
5
9
100
AcDbSymbolTable
70
2
0
APPID
5
12
100
AcDbSymbolTableRecord
100
AcDbRegAppTableRecord
2
ACAD
70
0
0
ENDTAB
0
TABLE
2
DIMSTYLE
5
A
100
AcDbSymbolTable
70
1
0
ENDTAB
0
TABLE
2
BLOCK_RECORD
5
1
100
AcDbSymbolTable
70
1
0
BLOCK_RECORD
5
1F
100
AcDbSymbolTableRecord
100
AcDbBlockTableRecord
2
*MODEL_SPACE
0
BLOCK_RECORD
5
1B
100
AcDbSymbolTableRecord
100
AcDbBlockTableRecord
2
*PAPER_SPACE
0
ENDTAB
0
ENDSEC
0
SECTION
2
BLOCKS
0
BLOCK
5
20
100
AcDbEntity
100
AcDbBlockBegin
2
*MODEL_SPACE
0
ENDBLK
5
21
100
AcDbEntity
100
AcDbBlockEnd
0
BLOCK
5
1C
100
AcDbEntity
100
AcDbBlockBegin
2
*PAPER_SPACE
0
ENDBLK
5
1D
100
AcDbEntity
100
AcDbBlockEnd
0
ENDSEC
0
SECTION
2
ENTITIES
0
LINE
5
100
100
AcDbEntity
8
0
100
AcDbLine
10
60
20
0
30
0
11
60
21
-100
31
0
0
LINE
5
101
100
AcDbEntity
8
0
100
AcDbLine
10
-60
20
-100
30
0
11
-60
21
0
31
0
0
LINE
5
102
100
AcDbEntity
8
0
100
AcDbLine
10
60
20
50
30
0
11
60
21
0
31
0
0
LINE
5
103
100
AcDbEntity
8
0
100
AcDbLine
10
-60
20
0
30
0
11
-60
21
50
31
0
0
LINE
5
104
100
AcDbEntity
8
0
100
AcDbLine
10
-80
20
50
30
0
11
-60
21
50
31
0
0
LINE
5
105
100
AcDbEntity
8
0
100
AcDbLine
10
80
20
50
30
0
11
60
21
50
31
0
0
ARC
5
106
100
AcDbEntity
8
0
100
AcDbCircle
10
0
20
-41.666666666666657
30
0
40
121.66666666666666
210
0
220
-0
230
1
100
AcDbArc
50
48.887909560833066
51
131.11209043916693
0
ARC
5
107
100
AcDbEntity
8
0
100
AcDbCircle
10
-3.5527136788005009e-14
20
12.035514065451487
30
0
40
127.09034743799373
210
0
220
0
230
1
100
AcDbArc
50
241.82897048780271
51
298.17102951219732
0
LINE
5
108
100
AcDbEntity
8
0
100
AcDbLine
10
-9.7500001713633555
20
40
30
0
11
-11.500000171363354
21
40
31
0
0
CIRCLE
5
109
100
AcDbEntity
8
0
100
AcDbCircle
10
-11.500000171363354
20
24.55218538390719
30
0
40
1.7499999999999984
210
0
220
0
230
1
0
CIRCLE
5
110
100
AcDbEntity
8
0
100
AcDbCircle
10
11.580428189537166
20
24.55218538390719
30
0
40
1.7499999999999982
210
0
220
0
230
1
0
CIRCLE
5
111
100
AcDbEntity
8
0
100
AcDbCircle
10
11.580428189537166
20
40
30
0
40
1.7499999999999987
210
0
220
0
230
1
0
CIRCLE
5
112
100
AcDbEntity
8
0
100
AcDbCircle
10
-11.500000171363354
20
40
30
0
40
1.7499999999999982
210
0
220
0
230
1
0
CIRCLE
5
113
100
AcDbEntity
8
0
100
AcDbCircle
10
-50
20
0
30
0
40
1.7500000000000004
210
0
220
0
230
1
0
LINE
5
114
100
AcDbEntity
8
0
100
AcDbLine
10
-50
20
0
30
0
11
-50
21
-1.7500000000000004
31
0
0
LINE
5
115
100
AcDbEntity
8
0
100
AcDbLine
10
-46.750000670552254
20
-52.786844825207112
30
0
11
-45.000000670552254
21
-52.786844825207112
31
0
0
CIRCLE
5
116
100
AcDbEntity
8
0
100
AcDbCircle
10
-45.000000670552254
20
-52.786844825207112
30
0
40
1.7499999999999973
210
0
220
0
230
1
0
CIRCLE
5
117
100
AcDbEntity
8
0
100
AcDbCircle
10
-3.0000000447034836
20
0
30
0
40
1.7500000000000002
210
0
220
0
230
1
0
LINE
5
118
100
AcDbEntity
8
0
100
AcDbLine
10
-50
20
0
30
0
11
-48.25
21
0
31
0
0
LINE
5
119
100
AcDbEntity
8
0
100
AcDbLine
10
-4.7500000447034836
20
0
30
0
11
-3.0000000447034836
21
0
31
0
0
CIRCLE
5
120
100
AcDbEntity
8
0
100
AcDbCircle
10
-18.000000268220901
20
-52.786844825207112
30
0
40
1.7500000000000009
210
0
220
0
230
1
0
LINE
5
121
100
AcDbEntity
8
0
100
AcDbLine
10
-45.000000670552254
20
-52.786844825207112
30
0
11
-43.250000670552254
21
-52.786844825207112
31
0
0
LINE
5
122
100
AcDbEntity
8
0
100
AcDbLine
10
-19.750000268220901
20
-52.786844825207112
30
0
11
-18.000000268220901
21
-52.786844825207112
31
0
0
CIRCLE
5
123
100
AcDbEntity
8
0
100
AcDbCircle
10
12.562691797788004
20
0
30
0
40
1.7499999999999993
210
0
220
0
230
1
0
CIRCLE
5
124
100
AcDbEntity
8
0
100
AcDbCircle
10
50
20
0
30
0
40
1.75
210
0
220
0
230
1
0
CIRCLE
5
125
100
AcDbEntity
8
0
100
AcDbCircle
10
12.562691797788004
20
-37.051901388706312
30
0
40
1.7500000000000004
210
0
220
0
230
1
0
CIRCLE
5
126
100
AcDbEntity
8
0
100
AcDbCircle
10
50
20
-37.051901388706312
30
0
40
0.25000000000000205
210
0
220
0
230
1
0
CIRCLE
5
127
100
AcDbEntity
8
0
100
AcDbCircle
10
50
20
-37.051901388706312
30
0
40
1.7499999999999971
210
0
220
0
230
1
0
LINE
5
128
100
AcDbEntity
8
0
100
AcDbLine
10
12.562691797788004
20
-37.051901388706312
30
0
11
14.312691797788004
21
-37.051901388706312
31
0
0
LINE
5
129
100
AcDbEntity
8
0
100
AcDbLine
10
48.25
20
-37.051901388706312
30
0
11
50
21
-37.051901388706312
31
0
0
LINE
5
130
100
AcDbEntity
8
0
100
AcDbLine
10
12.562691797788004
20
0
30
0
11
12.562691797788004
21
-1.7499999999999993
31
0
0
LINE
5
131
100
AcDbEntity
8
0
100
AcDbLine
10
12.562691797788004
20
-35.301901388706305
30
0
11
12.562691797788004
21
-37.051901388706312
31
0
0
LINE
5
132
100
AcDbEntity
8
0
100
AcDbLine
10
50
20
0
30
0
11
48.25
21
0
31
0
0
LINE
5
133
100
AcDbEntity
8
0
100
AcDbLine
10
14.312691797788002
20
0
30
0
11
12.562691797788004
21
0
31
0
0
CIRCLE
5
134
100
AcDbEntity
8
0
100
AcDbCircle
10
-45
20
55
30
0
40
1.7499999999999978
210
0
220
0
230
1
0
CIRCLE
5
135
100
AcDbEntity
8
0
100
AcDbCircle
10
45
20
55
30
0
40
2.4999999999999996
210
0
220
0
230
1
0
LWPOLYLINE
5
136
100
AcDbEntity
8
0
100
AcDbPolyline
90
8
70
1
43
0.0
10
-24.919808882402606
20
-90.419802522158577
10
-26.361774797930806
20
-90.407424088674929
10
-25.089399413236869
20
-84.587982221877695
10
-27.142529806261919
20
-84.570357299034754
10
-26.88897690082452
20
-83.402640568509909
10
-21.374173762415264
20
-83.449981925950567
10
-21.627726444343477
20
-84.617698658394119
10
-23.652208249873926
20
-84.600319666908405
0
LWPOLYLINE
5
137
100
AcDbEntity
8
0
100
AcDbPolyline
90
12
70
1
43
0.0
10
-21.992904281858891
20
-90.444928285202408
10
-20.47175037137751
20
-83.457728702625218
10
-15.281628741138418
20
-83.502282859335978
10
-15.535180231017653
20
-84.669999602012567
10
-19.283337435789761
20
-84.637823865994164
10
-19.631217364576255
20
-86.224936730239691
10
-16.007203120076355
20
-86.256046771598022
10
-16.260756991495281
20
-87.423763195796283
10
-19.884770043946205
20
-87.392653164671003
10
-20.340357559853061
20
-89.289221097840809
10
-16.267519591941401
20
-89.324184028193457
10
-16.525847622059356
20
-90.491859767067538
0
LWPOLYLINE
5
138
100
AcDbEntity
8
0
100
AcDbPolyline
90
8
70
1
43
0.0
10
-10.87362269265931
20
-88.993257238528969
10
-13.647736415963765
20
-88.969443095746371
10
-14.501367008577887
20
-90.5092387483202
10
-15.981530643415899
20
-90.49653240977122
10
-11.963198039190511
20
-83.530769644822271
10
-10.363666196245543
20
-83.544500689578371
10
-9.2873710214880223
20
-90.553997852412209
10
-10.652940604359863
20
-90.542275236733957
0
LWPOLYLINE
5
139
100
AcDbEntity
8
0
100
AcDbPolyline
90
3
70
1
43
0.0
10
-11.040286805628751
20
-87.826708294857511
10
-11.421954725810631
20
-85.006138405172408
10
-13.136389297613571
20
-87.808714481694139
0
LWPOLYLINE
5
140
100
AcDbEntity
8
0
100
AcDbPolyline
90
13
70
1
43
0.0
10
-4.3837309450174589
20
-90.596092732645332
10
-5.7493017199382717
20
-90.584370106734028
10
-5.9521512641053063
20
-84.733163881179735
10
-7.1148724948590845
20
-90.572647480822724
10
-8.4135967394662909
20
-90.561498693252659
10
-6.8924434250093984
20
-83.574299105558936
10
-4.8393131064874071
20
-83.591924027762332
10
-4.6665459171243144
20
-88.497407377216916
10
-2.2370892690832478
20
-83.614262596471903
10
-0.1600845937104825
20
-83.632092466056548
10
-1.6860144484061002
20
-90.619251049947735
10
-2.9990635455335664
20
-90.607979291902325
10
-1.5693250844853623
20
-84.81376321908715
0
LWPOLYLINE
5
141
100
AcDbEntity
8
0
100
AcDbPolyline
90
12
70
1
43
0.0
10
2.4536712418681406
20
-90.654787828874689
10
3.9748257483740108
20
-83.667588251414031
10
9.1649473786131015
20
-83.712142408124777
10
8.9113935046359138
20
-84.879859130335277
10
5.1632386839617572
20
-84.847683414782978
10
4.8153581591507759
20
-86.434796273911985
10
8.4393729996751574
20
-86.465906320386821
10
8.1858191282562309
20
-87.633622744585082
10
4.5618042877318512
20
-87.602512698110232
10
4.1062185598984513
20
-89.499080646629608
10
8.1790565278101184
20
-89.534043576982256
10
7.9207273056431857
20
-90.701719305623271
0
LINE
5
142
100
AcDbEntity
8
0
100
AcDbLine
10
14.06833497298836
20
-88.233254087118453
30
0
11
15.517969404428252
21
-88.465351943434769
31
0
0
SPLINE
5
143
100
AcDbEntity
8
0
100
AcDbSpline
70
0
71
2
72
6
73
3
74
0
42
0.000000001
43
0.0000000001
44
0.0000000001
40
0
40
0
40
0
40
1
40
1
40
1
10
15.51796940442825
20
-88.465351943434769
30
0
10
15.08289416843089
20
-89.641060022972397
30
0
10
14.227642899309906
20
-90.256865392454017
30
0
0
SPLINE
5
144
100
AcDbEntity
8
0
100
AcDbSpline
70
0
71
2
72
6
73
3
74
0
42
0.000000001
43
0.0000000001
44
0.0000000001
40
0
40
0
40
0
40
1
40
1
40
1
10
14.227642899309906
20
-90.256865392454017
30
0
10
13.372391630188925
20
-90.87267076193568
30
0
10
12.231233611010722
20
-90.86287458819632
30
0
0
SPLINE
5
145
100
AcDbEntity
8
0
100
AcDbSpline
70
0
71
2
72
6
73
3
74
0
42
0.000000001
43
0.0000000001
44
0.0000000001
40
0
40
0
40
0
40
1
40
1
40
1
10
12.231233611010722
20
-90.86287458819632
30
0
10
10.946834218923772
20
-90.851848771101629
30
0
10
10.230105612589483
20
-90.072133991627936
30
0
0
SPLINE
5
146
100
AcDbEntity
8
0
100
AcDbSpline
70
0
71
2
72
6
73
3
74
0
42
0.000000001
43
0.0000000001
44
0.0000000001
40
0
40
0
40
0
40
1
40
1
40
1
10
10.230105612589483
20
-90.072133991627936
30
0
10
9.5133746221572437
20
-89.292419191688182
30
0
10
9.5259989838003101
20
-87.821805061180669
30
0
0
SPLINE
5
147
100
AcDbEntity
8
0
100
AcDbSpline
70
0
71
2
72
6
73
3
74
0
42
0.000000001
43
0.0000000001
44
0.0000000001
40
0
40
0
40
0
40
1
40
1
40
1
10
9.5259989838003101
20
-87.821805061180669
30
0
10
9.5362460330803209
20
-86.628124470172395
30
0
10
10.029385743448348
20
-85.641530257100527
30
0
0
SPLINE
5
148
100
AcDbEntity
8
0
100
AcDbSpline
70
0
71
2
72
6
73
3
74
0
42
0.000000001
43
0.0000000001
44
0.0000000001
40
0
40
0
40
0
40
1
40
1
40
1
10
10.029385743448348
20
-85.641530257100527
30
0
10
10.52252545637463
20
-84.654935746016406
30
0
10
11.386482392952072
20
-84.137094444117068
30
0
0
SPLINE
5
149
100
AcDbEntity
8
0
100
AcDbSpline
70
0
71
2
72
6
73
3
74
0
42
0.000000001
43
0.0000000001
44
0.0000000001
40
0
40
0
40
0
40
1
40
1
40
1
10
11.386482392952072
20
-84.137094444117068
30
0
10
12.250441713627463
20
-83.619253162683819
30
0
10
13.262682020368196
20
-83.627942653310129
30
0
0
SPLINE
5
150
100
AcDbEntity
8
0
100
AcDbSpline
70
0
71
2
72
6
73
3
74
0
42
0.000000001
43
0.0000000001
44
0.0000000001
40
0
40
0
40
0
40
1
40
1
40
1
10
13.262682020368196
20
-83.627942653310129
30
0
10
14.399067075454607
20
-83.637697853946108
30
0
10
15.095724285033821
20
-84.252500137391664
30
0
0
SPLINE
5
151
100
AcDbEntity
8
0
100
AcDbSpline
70
0
71
2
72
6
73
3
74
0
42
0.000000001
43
0.0000000001
44
0.0000000001
40
0
40
0
40
0
40
1
40
1
40
1
10
15.095724285033821
20
-84.252500137391664
30
0
10
15.792381494613043
20
-84.86730242083722
30
0
10
15.907508844708818
20
-85.918806454909657
30
0
0
LINE
5
152
100
AcDbEntity
8
0
100
AcDbLine
10
15.907508844708818
20
-85.918806454909657
30
0
11
14.526464356211065
21
-86.040653014880419
31
0
0
SPLINE
5
153
100
AcDbEntity
8
0
100
AcDbSpline
70
0
71
2
72
6
73
3
74
0
42
0.000000001
43
0.0000000001
44
0.0000000001
40
0
40
0
40
0
40
1
40
1
40
1
10
14.526464356211065
20
-86.040653014880419
30
0
10
14.417116787848073
20
-85.428505485040418
30
0
10
14.092408750013664
20
-85.151151065179462
30
0
0
SPLINE
5
154
100
AcDbEntity
8
0
100
AcDbSpline
70
0
71
2
72
6
73
3
74
0
42
0.000000001
43
0.0000000001
44
0.0000000001
40
0
40
0
40
0
40
1
40
1
40
1
10
14.092408750013664
20
-85.151151065179462
30
0
10
13.767695943983359
20
-84.873796604386357
30
0
10
13.223377773290931
20
-84.869123951449623
30
0
0
SPLINE
5
155
100
AcDbEntity
8
0
100
AcDbSpline
70
0
71
2
72
6
73
3
74
0
42
0.000000001
43
0.0000000001
44
0.0000000001
40
0
40
0
40
0
40
1
40
1
40
1
10
13.223377773290931
20
-84.869123951449623
30
0
10
12.626537924805167
20
-84.864000430646996
30
0
10
12.105363101837114
20
-85.222432567663233
30
0
0
SPLINE
5
156
100
AcDbEntity
8
0
100
AcDbSpline
70
0
71
2
72
6
73
3
74
0
42
0.000000001
43
0.0000000001
44
0.0000000001
40
0
40
0
40
0
40
1
40
1
40
1
10
12.105363101837114
20
-85.222432567663233
30
0
10
11.584193052181494
20
-85.580864149587143
30
0
10
11.267216360411116
20
-86.349317025963899
30
0
0
SPLINE
5
157
100
AcDbEntity
8
0
100
AcDbSpline
70
0
71
2
72
6
73
3
74
0
42
0.000000001
43
0.0000000001
44
0.0000000001
40
0
40
0
40
0
40
1
40
1
40
1
10
11.267216360411116
20
-86.349317025963899
30
0
10
10.950239663524215
20
-87.117770498365147
30
0
10
10.943640568648583
20
-87.886500232751217
30
0
0
SPLINE
5
158
100
AcDbEntity
8
0
100
AcDbSpline
70
0
71
2
72
6
73
3
74
0
42
0.000000001
43
0.0000000001
44
0.0000000001
40
0
40
0
40
0
40
1
40
1
40
1
10
10.943640568648583
20
-87.886500232751217
30
0
10
10.936426641862234
20
-88.726851845640624
30
0
10
11.33595505579159
20
-89.188688569515989
30
0
0
SPLINE
5
159
100
AcDbEntity
8
0
100
AcDbSpline
70
0
71
2
72
6
73
3
74
0
42
0.000000001
43
0.0000000001
44
0.0000000001
40
0
40
0
40
0
40
1
40
1
40
1
10
11.33595505579159
20
-89.188688569515989
30
0
10
11.735483469720943
20
-89.650525293391354
30
0
10
12.337101050494411
20
-89.655689828229526
30
0
0
SPLINE
5
160
100
AcDbEntity
8
0
100
AcDbSpline
70
0
71
2
72
6
73
3
74
0
42
0.000000001
43
0.0000000001
44
0.0000000001
40
0
40
0
40
0
40
1
40
1
40
1
10
12.337101050494411
20
-89.655689828229526
30
0
10
12.895742881658116
20
-89.660485441408582
30
0
10
13.364391253520406
20
-89.301602991618779
30
0
0
SPLINE
5
161
100
AcDbEntity
8
0
100
AcDbSpline
70
0
71
2
72
6
73
3
74
0
42
0.000000001
43
0.0000000001
44
0.0000000001
40
0
40
0
40
0
40
1
40
1
40
1
10
13.364391253520406
20
-89.301602991618779
30
0
10
13.833044393578579
20
-88.942720582761154
30
0
10
14.06833497298836
20
-88.233254087118453
30
0
0
SPLINE
5
162
100
AcDbEntity
8
0
100
AcDbSpline
70
0
71
2
72
6
73
3
74
0
42
0.000000001
43
0.0000000001
44
0.0000000001
40
0
40
0
40
0
40
1
40
1
40
1
10
16.514920218951396
20
-88.029828488536737
30
0
10
16.520248687135265
20
-87.409114283200182
30
0
10
16.712363340308197
20
-86.723152965669058
30
0
0
SPLINE
5
163
100
AcDbEntity
8
0
100
AcDbSpline
70
0
71
2
72
6
73
3
74
0
42
0.000000001
43
0.0000000001
44
0.0000000001
40
0
40
0
40
0
40
1
40
1
40
1
10
16.712363340308197
20
-86.723152965669058
30
0
10
16.963785824965228
20
-85.803722164002977
30
0
10
17.468564470044395
20
-85.129995091912065
30
0
0
SPLINE
5
164
100
AcDbEntity
8
0
100
AcDbSpline
70
0
71
2
72
6
73
3
74
0
42
0.000000001
43
0.0000000001
44
0.0000000001
40
0
40
0
40
0
40
1
40
1
40
1
10
17.468564470044395
20
-85.129995091912065
30
0
10
17.973343117681807
20
-84.456267721808928
30
0
10
18.735907256179022
20
-84.068870488721217
30
0
0
SPLINE
5
165
100
AcDbEntity
8
0
100
AcDbSpline
70
0
71
2
72
6
73
3
74
0
42
0.000000001
43
0.0000000001
44
0.0000000001
40
0
40
0
40
0
40
1
40
1
40
1
10
18.735907256179022
20
-84.068870488721217
30
0
10
19.498466626480337
20
-83.681473214701327
30
0
10
20.46773595180721
20
-83.689793824600699
30
0
0
SPLINE
5
166
100
AcDbEntity
8
0
100
AcDbSpline
70
0
71
2
72
6
73
3
74
0
42
0.000000001
43
0.0000000001
44
0.0000000001
40
0
40
0
40
0
40
1
40
1
40
1
10
20.46773595180721
20
-83.689793824600699
30
0
10
21.766459004365451
20
-83.700942601937726
30
0
10
22.559301499485652
20
-84.514735906723018
30
0
0
SPLINE
5
167
100
AcDbEntity
8
0
100
AcDbSpline
70
0
71
2
72
6
73
3
74
0
42
0.000000001
43
0.0000000001
44
0.0000000001
40
0
40
0
40
0
40
1
40
1
40
1
10
22.559301499485652
20
-84.514735906723018
30
0
10
23.352139226409957
20
-85.328529170576161
30
0
10
23.34070352222755
20
-86.660676382327921
30
0
0
SPLINE
5
168
100
AcDbEntity
8
0
100
AcDbSpline
70
0
71
2
72
6
73
3
74
0
42
0.000000001
43
0.0000000001
44
0.0000000001
40
0
40
0
40
0
40
1
40
1
40
1
10
23.34070352222755
20
-86.660676382327921
30
0
10
23.331194259984041
20
-87.76841203038606
30
0
10
22.801856008134823
20
-88.80005898842208
30
0
0
SPLINE
5
169
100
AcDbEntity
8
0
100
AcDbSpline
70
0
71
2
72
6
73
3
74
0
42
0.000000001
43
0.0000000001
44
0.0000000001
40
0
40
0
40
0
40
1
40
1
40
1
10
22.801856008134823
20
-88.80005898842208
30
0
10
22.272517756285591
20
-89.831705946458115
30
0
10
21.374848847307263
20
-90.382683578994062
30
0
0
SPLINE
5
170
100
AcDbEntity
8
0
100
AcDbSpline
70
0
71
2
72
6
73
3
74
0
42
0.000000001
43
0.0000000001
44
0.0000000001
40
0
40
0
40
0
40
1
40
1
40
1
10
21.374848847307263
20
-90.382683578994062
30
0
10
20.477179938328941
20
-90.933661211530023
30
0
10
19.350345579622029
20
-90.923987998032985
30
0
0
SPLINE
5
171
100
AcDbEntity
8
0
100
AcDbSpline
70
0
71
2
72
6
73
3
74
0
42
0.000000001
43
0.0000000001
44
0.0000000001
40
0
40
0
40
0
40
1
40
1
40
1
10
19.350345579622029
20
-90.923987998032985
30
0
10
18.371525557915657
20
-90.915585400994686
30
0
10
17.711652276823159
20
-90.465838484812849
30
0
0
SPLINE
5
172
100
AcDbEntity
8
0
100
AcDbSpline
70
0
71
2
72
6
73
3
74
0
42
0.000000001
43
0.0000000001
44
0.0000000001
40
0
40
0
40
0
40
1
40
1
40
1
10
17.711652276823159
20
-90.465838484812849
30
0
10
17.051778990614142
20
-90.016092164655532
30
0
10
16.780478046886419
20
-89.357190871612346
30
0
0
SPLINE
5
173
100
AcDbEntity
8
0
100
AcDbSpline
70
0
71
2
72
6
73
3
74
0
42
0.000000001
43
0.0000000001
44
0.0000000001
40
0
40
0
40
0
40
1
40
1
40
1
10
16.780478046886419
20
-89.357190871612346
30
0
10
16.509181876471114
20
-88.698289023476889
30
0
10
16.514920218951396
20
-88.029828488536737
30
0
0
SPLINE
5
174
100
AcDbEntity
8
0
100
AcDbSpline
70
0
71
2
72
6
73
3
74
0
42
0.000000001
43
0.0000000001
44
0.0000000001
40
0
40
0
40
0
40
1
40
1
40
1
10
17.938033950572972
20
-88.013394462891839
30
0
10
17.931844735110282
20
-88.734377271649819
30
0
10
18.36693875359812
20
-89.225169929588603
30
0
0
SPLINE
5
175
100
AcDbEntity
8
0
100
AcDbSpline
70
0
71
2
72
6
73
3
74
0
42
0.000000001
43
0.0000000001
44
0.0000000001
40
0
40
0
40
0
40
1
40
1
40
1
10
18.36693875359812
20
-89.225169929588603
30
0
10
18.802032777202481
20
-89.715961991502908
30
0
10
19.518239641746224
20
-89.722110208279616
30
0
0
SPLINE
5
176
100
AcDbEntity
8
0
100
AcDbSpline
70
0
71
2
72
6
73
3
74
0
42
0.000000001
43
0.0000000001
44
0.0000000001
40
0
40
0
40
0
40
1
40
1
40
1
10
19.518239641746224
20
-89.722110208279616
30
0
10
20.100755829760711
20
-89.727110768839907
30
0
10
20.641211717655313
20
-89.347357074462451
30
0
0
SPLINE
5
177
100
AcDbEntity
8
0
100
AcDbSpline
70
0
71
2
72
6
73
3
74
0
42
0.000000001
43
0.0000000001
44
0.0000000001
40
0
40
0
40
0
40
1
40
1
40
1
10
20.641211717655313
20
-89.347357074462451
30
0
10
21.181667605549915
20
-88.967603380084995
30
0
10
21.539308392054458
20
-88.189949075074665
30
0
0
SPLINE
5
178
100
AcDbEntity
8
0
100
AcDbSpline
70
0
71
2
72
6
73
3
74
0
42
0.000000001
43
0.0000000001
44
0.0000000001
40
0
40
0
40
0
40
1
40
1
40
1
10
21.539308392054458
20
-88.189949075074665
30
0
10
21.896953946754895
20
-87.412294810996499
30
0
10
21.903307118587637
20
-86.672212695565236
30
0
0
SPLINE
5
179
100
AcDbEntity
8
0
100
AcDbSpline
70
0
71
2
72
6
73
3
74
0
42
0.000000001
43
0.0000000001
44
0.0000000001
40
0
40
0
40
0
40
1
40
1
40
1
10
21.903307118587637
20
-86.672212695565236
30
0
10
21.91039807489862
20
-85.846185935196075
30
0
10
21.470387632733669
20
-85.372063936732317
30
0
0
SPLINE
5
180
100
AcDbEntity
8
0
100
AcDbSpline
70
0
71
2
72
6
73
3
74
0
42
0.000000001
43
0.0000000001
44
0.0000000001
40
0
40
0
40
0
40
1
40
1
40
1
10
21.470387632733669
20
-85.372063936732317
30
0
10
21.030372419814572
20
-84.897942195348605
30
0
10
20.342812876213397
20
-84.892039899056542
30
0
0
SPLINE
5
181
100
AcDbEntity
8
0
100
AcDbSpline
70
0
71
2
72
6
73
3
74
0
42
0.000000001
43
0.0000000001
44
0.0000000001
40
0
40
0
40
0
40
1
40
1
40
1
10
20.342812876213397
20
-84.892039899056542
30
0
10
19.287601588058806
20
-84.882981527703265
30
0
10
18.617856936789444
20
-85.860896736639475
30
0
0
SPLINE
5
182
100
AcDbEntity
8
0
100
AcDbSpline
70
0
71
2
72
6
73
3
74
0
42
0.000000001
43
0.0000000001
44
0.0000000001
40
0
40
0
40
0
40
1
40
1
40
1
10
18.617856936789444
20
-85.860896736639475
30
0
10
17.94811704859946
20
-86.838812582532356
30
0
10
17.938033950572972
20
-88.013394462891839
30
0
0
ENDSEC
0
SECTION
2
OBJECTS
0
DICTIONARY
5
C
100
AcDbDictionary
3
ACAD_GROUP
350
D
3
ACAD_MLINESTYLE
350
17
0
DICTIONARY
5
D
100
AcDbDictionary
0
DICTIONARY
5
1A
330
C
100
AcDbDictionary
0
DICTIONARY
5
17
100
AcDbDictionary
0
ENDSEC
0
EOF
