0
SECTION
2
HEADER
9
$INSUNITS
70
4
9
$ACADVER
1
AC1014
9
$HANDSEED
5
FFFF
0
ENDSEC
0
SECTION
2
TABLES
0
TABLE
2
VPORT
5
8
100
AcDbSymbolTable
0
ENDTAB
0
TABLE
2
LTYPE
5
5
100
AcDbSymbolTable
0
LTYPE
5
14
100
AcDbSymbolTableRecord
100
AcDbLinetypeTableRecord
2
BYBLOCK
70
0
0
LTYPE
5
15
100
AcDbSymbolTableRecord
100
AcDbLinetypeTableRecord
2
BYLAYER
70
0
0
ENDTAB
0
TABLE
2
LAYER
5
2
100
AcDbSymbolTable
70
2
0
LAYER
5
50
100
AcDbSymbolTableRecord
100
AcDbLayerTableRecord
2
0
70
0
6
CONTINUOUS
0
ENDTAB
0
TABLE
2
STYLE
5
3
100
AcDbSymbolTable
70
1
0
STYLE
5
11
100
AcDbSymbolTableRecord
100
AcDbTextStyleTableRecord
2
STANDARD
70
0
0
ENDTAB
0
TABLE
2
VIEW
5
6
100
AcDbSymbolTable
70
0
0
ENDTAB
0
TABLE
2
UCS
5
7
100
AcDbSymbolTable
70
0
0
ENDTAB
0
TABLE
2
APPID
5
9
100
AcDbSymbolTable
70
2
0
APPID
5
12
100
AcDbSymbolTableRecord
100
AcDbRegAppTableRecord
2
ACAD
70
0
0
ENDTAB
0
TABLE
2
DIMSTYLE
5
A
100
AcDbSymbolTable
70
1
0
ENDTAB
0
TABLE
2
BLOCK_RECORD
5
1
100
AcDbSymbolTable
70
1
0
BLOCK_RECORD
5
1F
100
AcDbSymbolTableRecord
100
AcDbBlockTableRecord
2
*MODEL_SPACE
0
BLOCK_RECORD
5
1B
100
AcDbSymbolTableRecord
100
AcDbBlockTableRecord
2
*PAPER_SPACE
0
ENDTAB
0
ENDSEC
0
SECTION
2
BLOCKS
0
BLOCK
5
20
100
AcDbEntity
100
AcDbBlockBegin
2
*MODEL_SPACE
0
ENDBLK
5
21
100
AcDbEntity
100
AcDbBlockEnd
0
BLOCK
5
1C
100
AcDbEntity
100
AcDbBlockBegin
2
*PAPER_SPACE
0
ENDBLK
5
1D
100
AcDbEntity
100
AcDbBlockEnd
0
ENDSEC
0
SECTION
2
ENTITIES
0
LWPOLYLINE
5
100
100
AcDbEntity
8
0
100
AcDbPolyline
90
8
70
1
43
0.0
10
-1.8383339047431946
20
-150
10
2.1009561419487
20
-150
10
1.927013099193573
20
-150.83560705184939
10
0.48090189695358276
20
-150.83560705184939
10
-0.38881093263626093
20
-155
10
-1.4188244938850405
20
-155
10
-0.54570227861404419
20
-150.83560705184939
10
-2.0122769474983206
20
-150.83560705184939
0
LWPOLYLINE
5
101
100
AcDbEntity
8
0
100
AcDbPolyline
90
4
70
1
43
0.0
10
2.6875850558280945
20
-155
10
1.6575714945793152
20
-155
10
2.7046391367912288
20
-150
10
3.7312409281730652
20
-150
0
SPLINE
5
102
100
AcDbEntity
8
0
100
AcDbSpline
70
0
71
2
72
6
73
3
74
0
42
0.000000001
43
0.0000000001
44
0.0000000001
40
0
40
0
40
0
40
1
40
1
40
1
10
-5.8850601315498352
20
-152.44713515043259
30
0
10
-6.1527970433235168
20
-152.27830857038495
30
0
10
-6.3062742352485657
20
-152.00886785984042
30
0
0
SPLINE
5
103
100
AcDbEntity
8
0
100
AcDbSpline
70
0
71
2
72
6
73
3
74
0
42
0.000000001
43
0.0000000001
44
0.0000000001
40
0
40
0
40
0
40
1
40
1
40
1
10
-6.3062742352485657
20
-152.00886785984042
30
0
10
-6.4597538113594055
20
-151.73942714929581
30
0
10
-6.4597538113594055
20
-151.37789934873581
30
0
0
SPLINE
5
104
100
AcDbEntity
8
0
100
AcDbSpline
70
0
71
2
72
6
73
3
74
0
42
0.000000001
43
0.0000000001
44
0.0000000001
40
0
40
0
40
0
40
1
40
1
40
1
10
-3.4720328450202942
20
-152.60914087295529
30
0
10
-3.1207373738288879
20
-152.95020490884781
30
0
10
-3.1207373738288879
20
-153.48567545413971
30
0
0
LWPOLYLINE
5
105
100
AcDbEntity
8
0
100
AcDbPolyline
90
10
70
1
43
0.0
10
12.087311446666718
20
-152.87175983190539
10
11.643929183483126
20
-155
10
10.613913238048552
20
-155
10
11.660980880260468
20
-150
10
15.160298049449921
20
-150
10
14.98294323682785
20
-150.83560705184939
10
12.513642013072968
20
-150.83560705184939
10
12.261252105236053
20
-152.036152780056
10
14.682807624340057
20
-152.036152780056
10
14.508866965770721
20
-152.87175983190539
0
SPLINE
5
106
100
AcDbEntity
8
0
100
AcDbSpline
70
0
71
2
72
6
73
3
74
0
42
0.000000001
43
0.0000000001
44
0.0000000001
40
0
40
0
40
0
40
1
40
1
40
1
10
5.2523872256278992
20
-151.87073707580566
30
0
10
5.0306937098503113
20
-152.421555519104
30
0
10
5.0306937098503113
20
-152.97066867351532
30
0
0
SPLINE
5
107
100
AcDbEntity
8
0
100
AcDbSpline
70
0
71
2
72
6
73
3
74
0
42
0.000000001
43
0.0000000001
44
0.0000000001
40
0
40
0
40
0
40
1
40
1
40
1
10
5.3240105509757996
20
-150.28990507125852
30
0
10
5.9379240870475769
20
-149.91473436355591
30
0
10
6.6609808802604684
20
-149.91473436355591
30
0
0
LINE
5
108
100
AcDbEntity
8
0
100
AcDbLine
10
7.2646638751029968
20
-153.19918155670166
30
0
11
8.3014985918998718
21
-153.3560711145401
31
0
0
SPLINE
5
109
100
AcDbEntity
8
0
100
AcDbSpline
70
0
71
2
72
6
73
3
74
0
42
0.000000001
43
0.0000000001
44
0.0000000001
40
0
40
0
40
0
40
1
40
1
40
1
10
-5.3103688359260559
20
-151.61323338747025
30
0
10
-5.1432469487190247
20
-151.7564803361893
30
0
10
-4.5702579617500323
20
-152.00545728206637
30
0
0
SPLINE
5
110
100
AcDbEntity
8
0
100
AcDbSpline
70
0
71
2
72
6
73
3
74
0
42
0.000000001
43
0.0000000001
44
0.0000000001
40
0
40
0
40
0
40
1
40
1
40
1
10
7.5784441828727722
20
-151.6302868723869
30
0
10
7.4965879321098337
20
-151.19372487068173
30
0
10
7.2629591822624198
20
-150.9976130723953
30
0
0
SPLINE
5
111
100
AcDbEntity
8
0
100
AcDbSpline
70
0
71
2
72
6
73
3
74
0
42
0.000000001
43
0.0000000001
44
0.0000000001
40
0
40
0
40
0
40
1
40
1
40
1
10
5.8441326022148132
20
-151.06070995330813
30
0
10
5.474078357219696
20
-151.3199186325073
30
0
10
5.2523872256278992
20
-151.87073707580566
30
0
0
SPLINE
5
112
100
AcDbEntity
8
0
100
AcDbSpline
70
0
71
2
72
6
73
3
74
0
42
0.000000001
43
0.0000000001
44
0.0000000001
40
0
40
0
40
0
40
1
40
1
40
1
10
-5.2950194478034964
20
-150.87994575500488
30
0
10
-5.4774907231330872
20
-151.030013859272
30
0
10
-5.4774907231330872
20
-151.25852674245834
30
0
0
SPLINE
5
113
100
AcDbEntity
8
0
100
AcDbSpline
70
0
71
2
72
6
73
3
74
0
42
0.000000001
43
0.0000000001
44
0.0000000001
40
0
40
0
40
0
40
1
40
1
40
1
10
6.6609808802604684
20
-149.91473436355591
30
0
10
7.4727150797843933
20
-149.91473436355591
30
0
10
7.974078357219696
20
-150.34959137439728
30
0
0
LINE
5
114
100
AcDbEntity
8
0
100
AcDbLine
10
8.5641190409660357
20
-151.53478890657425
30
0
11
7.5784441828727722
21
-151.6302868723869
31
0
0
LWPOLYLINE
5
115
100
AcDbEntity
8
0
100
AcDbPolyline
90
7
70
1
43
0.0
10
21.070942580699924
20
-150
10
22.090725600719448
20
-150
10
19.334926307201389
20
-155
10
18.236698806285851
20
-155
10
17.339701354503635
20
-150
10
18.366303145885471
20
-150
10
19.000682532787327
20
-153.7824010848999
0
LWPOLYLINE
5
116
100
AcDbEntity
8
0
100
AcDbPolyline
90
4
70
1
43
0.0
10
15.879950225353241
20
-155
10
14.849934279918672
20
-155
10
15.897001922130586
20
-150
10
16.923603713512421
20
-150
0
SPLINE
5
117
100
AcDbEntity
8
0
100
AcDbSpline
70
0
71
2
72
6
73
3
74
0
42
0.000000001
43
0.0000000001
44
0.0000000001
40
0
40
0
40
0
40
1
40
1
40
1
10
-3.3168485760688786
20
-150.32742172479632
30
0
10
-2.8342416882514958
20
-150.74010938405991
30
0
10
-2.7864935994148254
20
-151.42564833164215
30
0
0
SPLINE
5
118
100
AcDbEntity
8
0
100
AcDbSpline
70
0
71
2
72
6
73
3
74
0
42
0.000000001
43
0.0000000001
44
0.0000000001
40
0
40
0
40
0
40
1
40
1
40
1
10
-6.8860843777656564
20
-154.26671206951141
30
0
10
-7.0804908871650696
20
-153.88130962848663
30
0
10
-7.0668485760688782
20
-153.37994575500488
30
0
0
SPLINE
5
119
100
AcDbEntity
8
0
100
AcDbSpline
70
0
71
2
72
6
73
3
74
0
42
0.000000001
43
0.0000000001
44
0.0000000001
40
0
40
0
40
0
40
1
40
1
40
1
10
-3.7721684575080872
20
-151.46998643875122
30
0
10
-3.809686005115509
20
-151.1118692159653
30
0
10
-4.0313771367073059
20
-150.9208732843399
30
0
0
LWPOLYLINE
5
120
100
AcDbEntity
8
0
100
AcDbPolyline
90
12
70
1
43
0.0
10
25.569576919078827
20
-152.80695766210556
10
22.980899512767788
20
-152.80695766210556
10
22.667121589183807
20
-154.16439294815061
10
25.576395690441132
20
-154.16439294815061
10
25.399040877819061
20
-155
10
21.49385899305344
20
-155
10
22.537517249584198
20
-150
10
26.244883239269257
20
-150
10
26.070937812328339
20
-150.83560705184939
10
23.39358776807785
20
-150.83560705184939
10
23.154840171337128
20
-151.9713506102562
10
25.743517577648163
20
-151.9713506102562
0
SPLINE
5
121
100
AcDbEntity
8
0
100
AcDbSpline
70
0
71
2
72
6
73
3
74
0
42
0.000000001
43
0.0000000001
44
0.0000000001
40
0
40
0
40
0
40
1
40
1
40
1
10
5.9686204791069031
20
-155.08867681026459
30
0
10
5.0511595606803885
20
-155.08867681026459
30
0
10
4.5344468951225281
20
-154.53615307807922
30
0
0
SPLINE
5
122
100
AcDbEntity
8
0
100
AcDbSpline
70
0
71
2
72
6
73
3
74
0
42
0.000000001
43
0.0000000001
44
0.0000000001
40
0
40
0
40
0
40
1
40
1
40
1
10
-5.4774907231330872
20
-151.25852674245834
30
0
10
-5.4774907231330872
20
-151.47339731454846
30
0
10
-5.3103688359260559
20
-151.61323338747025
30
0
0
SPLINE
5
123
100
AcDbEntity
8
0
100
AcDbSpline
70
0
71
2
72
6
73
3
74
0
42
0.000000001
43
0.0000000001
44
0.0000000001
40
0
40
0
40
0
40
1
40
1
40
1
10
7.2629591822624198
20
-150.9976130723953
30
0
10
7.0293304324150085
20
-150.80150127410886
30
0
10
6.6405174136161804
20
-150.80150127410886
30
0
0
SPLINE
5
124
100
AcDbEntity
8
0
100
AcDbSpline
70
0
71
2
72
6
73
3
74
0
42
0.000000001
43
0.0000000001
44
0.0000000001
40
0
40
0
40
0
40
1
40
1
40
1
10
4.5344468951225281
20
-154.53615307807922
30
0
10
4.0177342295646667
20
-153.98362874984741
30
0
10
4.0177342295646667
20
-152.93315172195437
30
0
0
LINE
5
125
100
AcDbEntity
8
0
100
AcDbLine
10
-2.7864935994148254
20
-151.42564833164215
30
0
11
-3.7721684575080872
21
-151.46998643875122
31
0
0
SPLINE
5
126
100
AcDbEntity
8
0
100
AcDbSpline
70
0
71
2
72
6
73
3
74
0
42
0.000000001
43
0.0000000001
44
0.0000000001
40
0
40
0
40
0
40
1
40
1
40
1
10
-4.5702579617500323
20
-152.00545728206637
30
0
10
-3.7073662877082825
20
-152.37721711397171
30
0
10
-3.4720328450202942
20
-152.60914087295529
30
0
0
SPLINE
5
127
100
AcDbEntity
8
0
100
AcDbSpline
70
0
71
2
72
6
73
3
74
0
42
0.000000001
43
0.0000000001
44
0.0000000001
40
0
40
0
40
0
40
1
40
1
40
1
10
-4.6793988347053528
20
-149.91473436355591
30
0
10
-3.79945307970047
20
-149.91473436355591
30
0
10
-3.3168485760688786
20
-150.32742172479632
30
0
0
SPLINE
5
128
100
AcDbEntity
8
0
100
AcDbSpline
70
0
71
2
72
6
73
3
74
0
42
0.000000001
43
0.0000000001
44
0.0000000001
40
0
40
0
40
0
40
1
40
1
40
1
10
-5.1023200154304496
20
-155.08526623249054
30
0
10
-5.746929943561554
20
-155.08526623249054
30
0
10
-6.2193039059638977
20
-154.86869037151337
30
0
0
SPLINE
5
129
100
AcDbEntity
8
0
100
AcDbSpline
70
0
71
2
72
6
73
3
74
0
42
0.000000001
43
0.0000000001
44
0.0000000001
40
0
40
0
40
0
40
1
40
1
40
1
10
6.6405174136161804
20
-150.80150127410886
30
0
10
6.2141868472099304
20
-150.80150127410886
30
0
10
5.8441326022148132
20
-151.06070995330813
30
0
0
SPLINE
5
130
100
AcDbEntity
8
0
100
AcDbSpline
70
0
71
2
72
6
73
3
74
0
42
0.000000001
43
0.0000000001
44
0.0000000001
40
0
40
0
40
0
40
1
40
1
40
1
10
4.0177342295646667
20
-152.93315172195437
30
0
10
4.0177342295646667
20
-152.08049148321155
30
0
10
4.3639132380485535
20
-151.37278348207477
30
0
0
SPLINE
5
131
100
AcDbEntity
8
0
100
AcDbSpline
70
0
71
2
72
6
73
3
74
0
42
0.000000001
43
0.0000000001
44
0.0000000001
40
0
40
0
40
0
40
1
40
1
40
1
10
8.3014985918998718
20
-153.3560711145401
30
0
10
7.9979512095451355
20
-154.19849932193756
30
0
10
7.3908588290214547
20
-154.6435880661011
30
0
0
SPLINE
5
132
100
AcDbEntity
8
0
100
AcDbSpline
70
0
71
2
72
6
73
3
74
0
42
0.000000001
43
0.0000000001
44
0.0000000001
40
0
40
0
40
0
40
1
40
1
40
1
10
-6.2193039059638977
20
-154.86869037151337
30
0
10
-6.6916778683662415
20
-154.65211451053619
30
0
10
-6.8860843777656564
20
-154.26671206951141
30
0
0
SPLINE
5
133
100
AcDbEntity
8
0
100
AcDbSpline
70
0
71
2
72
6
73
3
74
0
42
0.000000001
43
0.0000000001
44
0.0000000001
40
0
40
0
40
0
40
1
40
1
40
1
10
-4.6862199902534485
20
-150.72987735271454
30
0
10
-5.1125505566596985
20
-150.72987735271454
30
0
10
-5.2950194478034964
20
-150.87994575500488
30
0
0
SPLINE
5
134
100
AcDbEntity
8
0
100
AcDbSpline
70
0
71
2
72
6
73
3
74
0
42
0.000000001
43
0.0000000001
44
0.0000000001
40
0
40
0
40
0
40
1
40
1
40
1
10
-3.644271194934845
20
-154.61630284786224
30
0
10
-4.167802631855011
20
-155.08526623249054
30
0
10
-5.1023200154304496
20
-155.08526623249054
30
0
0
SPLINE
5
135
100
AcDbEntity
8
0
100
AcDbSpline
70
0
71
2
72
6
73
3
74
0
42
0.000000001
43
0.0000000001
44
0.0000000001
40
0
40
0
40
0
40
1
40
1
40
1
10
7.3908588290214547
20
-154.6435880661011
30
0
10
6.7837640643119812
20
-155.08867681026459
30
0
10
5.9686204791069031
20
-155.08867681026459
30
0
0
SPLINE
5
136
100
AcDbEntity
8
0
100
AcDbSpline
70
0
71
2
72
6
73
3
74
0
42
0.000000001
43
0.0000000001
44
0.0000000001
40
0
40
0
40
0
40
1
40
1
40
1
10
4.3639132380485535
20
-151.37278348207477
30
0
10
4.7100946307182312
20
-150.66507548093799
30
0
10
5.3240105509757996
20
-150.28990507125852
30
0
0
SPLINE
5
137
100
AcDbEntity
8
0
100
AcDbSpline
70
0
71
2
72
6
73
3
74
0
42
0.000000001
43
0.0000000001
44
0.0000000001
40
0
40
0
40
0
40
1
40
1
40
1
10
7.974078357219696
20
-150.34959137439728
30
0
10
8.4754416346549988
20
-150.7844480872154
30
0
10
8.5641190409660357
20
-151.53478890657425
30
0
0
SPLINE
5
138
100
AcDbEntity
8
0
100
AcDbSpline
70
0
71
2
72
6
73
3
74
0
42
0.000000001
43
0.0000000001
44
0.0000000001
40
0
40
0
40
0
40
1
40
1
40
1
10
-3.1207373738288879
20
-153.48567545413971
30
0
10
-3.1207373738288879
20
-154.14733946323398
30
0
10
-3.644271194934845
20
-154.61630284786224
30
0
0
LWPOLYLINE
5
139
100
AcDbEntity
8
0
100
AcDbPolyline
90
2
70
1
43
0.0
10
14.972735349029161
20
-81.486232764908777
10
30
20
-81.486232764908777
0
LWPOLYLINE
5
140
100
AcDbEntity
8
0
100
AcDbPolyline
90
2
70
1
43
0.0
10
-60
20
-70
10
-60
20
-90
0
LWPOLYLINE
5
141
100
AcDbEntity
8
0
100
AcDbPolyline
90
76
70
1
43
0.0
10
60
20
-90
10
60
20
-70
10
40
20
-90
10
30
20
-90
10
30
20
-81.486232764908777
10
30
20
-90
10
30
20
-81.486232764908777
10
14.972735349029161
20
-81.486232764908777
10
14.972735349029161
20
-50
10
20
20
-50
10
30
20
-20
10
40
20
-20
10
50
20
0
10
60
20
0
10
60
20
130
10
60
20
0
10
50
20
0
10
40
20
-20
10
30
20
-20
10
20
20
-50
10
30
20
-20
10
20
20
-50
10
30
20
-20
10
40
20
-20
10
50
20
0
10
40
20
-20
10
30
20
-20
10
40
20
-20
10
50
20
0
10
60
20
0
10
60
20
130
10
-60
20
130
10
-60
20
0
10
-50
20
0
10
-40
20
-20
10
-50
20
0
10
-60
20
0
10
-60
20
130
10
60
20
130
10
60
20
0
10
50
20
0
10
60
20
0
10
60
20
130
10
-60
20
130
10
-60
20
0
10
-60
20
130
10
60
20
130
10
-60
20
130
10
-60
20
0
10
-50
20
0
10
-40
20
-20
10
-30
20
-20
10
-20
20
-50
10
-14.396860912528098
20
-50
10
-14.396860912528098
20
-81.486232764908777
10
-30.521345134559468
20
-81.486232764908777
10
-30.521345134559468
20
-90
10
-40
20
-90
10
-60
20
-70
10
-60
20
-90
10
-50
20
-110
10
50
20
-110
10
60
20
-90
10
60
20
-70
10
60
20
-90
10
50
20
-110
10
-50
20
-110
10
-60
20
-90
10
-50
20
-110
10
50
20
-110
10
60
20
-90
10
50
20
-110
10
-50
20
-110
10
-60
20
-90
10
-50
20
-110
10
50
20
-110
0
LWPOLYLINE
5
142
100
AcDbEntity
8
0
100
AcDbPolyline
90
2
70
1
43
0.0
10
40
20
-90
10
60
20
-70
0
LWPOLYLINE
5
143
100
AcDbEntity
8
0
100
AcDbPolyline
90
2
70
1
43
0.0
10
-50
20
0
10
-60
20
0
0
LWPOLYLINE
5
144
100
AcDbEntity
8
0
100
AcDbPolyline
90
10
70
1
43
0.0
10
14.972735349029161
20
-81.486232764908777
10
14.972735349029161
20
-50
10
14.972735349029161
20
-81.486232764908777
10
14.972735349029161
20
-50
10
20
20
-50
10
14.972735349029161
20
-50
10
14.972735349029161
20
-81.486232764908777
10
30
20
-81.486232764908777
10
30
20
-90
10
30
20
-81.486232764908777
0
SPLINE
5
145
100
AcDbEntity
8
0
100
AcDbSpline
70
0
71
2
72
6
73
3
74
0
42
0.000000001
43
0.0000000001
44
0.0000000001
40
0
40
0
40
0
40
1
40
1
40
1
10
5.0306937098503113
20
-152.97066867351532
30
0
10
5.0306937098503113
20
-153.57094138860703
30
0
10
5.31889408826828
20
-153.89836311340332
30
0
0
LWPOLYLINE
5
146
100
AcDbEntity
8
0
100
AcDbPolyline
90
4
70
1
43
0.0
10
90
20
50
10
90
20
40
10
70
20
40
10
70
20
50
0
SPLINE
5
147
100
AcDbEntity
8
0
100
AcDbSpline
70
0
71
2
72
6
73
3
74
0
42
0.000000001
43
0.0000000001
44
0.0000000001
40
0
40
0
40
0
40
1
40
1
40
1
10
5.31889408826828
20
-153.89836311340332
30
0
10
5.6070920825004578
20
-154.22578454017642
30
0
10
6.0368344187736511
20
-154.22578454017642
30
0
0
SPLINE
5
148
100
AcDbEntity
8
0
100
AcDbSpline
70
0
71
2
72
6
73
3
74
0
42
0.000000001
43
0.0000000001
44
0.0000000001
40
0
40
0
40
0
40
1
40
1
40
1
10
6.7684170603752136
20
-153.96657586097712
30
0
10
7.1009537577629089
20
-153.70736718177798
30
0
10
7.2646638751029968
20
-153.19918155670166
30
0
0
LWPOLYLINE
5
149
100
AcDbEntity
8
0
100
AcDbPolyline
90
2
70
1
43
0.0
10
40
20
-90
10
30
20
-90
0
SPLINE
5
150
100
AcDbEntity
8
0
100
AcDbSpline
70
0
71
2
72
6
73
3
74
0
42
0.000000001
43
0.0000000001
44
0.0000000001
40
0
40
0
40
0
40
1
40
1
40
1
10
6.0368344187736511
20
-154.22578454017642
30
0
10
6.4358779788017273
20
-154.22578454017642
30
0
10
6.7684170603752136
20
-153.96657586097712
30
0
0
CIRCLE
5
151
100
AcDbEntity
8
0
100
AcDbCircle
10
-30.532608032226562
20
-95.23646354675293
30
0
40
1.5000000000000002
210
0
220
0
230
1
0
CIRCLE
5
152
100
AcDbEntity
8
0
100
AcDbCircle
10
30
20
-95
30
0
40
4.2961831543552345
210
0
220
0
230
1
0
LINE
5
153
100
AcDbEntity
8
0
100
AcDbLine
10
-60
20
90
30
0
11
-60
21
70
31
0
0
CIRCLE
5
154
100
AcDbEntity
8
0
100
AcDbCircle
10
-13.960111963336878
20
46.730883267102222
30
0
40
1.4999999999999958
210
0
220
0
230
1
0
LWPOLYLINE
5
155
100
AcDbEntity
8
0
100
AcDbPolyline
90
2
70
1
43
0.0
10
20
20
-50
10
14.972735349029161
20
-50
0
LWPOLYLINE
5
156
100
AcDbEntity
8
0
100
AcDbPolyline
90
2
70
1
43
0.0
10
-60
20
-70
10
-40
20
-90
0
LWPOLYLINE
5
157
100
AcDbEntity
8
0
100
AcDbPolyline
90
4
70
1
43
0.0
10
70
20
30
10
90
20
30
10
90
20
20
10
70
20
20
0
LWPOLYLINE
5
158
100
AcDbEntity
8
0
100
AcDbPolyline
90
2
70
1
43
0.0
10
60
20
-70
10
60
20
-90
0
LWPOLYLINE
5
159
100
AcDbEntity
8
0
100
AcDbPolyline
90
4
70
1
43
0.0
10
60
20
-70
10
40
20
-90
10
30
20
-90
10
40
20
-90
0
LWPOLYLINE
5
160
100
AcDbEntity
8
0
100
AcDbPolyline
90
4
70
1
43
0.0
10
-120
20
0
10
-110
20
30
10
-80
20
30
10
-90
20
0
0
CIRCLE
5
161
100
AcDbEntity
8
0
100
AcDbCircle
10
12.830805817848926
20
-47.747591694675002
30
0
40
1.5000000000000013
210
0
220
0
230
1
0
LWPOLYLINE
5
162
100
AcDbEntity
8
0
100
AcDbPolyline
90
4
70
1
43
0.0
10
90
20
60
10
70
20
60
10
70
20
70
10
90
20
70
0
LWPOLYLINE
5
163
100
AcDbEntity
8
0
100
AcDbPolyline
90
4
70
1
43
0.0
10
-14.396860912528098
20
-81.486232764908777
10
-14.396860912528098
20
-50
10
-20
20
-50
10
-14.396860912528098
20
-50
0
LWPOLYLINE
5
164
100
AcDbEntity
8
0
100
AcDbPolyline
90
8
70
1
43
0.0
10
-20
20
-50
10
-30
20
-20
10
-40
20
-20
10
-50
20
0
10
-40
20
-20
10
-30
20
-20
10
-20
20
-50
10
-14.396860912528098
20
-50
0
LWPOLYLINE
5
165
100
AcDbEntity
8
0
100
AcDbPolyline
90
10
70
1
43
0.0
10
-25.453615188598647
20
-150
10
-25.630968511104584
20
-150.83560705184939
10
-28.100272864103321
20
-150.83560705184939
10
-28.352660238742828
20
-152.036152780056
10
-25.931105017662052
20
-152.036152780056
10
-26.105047762393951
20
-152.87175983190539
10
-28.526602983474731
20
-152.87175983190539
10
-28.969986438751221
20
-155
10
-30
20
-155
10
-28.952933251857761
20
-150
0
LWPOLYLINE
5
166
100
AcDbEntity
8
0
100
AcDbPolyline
90
2
70
1
43
0.0
10
-30
20
-20
10
-40
20
-20
0
LWPOLYLINE
5
167
100
AcDbEntity
8
0
100
AcDbPolyline
90
6
70
1
43
0.0
10
-40
20
-140
10
40
20
-140
10
60
20
-170
10
40
20
-170
10
-40
20
-170
10
-60
20
-170
0
LWPOLYLINE
5
168
100
AcDbEntity
8
0
100
AcDbPolyline
90
4
70
1
43
0.0
10
-110
20
-60
10
-80
20
-60
10
-90
20
-90
10
-120
20
-90
0
CIRCLE
5
169
100
AcDbEntity
8
0
100
AcDbCircle
10
40
20
10
30
0
40
1.5000000000000002
210
0
220
0
230
1
0
CIRCLE
5
170
100
AcDbEntity
8
0
100
AcDbCircle
10
-50.161758241142643
20
46.730883267102222
30
0
40
1.4999999999999969
210
0
220
0
230
1
0
LWPOLYLINE
5
171
100
AcDbEntity
8
0
100
AcDbPolyline
90
2
70
1
43
0.0
10
-30.521345134559468
20
-81.486232764908777
10
-14.396860912528098
20
-81.486232764908777
0
CIRCLE
5
172
100
AcDbEntity
8
0
100
AcDbCircle
10
-50
20
10
30
0
40
1.5000000000000013
210
0
220
0
230
1
0
LWPOLYLINE
5
173
100
AcDbEntity
8
0
100
AcDbPolyline
90
4
70
1
43
0.0
10
30
20
-160
10
30
20
-147.7947062141786
10
-34.47787767325778
20
-147.7947062141786
10
-34.47787767325778
20
-160
0
LWPOLYLINE
5
174
100
AcDbEntity
8
0
100
AcDbPolyline
90
2
70
1
43
0.0
10
-30.521345134559468
20
-90
10
-40
20
-90
0
LWPOLYLINE
5
175
100
AcDbEntity
8
0
100
AcDbPolyline
90
6
70
1
43
0.0
10
-14.396860912528098
20
-81.486232764908777
10
-30.521345134559468
20
-81.486232764908777
10
-30.521345134559468
20
-90
10
-30.521345134559468
20
-81.486232764908777
10
-14.396860912528098
20
-81.486232764908777
10
-14.396860912528098
20
-50
0
LWPOLYLINE
5
176
100
AcDbEntity
8
0
100
AcDbPolyline
90
2
70
1
43
0.0
10
-30.521345134559468
20
-90
10
-30.521345134559468
20
-81.486232764908777
0
CIRCLE
5
177
100
AcDbEntity
8
0
100
AcDbCircle
10
-15.480407224635826
20
-18.722650592295665
30
0
40
1.5000000000000002
210
0
220
0
230
1
0
LWPOLYLINE
5
178
100
AcDbEntity
8
0
100
AcDbPolyline
90
2
70
1
43
0.0
10
-30
20
-20
10
-20
20
-50
0
LWPOLYLINE
5
179
100
AcDbEntity
8
0
100
AcDbPolyline
90
4
70
1
43
0.0
10
70
20
10
10
90
20
10
10
90
20
0
10
70
20
0
0
LWPOLYLINE
5
180
100
AcDbEntity
8
0
100
AcDbPolyline
90
6
70
1
43
0.0
10
-60
20
-90
10
-60
20
-70
10
-40
20
-90
10
-30.521345134559468
20
-90
10
-40
20
-90
10
-60
20
-70
0
CIRCLE
5
181
100
AcDbEntity
8
0
100
AcDbCircle
10
6.5221315952790171
20
59.957515227920588
30
0
40
1.8372049488236089
210
0
220
0
230
1
0
LWPOLYLINE
5
182
100
AcDbEntity
8
0
100
AcDbPolyline
90
8
70
1
43
0.0
10
-22.663710415363308
20
-155
10
-22.830832302570343
20
-153.8949519395828
10
-24.812414944171906
20
-153.8949519395828
10
-25.412687659263611
20
-155
10
-26.469986438751221
20
-155
10
-23.642565310001373
20
-150
10
-22.500000298023227
20
-150
10
-21.688267290592194
20
-155
0
SPLINE
5
183
100
AcDbEntity
8
0
100
AcDbSpline
70
0
71
2
72
6
73
3
74
0
42
0.000000001
43
0.0000000001
44
0.0000000001
40
0
40
0
40
0
40
1
40
1
40
1
10
-4.0313771367073059
20
-150.9208732843399
30
0
10
-4.2530682682991028
20
-150.72987735271454
30
0
10
-4.6862199902534485
20
-150.72987735271454
30
0
0
CIRCLE
5
184
100
AcDbEntity
8
0
100
AcDbCircle
10
30.316638946533203
20
-94.865436553955078
30
0
40
1.5000000000000002
210
0
220
0
230
1
0
LWPOLYLINE
5
185
100
AcDbEntity
8
0
100
AcDbPolyline
90
8
70
1
43
0.0
10
-15.289904177188873
20
-150
10
-11.350614130496981
20
-150
10
-11.52455598115921
20
-150.83560705184939
10
-12.970668375492096
20
-150.83560705184939
10
-13.840382397174835
20
-155
10
-14.870395958423615
20
-155
10
-13.997271358966827
20
-150.83560705184939
10
-15.463847219944
20
-150.83560705184939
0
LWPOLYLINE
5
186
100
AcDbEntity
8
0
100
AcDbPolyline
90
10
70
1
43
0.0
10
-21.03342384099961
20
-155
10
-19.989767372608181
20
-150
10
-19.027966558933255
20
-150
10
-17.673942148685452
20
-153.34583878517154
10
-16.974761784076694
20
-150
10
-16.019780933856964
20
-150
10
-17.06343799829483
20
-155
10
-18.021828234195702
20
-155
10
-19.372442066669464
20
-151.64051830768585
10
-20.075034201145169
20
-155
0
LWPOLYLINE
5
187
100
AcDbEntity
8
0
100
AcDbPolyline
90
4
70
1
43
0.0
10
-60
20
-20
10
-70
20
-50
10
-100
20
-50
10
-90
20
-20
0
LWPOLYLINE
5
188
100
AcDbEntity
8
0
100
AcDbPolyline
90
3
70
1
43
0.0
10
-23.246930539608002
20
-151.05047732591629
10
-24.454297125339512
20
-153.0627557635307
10
-22.957026064395905
20
-153.0627557635307
0
LWPOLYLINE
5
189
100
AcDbEntity
8
0
100
AcDbPolyline
90
8
70
1
43
0.0
10
-12.633015215396881
20
-155
10
-9.8055937886238063
20
-150
10
-8.6630299687385577
20
-150
10
-7.8512957692146301
20
-155
10
-8.8267400860786438
20
-155
10
-8.9938619732856768
20
-153.8949519395828
10
-10.975443422794342
20
-153.8949519395828
10
-11.575715839862823
20
-155
0
CIRCLE
5
190
100
AcDbEntity
8
0
100
AcDbCircle
10
10
20
10
30
0
40
1.5000000000000013
210
0
220
0
230
1
0
SPLINE
5
191
100
AcDbEntity
8
0
100
AcDbSpline
70
0
71
2
72
6
73
3
74
0
42
0.000000001
43
0.0000000001
44
0.0000000001
40
0
40
0
40
0
40
1
40
1
40
1
10
-5.0954964756965637
20
-154.22578454017642
30
0
10
-4.5907238125801086
20
-154.22578454017642
30
0
10
-4.3656209111213684
20
-154.04502034187314
30
0
0
SPLINE
5
192
100
AcDbEntity
8
0
100
AcDbSpline
70
0
71
2
72
6
73
3
74
0
42
0.000000001
43
0.0000000001
44
0.0000000001
40
0
40
0
40
0
40
1
40
1
40
1
10
-6.0027292370796204
20
-150.33083260059357
30
0
10
-5.5457022786140442
20
-149.91473436355591
30
0
10
-4.6793988347053528
20
-149.91473436355591
30
0
0
LWPOLYLINE
5
193
100
AcDbEntity
8
0
100
AcDbPolyline
90
3
70
1
43
0.0
10
-9.4099596142768895
20
-151.05047732591629
10
-10.617325603961943
20
-153.0627557635307
10
-9.1200545430183393
20
-153.0627557635307
0
SPLINE
5
194
100
AcDbEntity
8
0
100
AcDbSpline
70
0
71
2
72
6
73
3
74
0
42
0.000000001
43
0.0000000001
44
0.0000000001
40
0
40
0
40
0
40
1
40
1
40
1
10
-6.4597538113594055
20
-151.37789934873581
30
0
10
-6.4597538113594055
20
-150.746930539608
30
0
10
-6.0027292370796204
20
-150.33083260059357
30
0
0
SPLINE
5
195
100
AcDbEntity
8
0
100
AcDbSpline
70
0
71
2
72
6
73
3
74
0
42
0.000000001
43
0.0000000001
44
0.0000000001
40
0
40
0
40
0
40
1
40
1
40
1
10
-6.0879948735237122
20
-153.3287858963013
30
0
10
-6.067531406879425
20
-153.79604399204251
30
0
10
-5.9276941418647766
20
-153.95975470542913
30
0
0
CIRCLE
5
196
100
AcDbEntity
8
0
100
AcDbCircle
10
-13.486887828986482
20
10
30
0
40
1.4999999999999991
210
0
220
0
230
1
0
SPLINE
5
197
100
AcDbEntity
8
0
100
AcDbSpline
70
0
71
2
72
6
73
3
74
0
42
0.000000001
43
0.0000000001
44
0.0000000001
40
0
40
0
40
0
40
1
40
1
40
1
10
-5.9276941418647766
20
-153.95975470542913
30
0
10
-5.7025912404060364
20
-154.22578454017642
30
0
10
-5.0954964756965637
20
-154.22578454017642
30
0
0
SPLINE
5
198
100
AcDbEntity
8
0
100
AcDbSpline
70
0
71
2
72
6
73
3
74
0
42
0.000000001
43
0.0000000001
44
0.0000000001
40
0
40
0
40
0
40
1
40
1
40
1
10
-4.1405180096626282
20
-153.60845863819122
30
0
10
-4.1405180096626282
20
-153.38676691055295
30
0
10
-4.3246939778327924
20
-153.23328793048859
30
0
0
SPLINE
5
199
100
AcDbEntity
8
0
100
AcDbSpline
70
0
71
2
72
6
73
3
74
0
42
0.000000001
43
0.0000000001
44
0.0000000001
40
0
40
0
40
0
40
1
40
1
40
1
10
-4.3656209111213684
20
-154.04502034187314
30
0
10
-4.1405180096626282
20
-153.86425673961642
30
0
10
-4.1405180096626282
20
-153.60845863819122
30
0
0
SPLINE
5
200
100
AcDbEntity
8
0
100
AcDbSpline
70
0
71
2
72
6
73
3
74
0
42
0.000000001
43
0.0000000001
44
0.0000000001
40
0
40
0
40
0
40
1
40
1
40
1
10
-4.3246939778327924
20
-153.23328793048859
30
0
10
-4.4542983174324036
20
-153.12073707580566
30
0
10
-5.0358107686042803
20
-152.86834955215451
30
0
0
SPLINE
5
201
100
AcDbEntity
8
0
100
AcDbSpline
70
0
71
2
72
6
73
3
74
0
42
0.000000001
43
0.0000000001
44
0.0000000001
40
0
40
0
40
0
40
1
40
1
40
1
10
-5.0358107686042803
20
-152.86834955215451
30
0
10
-5.6173256039619446
20
-152.61596202850339
30
0
10
-5.8850601315498352
20
-152.44713515043259
30
0
0
LINE
5
202
100
AcDbEntity
8
0
100
AcDbLine
10
-7.0668485760688782
20
-153.37994575500488
30
0
11
-6.0879948735237122
21
-153.3287858963013
31
0
0
LWPOLYLINE
5
203
100
AcDbEntity
8
0
100
AcDbPolyline
90
4
70
1
43
0.0
10
-40
20
110
10
40
20
110
10
35
20
115
10
-35
20
115
0
ENDSEC
0
SECTION
2
OBJECTS
0
DICTIONARY
5
C
100
AcDbDictionary
3
ACAD_GROUP
350
D
3
ACAD_MLINESTYLE
350
17
0
DICTIONARY
5
D
100
AcDbDictionary
0
DICTIONARY
5
1A
330
C
100
AcDbDictionary
0
DICTIONARY
5
17
100
AcDbDictionary
0
ENDSEC
0
EOF
