0
SECTION
2
HEADER
9
$INSUNITS
70
4
9
$ACADVER
1
AC1014
9
$HANDSEED
5
FFFF
0
ENDSEC
0
SECTION
2
TABLES
0
TABLE
2
VPORT
5
8
100
AcDbSymbolTable
0
ENDTAB
0
TABLE
2
LTYPE
5
5
100
AcDbSymbolTable
0
LTYPE
5
14
100
AcDbSymbolTableRecord
100
AcDbLinetypeTableRecord
2
BYBLOCK
70
0
0
LTYPE
5
15
100
AcDbSymbolTableRecord
100
AcDbLinetypeTableRecord
2
BYLAYER
70
0
0
ENDTAB
0
TABLE
2
LAYER
5
2
100
AcDbSymbolTable
70
2
0
LAYER
5
50
100
AcDbSymbolTableRecord
100
AcDbLayerTableRecord
2
0
70
0
6
CONTINUOUS
0
ENDTAB
0
TABLE
2
STYLE
5
3
100
AcDbSymbolTable
70
1
0
STYLE
5
11
100
AcDbSymbolTableRecord
100
AcDbTextStyleTableRecord
2
STANDARD
70
0
0
ENDTAB
0
TABLE
2
VIEW
5
6
100
AcDbSymbolTable
70
0
0
ENDTAB
0
TABLE
2
UCS
5
7
100
AcDbSymbolTable
70
0
0
ENDTAB
0
TABLE
2
APPID
5
9
100
AcDbSymbolTable
70
2
0
APPID
5
12
100
AcDbSymbolTableRecord
100
AcDbRegAppTableRecord
2
ACAD
70
0
0
ENDTAB
0
TABLE
2
DIMSTYLE
5
A
100
AcDbSymbolTable
70
1
0
ENDTAB
0
TABLE
2
BLOCK_RECORD
5
1
100
AcDbSymbolTable
70
1
0
BLOCK_RECORD
5
1F
100
AcDbSymbolTableRecord
100
AcDbBlockTableRecord
2
*MODEL_SPACE
0
BLOCK_RECORD
5
1B
100
AcDbSymbolTableRecord
100
AcDbBlockTableRecord
2
*PAPER_SPACE
0
ENDTAB
0
ENDSEC
0
SECTION
2
BLOCKS
0
BLOCK
5
20
100
AcDbEntity
100
AcDbBlockBegin
2
*MODEL_SPACE
0
ENDBLK
5
21
100
AcDbEntity
100
AcDbBlockEnd
0
BLOCK
5
1C
100
AcDbEntity
100
AcDbBlockBegin
2
*PAPER_SPACE
0
ENDBLK
5
1D
100
AcDbEntity
100
AcDbBlockEnd
0
ENDSEC
0
SECTION
2
ENTITIES
0
LWPOLYLINE
5
100
100
AcDbEntity
8
0
100
AcDbPolyline
90
27
70
1
43
0.0
10
60
20
0
10
60
20
-120
10
-60
20
-120
10
-60
20
0
10
-50
20
10
10
-30
20
20
10
-30
20
40
42
0.34769653261467265
10
-25
20
70
10
-45
20
70
10
-60
20
50
10
-70
20
50
10
-50
20
100
10
-20
20
110
10
-30
20
100
10
-40
20
90
10
0
20
110
10
35.384615384615387
20
92.307692307692292
10
30
20
100
10
20.000000000000007
20
110
10
50
20
100
10
75
20
50
10
65
20
50
10
51.000000000000014
20
70
10
24.999999999999996
20
70
42
0.34769653261467293
10
30
20
40
10
30
20
20
10
50
20
10
0
LINE
5
101
100
AcDbEntity
8
0
100
AcDbLine
10
-25
20
70
30
0
11
-22.188843106495604
21
61.566529319486811
31
0
0
LINE
5
102
100
AcDbEntity
8
0
100
AcDbLine
10
25
20
70
30
0
11
22.188843106495582
21
61.566529319486747
31
0
0
LWPOLYLINE
5
103
100
AcDbEntity
8
0
100
AcDbPolyline
90
6
70
1
43
0.0
10
110
20
0
10
110
20
-90
10
110
20
-109.99999999999997
42
-0.53518375848799682
10
80
20
-90
10
79.999999999999972
20
-2.2204460492503131e-15
42
-0.53518375848799693
10
110
20
20
0
LWPOLYLINE
5
104
100
AcDbEntity
8
0
100
AcDbPolyline
90
4
70
1
43
0.0
10
-80
20
0
10
-110
20
0
10
-120
20
-30
10
-90
20
-30
0
LWPOLYLINE
5
105
100
AcDbEntity
8
0
100
AcDbPolyline
90
4
70
1
43
0.0
10
-120
20
-80
10
-90
20
-80
10
-80
20
-50
10
-110
20
-50
0
LWPOLYLINE
5
106
100
AcDbEntity
8
0
100
AcDbPolyline
90
4
70
1
43
0.0
10
-120
20
20
10
-90
20
20
10
-80
20
50
10
-110
20
50
0
CIRCLE
5
107
100
AcDbEntity
8
0
100
AcDbCircle
10
-45
20
80
30
0
40
1.4999999999999973
210
0
220
0
230
1
0
CIRCLE
5
108
100
AcDbEntity
8
0
100
AcDbCircle
10
50
20
80
30
0
40
1.4999999999999996
210
0
220
0
230
1
0
CIRCLE
5
109
100
AcDbEntity
8
0
100
AcDbCircle
10
-15
20
50
30
0
40
1.5000000000000024
210
0
220
0
230
1
0
CIRCLE
5
110
100
AcDbEntity
8
0
100
AcDbCircle
10
15
20
25
30
0
40
1.5000000000000013
210
0
220
0
230
1
0
CIRCLE
5
111
100
AcDbEntity
8
0
100
AcDbCircle
10
-50
20
0
30
0
40
1.4999999999999987
210
0
220
0
230
1
0
CIRCLE
5
112
100
AcDbEntity
8
0
100
AcDbCircle
10
-15
20
0
30
0
40
1.5000000000000002
210
0
220
0
230
1
0
CIRCLE
5
113
100
AcDbEntity
8
0
100
AcDbCircle
10
25
20
0
30
0
40
1.5000000000000004
210
0
220
0
230
1
0
CIRCLE
5
114
100
AcDbEntity
8
0
100
AcDbCircle
10
50
20
0
30
0
40
1.4999999999999996
210
0
220
0
230
1
0
CIRCLE
5
115
100
AcDbEntity
8
0
100
AcDbCircle
10
25
20
-25
30
0
40
1.5
210
0
220
0
230
1
0
CIRCLE
5
116
100
AcDbEntity
8
0
100
AcDbCircle
10
50
20
-25
30
0
40
1.4999999999999971
210
0
220
0
230
1
0
CIRCLE
5
117
100
AcDbEntity
8
0
100
AcDbCircle
10
-47.670769819446406
20
-60
30
0
40
1.5000000000000036
210
0
220
0
230
1
0
CIRCLE
5
118
100
AcDbEntity
8
0
100
AcDbCircle
10
-5
20
-60
30
0
40
1.5000000000000004
210
0
220
0
230
1
0
LWPOLYLINE
5
119
100
AcDbEntity
8
0
100
AcDbPolyline
90
8
70
1
43
0.0
10
-28.916093234199963
20
-85.891641785176859
10
-28.893457058834194
20
-79.245022744612314
10
-31.267249661131437
20
-79.236938395968352
10
-31.262640652992737
20
-77.883603711208949
10
-24.90524270087117
20
-77.905254895673707
10
-24.909851709009871
20
-79.258589580433096
10
-27.278186811295832
20
-79.250523818220302
10
-27.300822986661597
20
-85.897142858784846
0
LWPOLYLINE
5
120
100
AcDbEntity
8
0
100
AcDbPolyline
90
12
70
1
43
0.0
10
-23.890201810800665
20
-85.908758300947525
10
-23.862956627296196
20
-77.908804575623577
10
-17.931204728370535
20
-77.929006151099884
10
-17.935813736509232
20
-79.282340835859301
10
-22.252295089875034
20
-79.267640335005922
10
-22.258335119556033
20
-81.041163274928451
10
-18.241987638120897
20
-81.054841619567242
10
-18.246578062302401
20
-82.402719530742758
10
-22.262925543737531
20
-82.389041186103952
10
-22.270340843089226
20
-84.566382060437945
10
-17.801062676858667
20
-84.581602936452015
10
-17.805653099010243
20
-85.92948025158455
0
LWPOLYLINE
5
121
100
AcDbEntity
8
0
100
AcDbPolyline
90
8
70
1
43
0.0
10
-9.2218019505766247
20
-85.958713995646562
10
-10.978953377661504
20
-85.952729721897015
10
-11.671260299034365
20
-84.133171961216405
10
-14.869058364478798
20
-84.122281323833406
10
-15.535543497492217
20
-85.937211490388194
10
-17.249039543820007
20
-85.931375892356087
10
-14.105850878844382
20
-77.942034034907522
10
-12.397811010057486
20
-77.947851051012336
0
LWPOLYLINE
5
122
100
AcDbEntity
8
0
100
AcDbPolyline
90
3
70
1
43
0.0
10
-12.185084228856836
20
-82.783529099102523
10
-13.277286517221899
20
-79.811169759214408
10
-14.367881876774714
20
-82.776095215793617
0
LWPOLYLINE
5
123
100
AcDbEntity
8
0
100
AcDbPolyline
90
13
70
1
43
0.0
10
-8.3868816177912731
20
-85.961557456803888
10
-8.3596364342868057
20
-77.96160373147994
10
-5.9421885816168816
20
-77.96983675539731
10
-4.5092131063917202
20
-83.431775002782842
10
-3.0554379352708958
20
-77.979668068651335
10
-0.63253271297409186
20
-77.987919678555841
10
-0.65977789647855778
20
-85.987873403879775
10
-2.1604520244758345
20
-85.982762606567491
10
-2.1390052710890646
20
-79.685391380403573
10
-3.748436913987284
20
-85.97735445782034
10
-5.3036799699094272
20
-85.972057816876216
10
-6.8647607364072236
20
-79.669297027952226
10
-6.8862074897939971
20
-85.966668254116158
0
LINE
5
124
100
AcDbEntity
8
0
100
AcDbLine
10
4.0659406725536007
20
-78.003921117310952
30
0
11
5.6812100260274807
21
-78.009422187874051
31
0
0
LINE
5
125
100
AcDbEntity
8
0
100
AcDbLine
10
5.6812100260274807
20
-78.009422187874051
30
0
11
5.6664537672127366
21
-82.342275650120484
31
0
0
SPLINE
5
126
100
AcDbEntity
8
0
100
AcDbSpline
70
0
71
2
72
6
73
3
74
0
42
0.000000001
43
0.0000000001
44
0.0000000001
40
0
40
0
40
0
40
1
40
1
40
1
10
5.6664537672127402
20
-82.342275650120484
30
0
10
5.662941257207188
20
-83.373647580484686
30
0
10
5.7219291946992712
20
-83.679443855823905
30
0
0
SPLINE
5
127
100
AcDbEntity
8
0
100
AcDbSpline
70
0
71
2
72
6
73
3
74
0
42
0.000000001
43
0.0000000001
44
0.0000000001
40
0
40
0
40
0
40
1
40
1
40
1
10
5.7219291946992712
20
-83.679443855823905
30
0
10
5.8239394419585544
20
-84.17092625718881
30
0
10
6.2131010850219548
20
-84.4696614410949
30
0
0
SPLINE
5
128
100
AcDbEntity
8
0
100
AcDbSpline
70
0
71
2
72
6
73
3
74
0
42
0.000000001
43
0.0000000001
44
0.0000000001
40
0
40
0
40
0
40
1
40
1
40
1
10
6.2131010850219548
20
-84.4696614410949
30
0
10
6.6022627280853552
20
-84.768396625001003
30
0
10
7.2789312625510405
20
-84.770701133130203
30
0
0
SPLINE
5
129
100
AcDbEntity
8
0
100
AcDbSpline
70
0
71
2
72
6
73
3
74
0
42
0.000000001
43
0.0000000001
44
0.0000000001
40
0
40
0
40
0
40
1
40
1
40
1
10
7.2789312625510405
20
-84.770701133130203
30
0
10
7.9665121520985149
20
-84.77304280511396
30
0
10
8.3167170798784706
20
-84.493196764684399
30
0
0
SPLINE
5
130
100
AcDbEntity
8
0
100
AcDbSpline
70
0
71
2
72
6
73
3
74
0
42
0.000000001
43
0.0000000001
44
0.0000000001
40
0
40
0
40
0
40
1
40
1
40
1
10
8.3167170798784706
20
-84.493196764684399
30
0
10
8.6669220076584264
20
-84.213350724254838
30
0
10
8.7392545118899356
20
-83.804318205775999
30
0
0
SPLINE
5
131
100
AcDbEntity
8
0
100
AcDbSpline
70
0
71
2
72
6
73
3
74
0
42
0.000000001
43
0.0000000001
44
0.0000000001
40
0
40
0
40
0
40
1
40
1
40
1
10
8.7392545118899356
20
-83.804318205775999
30
0
10
8.811591786495292
20
-83.395285107493592
30
0
10
8.8148255249632967
20
-82.445768357145653
30
0
0
LINE
5
132
100
AcDbEntity
8
0
100
AcDbLine
10
8.8148255249632967
20
-82.445768357145653
30
0
11
8.8298977252599169
21
-78.020145571672174
31
0
0
LINE
5
133
100
AcDbEntity
8
0
100
AcDbLine
10
8.8298977252599169
20
-78.020145571672174
30
0
11
10.445164694561836
21
-78.025646634115574
31
0
0
LINE
5
134
100
AcDbEntity
8
0
100
AcDbLine
10
10.445164694561836
20
-78.025646634115574
30
0
11
10.430854468989217
21
-82.227532165961776
31
0
0
SPLINE
5
135
100
AcDbEntity
8
0
100
AcDbSpline
70
0
71
2
72
6
73
3
74
0
42
0.000000001
43
0.0000000001
44
0.0000000001
40
0
40
0
40
0
40
1
40
1
40
1
10
10.430854468989219
20
-82.227532165961776
30
0
10
10.425948105355767
20
-83.668178804321343
30
0
10
10.292955036436799
20
-84.26254553151557
30
0
0
SPLINE
5
136
100
AcDbEntity
8
0
100
AcDbSpline
70
0
71
2
72
6
73
3
74
0
42
0.000000001
43
0.0000000001
44
0.0000000001
40
0
40
0
40
0
40
1
40
1
40
1
10
10.292955036436799
20
-84.26254553151557
30
0
10
10.159961969547764
20
-84.856911662666789
30
0
10
9.8065928087917875
20
-85.264987659749423
30
0
0
SPLINE
5
137
100
AcDbEntity
8
0
100
AcDbSpline
70
0
71
2
72
6
73
3
74
0
42
0.000000001
43
0.0000000001
44
0.0000000001
40
0
40
0
40
0
40
1
40
1
40
1
10
9.8065928087917875
20
-85.264987659749423
30
0
10
9.4532236500657341
20
-85.673063060789076
30
0
10
8.8630388575250585
20
-85.913892163287144
30
0
0
SPLINE
5
138
100
AcDbEntity
8
0
100
AcDbSpline
70
0
71
2
72
6
73
3
74
0
42
0.000000001
43
0.0000000001
44
0.0000000001
40
0
40
0
40
0
40
1
40
1
40
1
10
8.8630388575250585
20
-85.913892163287144
30
0
10
8.2728588333283213
20
-86.15472128202461
30
0
10
7.3233408908944009
20
-86.151487539496756
30
0
0
SPLINE
5
139
100
AcDbEntity
8
0
100
AcDbSpline
70
0
71
2
72
6
73
3
74
0
42
0.000000001
43
0.0000000001
44
0.0000000001
40
0
40
0
40
0
40
1
40
1
40
1
10
7.3233408908944009
20
-86.151487539496756
30
0
10
6.1773719469246169
20
-86.147584750150628
30
0
10
5.5861904228655002
20
-85.880904363071394
30
0
0
SPLINE
5
140
100
AcDbEntity
8
0
100
AcDbSpline
70
0
71
2
72
6
73
3
74
0
42
0.000000001
43
0.0000000001
44
0.0000000001
40
0
40
0
40
0
40
1
40
1
40
1
10
5.5861904228655002
20
-85.880904363071394
30
0
10
4.9950065166643443
20
-85.614223371829482
30
0
10
4.6526563864264725
20
-85.190135595861022
30
0
0
SPLINE
5
141
100
AcDbEntity
8
0
100
AcDbSpline
70
0
71
2
72
6
73
3
74
0
42
0.000000001
43
0.0000000001
44
0.0000000001
40
0
40
0
40
0
40
1
40
1
40
1
10
4.6526563864264725
20
-85.190135595861022
30
0
10
4.3103062561885919
20
-84.766047819892592
30
0
10
4.2027457174865024
20
-84.301831296503011
30
0
0
SPLINE
5
142
100
AcDbEntity
8
0
100
AcDbSpline
70
0
71
2
72
6
73
3
74
0
42
0.000000001
43
0.0000000001
44
0.0000000001
40
0
40
0
40
0
40
1
40
1
40
1
10
4.2027457174865024
20
-84.301831296503011
30
0
10
4.0468355911505816
20
-83.613711453927394
30
0
10
4.0514074293449553
20
-82.271290912378774
30
0
0
LINE
5
143
100
AcDbEntity
8
0
100
AcDbLine
10
4.0514074293449553
20
-82.271290912378774
30
0
11
4.0659406725536007
21
-78.003921117310952
31
0
0
LWPOLYLINE
5
144
100
AcDbEntity
8
0
100
AcDbPolyline
90
10
70
1
43
0.0
10
12.136874119098024
20
-86.031454547518592
10
12.164119302602492
20
-78.031500822194644
10
13.735732083233305
20
-78.036853212980446
10
16.991735316234529
20
-83.390401744235746
10
17.00992974719609
20
-78.048004042003654
10
18.510603875193368
20
-78.05311483931591
10
18.483358691688903
20
-86.053068564639858
10
16.862631968588143
20
-86.047548908089638
10
13.655315228771947
20
-80.819678799415101
10
13.637548247095301
20
-86.036565344830862
0
LWPOLYLINE
5
145
100
AcDbEntity
8
0
100
AcDbPolyline
90
4
70
1
43
0.0
10
20.142284618005853
20
-86.058718314980268
10
20.169529801510322
20
-78.05876458965632
10
21.784801539156167
20
-78.064265668339118
10
21.757556355651701
20
-86.064219393663066
0
LWPOLYLINE
5
146
100
AcDbEntity
8
0
100
AcDbPolyline
90
8
70
1
43
0.0
10
25.097237686793115
20
-86.075593238292356
10
25.119873862158887
20
-79.428974197727811
10
22.746082582332026
20
-79.420889853587738
10
22.750691590470726
20
-78.067555168828335
10
29.108090902315368
20
-78.089206357923857
10
29.103481894176664
20
-79.44254104268326
10
26.735145599804721
20
-79.434475276410609
10
26.712509424438956
20
-86.081094316975154
0
LWPOLYLINE
5
147
100
AcDbEntity
8
0
100
AcDbPolyline
90
9
70
1
43
0.0
10
32.224071280072522
20
-86.099864864819409
10
32.235538046517746
20
-82.732899069715558
10
29.320911628559898
20
-78.089931154583837
10
31.214487759628895
20
-78.096380045532712
10
33.08637478817819
20
-81.26784860864484
10
34.941616108387116
20
-78.109073405931184
10
36.802452790038778
20
-78.115410797196702
10
33.8453128583905
20
-82.749296293545299
10
33.833883263919525
20
-86.105347349395373
0
ENDSEC
0
SECTION
2
OBJECTS
0
DICTIONARY
5
C
100
AcDbDictionary
3
ACAD_GROUP
350
D
3
ACAD_MLINESTYLE
350
17
0
DICTIONARY
5
D
100
AcDbDictionary
0
DICTIONARY
5
1A
330
C
100
AcDbDictionary
0
DICTIONARY
5
17
100
AcDbDictionary
0
ENDSEC
0
EOF
