0
SECTION
2
HEADER
9
$INSUNITS
70
4
9
$ACADVER
1
AC1014
9
$HANDSEED
5
FFFF
0
ENDSEC
0
SECTION
2
TABLES
0
TABLE
2
VPORT
5
8
100
AcDbSymbolTable
0
ENDTAB
0
TABLE
2
LTYPE
5
5
100
AcDbSymbolTable
0
LTYPE
5
14
100
AcDbSymbolTableRecord
100
AcDbLinetypeTableRecord
2
BYBLOCK
70
0
0
LTYPE
5
15
100
AcDbSymbolTableRecord
100
AcDbLinetypeTableRecord
2
BYLAYER
70
0
0
ENDTAB
0
TABLE
2
LAYER
5
2
100
AcDbSymbolTable
70
2
0
LAYER
5
50
100
AcDbSymbolTableRecord
100
AcDbLayerTableRecord
2
0
70
0
6
CONTINUOUS
0
ENDTAB
0
TABLE
2
STYLE
5
3
100
AcDbSymbolTable
70
1
0
STYLE
5
11
100
AcDbSymbolTableRecord
100
AcDbTextStyleTableRecord
2
STANDARD
70
0
0
ENDTAB
0
TABLE
2
VIEW
5
6
100
AcDbSymbolTable
70
0
0
ENDTAB
0
TABLE
2
UCS
5
7
100
AcDbSymbolTable
70
0
0
ENDTAB
0
TABLE
2
APPID
5
9
100
AcDbSymbolTable
70
2
0
APPID
5
12
100
AcDbSymbolTableRecord
100
AcDbRegAppTableRecord
2
ACAD
70
0
0
ENDTAB
0
TABLE
2
DIMSTYLE
5
A
100
AcDbSymbolTable
70
1
0
ENDTAB
0
TABLE
2
BLOCK_RECORD
5
1
100
AcDbSymbolTable
70
1
0
BLOCK_RECORD
5
1F
100
AcDbSymbolTableRecord
100
AcDbBlockTableRecord
2
*MODEL_SPACE
0
BLOCK_RECORD
5
1B
100
AcDbSymbolTableRecord
100
AcDbBlockTableRecord
2
*PAPER_SPACE
0
ENDTAB
0
ENDSEC
0
SECTION
2
BLOCKS
0
BLOCK
5
20
100
AcDbEntity
100
AcDbBlockBegin
2
*MODEL_SPACE
0
ENDBLK
5
21
100
AcDbEntity
100
AcDbBlockEnd
0
BLOCK
5
1C
100
AcDbEntity
100
AcDbBlockBegin
2
*PAPER_SPACE
0
ENDBLK
5
1D
100
AcDbEntity
100
AcDbBlockEnd
0
ENDSEC
0
SECTION
2
ENTITIES
0
LWPOLYLINE
5
100
100
AcDbEntity
8
0
100
AcDbPolyline
90
18
70
1
43
0.0
10
60
20
0
10
60
20
-120
10
-60
20
-120
10
-60
20
0
42
0.33333333333333304
10
-30
20
40
10
-20
20
40
10
-20
20
90
10
-40
20
90
42
0.362049935181331
10
-70
20
65
10
-70.000000000000014
20
90
42
-0.41421356237309515
10
-40
20
120
10
40
20
120
42
-0.4142135623730947
10
70
20
90
10
70.000000000000014
20
65
42
0.36204993518133022
10
40
20
90
10
20
20
90
10
20
20
40
10
30
20
40
42
0.33333333333333304
0
ARC
5
101
100
AcDbEntity
8
0
100
AcDbCircle
10
45.193310590305202
20
65.731972708366214
30
0
40
24.817486244881003
210
0
220
0
230
1
100
AcDbArc
50
-1.6901401452277811
51
1.6901401452277827
0
LINE
5
102
100
AcDbEntity
8
0
100
AcDbLine
10
-75
20
-100
30
0
11
-75
21
-25
31
0
0
LINE
5
103
100
AcDbEntity
8
0
100
AcDbLine
10
-100
20
0
30
0
11
-75
21
-25
31
0
0
LINE
5
104
100
AcDbEntity
8
0
100
AcDbLine
10
-75
20
-100
30
0
11
-100
21
-125
31
0
0
LWPOLYLINE
5
105
100
AcDbEntity
8
0
100
AcDbPolyline
90
4
70
1
43
0.0
10
80
20
50
10
110
20
50
10
100
20
20
10
70
20
20
0
LWPOLYLINE
5
106
100
AcDbEntity
8
0
100
AcDbPolyline
90
4
70
1
43
0.0
10
80
20
0
10
110
20
0
10
100
20
-30
10
70
20
-30
0
LINE
5
107
100
AcDbEntity
8
0
100
AcDbLine
10
-110
20
0
30
0
11
-100
21
0
31
0
0
LINE
5
108
100
AcDbEntity
8
0
100
AcDbLine
10
-100
20
-125
30
0
11
-110
21
-125
31
0
0
LINE
5
109
100
AcDbEntity
8
0
100
AcDbLine
10
-110
20
-125
30
0
11
-110
21
0
31
0
0
LWPOLYLINE
5
110
100
AcDbEntity
8
0
100
AcDbPolyline
90
13
70
1
43
0.0
10
-26.934747939346337
20
-100.48579932684171
10
-28.885609218490764
20
-100.47575359913273
10
-29.204104501905597
20
-92.117931646508993
10
-30.83647005060628
20
-100.46570787372565
10
-32.691834369263894
20
-100.45615389623607
10
-30.553056389639671
20
-90.467034698866911
10
-27.619943554818075
20
-90.482138413925156
10
-27.349063546550067
20
-97.489082842432211
10
-23.90239392689308
20
-90.501281492782709
10
-20.935175170459964
20
-90.516560832220534
10
-23.080774624975284
20
-100.50564490321754
10
-24.956602697762808
20
-100.49598555006438
10
-22.942566623689018
20
-92.211567095695401
0
LWPOLYLINE
5
111
100
AcDbEntity
8
0
100
AcDbPolyline
90
4
70
1
43
0.0
10
-21.136734112926177
20
-100.51565550819909
10
-18.991134658410861
20
-90.52657143720208
10
-16.937955912451162
20
-90.537144036515144
10
-19.076734301851882
20
-100.52626323177424
0
LINE
5
112
100
AcDbEntity
8
0
100
AcDbLine
10
-17.132696173956962
20
-100.53627382447887
30
0
11
-14.987096719441645
21
-90.547189753481859
31
0
0
LINE
5
113
100
AcDbEntity
8
0
100
AcDbLine
10
-14.987096719441645
20
-90.547189753481859
30
0
11
-12.292725931939202
21
-90.561064094813901
31
0
0
SPLINE
5
114
100
AcDbEntity
8
0
100
AcDbSpline
70
0
71
2
72
6
73
3
74
0
42
0.000000001
43
0.0000000001
44
0.0000000001
40
0
40
0
40
0
40
1
40
1
40
1
10
-12.292725931939202
20
-90.561064094813901
30
0
10
-11.167228730643558
20
-90.566859708547355
30
0
10
-10.853630591443437
20
-90.602581370767808
30
0
0
SPLINE
5
115
100
AcDbEntity
8
0
100
AcDbSpline
70
0
71
2
72
6
73
3
74
0
42
0.000000001
43
0.0000000001
44
0.0000000001
40
0
40
0
40
0
40
1
40
1
40
1
10
-10.853630591443437
20
-90.602581370767808
30
0
10
-10.233217869741544
20
-90.667168518109008
30
0
10
-9.7464868672617158
20
-90.860673345255961
30
0
0
SPLINE
5
116
100
AcDbEntity
8
0
100
AcDbSpline
70
0
71
2
72
6
73
3
74
0
42
0.000000001
43
0.0000000001
44
0.0000000001
40
0
40
0
40
0
40
1
40
1
40
1
10
-9.7464868672617158
20
-90.860673345255961
30
0
10
-9.2597534806276993
20
-91.054178184679856
30
0
10
-8.8624890200344453
20
-91.400703329414114
30
0
0
SPLINE
5
117
100
AcDbEntity
8
0
100
AcDbSpline
70
0
71
2
72
6
73
3
74
0
42
0.000000001
43
0.0000000001
44
0.0000000001
40
0
40
0
40
0
40
1
40
1
40
1
10
-8.8624890200344453
20
-91.400703329414114
30
0
10
-8.4652221722177767
20
-91.747227890386739
30
0
10
-8.1778148131073323
20
-92.233025265931275
30
0
0
SPLINE
5
118
100
AcDbEntity
8
0
100
AcDbSpline
70
0
71
2
72
6
73
3
74
0
42
0.000000001
43
0.0000000001
44
0.0000000001
40
0
40
0
40
0
40
1
40
1
40
1
10
-8.1778148131073323
20
-92.233025265931275
30
0
10
-7.8904098412202961
20
-92.718823225237429
30
0
10
-7.7367720119870853
20
-93.350590943374215
30
0
0
SPLINE
5
119
100
AcDbEntity
8
0
100
AcDbSpline
70
0
71
2
72
6
73
3
74
0
42
0.000000001
43
0.0000000001
44
0.0000000001
40
0
40
0
40
0
40
1
40
1
40
1
10
-7.7367720119870853
20
-93.350590943374215
30
0
10
-7.5831318016689186
20
-93.982359269826446
30
0
10
-7.5869955410886503
20
-94.732690141318329
30
0
0
SPLINE
5
120
100
AcDbEntity
8
0
100
AcDbSpline
70
0
71
2
72
6
73
3
74
0
42
0.000000001
43
0.0000000001
44
0.0000000001
40
0
40
0
40
0
40
1
40
1
40
1
10
-7.5869955410886503
20
-94.732690141318329
30
0
10
-7.5953201477294208
20
-96.349312971442927
30
0
10
-8.2190826910833792
20
-97.597822864510931
30
0
0
SPLINE
5
121
100
AcDbEntity
8
0
100
AcDbSpline
70
0
71
2
72
6
73
3
74
0
42
0.000000001
43
0.0000000001
44
0.0000000001
40
0
40
0
40
0
40
1
40
1
40
1
10
-8.2190826910833792
20
-97.597822864510931
30
0
10
-8.8428476185915272
20
-98.846332745302021
30
0
10
-9.7811437161965422
20
-99.578208780684463
30
0
0
SPLINE
5
122
100
AcDbEntity
8
0
100
AcDbSpline
70
0
71
2
72
6
73
3
74
0
42
0.000000001
43
0.0000000001
44
0.0000000001
40
0
40
0
40
0
40
1
40
1
40
1
10
-9.7811437161965422
20
-99.578208780684463
30
0
10
-10.500320351413826
20
-100.14750085782555
30
0
10
-11.634043618999073
20
-100.41451868479926
30
0
0
SPLINE
5
123
100
AcDbEntity
8
0
100
AcDbSpline
70
0
71
2
72
6
73
3
74
0
42
0.000000001
43
0.0000000001
44
0.0000000001
40
0
40
0
40
0
40
1
40
1
40
1
10
-11.634043618999073
20
-100.41451868479926
30
0
10
-12.276008406584221
20
-100.56128275945555
30
0
10
-13.606139945471869
20
-100.55443340558315
30
0
0
LINE
5
124
100
AcDbEntity
8
0
100
AcDbLine
10
-13.60613994547187
20
-100.55443340558315
30
0
11
-17.132696173956962
21
-100.53627382447887
31
0
0
LINE
5
125
100
AcDbEntity
8
0
100
AcDbLine
10
-14.730168732572636
20
-98.938801498616186
30
0
11
-13.686525504729213
21
-98.944175615066356
31
0
0
SPLINE
5
126
100
AcDbEntity
8
0
100
AcDbSpline
70
0
71
2
72
6
73
3
74
0
42
0.000000001
43
0.0000000001
44
0.0000000001
40
0
40
0
40
0
40
1
40
1
40
1
10
-13.686525504729213
20
-98.944175615066356
30
0
10
-12.554208430396066
20
-98.950006346923402
30
0
10
-12.045308291015683
20
-98.81278894069024
30
0
0
SPLINE
5
127
100
AcDbEntity
8
0
100
AcDbSpline
70
0
71
2
72
6
73
3
74
0
42
0.000000001
43
0.0000000001
44
0.0000000001
40
0
40
0
40
0
40
1
40
1
40
1
10
-12.045308291015683
20
-98.81278894069024
30
0
10
-11.536410535789487
20
-98.675571522180135
30
0
10
-11.111527966561386
20
-98.295762476656208
30
0
0
SPLINE
5
128
100
AcDbEntity
8
0
100
AcDbSpline
70
0
71
2
72
6
73
3
74
0
42
0.000000001
43
0.0000000001
44
0.0000000001
40
0
40
0
40
0
40
1
40
1
40
1
10
-11.111527966561386
20
-98.295762476656208
30
0
10
-10.501598514272171
20
-97.746371582111976
30
0
10
-10.080764525432592
20
-96.827653123340852
30
0
0
SPLINE
5
129
100
AcDbEntity
8
0
100
AcDbSpline
70
0
71
2
72
6
73
3
74
0
42
0.000000001
43
0.0000000001
44
0.0000000001
40
0
40
0
40
0
40
1
40
1
40
1
10
-10.080764525432592
20
-96.827653123340852
30
0
10
-9.6599281524388267
20
-95.908934676846656
30
0
10
-9.6535002927804712
20
-94.660656515372665
30
0
0
SPLINE
5
130
100
AcDbEntity
8
0
100
AcDbSpline
70
0
71
2
72
6
73
3
74
0
42
0.000000001
43
0.0000000001
44
0.0000000001
40
0
40
0
40
0
40
1
40
1
40
1
10
-9.6535002927804712
20
-94.660656515372665
30
0
10
-9.6480208066133244
20
-93.596550688224028
30
0
10
-9.9897356357599634
20
-93.059313721908012
30
0
0
SPLINE
5
131
100
AcDbEntity
8
0
100
AcDbSpline
70
0
71
2
72
6
73
3
74
0
42
0.000000001
43
0.0000000001
44
0.0000000001
40
0
40
0
40
0
40
1
40
1
40
1
10
-9.9897356357599634
20
-93.059313721908012
30
0
10
-10.331448077683195
20
-92.522076171830406
30
0
10
-10.835303183550739
20
-92.342125658119002
30
0
0
SPLINE
5
132
100
AcDbEntity
8
0
100
AcDbSpline
70
0
71
2
72
6
73
3
74
0
42
0.000000001
43
0.0000000001
44
0.0000000001
40
0
40
0
40
0
40
1
40
1
40
1
10
-10.835303183550739
20
-92.342125658119002
30
0
10
-11.189373472978033
20
-92.217517603443866
30
0
10
-12.096591822298306
20
-92.212845990650422
30
0
0
LINE
5
133
100
AcDbEntity
8
0
100
AcDbLine
10
-12.096591822298304
20
-92.212845990650422
30
0
11
-13.29029967473989
21
-92.206699134296301
31
0
0
LINE
5
134
100
AcDbEntity
8
0
100
AcDbLine
10
-13.29029967473989
20
-92.206699134296301
30
0
11
-14.730168732572636
21
-98.938801498616186
31
0
0
LINE
5
135
100
AcDbEntity
8
0
100
AcDbLine
10
-1.4846621959582906
20
-95.275716961410879
30
0
11
2.9900399646117295
21
-95.298758907019462
31
0
0
LINE
5
136
100
AcDbEntity
8
0
100
AcDbLine
10
2.9900399646117295
20
-95.298758907019462
30
0
11
2.0675491082886683
21
-99.584652244732794
31
0
0
SPLINE
5
137
100
AcDbEntity
8
0
100
AcDbSpline
70
0
71
2
72
6
73
3
74
0
42
0.000000001
43
0.0000000001
44
0.0000000001
40
0
40
0
40
0
40
1
40
1
40
1
10
2.0675491082886666
20
-99.584652244732794
30
0
10
1.2736568813079163
20
-100.09216717688273
30
0
10
0.1224582677142827
20
-100.44094996843791
30
0
0
SPLINE
5
138
100
AcDbEntity
8
0
100
AcDbSpline
70
0
71
2
72
6
73
3
74
0
42
0.000000001
43
0.0000000001
44
0.0000000001
40
0
40
0
40
0
40
1
40
1
40
1
10
0.1224582677142827
20
-100.44094996843791
30
0
10
-1.0287379678636244
20
-100.78973396434712
30
0
10
-2.22244582030521
20
-100.783587107993
30
0
0
SPLINE
5
139
100
AcDbEntity
8
0
100
AcDbSpline
70
0
71
2
72
6
73
3
74
0
42
0.000000001
43
0.0000000001
44
0.0000000001
40
0
40
0
40
0
40
1
40
1
40
1
10
-2.22244582030521
20
-100.783587107993
30
0
10
-4.0778112937874988
20
-100.77403312455679
30
0
10
-5.0625620604486032
20
-99.929933514521295
30
0
0
SPLINE
5
140
100
AcDbEntity
8
0
100
AcDbSpline
70
0
71
2
72
6
73
3
74
0
42
0.000000001
43
0.0000000001
44
0.0000000001
40
0
40
0
40
0
40
1
40
1
40
1
10
-5.0625620604486032
20
-99.929933514521295
30
0
10
-6.4072581923145577
20
-98.777018378946352
30
0
10
-6.3960533440073331
20
-96.601058076769789
30
0
0
SPLINE
5
141
100
AcDbEntity
8
0
100
AcDbSpline
70
0
71
2
72
6
73
3
74
0
42
0.000000001
43
0.0000000001
44
0.0000000001
40
0
40
0
40
0
40
1
40
1
40
1
10
-6.3960533440073331
20
-96.601058076769789
30
0
10
-6.3885366107402719
20
-95.141322724473582
30
0
10
-5.8018496740251857
20
-93.807355148093151
30
0
0
SPLINE
5
142
100
AcDbEntity
8
0
100
AcDbSpline
70
0
71
2
72
6
73
3
74
0
42
0.000000001
43
0.0000000001
44
0.0000000001
40
0
40
0
40
0
40
1
40
1
40
1
10
-5.8018496740251857
20
-93.807355148093151
30
0
10
-5.0977996322562147
20
-92.201136715237197
30
0
10
-3.8108493091634932
20
-91.320985045298627
30
0
0
SPLINE
5
143
100
AcDbEntity
8
0
100
AcDbSpline
70
0
71
2
72
6
73
3
74
0
42
0.000000001
43
0.0000000001
44
0.0000000001
40
0
40
0
40
0
40
1
40
1
40
1
10
-3.8108493091634932
20
-91.320985045298627
30
0
10
-2.5238989891399966
20
-90.44083397139859
30
0
10
-0.79131507187458094
20
-90.449755705840658
30
0
0
SPLINE
5
144
100
AcDbEntity
8
0
100
AcDbSpline
70
0
71
2
72
6
73
3
74
0
42
0.000000001
43
0.0000000001
44
0.0000000001
40
0
40
0
40
0
40
1
40
1
40
1
10
-0.79131507187458094
20
-90.449755705840658
30
0
10
0.94126646123665836
20
-90.458677428005814
30
0
10
1.9841754819826463
20
-91.268969691072755
30
0
0
SPLINE
5
145
100
AcDbEntity
8
0
100
AcDbSpline
70
0
71
2
72
6
73
3
74
0
42
0.000000001
43
0.0000000001
44
0.0000000001
40
0
40
0
40
0
40
1
40
1
40
1
10
1.9841754819826463
20
-91.268969691072755
30
0
10
3.027082118574449
20
-92.079261941862768
30
0
10
3.3602042962163647
20
-93.622607517545333
30
0
0
LINE
5
146
100
AcDbEntity
8
0
100
AcDbLine
10
3.3602042962163647
20
-93.622607517545333
30
0
11
1.4423252419011812
21
-93.831015075648807
31
0
0
SPLINE
5
147
100
AcDbEntity
8
0
100
AcDbSpline
70
0
71
2
72
6
73
3
74
0
42
0.000000001
43
0.0000000001
44
0.0000000001
40
0
40
0
40
0
40
1
40
1
40
1
10
1.4423252419011767
20
-93.831015075648793
30
0
10
1.1942965526492078
20
-92.983887882186607
30
0
10
0.63376082041163961
20
-92.551255224599373
30
0
0
SPLINE
5
148
100
AcDbEntity
8
0
100
AcDbSpline
70
0
71
2
72
6
73
3
74
0
42
0.000000001
43
0.0000000001
44
0.0000000001
40
0
40
0
40
0
40
1
40
1
40
1
10
0.63376082041163961
20
-92.551255224599373
30
0
10
0.073225091243300788
20
-92.118621970973606
30
0
10
-0.77942235300603624
20
-92.114231364553632
30
0
0
SPLINE
5
149
100
AcDbEntity
8
0
100
AcDbSpline
70
0
71
2
72
6
73
3
74
0
42
0.000000001
43
0.0000000001
44
0.0000000001
40
0
40
0
40
0
40
1
40
1
40
1
10
-0.77942235300603624
20
-92.114231364553632
30
0
10
-1.7753169329702168
20
-92.10910312407637
30
0
10
-2.610173062124006
20
-92.62322895953011
30
0
0
SPLINE
5
150
100
AcDbEntity
8
0
100
AcDbSpline
70
0
71
2
72
6
73
3
74
0
42
0.000000001
43
0.0000000001
44
0.0000000001
40
0
40
0
40
0
40
1
40
1
40
1
10
-2.610173062124006
20
-92.62322895953011
30
0
10
-3.4450268040543852
20
-93.137354211222188
30
0
10
-3.9212746925314468
20
-94.219499610524309
30
0
0
SPLINE
5
151
100
AcDbEntity
8
0
100
AcDbSpline
70
0
71
2
72
6
73
3
74
0
42
0.000000001
43
0.0000000001
44
0.0000000001
40
0
40
0
40
0
40
1
40
1
40
1
10
-3.9212746925314468
20
-94.219499610524309
30
0
10
-4.3975201999235569
20
-95.301645618141862
30
0
10
-4.4041236870307099
20
-96.584030297265883
30
0
0
SPLINE
5
152
100
AcDbEntity
8
0
100
AcDbSpline
70
0
71
2
72
6
73
3
74
0
42
0.000000001
43
0.0000000001
44
0.0000000001
40
0
40
0
40
0
40
1
40
1
40
1
10
-4.4041236870307099
20
-96.584030297265883
30
0
10
-4.4106217921439672
20
-97.8459499929305
30
0
10
-3.8407513383404801
20
-98.452575471387263
30
0
0
SPLINE
5
153
100
AcDbEntity
8
0
100
AcDbSpline
70
0
71
2
72
6
73
3
74
0
42
0.000000001
43
0.0000000001
44
0.0000000001
40
0
40
0
40
0
40
1
40
1
40
1
10
-3.8407513383404801
20
-98.452575471387263
30
0
10
-3.270878506521262
20
-99.059202154198005
30
0
10
-2.165846884723579
20
-99.064892382868351
30
0
0
SPLINE
5
154
100
AcDbEntity
8
0
100
AcDbSpline
70
0
71
2
72
6
73
3
74
0
42
0.000000001
43
0.0000000001
44
0.0000000001
40
0
40
0
40
0
40
1
40
1
40
1
10
-2.165846884723579
20
-99.064892382868351
30
0
10
-1.5041916478370565
20
-99.068299497673493
30
0
10
-0.80746276560113905
20
-98.884299379183318
30
0
0
SPLINE
5
155
100
AcDbEntity
8
0
100
AcDbSpline
70
0
71
2
72
6
73
3
74
0
42
0.000000001
43
0.0000000001
44
0.0000000001
40
0
40
0
40
0
40
1
40
1
40
1
10
-0.80746276560113905
20
-98.884299379183318
30
0
10
-0.11073626751939791
20
-98.700299248416201
30
0
10
0.39536683408969431
20
-98.443693250253958
30
0
0
LINE
5
156
100
AcDbEntity
8
0
100
AcDbLine
10
0.39536683408969436
20
-98.443693250253958
30
0
11
0.70997676287011924
21
-96.958254253846263
31
0
0
LINE
5
157
100
AcDbEntity
8
0
100
AcDbLine
10
0.70997676287011924
20
-96.958254253846263
30
0
11
-1.841149273071669
21
-96.945117534294553
31
0
0
LINE
5
158
100
AcDbEntity
8
0
100
AcDbLine
10
-1.841149273071669
20
-96.945117534294553
30
0
11
-1.4846621959582906
21
-95.275716961410879
31
0
0
LWPOLYLINE
5
159
100
AcDbEntity
8
0
100
AcDbPolyline
90
8
70
1
43
0.0
10
10.347627303495237
20
-98.467655053674974
10
6.3845145631364941
20
-98.447247476829148
10
5.1726027856701062
20
-100.65113230376267
10
3.0580344536790611
20
-100.64024358609097
10
8.7642930780982571
20
-90.669494705231671
10
11.049395190416696
20
-90.681261566285812
10
12.62134417174928
20
-100.68948871000191
10
10.670486170816865
20
-100.67944299917369
0
LWPOLYLINE
5
160
100
AcDbEntity
8
0
100
AcDbPolyline
90
3
70
1
43
0.0
10
10.103811218267955
20
-96.801985133220967
10
9.5447372324078259
20
-92.774496015647273
10
7.1093087974150082
20
-96.786565299804082
0
LINE
5
161
100
AcDbEntity
8
0
100
AcDbLine
10
15.977370196138265
20
-100.70677016613914
30
0
11
13.917370385063972
21
-100.69616244256397
31
0
0
LINE
5
162
100
AcDbEntity
8
0
100
AcDbLine
10
13.917370385063972
20
-100.69616244256397
30
0
11
16.062971031656378
21
-90.707078377705429
31
0
0
LINE
5
163
100
AcDbEntity
8
0
100
AcDbLine
10
16.062971031656378
20
-90.707078377705429
30
0
11
20.503563098345051
21
-90.729944677449822
31
0
0
SPLINE
5
164
100
AcDbEntity
8
0
100
AcDbSpline
70
0
71
2
72
6
73
3
74
0
42
0.000000001
43
0.0000000001
44
0.0000000001
40
0
40
0
40
0
40
1
40
1
40
1
10
20.503563098345055
20
-90.729944677449836
30
0
10
21.649525879138665
20
-90.735845676246385
30
0
10
22.286094387521072
20
-90.974460768719169
30
0
0
SPLINE
5
165
100
AcDbEntity
8
0
100
AcDbSpline
70
0
71
2
72
6
73
3
74
0
42
0.000000001
43
0.0000000001
44
0.0000000001
40
0
40
0
40
0
40
1
40
1
40
1
10
22.286094387521072
20
-90.974460768719169
30
0
10
22.922667661142615
20
-91.213076481784327
30
0
10
23.311653375191632
20
-91.842645472820536
30
0
0
SPLINE
5
166
100
AcDbEntity
8
0
100
AcDbSpline
70
0
71
2
72
6
73
3
74
0
42
0.000000001
43
0.0000000001
44
0.0000000001
40
0
40
0
40
0
40
1
40
1
40
1
10
23.311653375191632
20
-91.842645472820536
30
0
10
23.700639086171424
20
-92.472215059895291
30
0
10
23.696037721902119
20
-93.365791278986364
30
0
0
SPLINE
5
167
100
AcDbEntity
8
0
100
AcDbSpline
70
0
71
2
72
6
73
3
74
0
42
0.000000001
43
0.0000000001
44
0.0000000001
40
0
40
0
40
0
40
1
40
1
40
1
10
23.696037721902119
20
-93.365791278986364
30
0
10
23.689469365195492
20
-94.6413537009187
30
0
10
22.921228089794674
20
-95.466194618330974
30
0
0
SPLINE
5
168
100
AcDbEntity
8
0
100
AcDbSpline
70
0
71
2
72
6
73
3
74
0
42
0.000000001
43
0.0000000001
44
0.0000000001
40
0
40
0
40
0
40
1
40
1
40
1
10
22.921228089794674
20
-95.466194618330974
30
0
10
22.152986814393849
20
-96.291035535743219
30
0
10
20.603555414292085
20
-96.480877229246943
30
0
0
SPLINE
5
169
100
AcDbEntity
8
0
100
AcDbSpline
70
0
71
2
72
6
73
3
74
0
42
0.000000001
43
0.0000000001
44
0.0000000001
40
0
40
0
40
0
40
1
40
1
40
1
10
20.603555414292085
20
-96.480877229246943
30
0
10
20.99736023523544
20
-96.837615831898901
30
0
10
21.342256091020388
20
-97.419208469529394
30
0
0
SPLINE
5
170
100
AcDbEntity
8
0
100
AcDbSpline
70
0
71
2
72
6
73
3
74
0
42
0.000000001
43
0.0000000001
44
0.0000000001
40
0
40
0
40
0
40
1
40
1
40
1
10
21.342256091020388
20
-97.419208469529394
30
0
10
22.025154098658916
20
-98.596001930557748
30
0
10
22.859951256935229
20
-100.74221119724216
30
0
0
LINE
5
171
100
AcDbEntity
8
0
100
AcDbLine
10
22.859951256935226
20
-100.74221119724216
30
0
11
20.649888013339869
21
-100.73083073990151
31
0
0
SPLINE
5
172
100
AcDbEntity
8
0
100
AcDbSpline
70
0
71
2
72
6
73
3
74
0
42
0.000000001
43
0.0000000001
44
0.0000000001
40
0
40
0
40
0
40
1
40
1
40
1
10
20.649888013339872
20
-100.73083073990151
30
0
10
20.388214809704522
20
-99.883633285638282
30
0
10
19.619836934516393
20
-98.085655542804275
30
0
0
SPLINE
5
173
100
AcDbEntity
8
0
100
AcDbSpline
70
0
71
2
72
6
73
3
74
0
42
0.000000001
43
0.0000000001
44
0.0000000001
40
0
40
0
40
0
40
1
40
1
40
1
10
19.619836934516393
20
-98.085655542804275
30
0
10
19.201909098085352
20
-97.114868662019688
30
0
10
18.726150894358256
20
-96.778171192082013
30
0
0
SPLINE
5
174
100
AcDbEntity
8
0
100
AcDbSpline
70
0
71
2
72
6
73
3
74
0
42
0.000000001
43
0.0000000001
44
0.0000000001
40
0
40
0
40
0
40
1
40
1
40
1
10
18.726150894358256
20
-96.778171192082013
30
0
10
18.433856563983511
20
-96.578846347427856
30
0
10
17.70399067595104
20
-96.575087990002004
30
0
0
LINE
5
175
100
AcDbEntity
8
0
100
AcDbLine
10
17.703990675951044
20
-96.575087990002004
30
0
11
16.864982977776709
21
-96.57076761982924
31
0
0
LINE
5
176
100
AcDbEntity
8
0
100
AcDbLine
10
16.864982977776709
20
-96.57076761982924
30
0
11
15.977370196138265
21
-100.70677016613914
31
0
0
LINE
5
177
100
AcDbEntity
8
0
100
AcDbLine
10
17.186484223265097
20
-95.071721021415883
30
0
11
18.277873714833589
21
-95.077341001562061
31
0
0
SPLINE
5
178
100
AcDbEntity
8
0
100
AcDbSpline
70
0
71
2
72
6
73
3
74
0
42
0.000000001
43
0.0000000001
44
0.0000000001
40
0
40
0
40
0
40
1
40
1
40
1
10
18.277873714833586
20
-95.077341001562075
30
0
10
19.935423531684293
20
-95.08587635684448
30
0
10
20.478727559003673
20
-94.890854326370487
30
0
0
SPLINE
5
179
100
AcDbEntity
8
0
100
AcDbSpline
70
0
71
2
72
6
73
3
74
0
42
0.000000001
43
0.0000000001
44
0.0000000001
40
0
40
0
40
0
40
1
40
1
40
1
10
20.478727559003673
20
-94.890854326370487
30
0
10
21.022031586323049
20
-94.695832295896523
30
0
10
21.331164416159744
20
-94.274498542875861
30
0
0
SPLINE
5
180
100
AcDbEntity
8
0
100
AcDbSpline
70
0
71
2
72
6
73
3
74
0
42
0.000000001
43
0.0000000001
44
0.0000000001
40
0
40
0
40
0
40
1
40
1
40
1
10
21.331164416159744
20
-94.274498542875861
30
0
10
21.640297242927211
20
-93.853165385893732
30
0
10
21.642685735717031
20
-93.389324613561712
30
0
0
SPLINE
5
181
100
AcDbEntity
8
0
100
AcDbSpline
70
0
71
2
72
6
73
3
74
0
42
0.000000001
43
0.0000000001
44
0.0000000001
40
0
40
0
40
0
40
1
40
1
40
1
10
21.642685735717031
20
-93.389324613561712
30
0
10
21.645495728859352
20
-92.843629271738934
30
0
10
21.203519573745613
20
-92.568498164389268
30
0
0
SPLINE
5
182
100
AcDbEntity
8
0
100
AcDbSpline
70
0
71
2
72
6
73
3
74
0
42
0.000000001
43
0.0000000001
44
0.0000000001
40
0
40
0
40
0
40
1
40
1
40
1
10
21.203519573745613
20
-92.568498164389268
30
0
10
20.931515198489265
20
-92.403384626409718
30
0
10
20.024296849168984
20
-92.398713013616288
30
0
0
LINE
5
183
100
AcDbEntity
8
0
100
AcDbLine
10
20.024296849168984
20
-92.398713013616288
30
0
11
17.759660316348509
21
-92.387051537625254
31
0
0
LINE
5
184
100
AcDbEntity
8
0
100
AcDbLine
10
17.759660316348509
20
-92.387051537625254
30
0
11
17.186484223265097
21
-95.071721021415883
31
0
0
LINE
5
185
100
AcDbEntity
8
0
100
AcDbLine
10
23.999095356768425
20
-100.74807708405358
30
0
11
26.144696003360831
21
-90.758993019195032
31
0
0
LINE
5
186
100
AcDbEntity
8
0
100
AcDbLine
10
26.144696003360831
20
-90.758993019195032
30
0
11
28.839066790863271
21
-90.772867360527073
31
0
0
SPLINE
5
187
100
AcDbEntity
8
0
100
AcDbSpline
70
0
71
2
72
6
73
3
74
0
42
0.000000001
43
0.0000000001
44
0.0000000001
40
0
40
0
40
0
40
1
40
1
40
1
10
28.839066790863271
20
-90.772867360527059
30
0
10
29.964563992158915
20
-90.778662974260527
30
0
10
30.278162131359039
20
-90.81438463648098
30
0
0
SPLINE
5
188
100
AcDbEntity
8
0
100
AcDbSpline
70
0
71
2
72
6
73
3
74
0
42
0.000000001
43
0.0000000001
44
0.0000000001
40
0
40
0
40
0
40
1
40
1
40
1
10
30.278162131359039
20
-90.81438463648098
30
0
10
30.898574853060936
20
-90.87897178382218
30
0
10
31.385303471386585
20
-91.072476598692219
30
0
0
SPLINE
5
189
100
AcDbEntity
8
0
100
AcDbSpline
70
0
71
2
72
6
73
3
74
0
42
0.000000001
43
0.0000000001
44
0.0000000001
40
0
40
0
40
0
40
1
40
1
40
1
10
31.385303471386585
20
-91.072476598692219
30
0
10
31.872036858020589
20
-91.265981438116086
30
0
10
32.269303702768035
20
-91.612506595127286
30
0
0
SPLINE
5
190
100
AcDbEntity
8
0
100
AcDbSpline
70
0
71
2
72
6
73
3
74
0
42
0.000000001
43
0.0000000001
44
0.0000000001
40
0
40
0
40
0
40
1
40
1
40
1
10
32.269303702768035
20
-91.612506595127286
30
0
10
32.666570550584694
20
-91.959031156099911
30
0
10
32.953975525540962
20
-92.444828519367519
30
0
0
SPLINE
5
191
100
AcDbEntity
8
0
100
AcDbSpline
70
0
71
2
72
6
73
3
74
0
42
0.000000001
43
0.0000000001
44
0.0000000001
40
0
40
0
40
0
40
1
40
1
40
1
10
32.953975525540962
20
-92.444828519367519
30
0
10
33.241380497427997
20
-92.930626478673673
30
0
10
33.395023094969574
20
-93.562394221364286
30
0
0
SPLINE
5
192
100
AcDbEntity
8
0
100
AcDbSpline
70
0
71
2
72
6
73
3
74
0
42
0.000000001
43
0.0000000001
44
0.0000000001
40
0
40
0
40
0
40
1
40
1
40
1
10
33.395023094969574
20
-93.562394221364286
30
0
10
33.548660921133553
20
-94.194162535539618
30
0
10
33.544797181713825
20
-94.944493407031501
30
0
0
SPLINE
5
193
100
AcDbEntity
8
0
100
AcDbSpline
70
0
71
2
72
6
73
3
74
0
42
0.000000001
43
0.0000000001
44
0.0000000001
40
0
40
0
40
0
40
1
40
1
40
1
10
33.544797181713825
20
-94.944493407031501
30
0
10
33.536472575073056
20
-96.561116237156099
30
0
10
32.912707647564908
20
-97.80962611794719
30
0
0
SPLINE
5
194
100
AcDbEntity
8
0
100
AcDbSpline
70
0
71
2
72
6
73
3
74
0
42
0.000000001
43
0.0000000001
44
0.0000000001
40
0
40
0
40
0
40
1
40
1
40
1
10
32.912707647564908
20
-97.80962611794719
30
0
10
32.288942720056767
20
-99.058135998738265
30
0
10
31.350646622451759
20
-99.790012034120707
30
0
0
SPLINE
5
195
100
AcDbEntity
8
0
100
AcDbSpline
70
0
71
2
72
6
73
3
74
0
42
0.000000001
43
0.0000000001
44
0.0000000001
40
0
40
0
40
0
40
1
40
1
40
1
10
31.350646622451759
20
-99.790012034120707
30
0
10
30.631472371388647
20
-100.35930412353872
30
0
10
29.497751487957586
20
-100.62632196278933
30
0
0
SPLINE
5
196
100
AcDbEntity
8
0
100
AcDbSpline
70
0
71
2
72
6
73
3
74
0
42
0.000000001
43
0.0000000001
44
0.0000000001
40
0
40
0
40
0
40
1
40
1
40
1
10
29.497751487957586
20
-100.62632196278933
30
0
10
28.855784316218262
20
-100.77308602516872
30
0
10
27.525650393176431
20
-100.7662366590194
30
0
0
LINE
5
197
100
AcDbEntity
8
0
100
AcDbLine
10
27.525650393176431
20
-100.7662366590194
30
0
11
23.999095356768425
21
-100.74807708405358
31
0
0
LINE
5
198
100
AcDbEntity
8
0
100
AcDbLine
10
26.401623990229837
20
-99.150604764329344
30
0
11
27.44526364184199
21
-99.155978862364137
31
0
0
SPLINE
5
199
100
AcDbEntity
8
0
100
AcDbSpline
70
0
71
2
72
6
73
3
74
0
42
0.000000001
43
0.0000000001
44
0.0000000001
40
0
40
0
40
0
40
1
40
1
40
1
10
27.44526364184199
20
-99.155978862364137
30
0
10
28.577584292406407
20
-99.161809612636574
30
0
10
29.086482047632607
20
-99.024592194126484
30
0
0
SPLINE
5
200
100
AcDbEntity
8
0
100
AcDbSpline
70
0
71
2
72
6
73
3
74
0
42
0.000000001
43
0.0000000001
44
0.0000000001
40
0
40
0
40
0
40
1
40
1
40
1
10
29.086482047632607
20
-99.024592194126484
30
0
10
29.595379802858801
20
-98.887374775616394
30
0
10
30.020262372086908
20
-98.507565730092466
30
0
0
SPLINE
5
201
100
AcDbEntity
8
0
100
AcDbSpline
70
0
71
2
72
6
73
3
74
0
42
0.000000001
43
0.0000000001
44
0.0000000001
40
0
40
0
40
0
40
1
40
1
40
1
10
30.020262372086908
20
-98.507565730092466
30
0
10
30.630194208530295
20
-97.958174847825148
30
0
10
31.051028197369888
20
-97.039456389054024
30
0
0
SPLINE
5
202
100
AcDbEntity
8
0
100
AcDbSpline
70
0
71
2
72
6
73
3
74
0
42
0.000000001
43
0.0000000001
44
0.0000000001
40
0
40
0
40
0
40
1
40
1
40
1
10
31.051028197369888
20
-97.039456389054024
30
0
10
31.471862186209467
20
-96.1207379302829
30
0
10
31.478290045867823
20
-94.872459768808923
30
0
0
SPLINE
5
203
100
AcDbEntity
8
0
100
AcDbSpline
70
0
71
2
72
6
73
3
74
0
42
0.000000001
43
0.0000000001
44
0.0000000001
40
0
40
0
40
0
40
1
40
1
40
1
10
31.478290045867823
20
-94.872459768808923
30
0
10
31.483769532034962
20
-93.808353941660272
30
0
10
31.14205470288832
20
-93.27111697534427
30
0
0
SPLINE
5
204
100
AcDbEntity
8
0
100
AcDbSpline
70
0
71
2
72
6
73
3
74
0
42
0.000000001
43
0.0000000001
44
0.0000000001
40
0
40
0
40
0
40
1
40
1
40
1
10
31.14205470288832
20
-93.27111697534427
30
0
10
30.800344645119281
20
-92.733879437543578
30
0
10
30.296489539251734
20
-92.55392892383216
30
0
0
SPLINE
5
205
100
AcDbEntity
8
0
100
AcDbSpline
70
0
71
2
72
6
73
3
74
0
42
0.000000001
43
0.0000000001
44
0.0000000001
40
0
40
0
40
0
40
1
40
1
40
1
10
30.296489539251734
20
-92.55392892383216
30
0
10
29.942416865670261
20
-92.429320856880111
30
0
10
29.035198516349983
20
-92.424649244086666
30
0
0
LINE
5
206
100
AcDbEntity
8
0
100
AcDbLine
10
29.035198516349983
20
-92.424649244086666
30
0
11
27.841490663908395
21
-92.418502387732545
31
0
0
LINE
5
207
100
AcDbEntity
8
0
100
AcDbLine
10
27.841490663908395
20
-92.418502387732545
30
0
11
26.401623990229837
21
-99.150604764329344
31
0
0
CIRCLE
5
208
100
AcDbEntity
8
0
100
AcDbCircle
10
-25
20
100
30
0
40
1.499999999999998
210
0
220
0
230
1
0
CIRCLE
5
209
100
AcDbEntity
8
0
100
AcDbCircle
10
25
20
100
30
0
40
1.4999999999999971
210
0
220
0
230
1
0
CIRCLE
5
210
100
AcDbEntity
8
0
100
AcDbCircle
10
-20
20
30
30
0
40
1.5000000000000016
210
0
220
0
230
1
0
CIRCLE
5
211
100
AcDbEntity
8
0
100
AcDbCircle
10
20
20
0
30
0
40
1.5000000000000022
210
0
220
0
230
1
0
CIRCLE
5
212
100
AcDbEntity
8
0
100
AcDbCircle
10
-50
20
-10
30
0
40
1.5000000000000024
210
0
220
0
230
1
0
CIRCLE
5
213
100
AcDbEntity
8
0
100
AcDbCircle
10
-10
20
-10
30
0
40
1.5000000000000009
210
0
220
0
230
1
0
CIRCLE
5
214
100
AcDbEntity
8
0
100
AcDbCircle
10
-46.04666302287265
20
-60
30
0
40
1.5000000000000036
210
0
220
0
230
1
0
CIRCLE
5
215
100
AcDbEntity
8
0
100
AcDbCircle
10
-5.7563145828321005
20
-60.494394794759103
30
0
40
1.5000000000000033
210
0
220
0
230
1
0
CIRCLE
5
216
100
AcDbEntity
8
0
100
AcDbCircle
10
20
20
-20
30
0
40
1.5000000000000022
210
0
220
0
230
1
0
CIRCLE
5
217
100
AcDbEntity
8
0
100
AcDbCircle
10
50
20
-20
30
0
40
1.5000000000000002
210
0
220
0
230
1
0
CIRCLE
5
218
100
AcDbEntity
8
0
100
AcDbCircle
10
20
20
-50
30
0
40
1.4999999999999989
210
0
220
0
230
1
0
CIRCLE
5
219
100
AcDbEntity
8
0
100
AcDbCircle
10
50
20
-50
30
0
40
1.4999999999999989
210
0
220
0
230
1
0
ENDSEC
0
SECTION
2
OBJECTS
0
DICTIONARY
5
C
100
AcDbDictionary
3
ACAD_GROUP
350
D
3
ACAD_MLINESTYLE
350
17
0
DICTIONARY
5
D
100
AcDbDictionary
0
DICTIONARY
5
1A
330
C
100
AcDbDictionary
0
DICTIONARY
5
17
100
AcDbDictionary
0
ENDSEC
0
EOF
