0
SECTION
2
HEADER
9
$INSUNITS
70
4
9
$ACADVER
1
AC1014
9
$HANDSEED
5
FFFF
0
ENDSEC
0
SECTION
2
TABLES
0
TABLE
2
VPORT
5
8
100
AcDbSymbolTable
0
ENDTAB
0
TABLE
2
LTYPE
5
5
100
AcDbSymbolTable
0
LTYPE
5
14
100
AcDbSymbolTableRecord
100
AcDbLinetypeTableRecord
2
BYBLOCK
70
0
0
LTYPE
5
15
100
AcDbSymbolTableRecord
100
AcDbLinetypeTableRecord
2
BYLAYER
70
0
0
ENDTAB
0
TABLE
2
LAYER
5
2
100
AcDbSymbolTable
70
2
0
LAYER
5
50
100
AcDbSymbolTableRecord
100
AcDbLayerTableRecord
2
0
70
0
6
CONTINUOUS
0
ENDTAB
0
TABLE
2
STYLE
5
3
100
AcDbSymbolTable
70
1
0
STYLE
5
11
100
AcDbSymbolTableRecord
100
AcDbTextStyleTableRecord
2
STANDARD
70
0
0
ENDTAB
0
TABLE
2
VIEW
5
6
100
AcDbSymbolTable
70
0
0
ENDTAB
0
TABLE
2
UCS
5
7
100
AcDbSymbolTable
70
0
0
ENDTAB
0
TABLE
2
APPID
5
9
100
AcDbSymbolTable
70
2
0
APPID
5
12
100
AcDbSymbolTableRecord
100
AcDbRegAppTableRecord
2
ACAD
70
0
0
ENDTAB
0
TABLE
2
DIMSTYLE
5
A
100
AcDbSymbolTable
70
1
0
ENDTAB
0
TABLE
2
BLOCK_RECORD
5
1
100
AcDbSymbolTable
70
1
0
BLOCK_RECORD
5
1F
100
AcDbSymbolTableRecord
100
AcDbBlockTableRecord
2
*MODEL_SPACE
0
BLOCK_RECORD
5
1B
100
AcDbSymbolTableRecord
100
AcDbBlockTableRecord
2
*PAPER_SPACE
0
ENDTAB
0
ENDSEC
0
SECTION
2
BLOCKS
0
BLOCK
5
20
100
AcDbEntity
100
AcDbBlockBegin
2
*MODEL_SPACE
0
ENDBLK
5
21
100
AcDbEntity
100
AcDbBlockEnd
0
BLOCK
5
1C
100
AcDbEntity
100
AcDbBlockBegin
2
*PAPER_SPACE
0
ENDBLK
5
1D
100
AcDbEntity
100
AcDbBlockEnd
0
ENDSEC
0
SECTION
2
ENTITIES
0
SPLINE
5
100
100
AcDbEntity
8
0
100
AcDbSpline
70
0
71
2
72
6
73
3
74
0
42
0.000000001
43
0.0000000001
44
0.0000000001
40
0
40
0
40
0
40
1
40
1
40
1
10
-11.209590124296213
20
-143.50774380261782
30
0
10
-10.823649573041523
20
-143.61149206392486
30
0
10
-10.605683829456819
20
-143.88152180691651
30
0
0
SPLINE
5
101
100
AcDbEntity
8
0
100
AcDbSpline
70
0
71
2
72
6
73
3
74
0
42
0.000000001
43
0.0000000001
44
0.0000000001
40
0
40
0
40
0
40
1
40
1
40
1
10
-10.637370877936537
20
-145.34827952275037
30
0
10
-10.891089185978755
20
-145.75374959122462
30
0
10
-11.340376686829565
20
-145.93341324497834
30
0
0
SPLINE
5
102
100
AcDbEntity
8
0
100
AcDbSpline
70
0
71
2
72
6
73
3
74
0
42
0.000000001
43
0.0000000001
44
0.0000000001
40
0
40
0
40
0
40
1
40
1
40
1
10
-10.605683829456819
20
-143.88152180691651
30
0
10
-10.387717787852814
20
-144.15155154837709
30
0
10
-10.385965536726475
20
-144.49261138108298
30
0
0
SPLINE
5
103
100
AcDbEntity
8
0
100
AcDbSpline
70
0
71
2
72
6
73
3
74
0
42
0.000000001
43
0.0000000001
44
0.0000000001
40
0
40
0
40
0
40
1
40
1
40
1
10
-10.385965536726475
20
-144.49261138108298
30
0
10
-10.383652566832067
20
-144.94281005031462
30
0
10
-10.637370877936537
20
-145.34827952275037
30
0
0
LWPOLYLINE
5
104
100
AcDbEntity
8
0
100
AcDbPolyline
90
23
70
1
43
0.0
10
-60
20
-110
10
-70
20
-110
10
-70
20
-70
10
-60
20
-60
10
-60
20
0
42
0.41421356237309503
10
-30
20
30
10
-30
20
60
10
-60
20
40
10
-60
20
60
10
-60
20
80
10
-30
20
80
10
0
20
100
10
30
20
80
10
60
20
80
10
60
20
60
10
60
20
40
10
30
20
60
10
30
20
30.000000000000004
42
0.41421356237309509
10
60
20
0
10
60
20
-60
10
70
20
-70
10
70
20
-110
10
60
20
-110
0
CIRCLE
5
105
100
AcDbEntity
8
0
100
AcDbCircle
10
-19.47517383016411
20
45.087599723252112
30
0
40
1.4999999999999989
210
0
220
0
230
1
0
CIRCLE
5
106
100
AcDbEntity
8
0
100
AcDbCircle
10
-18.754954371314554
20
13.397943533872477
30
0
40
1.4999999999999989
210
0
220
0
230
1
0
CIRCLE
5
107
100
AcDbEntity
8
0
100
AcDbCircle
10
0
20
-10
30
0
40
1.5000000000000011
210
0
220
0
230
1
0
CIRCLE
5
108
100
AcDbEntity
8
0
100
AcDbCircle
10
50
20
-20
30
0
40
1.5000000000000013
210
0
220
0
230
1
0
CIRCLE
5
109
100
AcDbEntity
8
0
100
AcDbCircle
10
20
20
-50
30
0
40
1.5000000000000016
210
0
220
0
230
1
0
CIRCLE
5
110
100
AcDbEntity
8
0
100
AcDbCircle
10
50
20
-50
30
0
40
1.4999999999999971
210
0
220
0
230
1
0
LWPOLYLINE
5
111
100
AcDbEntity
8
0
100
AcDbPolyline
90
6
70
1
43
0.0
10
-50
20
-130
10
50
20
-130
10
70
20
-160
10
50
20
-160
10
-50
20
-160
10
-70
20
-160
0
SPLINE
5
112
100
AcDbEntity
8
0
100
AcDbSpline
70
0
71
2
72
6
73
3
74
0
42
0.000000001
43
0.0000000001
44
0.0000000001
40
0
40
0
40
0
40
1
40
1
40
1
10
11.870414170937984
20
-89.218967475271853
30
0
10
11.649417980693705
20
-89.027165116754617
30
0
10
11.216271517657173
20
-89.025587026682459
30
0
0
SPLINE
5
113
100
AcDbEntity
8
0
100
AcDbSpline
70
0
71
2
72
6
73
3
74
0
42
0.000000001
43
0.0000000001
44
0.0000000001
40
0
40
0
40
0
40
1
40
1
40
1
10
11.216271517657173
20
-89.025587026682459
30
0
10
10.789943780728017
20
-89.02403377939423
30
0
10
10.606929357394677
20
-89.173436398023185
30
0
0
SPLINE
5
114
100
AcDbEntity
8
0
100
AcDbSpline
70
0
71
2
72
6
73
3
74
0
42
0.000000001
43
0.0000000001
44
0.0000000001
40
0
40
0
40
0
40
1
40
1
40
1
10
10.606929357394677
20
-89.173436398023185
30
0
10
10.423914935147124
20
-89.322838718630905
30
0
10
10.423082395695101
20
-89.551350085219497
30
0
0
SPLINE
5
115
100
AcDbEntity
8
0
100
AcDbSpline
70
0
71
2
72
6
73
3
74
0
42
0.000000001
43
0.0000000001
44
0.0000000001
40
0
40
0
40
0
40
1
40
1
40
1
10
10.423082395695101
20
-89.551350085219497
30
0
10
10.422299559183436
20
-89.76621923125343
30
0
10
10.588908489238484
20
-89.906663241471563
30
0
0
SPLINE
5
116
100
AcDbEntity
8
0
100
AcDbSpline
70
0
71
2
72
6
73
3
74
0
42
0.000000001
43
0.0000000001
44
0.0000000001
40
0
40
0
40
0
40
1
40
1
40
1
10
7.34142879938529
20
-90.051721943079087
30
0
10
7.495677766571367
20
-89.840822821313552
30
0
10
7.4965227317584793
20
-89.60890089958626
30
0
0
SPLINE
5
117
100
AcDbEntity
8
0
100
AcDbSpline
70
0
71
2
72
6
73
3
74
0
42
0.000000001
43
0.0000000001
44
0.0000000001
40
0
40
0
40
0
40
1
40
1
40
1
10
7.4965227317584793
20
-89.60890089958626
30
0
10
7.4975168090240292
20
-89.336051422131177
30
0
10
7.2763241879309248
20
-89.198818848582704
30
0
0
SPLINE
5
118
100
AcDbEntity
8
0
100
AcDbSpline
70
0
71
2
72
6
73
3
74
0
42
0.000000001
43
0.0000000001
44
0.0000000001
40
0
40
0
40
0
40
1
40
1
40
1
10
6.9156773645440541
20
-90.36054139321736
30
0
10
7.1871810231984101
20
-90.262621367209007
30
0
10
7.34142879938529
20
-90.051721943079087
30
0
0
SPLINE
5
119
100
AcDbEntity
8
0
100
AcDbSpline
70
0
71
2
72
6
73
3
74
0
42
0.000000001
43
0.0000000001
44
0.0000000001
40
0
40
0
40
0
40
1
40
1
40
1
10
-10.495739132273016
20
-143.04192824516903
30
0
10
-10.726091566732181
20
-143.34836812063463
30
0
10
-11.209590124296213
20
-143.50774380261782
30
0
0
LWPOLYLINE
5
120
100
AcDbEntity
8
0
100
AcDbPolyline
90
4
70
1
43
0.0
10
70
20
-30
10
80
20
0
10
110
20
0
10
100
20
-30
0
LWPOLYLINE
5
121
100
AcDbEntity
8
0
100
AcDbPolyline
90
7
70
1
43
0.0
10
-112.22101428131772
20
49.999999999999972
10
-122.22101428131772
20
49.999999999999972
10
-97.221014281317721
20
16.989502633635677
10
-72.221014281317693
20
49.999999999999964
10
-82.221014281317707
20
49.999999999999964
10
-82.221014281317707
20
99.999999999999972
10
-112.22101428131772
20
99.999999999999972
0
LWPOLYLINE
5
122
100
AcDbEntity
8
0
100
AcDbPolyline
90
7
70
1
43
0.0
10
-97.221014281317721
20
-83.010497366364319
10
-122.22101428131772
20
-50.000000000000028
10
-112.22101428131772
20
-50.000000000000028
10
-112.22101428131772
20
-4.4408920985006262e-14
10
-82.221014281317707
20
-4.4408920985006262e-14
10
-82.221014281317707
20
-50.000000000000036
10
-72.221014281317693
20
-50.000000000000036
0
LWPOLYLINE
5
123
100
AcDbEntity
8
0
100
AcDbPolyline
90
4
70
1
43
0.0
10
100
20
20
10
70
20
20
10
80
20
50
10
110
20
50
0
LWPOLYLINE
5
124
100
AcDbEntity
8
0
100
AcDbPolyline
90
4
70
1
43
0.0
10
29.865027901957056
20
-100.10682642048927
10
29.907811460432058
20
-88.363804043729019
10
-11.117210537518275
20
-88.21433686472912
10
-11.15999409599328
20
-99.957359241489314
0
LINE
5
125
100
AcDbEntity
8
0
100
AcDbLine
10
-13.906047645145787
20
-141.12388477519426
30
0
11
-12.197338991921127
21
-141.11510600274704
31
0
0
LWPOLYLINE
5
126
100
AcDbEntity
8
0
100
AcDbPolyline
90
4
70
1
43
0.0
10
-14.953100593210015
20
-141.12926418235875
10
-14.880168758016019
20
-155.32478623752996
10
39.776216661136431
20
-155.04398004539439
10
39.703284825942433
20
-140.84845799022315
0
LINE
5
127
100
AcDbEntity
8
0
100
AcDbLine
10
-14.92741260780525
20
-146.1291981946639
30
0
11
-13.906047645145787
21
-141.12388477519426
31
0
0
SPLINE
5
128
100
AcDbEntity
8
0
100
AcDbSpline
70
0
71
2
72
6
73
3
74
0
42
0.000000001
43
0.0000000001
44
0.0000000001
40
0
40
0
40
0
40
1
40
1
40
1
10
-12.197338991921127
20
-141.11510600274704
30
0
10
-11.641411720907149
20
-141.11224983472789
30
0
10
-11.419547694247708
20
-141.14521679562182
30
0
0
SPLINE
5
129
100
AcDbEntity
8
0
100
AcDbSpline
70
0
71
2
72
6
73
3
74
0
42
0.000000001
43
0.0000000001
44
0.0000000001
40
0
40
0
40
0
40
1
40
1
40
1
10
5.2049793697483455
20
-145.29246710312762
30
0
10
5.0085953835804178
20
-144.90806853078178
30
0
10
5.0196617090587816
20
-144.40664118537165
30
0
0
SPLINE
5
130
100
AcDbEntity
8
0
100
AcDbSpline
70
0
71
2
72
6
73
3
74
0
42
0.000000001
43
0.0000000001
44
0.0000000001
40
0
40
0
40
0
40
1
40
1
40
1
10
-6.6768156532087009
20
-90.166066426428046
30
0
10
-6.9098499968777061
20
-90.470471807470147
30
0
10
-7.3947293618788068
20
-90.625595837105294
30
0
0
SPLINE
5
131
100
AcDbEntity
8
0
100
AcDbSpline
70
0
71
2
72
6
73
3
74
0
42
0.000000001
43
0.0000000001
44
0.0000000001
40
0
40
0
40
0
40
1
40
1
40
1
10
-6.5797844600082547
20
-91.617657536434706
30
0
10
-6.5814246874421212
20
-92.067859159334574
30
0
10
-6.8386935668496251
20
-92.471085148273048
30
0
0
SPLINE
5
132
100
AcDbEntity
8
0
100
AcDbSpline
70
0
71
2
72
6
73
3
74
0
42
0.000000001
43
0.0000000001
44
0.0000000001
40
0
40
0
40
0
40
1
40
1
40
1
10
-6.4422656396495448
20
-89.445565568829494
30
0
10
-6.4437816075609398
20
-89.861661044300121
30
0
10
-6.6768156532087009
20
-90.166066426428046
30
0
0
SPLINE
5
133
100
AcDbEntity
8
0
100
AcDbSpline
70
0
71
2
72
6
73
3
74
0
42
0.000000001
43
0.0000000001
44
0.0000000001
40
0
40
0
40
0
40
1
40
1
40
1
10
-6.7941284218172253
20
-91.004662216834888
30
0
10
-6.5785418626119787
20
-91.276595466099891
30
0
10
-6.5797844600082547
20
-91.617657536434706
30
0
0
SPLINE
5
134
100
AcDbEntity
8
0
100
AcDbSpline
70
0
71
2
72
6
73
3
74
0
42
0.000000001
43
0.0000000001
44
0.0000000001
40
0
40
0
40
0
40
1
40
1
40
1
10
-8.6893851716420727
20
-90.242295196919727
30
0
10
-8.1607392904464611
20
-90.244221221689585
30
0
10
-7.9285439971182692
20
-90.170032483719638
30
0
0
SPLINE
5
135
100
AcDbEntity
8
0
100
AcDbSpline
70
0
71
2
72
6
73
3
74
0
42
0.000000001
43
0.0000000001
44
0.0000000001
40
0
40
0
40
0
40
1
40
1
40
1
10
-6.8386935668496251
20
-92.471085148273048
30
0
10
-7.0959624484287067
20
-92.874311733254004
30
0
10
-7.5468102204111105
20
-93.05002335324366
30
0
0
LINE
5
136
100
AcDbEntity
8
0
100
AcDbLine
10
-8.7786897243625237
20
-93.222890022736706
30
0
11
-11.135427003925226
21
-93.214303680654126
31
0
0
SPLINE
5
137
100
AcDbEntity
8
0
100
AcDbSpline
70
0
71
2
72
6
73
3
74
0
42
0.000000001
43
0.0000000001
44
0.0000000001
40
0
40
0
40
0
40
1
40
1
40
1
10
-8.3614308561995614
20
-88.224377044961813
30
0
10
-7.8054999378520673
20
-88.226402477783964
30
0
10
-7.5839339410632745
20
-88.261316313195053
30
0
0
SPLINE
5
138
100
AcDbEntity
8
0
100
AcDbSpline
70
0
71
2
72
6
73
3
74
0
42
0.000000001
43
0.0000000001
44
0.0000000001
40
0
40
0
40
0
40
1
40
1
40
1
10
-7.5839339410632745
20
-88.261316313195053
30
0
10
-7.2157735208815144
20
-88.313817538701684
30
0
10
-6.9605362860779207
20
-88.468227447658805
30
0
0
SPLINE
5
139
100
AcDbEntity
8
0
100
AcDbSpline
70
0
71
2
72
6
73
3
74
0
42
0.000000001
43
0.0000000001
44
0.0000000001
40
0
40
0
40
0
40
1
40
1
40
1
10
-6.5732169631145956
20
-88.878918074689963
30
0
10
-6.4411348760406479
20
-89.135199090785235
30
0
10
-6.4422656396495448
20
-89.445565568829494
30
0
0
SPLINE
5
140
100
AcDbEntity
8
0
100
AcDbSpline
70
0
71
2
72
6
73
3
74
0
42
0.000000001
43
0.0000000001
44
0.0000000001
40
0
40
0
40
0
40
1
40
1
40
1
10
-7.3947293618788068
20
-90.625595837105294
30
0
10
-7.0097146830012269
20
-90.732728968655678
30
0
10
-6.7941284218172253
20
-91.004662216834888
30
0
0
LINE
5
141
100
AcDbEntity
8
0
100
AcDbLine
10
-9.4738273075675554
20
-90.239437225188439
30
0
11
-8.6893851716420727
21
-90.242295196919727
31
0
0
SPLINE
5
142
100
AcDbEntity
8
0
100
AcDbSpline
70
0
71
2
72
6
73
3
74
0
42
0.000000001
43
0.0000000001
44
0.0000000001
40
0
40
0
40
0
40
1
40
1
40
1
10
-7.5468102204111105
20
-93.05002335324366
30
0
10
-7.9976579945650892
20
-93.225735569275798
30
0
10
-8.7786897243625237
20
-93.222890022736706
30
0
0
SPLINE
5
143
100
AcDbEntity
8
0
100
AcDbSpline
70
0
71
2
72
6
73
3
74
0
42
0.000000001
43
0.0000000001
44
0.0000000001
40
0
40
0
40
0
40
1
40
1
40
1
10
-7.4624756078015047
20
-89.561221720549668
30
0
10
-7.4617797536070407
20
-89.370227056528933
30
0
10
-7.5704719721083524
20
-89.247047355350375
30
0
0
SPLINE
5
144
100
AcDbEntity
8
0
100
AcDbSpline
70
0
71
2
72
6
73
3
74
0
42
0.000000001
43
0.0000000001
44
0.0000000001
40
0
40
0
40
0
40
1
40
1
40
1
10
-7.5797661472928359
20
-89.925735492282911
30
0
10
-7.4631838877310557
20
-89.755626939709018
30
0
10
-7.4624756078015047
20
-89.561221720549668
30
0
0
SPLINE
5
145
100
AcDbEntity
8
0
100
AcDbSpline
70
0
71
2
72
6
73
3
74
0
42
0.000000001
43
0.0000000001
44
0.0000000001
40
0
40
0
40
0
40
1
40
1
40
1
10
3.0889534594372781
20
-141.03657015479041
30
0
10
3.6619336922846246
20
-141.03362637436803
30
0
10
3.9814295877674266
20
-141.14965348382754
30
0
0
LINE
5
146
100
AcDbEntity
8
0
100
AcDbLine
10
0.86865490814416635
20
-141.04797730469269
30
0
11
3.0889534594372781
21
-141.03657015479041
31
0
0
LWPOLYLINE
5
147
100
AcDbEntity
8
0
100
AcDbPolyline
90
3
70
1
43
0.0
10
-2.3796560221960261
20
-142.1151572275113
10
-3.5766689938713925
20
-144.13361207411145
10
-2.0794176932209627
20
-144.12591969867933
0
LINE
5
148
100
AcDbEntity
8
0
100
AcDbLine
10
-0.15270973786980058
20
-146.05329072253554
30
0
11
0.86865490814416635
21
-141.04797730469269
31
0
0
LWPOLYLINE
5
149
100
AcDbEntity
8
0
100
AcDbPolyline
90
8
70
1
43
0.0
10
-1.6381331635340368
20
-141.06085634174391
10
-0.80072288357623544
20
-146.05661999691961
10
-1.7761531348987014
20
-146.06163143067002
10
-1.9489501081976268
20
-144.95745655908757
10
-3.9305065977850528
20
-144.9676371322827
10
-4.5250938010454043
20
-146.07575456660274
10
-5.5823786267911668
20
-146.08118654172597
10
-2.780681904388751
20
-141.06672637428974
0
SPLINE
5
150
100
AcDbEntity
8
0
100
AcDbSpline
70
0
71
2
72
6
73
3
74
0
42
0.000000001
43
0.0000000001
44
0.0000000001
40
0
40
0
40
0
40
1
40
1
40
1
10
4.3220811688494738
20
-143.39213484706897
30
0
10
3.9422233309520314
20
-143.8084848465341
30
0
10
3.1685262426430598
20
-143.91136998987719
30
0
0
SPLINE
5
151
100
AcDbEntity
8
0
100
AcDbSpline
70
0
71
2
72
6
73
3
74
0
42
0.000000001
43
0.0000000001
44
0.0000000001
40
0
40
0
40
0
40
1
40
1
40
1
10
4.6986623004172596
20
-142.33800359820515
30
0
10
4.701939006746918
20
-142.97578484760382
30
0
10
4.3220811688494738
20
-143.39213484706897
30
0
0
SPLINE
5
152
100
AcDbEntity
8
0
100
AcDbSpline
70
0
71
2
72
6
73
3
74
0
42
0.000000001
43
0.0000000001
44
0.0000000001
40
0
40
0
40
0
40
1
40
1
40
1
10
4.4986449758965854
20
-141.57844803363614
30
0
10
4.6963668526972713
20
-141.89121546173627
30
0
10
4.6986623004172596
20
-142.33800359820515
30
0
0
SPLINE
5
153
100
AcDbEntity
8
0
100
AcDbSpline
70
0
71
2
72
6
73
3
74
0
42
0.000000001
43
0.0000000001
44
0.0000000001
40
0
40
0
40
0
40
1
40
1
40
1
10
3.5426820470193321
20
-144.37671136916461
30
0
10
3.890165688631726
20
-144.9615645588633
30
0
10
4.3185821595817533
20
-146.03031872316126
30
0
0
LINE
5
154
100
AcDbEntity
8
0
100
AcDbLine
10
4.3185821595817533
20
-146.03031872316126
30
0
11
3.2135480870408406
21
-146.03599601791299
31
0
0
SPLINE
5
155
100
AcDbEntity
8
0
100
AcDbSpline
70
0
71
2
72
6
73
3
74
0
42
0.000000001
43
0.0000000001
44
0.0000000001
40
0
40
0
40
0
40
1
40
1
40
1
10
3.0979375145344257
20
-143.11704264064016
30
0
10
3.3685708892034598
20
-143.01674236810098
30
0
10
3.5209608514349089
20
-142.80449665443868
30
0
0
SPLINE
5
156
100
AcDbEntity
8
0
100
AcDbSpline
70
0
71
2
72
6
73
3
74
0
42
0.000000001
43
0.0000000001
44
0.0000000001
40
0
40
0
40
0
40
1
40
1
40
1
10
2.2314003633404007
20
-144.06966533620934
30
0
10
2.0842369181402254
20
-143.97151156372087
30
0
10
1.7193027600560695
20
-143.97338647313038
30
0
0
LINE
5
157
100
AcDbEntity
8
0
100
AcDbLine
10
1.4528320186763
20
-143.22440449033246
30
0
11
1.9985279894211283
21
-143.22160088730544
31
0
0
LINE
5
158
100
AcDbEntity
8
0
100
AcDbLine
10
1.7193027600560695
20
-143.97338647313038
30
0
11
1.2998000777668763
21
-143.97554173733053
31
0
0
SPLINE
5
159
100
AcDbEntity
8
0
100
AcDbSpline
70
0
71
2
72
6
73
3
74
0
42
0.000000001
43
0.0000000001
44
0.0000000001
40
0
40
0
40
0
40
1
40
1
40
1
10
1.9985279894211283
20
-143.22160088730544
30
0
10
2.8273029477882328
20
-143.21734291930392
30
0
10
3.0979375145344257
20
-143.11704264064016
30
0
0
LINE
5
160
100
AcDbEntity
8
0
100
AcDbLine
10
1.2998000777668763
20
-143.97554173733053
30
0
11
0.87729022973486392
21
-146.04799892786991
31
0
0
SPLINE
5
161
100
AcDbEntity
8
0
100
AcDbSpline
70
0
71
2
72
6
73
3
74
0
42
0.000000001
43
0.0000000001
44
0.0000000001
40
0
40
0
40
0
40
1
40
1
40
1
10
3.1685262426430598
20
-143.91136998987719
30
0
10
3.3672518874986856
20
-144.08770436924684
30
0
10
3.5426820470193321
20
-144.37671136916461
30
0
0
SPLINE
5
162
100
AcDbEntity
8
0
100
AcDbSpline
70
0
71
2
72
6
73
3
74
0
42
0.000000001
43
0.0000000001
44
0.0000000001
40
0
40
0
40
0
40
1
40
1
40
1
10
3.2135480870408384
20
-146.03599601791299
30
0
10
3.0783633277770739
20
-145.61376557774912
30
0
10
2.6849470227388195
20
-144.71877633667901
30
0
0
SPLINE
5
163
100
AcDbEntity
8
0
100
AcDbSpline
70
0
71
2
72
6
73
3
74
0
42
0.000000001
43
0.0000000001
44
0.0000000001
40
0
40
0
40
0
40
1
40
1
40
1
10
2.6849470227388195
20
-144.71877633667901
30
0
10
2.4710010284348383
20
-144.23555814309239
30
0
10
2.2314003633404007
20
-144.06966533620934
30
0
0
LINE
5
164
100
AcDbEntity
8
0
100
AcDbLine
10
2.8579149428448125
20
-141.87337523321585
30
0
11
1.7255978002785421
21
-141.87919269923844
31
0
0
SPLINE
5
165
100
AcDbEntity
8
0
100
AcDbSpline
70
0
71
2
72
6
73
3
74
0
42
0.000000001
43
0.0000000001
44
0.0000000001
40
0
40
0
40
0
40
1
40
1
40
1
10
3.5209608514349089
20
-142.80449665443868
30
0
10
3.6733520072746506
20
-142.59225123267117
30
0
10
3.672160477978617
20
-142.36033083252971
30
0
0
LINE
5
166
100
AcDbEntity
8
0
100
AcDbLine
10
1.7255978002785421
20
-141.87919269923844
30
0
11
1.4528320186763
21
-143.22440449033246
31
0
0
LINE
5
167
100
AcDbEntity
8
0
100
AcDbLine
10
5.0196617090587816
20
-144.40664118537165
30
0
11
5.9982396544033225
21
-144.35045304592737
31
0
0
SPLINE
5
168
100
AcDbEntity
8
0
100
AcDbSpline
70
0
71
2
72
6
73
3
74
0
42
0.000000001
43
0.0000000001
44
0.0000000001
40
0
40
0
40
0
40
1
40
1
40
1
10
3.672160477978617
20
-142.36033083252971
30
0
10
3.6707586779962158
20
-142.08748314517661
30
0
10
3.4483695714250029
20
-141.9521981122009
30
0
0
SPLINE
5
169
100
AcDbEntity
8
0
100
AcDbSpline
70
0
71
2
72
6
73
3
74
0
42
0.000000001
43
0.0000000001
44
0.0000000001
40
0
40
0
40
0
40
1
40
1
40
1
10
3.4483695714250029
20
-141.9521981122009
30
0
10
3.3115253369164788
20
-141.87104473502254
30
0
10
2.8579149428448125
20
-141.87337523321585
30
0
0
SPLINE
5
170
100
AcDbEntity
8
0
100
AcDbSpline
70
0
71
2
72
6
73
3
74
0
42
0.000000001
43
0.0000000001
44
0.0000000001
40
0
40
0
40
0
40
1
40
1
40
1
10
5.9982396544033207
20
-144.35045304592737
30
0
10
6.0211034348089445
20
-144.81759984196518
30
0
10
6.1617799339990578
20
-144.98058996724868
30
0
0
SPLINE
5
171
100
AcDbEntity
8
0
100
AcDbSpline
70
0
71
2
72
6
73
3
74
0
42
0.000000001
43
0.0000000001
44
0.0000000001
40
0
40
0
40
0
40
1
40
1
40
1
10
7.7242706097050267
20
-145.05782917552574
30
0
10
7.9484418498041549
20
-144.87591147089415
30
0
10
7.9471276622249585
20
-144.62011674537445
30
0
0
SPLINE
5
172
100
AcDbEntity
8
0
100
AcDbSpline
70
0
71
2
72
6
73
3
74
0
42
0.000000001
43
0.0000000001
44
0.0000000001
40
0
40
0
40
0
40
1
40
1
40
1
10
6.9953309871542508
20
-145.24234080700538
30
0
10
7.5000993726681404
20
-145.23974747619582
30
0
10
7.7242706097050267
20
-145.05782917552574
30
0
0
SPLINE
5
173
100
AcDbEntity
8
0
100
AcDbSpline
70
0
71
2
72
6
73
3
74
0
42
0.000000001
43
0.0000000001
44
0.0000000001
40
0
40
0
40
0
40
1
40
1
40
1
10
6.1617799339990578
20
-144.98058996724868
30
0
10
6.3882466187559253
20
-145.2454598030474
30
0
10
6.9953309871542508
20
-145.24234080700538
30
0
0
SPLINE
5
174
100
AcDbEntity
8
0
100
AcDbSpline
70
0
71
2
72
6
73
3
74
0
42
0.000000001
43
0.0000000001
44
0.0000000001
40
0
40
0
40
0
40
1
40
1
40
1
10
6.1966421518396411
20
-143.46777133874076
30
0
10
5.9280414105894437
20
-143.30032251116492
30
0
10
5.7731819663776331
20
-143.03167386054784
30
0
0
SPLINE
5
175
100
AcDbEntity
8
0
100
AcDbSpline
70
0
71
2
72
6
73
3
74
0
42
0.000000001
43
0.0000000001
44
0.0000000001
40
0
40
0
40
0
40
1
40
1
40
1
10
7.0480443366643737
20
-143.88461708042118
30
0
10
6.4652405104666313
20
-143.63522047658486
30
0
10
6.1966421518396411
20
-143.46777133874076
30
0
0
SPLINE
5
176
100
AcDbEntity
8
0
100
AcDbSpline
70
0
71
2
72
6
73
3
74
0
42
0.000000001
43
0.0000000001
44
0.0000000001
40
0
40
0
40
0
40
1
40
1
40
1
10
7.389277082031704
20
-140.92920977136288
30
0
10
8.2692112239181945
20
-140.9246889646206
30
0
10
8.7539295797405021
20
-141.3348914519143
30
0
0
SPLINE
5
177
100
AcDbEntity
8
0
100
AcDbSpline
70
0
71
2
72
6
73
3
74
0
42
0.000000001
43
0.0000000001
44
0.0000000001
40
0
40
0
40
0
40
1
40
1
40
1
10
7.9471276622249585
20
-144.62011674537445
30
0
10
7.9459886994521698
20
-144.39842794352137
30
0
10
7.7610290329458822
20
-144.24589719866927
30
0
0
SPLINE
5
178
100
AcDbEntity
8
0
100
AcDbSpline
70
0
71
2
72
6
73
3
74
0
42
0.000000001
43
0.0000000001
44
0.0000000001
40
0
40
0
40
0
40
1
40
1
40
1
10
5.7731819663776331
20
-143.03167386054784
30
0
10
5.6183201380114935
20
-142.76302522217975
30
0
10
5.616462753838654
20
-142.401502192897
30
0
0
SPLINE
5
179
100
AcDbEntity
8
0
100
AcDbSpline
70
0
71
2
72
6
73
3
74
0
42
0.000000001
43
0.0000000001
44
0.0000000001
40
0
40
0
40
0
40
1
40
1
40
1
10
6.0681018894499879
20
-141.35210125534024
30
0
10
6.5229850711964756
20
-140.93366048940754
30
0
10
7.389277082031704
20
-140.92920977136288
30
0
0
SPLINE
5
180
100
AcDbEntity
8
0
100
AcDbSpline
70
0
71
2
72
6
73
3
74
0
42
0.000000001
43
0.0000000001
44
0.0000000001
40
0
40
0
40
0
40
1
40
1
40
1
10
7.7610290329458822
20
-144.24589719866927
30
0
10
7.6308481628621196
20
-144.13401368425747
30
0
10
7.0480443366643737
20
-143.88461708042118
30
0
0
SPLINE
5
181
100
AcDbEntity
8
0
100
AcDbSpline
70
0
71
2
72
6
73
3
74
0
42
0.000000001
43
0.0000000001
44
0.0000000001
40
0
40
0
40
0
40
1
40
1
40
1
10
5.616462753838654
20
-142.401502192897
30
0
10
5.6132210903267072
20
-141.77054171100463
30
0
10
6.0681018894499879
20
-141.35210125534024
30
0
0
SPLINE
5
182
100
AcDbEntity
8
0
100
AcDbSpline
70
0
71
2
72
6
73
3
74
0
42
0.000000001
43
0.0000000001
44
0.0000000001
40
0
40
0
40
0
40
1
40
1
40
1
10
8.7539295797405021
20
-141.3348914519143
30
0
10
9.2386503212482474
20
-141.74509422497837
30
0
10
9.2899198028236327
20
-142.43037881469181
30
0
0
SPLINE
5
183
100
AcDbEntity
8
0
100
AcDbSpline
70
0
71
2
72
6
73
3
74
0
42
0.000000001
43
0.0000000001
44
0.0000000001
40
0
40
0
40
0
40
1
40
1
40
1
10
7.3866438927477418
20
-141.74437704698897
30
0
10
6.9603189528557525
20
-141.74656736166247
30
0
10
6.7786234608378084
20
-141.89757123506172
30
0
0
SPLINE
5
184
100
AcDbEntity
8
0
100
AcDbSpline
70
0
71
2
72
6
73
3
74
0
42
0.000000001
43
0.0000000001
44
0.0000000001
40
0
40
0
40
0
40
1
40
1
40
1
10
8.3044857445423848
20
-142.47978033692067
30
0
10
8.2651288300758328
20
-142.12186059044382
30
0
10
8.0424593641205959
20
-141.93200613920519
30
0
0
SPLINE
5
185
100
AcDbEntity
8
0
100
AcDbSpline
70
0
71
2
72
6
73
3
74
0
42
0.000000001
43
0.0000000001
44
0.0000000001
40
0
40
0
40
0
40
1
40
1
40
1
10
6.7786234608378084
20
-141.89757123506172
30
0
10
6.5969279672887362
20
-142.04857481044169
30
0
10
6.5981019744103548
20
-142.27708467782034
30
0
0
SPLINE
5
186
100
AcDbEntity
8
0
100
AcDbSpline
70
0
71
2
72
6
73
3
74
0
42
0.000000001
43
0.0000000001
44
0.0000000001
40
0
40
0
40
0
40
1
40
1
40
1
10
6.7670416116894492
20
-142.63092804890658
30
0
10
6.9348972384044574
20
-142.77331450219856
30
0
10
7.5091578065593296
20
-143.0193443756458
30
0
0
SPLINE
5
187
100
AcDbEntity
8
0
100
AcDbSpline
70
0
71
2
72
6
73
3
74
0
42
0.000000001
43
0.0000000001
44
0.0000000001
40
0
40
0
40
0
40
1
40
1
40
1
10
6.5981019744103548
20
-142.27708467782034
30
0
10
6.5992058928343074
20
-142.49195241414776
30
0
10
6.7670416116894492
20
-142.63092804890658
30
0
0
SPLINE
5
188
100
AcDbEntity
8
0
100
AcDbSpline
70
0
71
2
72
6
73
3
74
0
42
0.000000001
43
0.0000000001
44
0.0000000001
40
0
40
0
40
0
40
1
40
1
40
1
10
8.9662640289360436
20
-144.49209595974088
30
0
10
8.9696633920177415
20
-145.15375123649858
30
0
10
8.448548209340057
20
-145.62539812554644
30
0
0
SPLINE
5
189
100
AcDbEntity
8
0
100
AcDbSpline
70
0
71
2
72
6
73
3
74
0
42
0.000000001
43
0.0000000001
44
0.0000000001
40
0
40
0
40
0
40
1
40
1
40
1
10
8.0424593641205959
20
-141.93200613920519
30
0
10
7.8197875140110265
20
-141.74215170021563
30
0
10
7.3866438927477418
20
-141.74437704698897
30
0
0
LINE
5
190
100
AcDbEntity
8
0
100
AcDbLine
10
9.2899198028236327
20
-142.43037881469181
30
0
11
8.3044857445423848
21
-142.47978033692067
31
0
0
LINE
5
191
100
AcDbEntity
8
0
100
AcDbLine
10
-11.135427003925226
20
-93.214303680654126
30
0
11
-10.070150719938006
21
-88.218151636045633
31
0
0
SPLINE
5
192
100
AcDbEntity
8
0
100
AcDbSpline
70
0
71
2
72
6
73
3
74
0
42
0.000000001
43
0.0000000001
44
0.0000000001
40
0
40
0
40
0
40
1
40
1
40
1
10
8.448548209340057
20
-145.62539812554644
30
0
10
7.9274306425080425
20
-146.09704502684323
30
0
10
6.9929255922621909
20
-146.10184620062526
30
0
0
LINE
5
193
100
AcDbEntity
8
0
100
AcDbLine
10
-10.070150719938006
20
-88.218151636045633
30
0
11
-8.3614308561995614
21
-88.224377044961813
31
0
0
SPLINE
5
194
100
AcDbEntity
8
0
100
AcDbSpline
70
0
71
2
72
6
73
3
74
0
42
0.000000001
43
0.0000000001
44
0.0000000001
40
0
40
0
40
0
40
1
40
1
40
1
10
7.5091578065593296
20
-143.0193443756458
30
0
10
8.3739480447817911
20
-143.38666611149054
30
0
10
8.6104699124746613
20
-143.61737776124312
30
0
0
SPLINE
5
195
100
AcDbEntity
8
0
100
AcDbSpline
70
0
71
2
72
6
73
3
74
0
42
0.000000001
43
0.0000000001
44
0.0000000001
40
0
40
0
40
0
40
1
40
1
40
1
10
6.9929255922621909
20
-146.10184620062526
30
0
10
6.3483241713957312
20
-146.10515794671039
30
0
10
5.8748437636560071
20
-145.89101181109189
30
0
0
SPLINE
5
196
100
AcDbEntity
8
0
100
AcDbSpline
70
0
71
2
72
6
73
3
74
0
42
0.000000001
43
0.0000000001
44
0.0000000001
40
0
40
0
40
0
40
1
40
1
40
1
10
-6.9605362860779207
20
-88.468227447658805
30
0
10
-6.7052993482097856
20
-88.622637057508882
30
0
10
-6.5732169631145956
20
-88.878918074689963
30
0
0
SPLINE
5
197
100
AcDbEntity
8
0
100
AcDbSpline
70
0
71
2
72
6
73
3
74
0
42
0.000000001
43
0.0000000001
44
0.0000000001
40
0
40
0
40
0
40
1
40
1
40
1
10
5.8748437636560071
20
-145.89101181109189
30
0
10
5.4013633559162768
20
-145.67686567547349
30
0
10
5.2049793697483455
20
-145.29246710312762
30
0
0
SPLINE
5
198
100
AcDbEntity
8
0
100
AcDbSpline
70
0
71
2
72
6
73
3
74
0
42
0.000000001
43
0.0000000001
44
0.0000000001
40
0
40
0
40
0
40
1
40
1
40
1
10
8.6104699124746613
20
-143.61737776124312
30
0
10
8.963512997025612
20
-143.95663248134238
30
0
10
8.9662640289360436
20
-144.49209595974088
30
0
0
SPLINE
5
199
100
AcDbEntity
8
0
100
AcDbSpline
70
0
71
2
72
6
73
3
74
0
42
0.000000001
43
0.0000000001
44
0.0000000001
40
0
40
0
40
0
40
1
40
1
40
1
10
-10.794357225530684
20
-141.34664601800947
30
0
10
-10.537774286401373
20
-141.49880848846169
30
0
10
-10.403446638898789
20
-141.7539198353991
30
0
0
SPLINE
5
200
100
AcDbEntity
8
0
100
AcDbSpline
70
0
71
2
72
6
73
3
74
0
42
0.000000001
43
0.0000000001
44
0.0000000001
40
0
40
0
40
0
40
1
40
1
40
1
10
-11.419547694247708
20
-141.14521679562182
30
0
10
-11.050940464210408
20
-141.1944832510691
30
0
10
-10.794357225530684
20
-141.34664601800947
30
0
0
SPLINE
5
201
100
AcDbEntity
8
0
100
AcDbSpline
70
0
71
2
72
6
73
3
74
0
42
0.000000001
43
0.0000000001
44
0.0000000001
40
0
40
0
40
0
40
1
40
1
40
1
10
-10.267524740921141
20
-142.31939562566959
30
0
10
-10.265386995833143
20
-142.73548837123454
30
0
10
-10.495739132273016
20
-143.04192824516903
30
0
0
SPLINE
5
202
100
AcDbEntity
8
0
100
AcDbSpline
70
0
71
2
72
6
73
3
74
0
42
0.000000001
43
0.0000000001
44
0.0000000001
40
0
40
0
40
0
40
1
40
1
40
1
10
-10.403446638898789
20
-141.7539198353991
30
0
10
-10.269119289415489
20
-142.00903118386762
30
0
10
-10.267524740921141
20
-142.31939562566959
30
0
0
SPLINE
5
203
100
AcDbEntity
8
0
100
AcDbSpline
70
0
71
2
72
6
73
3
74
0
42
0.000000001
43
0.0000000001
44
0.0000000001
40
0
40
0
40
0
40
1
40
1
40
1
10
6.0408088229641885
20
-91.305518466731257
30
0
10
5.894512920663554
20
-91.206076264287077
30
0
10
5.5295763683155199
20
-91.204746684573607
30
0
0
SPLINE
5
204
100
AcDbEntity
8
0
100
AcDbSpline
70
0
71
2
72
6
73
3
74
0
42
0.000000001
43
0.0000000001
44
0.0000000001
40
0
40
0
40
0
40
1
40
1
40
1
10
6.4886382780296659
20
-91.958586948866099
30
0
10
6.2789435780482696
20
-91.473508765588875
30
0
10
6.0408088229641885
20
-91.305518466731257
30
0
0
SPLINE
5
205
100
AcDbEntity
8
0
100
AcDbSpline
70
0
71
2
72
6
73
3
74
0
42
0.000000001
43
0.0000000001
44
0.0000000001
40
0
40
0
40
0
40
1
40
1
40
1
10
-11.397430729078387
20
-142.13079162886811
30
0
10
-11.507200674151468
20
-142.00857078555163
30
0
10
-11.70863625209468
20
-141.96867732653513
30
0
0
SPLINE
5
206
100
AcDbEntity
8
0
100
AcDbSpline
70
0
71
2
72
6
73
3
74
0
42
0.000000001
43
0.0000000001
44
0.0000000001
40
0
40
0
40
0
40
1
40
1
40
1
10
-11.70863625209468
20
-141.96867732653513
30
0
10
-11.821291053980223
20
-141.94879207441255
30
0
10
-12.251026228615736
20
-141.95099990972938
30
0
0
LINE
5
207
100
AcDbEntity
8
0
100
AcDbLine
10
-12.251026228615736
20
-141.95099990972938
30
0
11
-13.049105498059637
21
-141.95510017356781
31
0
0
LINE
5
208
100
AcDbEntity
8
0
100
AcDbLine
10
5.5295763683155199
20
-91.204746684573607
30
0
11
5.1100709337486965
21
-91.203218293098672
31
0
0
LINE
5
209
100
AcDbEntity
8
0
100
AcDbLine
10
-13.291998701218537
20
-143.13985623815685
30
0
11
-12.507561711835544
21
-143.13582606378159
31
0
0
SPLINE
5
210
100
AcDbEntity
8
0
100
AcDbSpline
70
0
71
2
72
6
73
3
74
0
42
0.000000001
43
0.0000000001
44
0.0000000001
40
0
40
0
40
0
40
1
40
1
40
1
10
7.2763241879309248
20
-89.198818848582704
30
0
10
7.140197821285077
20
-89.11646699705841
30
0
10
6.6865844511615444
20
-89.114814339546314
30
0
0
SPLINE
5
211
100
AcDbEntity
8
0
100
AcDbSpline
70
0
71
2
72
6
73
3
74
0
42
0.000000001
43
0.0000000001
44
0.0000000001
40
0
40
0
40
0
40
1
40
1
40
1
10
-12.507561711835544
20
-143.13582606378159
30
0
10
-11.97891929896266
20
-143.13311007622005
30
0
10
-11.74738439431396
20
-143.05688533604558
30
0
0
LINE
5
212
100
AcDbEntity
8
0
100
AcDbLine
10
5.5542598796770015
20
-89.110688921663055
30
0
11
5.2696925670493808
21
-90.45345374809223
31
0
0
SPLINE
5
213
100
AcDbEntity
8
0
100
AcDbSpline
70
0
71
2
72
6
73
3
74
0
42
0.000000001
43
0.0000000001
44
0.0000000001
40
0
40
0
40
0
40
1
40
1
40
1
10
9.9630382150212515
20
-92.250919888862995
30
0
10
10.187170397804099
20
-92.517768073908044
30
0
10
10.794258749167966
20
-92.519979889499183
30
0
0
SPLINE
5
214
100
AcDbEntity
8
0
100
AcDbSpline
70
0
71
2
72
6
73
3
74
0
42
0.000000001
43
0.0000000001
44
0.0000000001
40
0
40
0
40
0
40
1
40
1
40
1
10
9.8050373516716824
20
-91.619371244779785
30
0
10
9.8237983242228317
20
-92.086700793826083
30
0
10
9.9630382150212515
20
-92.250919888862995
30
0
0
SPLINE
5
215
100
AcDbEntity
8
0
100
AcDbSpline
70
0
71
2
72
6
73
3
74
0
42
0.000000001
43
0.0000000001
44
0.0000000001
40
0
40
0
40
0
40
1
40
1
40
1
10
11.7514823606676
20
-91.90613735990722
30
0
10
11.752290048649446
20
-91.684447103596
30
0
10
11.568676855927976
20
-91.530298143762053
30
0
0
SPLINE
5
216
100
AcDbEntity
8
0
100
AcDbSpline
70
0
71
2
72
6
73
3
74
0
42
0.000000001
43
0.0000000001
44
0.0000000001
40
0
40
0
40
0
40
1
40
1
40
1
10
10.011182859044172
20
-90.738465701045996
30
0
10
9.7440628089356487
20
-90.568664797377281
30
0
10
9.5915682871407864
20
-90.298666712638678
30
0
0
SPLINE
5
217
100
AcDbEntity
8
0
100
AcDbSpline
70
0
71
2
72
6
73
3
74
0
42
0.000000001
43
0.0000000001
44
0.0000000001
40
0
40
0
40
0
40
1
40
1
40
1
10
11.524790430853241
20
-92.34187605032146
30
0
10
11.750550413163287
20
-92.161933763647724
30
0
10
11.7514823606676
20
-91.90613735990722
30
0
0
SPLINE
5
218
100
AcDbEntity
8
0
100
AcDbSpline
70
0
71
2
72
6
73
3
74
0
42
0.000000001
43
0.0000000001
44
0.0000000001
40
0
40
0
40
0
40
1
40
1
40
1
10
11.568676855927976
20
-91.530298143762053
30
0
10
11.439483432261069
20
-91.417275849438653
30
0
10
10.858891978079004
20
-91.162771371744128
30
0
0
LINE
5
219
100
AcDbEntity
8
0
100
AcDbLine
10
8.8260037552279442
20
-91.666964512826922
30
0
11
9.8050373516716824
21
-91.619371244779785
31
0
0
SPLINE
5
220
100
AcDbEntity
8
0
100
AcDbSpline
70
0
71
2
72
6
73
3
74
0
42
0.000000001
43
0.0000000001
44
0.0000000001
40
0
40
0
40
0
40
1
40
1
40
1
10
10.858891978079004
20
-91.162771371744128
30
0
10
10.27830052389694
20
-90.908266894049603
30
0
10
10.011182859044172
20
-90.738465701045996
30
0
0
SPLINE
5
221
100
AcDbEntity
8
0
100
AcDbSpline
70
0
71
2
72
6
73
3
74
0
42
0.000000001
43
0.0000000001
44
0.0000000001
40
0
40
0
40
0
40
1
40
1
40
1
10
9.9012248453236786
20
-88.621748493653868
30
0
10
10.359764738497283
20
-88.207318101430417
30
0
10
11.226062432910291
20
-88.210474298947247
30
0
0
SPLINE
5
222
100
AcDbEntity
8
0
100
AcDbSpline
70
0
71
2
72
6
73
3
74
0
42
0.000000001
43
0.0000000001
44
0.0000000001
40
0
40
0
40
0
40
1
40
1
40
1
10
11.226062432910291
20
-88.210474298947247
30
0
10
12.106002347878002
20
-88.213680199404436
30
0
10
12.587100107462261
20
-88.628123091460779
30
0
0
SPLINE
5
223
100
AcDbEntity
8
0
100
AcDbSpline
70
0
71
2
72
6
73
3
74
0
42
0.000000001
43
0.0000000001
44
0.0000000001
40
0
40
0
40
0
40
1
40
1
40
1
10
9.4403885329827659
20
-89.667143218046874
30
0
10
9.4426873374058289
20
-89.036178596542342
30
0
10
9.9012248453236786
20
-88.621748493653868
30
0
0
SPLINE
5
224
100
AcDbEntity
8
0
100
AcDbSpline
70
0
71
2
72
6
73
3
74
0
42
0.000000001
43
0.0000000001
44
0.0000000001
40
0
40
0
40
0
40
1
40
1
40
1
10
9.5915682871407864
20
-90.298666712638678
30
0
10
9.4390713811759515
20
-90.028668619213775
30
0
10
9.4403885329827659
20
-89.667143218046874
30
0
0
SPLINE
5
225
100
AcDbEntity
8
0
100
AcDbSpline
70
0
71
2
72
6
73
3
74
0
42
0.000000001
43
0.0000000001
44
0.0000000001
40
0
40
0
40
0
40
1
40
1
40
1
10
12.127620549550965
20
-89.769021358560167
30
0
10
12.09140797701229
20
-89.410769825102818
30
0
10
11.870414170937984
20
-89.218967475271853
30
0
0
SPLINE
5
226
100
AcDbEntity
8
0
100
AcDbSpline
70
0
71
2
72
6
73
3
74
0
42
0.000000001
43
0.0000000001
44
0.0000000001
40
0
40
0
40
0
40
1
40
1
40
1
10
12.587100107462261
20
-88.628123091460779
30
0
10
13.06820025013071
20
-89.042566290224698
30
0
10
13.113450402630296
20
-89.728274648303056
30
0
0
LINE
5
227
100
AcDbEntity
8
0
100
AcDbLine
10
13.113450402630296
20
-89.728274648303056
30
0
11
12.127620549550965
21
-89.769021358560167
31
0
0
LINE
5
228
100
AcDbEntity
8
0
100
AcDbLine
10
-12.570690790247953
20
-146.11709014773697
30
0
11
-14.92741260780525
21
-146.1291981946639
31
0
0
SPLINE
5
229
100
AcDbEntity
8
0
100
AcDbSpline
70
0
71
2
72
6
73
3
74
0
42
0.000000001
43
0.0000000001
44
0.0000000001
40
0
40
0
40
0
40
1
40
1
40
1
10
-11.340376686829565
20
-145.93341324497834
30
0
10
-11.789664184618127
20
-146.11307749477061
30
0
10
-12.570690790247953
20
-146.11709014773697
30
0
0
LINE
5
230
100
AcDbEntity
8
0
100
AcDbLine
10
5.1100709337486965
20
-91.203218293098672
30
0
11
4.6693795252762644
21
-93.271885608256213
31
0
0
SPLINE
5
231
100
AcDbEntity
8
0
100
AcDbSpline
70
0
71
2
72
6
73
3
74
0
42
0.000000001
43
0.0000000001
44
0.0000000001
40
0
40
0
40
0
40
1
40
1
40
1
10
-11.400765115607285
20
-142.80953521135842
30
0
10
-11.285681041099718
20
-142.63840953035748
30
0
10
-11.286679823414929
20
-142.44400558664552
30
0
0
SPLINE
5
232
100
AcDbEntity
8
0
100
AcDbSpline
70
0
71
2
72
6
73
3
74
0
42
0.000000001
43
0.0000000001
44
0.0000000001
40
0
40
0
40
0
40
1
40
1
40
1
10
-11.286679823414929
20
-142.44400558664552
30
0
10
-11.287661083555721
20
-142.2530121756964
30
0
10
-11.397430729078387
20
-142.13079162886811
30
0
0
LINE
5
233
100
AcDbEntity
8
0
100
AcDbLine
10
-13.734428696712317
20
-145.31814716429056
30
0
11
-12.741945185537196
21
-145.31304811660578
31
0
0
SPLINE
5
234
100
AcDbEntity
8
0
100
AcDbSpline
70
0
71
2
72
6
73
3
74
0
42
0.000000001
43
0.0000000001
44
0.0000000001
40
0
40
0
40
0
40
1
40
1
40
1
10
-11.74738439431396
20
-143.05688533604558
30
0
10
-11.515849190114851
20
-142.98066089235934
30
0
10
-11.400765115607285
20
-142.80953521135842
30
0
0
LINE
5
235
100
AcDbEntity
8
0
100
AcDbLine
10
-13.049105498059637
20
-141.95510017356781
30
0
11
-13.291998701218537
21
-143.13985623815685
31
0
0
LINE
5
236
100
AcDbEntity
8
0
100
AcDbLine
10
6.6865844511615444
20
-89.114814339546314
30
0
11
5.5542598796770015
21
-89.110688921663055
31
0
0
SPLINE
5
237
100
AcDbEntity
8
0
100
AcDbSpline
70
0
71
2
72
6
73
3
74
0
42
0.000000001
43
0.0000000001
44
0.0000000001
40
0
40
0
40
0
40
1
40
1
40
1
10
10.794258749167966
20
-92.519979889499183
30
0
10
11.299030446371617
20
-92.521818933037622
30
0
10
11.524790430853241
20
-92.34187605032146
30
0
0
LWPOLYLINE
5
238
100
AcDbEntity
8
0
100
AcDbPolyline
90
12
70
1
43
0.0
10
-5.0224350889971614
20
-88.236542066544033
10
-1.3150931083717876
20
-88.250049090317475
10
-1.4920787622145115
20
-89.085016873050037
10
-4.1694146136430419
20
-89.075262488592429
10
-4.4122954925233984
20
-90.210128692622064
10
-1.8236364588703635
20
-90.219559999281046
10
-2.0006221127130885
20
-91.054527782013565
10
-4.5892817424086152
20
-91.045096473183037
10
-4.9080037144066315
20
-92.401379563008845
10
-1.9987459412508146
20
-92.411978912653524
10
-2.1791427462747039
20
-93.246934267479404
10
-6.0843010972406208
20
-93.232706535869724
0
LINE
5
239
100
AcDbEntity
8
0
100
AcDbLine
10
4.7046487673765718
20
-88.271980921006602
30
0
11
6.9249618856278783
21
-88.280070226560113
31
0
0
LWPOLYLINE
5
240
100
AcDbEntity
8
0
100
AcDbPolyline
90
8
70
1
43
0.0
10
-1.7903317119134554
20
-93.248350829510059
10
1.0552880122361334
20
-88.258685141244428
10
2.1978442491366987
20
-88.262847836332952
10
2.9913554028389999
20
-93.265772033670231
10
2.0159187519034361
20
-93.262218208287379
10
1.8528239880275787
20
-92.15656860782093
10
-0.12874550217660236
20
-92.149349121096265
10
-0.73303994952223717
20
-93.252202879049818
0
SPLINE
5
241
100
AcDbEntity
8
0
100
AcDbSpline
70
0
71
2
72
6
73
3
74
0
42
0.000000001
43
0.0000000001
44
0.0000000001
40
0
40
0
40
0
40
1
40
1
40
1
10
8.5231810316203767
20
-89.595588041623998
30
0
10
8.5208573768129199
20
-90.233373475384639
30
0
10
8.1373582937276616
20
-90.646371964897043
30
0
0
SPLINE
5
242
100
AcDbEntity
8
0
100
AcDbSpline
70
0
71
2
72
6
73
3
74
0
42
0.000000001
43
0.0000000001
44
0.0000000001
40
0
40
0
40
0
40
1
40
1
40
1
10
8.1373582937276616
20
-90.646371964897043
30
0
10
7.7538592106424016
20
-91.059370454409404
30
0
10
6.9792885352254563
20
-91.155457945596567
30
0
0
LINE
5
243
100
AcDbEntity
8
0
100
AcDbLine
10
8.1106940327876096
20
-93.284423409491652
30
0
11
7.0056527103274746
21
-93.280397393145918
31
0
0
SPLINE
5
244
100
AcDbEntity
8
0
100
AcDbSpline
70
0
71
2
72
6
73
3
74
0
42
0.000000001
43
0.0000000001
44
0.0000000001
40
0
40
0
40
0
40
1
40
1
40
1
10
7.0056527103274746
20
-93.280397393145918
30
0
10
6.8741806872157785
20
-92.856996199386273
30
0
10
6.4886382780296659
20
-91.958586948866099
30
0
0
SPLINE
5
245
100
AcDbEntity
8
0
100
AcDbSpline
70
0
71
2
72
6
73
3
74
0
42
0.000000001
43
0.0000000001
44
0.0000000001
40
0
40
0
40
0
40
1
40
1
40
1
10
7.3493438417415238
20
-91.624066775373464
30
0
10
7.6916786034772144
20
-92.211948604992557
30
0
10
8.1106940327876096
20
-93.284423409491652
30
0
0
SPLINE
5
246
100
AcDbEntity
8
0
100
AcDbSpline
70
0
71
2
72
6
73
3
74
0
42
0.000000001
43
0.0000000001
44
0.0000000001
40
0
40
0
40
0
40
1
40
1
40
1
10
6.9792885352254563
20
-91.155457945596567
30
0
10
7.1764581604409772
20
-91.333530498684723
30
0
10
7.3493438417415238
20
-91.624066775373464
30
0
0
SPLINE
5
247
100
AcDbEntity
8
0
100
AcDbSpline
70
0
71
2
72
6
73
3
74
0
42
0.000000001
43
0.0000000001
44
0.0000000001
40
0
40
0
40
0
40
1
40
1
40
1
10
8.3298409298919296
20
-88.834305445711195
30
0
10
8.5248088333191507
20
-89.148796973862815
30
0
10
8.5231810316203767
20
-89.595588041623998
30
0
0
LWPOLYLINE
5
248
100
AcDbEntity
8
0
100
AcDbPolyline
90
3
70
1
43
0.0
10
1.4470923638484767
20
-89.310596906666305
10
0.23240187463109296
20
-91.318463196419529
10
1.7296629984636749
20
-91.323918194016301
0
SPLINE
5
249
100
AcDbEntity
8
0
100
AcDbSpline
70
0
71
2
72
6
73
3
74
0
42
0.000000001
43
0.0000000001
44
0.0000000001
40
0
40
0
40
0
40
1
40
1
40
1
10
6.9249618856278783
20
-88.280070226560113
30
0
10
7.4979458776899914
20
-88.28215778914354
30
0
10
7.8164106441623353
20
-88.400985857694678
30
0
0
SPLINE
5
250
100
AcDbEntity
8
0
100
AcDbSpline
70
0
71
2
72
6
73
3
74
0
42
0.000000001
43
0.0000000001
44
0.0000000001
40
0
40
0
40
0
40
1
40
1
40
1
10
7.8164106441623353
20
-88.400985857694678
30
0
10
8.1348742174639064
20
-88.519814219923973
30
0
10
8.3298409298919296
20
-88.834305445711195
30
0
0
SPLINE
5
251
100
AcDbEntity
8
0
100
AcDbSpline
70
0
71
2
72
6
73
3
74
0
42
0.000000001
43
0.0000000001
44
0.0000000001
40
0
40
0
40
0
40
1
40
1
40
1
10
5.815392118002098
20
-90.455441904794881
30
0
10
6.6441725138047065
20
-90.458461414882606
30
0
10
6.9156773645440541
20
-90.36054139321736
30
0
0
LINE
5
252
100
AcDbEntity
8
0
100
AcDbLine
10
5.2696925670493808
20
-90.45345374809223
30
0
11
5.815392118002098
21
-90.455441904794881
31
0
0
SPLINE
5
253
100
AcDbEntity
8
0
100
AcDbSpline
70
0
71
2
72
6
73
3
74
0
42
0.000000001
43
0.0000000001
44
0.0000000001
40
0
40
0
40
0
40
1
40
1
40
1
10
-7.5704719721083524
20
-89.247047355350375
30
0
10
-7.6791644875451235
20
-89.123867355064732
30
0
10
-7.8802420029246614
20
-89.082206666851391
30
0
0
SPLINE
5
254
100
AcDbEntity
8
0
100
AcDbSpline
70
0
71
2
72
6
73
3
74
0
42
0.000000001
43
0.0000000001
44
0.0000000001
40
0
40
0
40
0
40
1
40
1
40
1
10
-7.9285439971182692
20
-90.170032483719638
30
0
10
-7.696348406854618
20
-90.095844044856776
30
0
10
-7.5797661472928359
20
-89.925735492282911
30
0
0
LINE
5
255
100
AcDbEntity
8
0
100
AcDbLine
10
-9.9353674012709412
20
-92.413759280840168
30
0
11
-8.9428773785995137
21
-92.417375237070047
31
0
0
LINE
5
256
100
AcDbEntity
8
0
100
AcDbLine
10
-8.4224558471998883
20
-89.059767309202101
30
0
11
-9.2205403526906906
21
-89.056859633987543
31
0
0
SPLINE
5
257
100
AcDbEntity
8
0
100
AcDbSpline
70
0
71
2
72
6
73
3
74
0
42
0.000000001
43
0.0000000001
44
0.0000000001
40
0
40
0
40
0
40
1
40
1
40
1
10
-7.7632537995052742
20
-92.077195782332453
30
0
10
-7.6346845959965286
20
-91.893488500362523
30
0
10
-7.6339390377759191
20
-91.688851317765895
30
0
0
SPLINE
5
258
100
AcDbEntity
8
0
100
AcDbSpline
70
0
71
2
72
6
73
3
74
0
42
0.000000001
43
0.0000000001
44
0.0000000001
40
0
40
0
40
0
40
1
40
1
40
1
10
-7.8802420029246614
20
-89.082206666851391
30
0
10
-7.9927178531533061
20
-89.061332981139657
30
0
10
-8.4224558471998883
20
-89.059767309202101
30
0
0
SPLINE
5
259
100
AcDbEntity
8
0
100
AcDbSpline
70
0
71
2
72
6
73
3
74
0
42
0.000000001
43
0.0000000001
44
0.0000000001
40
0
40
0
40
0
40
1
40
1
40
1
10
-8.9428773785995137
20
-92.417375237070047
30
0
10
-8.3187341653935505
20
-92.419649188937143
30
0
10
-8.105278583660894
20
-92.340275977609153
30
0
0
LINE
5
260
100
AcDbEntity
8
0
100
AcDbLine
10
-9.2205403526906906
20
-89.056859633987543
30
0
11
-9.4738273075675554
21
-90.239437225188439
31
0
0
SPLINE
5
261
100
AcDbEntity
8
0
100
AcDbSpline
70
0
71
2
72
6
73
3
74
0
42
0.000000001
43
0.0000000001
44
0.0000000001
40
0
40
0
40
0
40
1
40
1
40
1
10
-7.6339390377759191
20
-91.688851317765895
30
0
10
-7.6330319417417858
20
-91.439876024302706
30
0
10
-7.8166149641892684
20
-91.277200673364746
30
0
0
SPLINE
5
262
100
AcDbEntity
8
0
100
AcDbSpline
70
0
71
2
72
6
73
3
74
0
42
0.000000001
43
0.0000000001
44
0.0000000001
40
0
40
0
40
0
40
1
40
1
40
1
10
-8.105278583660894
20
-92.340275977609153
30
0
10
-7.8918230040998054
20
-92.26090336232366
30
0
10
-7.7632537995052742
20
-92.077195782332453
30
0
0
LINE
5
263
100
AcDbEntity
8
0
100
AcDbLine
10
-9.6577586292313438
20
-91.108486302794233
30
0
11
-9.9353674012709412
21
-92.413759280840168
31
0
0
SPLINE
5
264
100
AcDbEntity
8
0
100
AcDbSpline
70
0
71
2
72
6
73
3
74
0
42
0.000000001
43
0.0000000001
44
0.0000000001
40
0
40
0
40
0
40
1
40
1
40
1
10
-7.8166149641892684
20
-91.277200673364746
30
0
10
-8.000198284657996
20
-91.114525321340963
30
0
10
-8.4299362787045791
20
-91.112959649403422
30
0
0
LINE
5
265
100
AcDbEntity
8
0
100
AcDbLine
10
-8.4299362787045791
20
-91.112959649403422
30
0
11
-9.6577586292313438
21
-91.108486302794233
31
0
0
LINE
5
266
100
AcDbEntity
8
0
100
AcDbLine
10
4.6693795252762644
20
-93.271885608256213
30
0
11
3.6393728000369272
21
-93.268132966768761
31
0
0
LINE
5
267
100
AcDbEntity
8
0
100
AcDbLine
10
3.6393728000369272
20
-93.268132966768761
30
0
11
4.7046487673765718
21
-88.271980921006602
31
0
0
SPLINE
5
268
100
AcDbEntity
8
0
100
AcDbSpline
70
0
71
2
72
6
73
3
74
0
42
0.000000001
43
0.0000000001
44
0.0000000001
40
0
40
0
40
0
40
1
40
1
40
1
10
12.244056394029275
20
-92.915782862075019
30
0
10
11.718817476372001
20
-93.382835747027073
30
0
10
10.784306295015538
20
-93.379431026122134
30
0
0
SPLINE
5
269
100
AcDbEntity
8
0
100
AcDbSpline
70
0
71
2
72
6
73
3
74
0
42
0.000000001
43
0.0000000001
44
0.0000000001
40
0
40
0
40
0
40
1
40
1
40
1
10
12.771703563555455
20
-91.787070350684047
30
0
10
12.769292927516586
20
-92.448729968436666
30
0
10
12.244056394029275
20
-92.915782862075019
30
0
0
SPLINE
5
270
100
AcDbEntity
8
0
100
AcDbSpline
70
0
71
2
72
6
73
3
74
0
42
0.000000001
43
0.0000000001
44
0.0000000001
40
0
40
0
40
0
40
1
40
1
40
1
10
9.0035360040768282
20
-92.554383519018714
30
0
10
8.8105349190414621
20
-92.168275355909074
30
0
10
8.8260037552279442
20
-91.666964512826922
30
0
0
SPLINE
5
271
100
AcDbEntity
8
0
100
AcDbSpline
70
0
71
2
72
6
73
3
74
0
42
0.000000001
43
0.0000000001
44
0.0000000001
40
0
40
0
40
0
40
1
40
1
40
1
10
10.588908489238484
20
-89.906663241471563
30
0
10
10.755507376642619
20
-90.050518113535944
30
0
10
11.327585464755581
20
-90.301580973925596
30
0
0
SPLINE
5
272
100
AcDbEntity
8
0
100
AcDbSpline
70
0
71
2
72
6
73
3
74
0
42
0.000000001
43
0.0000000001
44
0.0000000001
40
0
40
0
40
0
40
1
40
1
40
1
10
11.327585464755581
20
-90.301580973925596
30
0
10
12.189116981847057
20
-90.676482105968361
30
0
10
12.423603896397633
20
-90.909261714467519
30
0
0
SPLINE
5
273
100
AcDbEntity
8
0
100
AcDbSpline
70
0
71
2
72
6
73
3
74
0
42
0.000000001
43
0.0000000001
44
0.0000000001
40
0
40
0
40
0
40
1
40
1
40
1
10
-12.741945185537196
20
-145.31304811660578
30
0
10
-12.117806067189756
20
-145.30984149897381
30
0
10
-11.90505567554858
20
-145.22859703512631
30
0
0
SPLINE
5
274
100
AcDbEntity
8
0
100
AcDbSpline
70
0
71
2
72
6
73
3
74
0
42
0.000000001
43
0.0000000001
44
0.0000000001
40
0
40
0
40
0
40
1
40
1
40
1
10
-11.90505567554858
20
-145.22859703512631
30
0
10
-11.692305280845153
20
-145.14735316731731
30
0
10
-11.56535413387723
20
-144.96252372810426
30
0
0
SPLINE
5
275
100
AcDbEntity
8
0
100
AcDbSpline
70
0
71
2
72
6
73
3
74
0
42
0.000000001
43
0.0000000001
44
0.0000000001
40
0
40
0
40
0
40
1
40
1
40
1
10
12.423603896397633
20
-90.909261714467519
30
0
10
12.773654439795497
20
-91.251603359211089
30
0
10
12.771703563555455
20
-91.787070350684047
30
0
0
LWPOLYLINE
5
276
100
AcDbEntity
8
0
100
AcDbPolyline
90
12
70
1
43
0.0
10
-8.4005671059350426
20
-143.90259416867781
10
-8.7073675288980645
20
-145.26162360752431
10
-5.7981288427061584
20
-145.24667691408277
10
-5.9711871102536094
20
-146.08318410941862
10
-9.8763198403834487
20
-146.10324737271938
10
-8.8583651310937128
20
-141.09795147398867
10
-5.1510474734771989
20
-141.0789045182398
10
-5.320694612223253
20
-141.91539418833901
10
-7.998012898273684
20
-141.92914935248453
10
-8.230919371150403
20
-143.06610449551638
10
-5.6422773210874846
20
-143.0528049201547
10
-5.8119244598335387
20
-143.88929459025385
0
LINE
5
277
100
AcDbEntity
8
0
100
AcDbLine
10
-12.24047768363334
20
-144.00417877941302
30
0
11
-13.468291978703107
21
-144.01048687780272
31
0
0
SPLINE
5
278
100
AcDbEntity
8
0
100
AcDbSpline
70
0
71
2
72
6
73
3
74
0
42
0.000000001
43
0.0000000001
44
0.0000000001
40
0
40
0
40
0
40
1
40
1
40
1
10
-11.56535413387723
20
-144.96252372810426
30
0
10
-11.438402985378191
20
-144.77769458691051
30
0
10
-11.439454335747767
20
-144.57305874689081
30
0
0
SPLINE
5
279
100
AcDbEntity
8
0
100
AcDbSpline
70
0
71
2
72
6
73
3
74
0
42
0.000000001
43
0.0000000001
44
0.0000000001
40
0
40
0
40
0
40
1
40
1
40
1
10
-11.439454335747767
20
-144.57305874689081
30
0
10
-11.440733478978133
20
-144.32408508689667
30
0
10
-11.625737844978337
20
-144.16302801473091
30
0
0
LINE
5
280
100
AcDbEntity
8
0
100
AcDbLine
10
-13.468291978703107
20
-144.01048687780272
30
0
11
-13.734428696712317
21
-145.31814716429056
31
0
0
SPLINE
5
281
100
AcDbEntity
8
0
100
AcDbSpline
70
0
71
2
72
6
73
3
74
0
42
0.000000001
43
0.0000000001
44
0.0000000001
40
0
40
0
40
0
40
1
40
1
40
1
10
-11.625737844978337
20
-144.16302801473091
30
0
10
-11.81074250899783
20
-144.00197094409623
30
0
10
-12.24047768363334
20
-144.00417877941302
30
0
0
SPLINE
5
282
100
AcDbEntity
8
0
100
AcDbSpline
70
0
71
2
72
6
73
3
74
0
42
0.000000001
43
0.0000000001
44
0.0000000001
40
0
40
0
40
0
40
1
40
1
40
1
10
3.9814295877674266
20
-141.14965348382754
30
0
10
4.3009242927041891
20
-141.26568089743083
30
0
10
4.4986449758965854
20
-141.57844803363614
30
0
0
LINE
5
283
100
AcDbEntity
8
0
100
AcDbLine
10
0.87729022973486392
20
-146.04799892786991
30
0
11
-0.15270973786980058
21
-146.05329072253554
31
0
0
SPLINE
5
284
100
AcDbEntity
8
0
100
AcDbSpline
70
0
71
2
72
6
73
3
74
0
42
0.000000001
43
0.0000000001
44
0.0000000001
40
0
40
0
40
0
40
1
40
1
40
1
10
10.784306295015538
20
-93.379431026122134
30
0
10
10.139700645041273
20
-93.377082523101876
30
0
10
9.668118867076732
20
-93.158787102615065
30
0
0
SPLINE
5
285
100
AcDbEntity
8
0
100
AcDbSpline
70
0
71
2
72
6
73
3
74
0
42
0.000000001
43
0.0000000001
44
0.0000000001
40
0
40
0
40
0
40
1
40
1
40
1
10
9.668118867076732
20
-93.158787102615065
30
0
10
9.1965370891121907
20
-92.940491682128354
30
0
10
9.0035360040768282
20
-92.554383519018714
30
0
0
CIRCLE
5
286
100
AcDbEntity
8
0
100
AcDbCircle
10
-50
20
-80
30
0
40
1.500000000000008
210
0
220
0
230
1
0
CIRCLE
5
287
100
AcDbEntity
8
0
100
AcDbCircle
10
29.85985910102919
20
66.694183488738219
30
0
40
1.4999999999999989
210
0
220
0
230
1
0
CIRCLE
5
288
100
AcDbEntity
8
0
100
AcDbCircle
10
-30
20
66.334073759313441
30
0
40
1.5000000000000024
210
0
220
0
230
1
0
CIRCLE
5
289
100
AcDbEntity
8
0
100
AcDbCircle
10
-50
20
-10
30
0
40
1.4999999999999978
210
0
220
0
230
1
0
CIRCLE
5
290
100
AcDbEntity
8
0
100
AcDbCircle
10
0
20
-80
30
0
40
1.4999999999999969
210
0
220
0
230
1
0
CIRCLE
5
291
100
AcDbEntity
8
0
100
AcDbCircle
10
20
20
-20
30
0
40
1.5000000000000002
210
0
220
0
230
1
0
CIRCLE
5
292
100
AcDbEntity
8
0
100
AcDbCircle
10
20.136896406560432
20
46.167928911526424
30
0
40
1.5000000000000016
210
0
220
0
230
1
0
CIRCLE
5
293
100
AcDbEntity
8
0
100
AcDbCircle
10
20.857115865409952
20
13.758053263297255
30
0
40
1.4999999999999996
210
0
220
0
230
1
0
ENDSEC
0
SECTION
2
OBJECTS
0
DICTIONARY
5
C
100
AcDbDictionary
3
ACAD_GROUP
350
D
3
ACAD_MLINESTYLE
350
17
0
DICTIONARY
5
D
100
AcDbDictionary
0
DICTIONARY
5
1A
330
C
100
AcDbDictionary
0
DICTIONARY
5
17
100
AcDbDictionary
0
ENDSEC
0
EOF
