0
SECTION
2
HEADER
9
$INSUNITS
70
4
9
$ACADVER
1
AC1014
9
$HANDSEED
5
FFFF
0
ENDSEC
0
SECTION
2
TABLES
0
TABLE
2
VPORT
5
8
100
AcDbSymbolTable
0
ENDTAB
0
TABLE
2
LTYPE
5
5
100
AcDbSymbolTable
0
LTYPE
5
14
100
AcDbSymbolTableRecord
100
AcDbLinetypeTableRecord
2
BYBLOCK
70
0
0
LTYPE
5
15
100
AcDbSymbolTableRecord
100
AcDbLinetypeTableRecord
2
BYLAYER
70
0
0
ENDTAB
0
TABLE
2
LAYER
5
2
100
AcDbSymbolTable
70
2
0
LAYER
5
50
100
AcDbSymbolTableRecord
100
AcDbLayerTableRecord
2
0
70
0
6
CONTINUOUS
0
ENDTAB
0
TABLE
2
STYLE
5
3
100
AcDbSymbolTable
70
1
0
STYLE
5
11
100
AcDbSymbolTableRecord
100
AcDbTextStyleTableRecord
2
STANDARD
70
0
0
ENDTAB
0
TABLE
2
VIEW
5
6
100
AcDbSymbolTable
70
0
0
ENDTAB
0
TABLE
2
UCS
5
7
100
AcDbSymbolTable
70
0
0
ENDTAB
0
TABLE
2
APPID
5
9
100
AcDbSymbolTable
70
2
0
APPID
5
12
100
AcDbSymbolTableRecord
100
AcDbRegAppTableRecord
2
ACAD
70
0
0
ENDTAB
0
TABLE
2
DIMSTYLE
5
A
100
AcDbSymbolTable
70
1
0
ENDTAB
0
TABLE
2
BLOCK_RECORD
5
1
100
AcDbSymbolTable
70
1
0
BLOCK_RECORD
5
1F
100
AcDbSymbolTableRecord
100
AcDbBlockTableRecord
2
*MODEL_SPACE
0
BLOCK_RECORD
5
1B
100
AcDbSymbolTableRecord
100
AcDbBlockTableRecord
2
*PAPER_SPACE
0
ENDTAB
0
ENDSEC
0
SECTION
2
BLOCKS
0
BLOCK
5
20
100
AcDbEntity
100
AcDbBlockBegin
2
*MODEL_SPACE
0
ENDBLK
5
21
100
AcDbEntity
100
AcDbBlockEnd
0
BLOCK
5
1C
100
AcDbEntity
100
AcDbBlockBegin
2
*PAPER_SPACE
0
ENDBLK
5
1D
100
AcDbEntity
100
AcDbBlockEnd
0
ENDSEC
0
SECTION
2
ENTITIES
0
LWPOLYLINE
5
100
100
AcDbEntity
8
0
100
AcDbPolyline
90
8
70
1
43
0.0
10
-8.0607724061325001
20
-154.12544051264001
10
-9.5272675293321782
20
-154.11005189241291
10
-9.3445661289993929
20
-153.27631600765102
10
-5.4054929476819646
20
-153.31765054758569
10
-5.5881943480147509
20
-154.15138643234772
10
-7.034225939095446
20
-154.13621254554809
10
-7.9475886014527397
20
-158.29125042180499
10
-8.9775454585050696
20
-158.28044260207702
0
LWPOLYLINE
5
101
100
AcDbEntity
8
0
100
AcDbPolyline
90
30
70
1
43
0.0
10
-40
20
90
10
-30
20
90
10
-30
20
81.486232764908777
10
-14.972735349029161
20
81.486232764908777
10
-14.972735349029161
20
50
10
-20
20
50
10
-30
20
20
10
-40
20
20
10
-50
20
0
10
-60
20
0
10
-60
20
-115
42
0.14775700190679578
10
-55.679334366579866
20
-129.30164472112011
42
-0.077257473891464534
10
55.679334366579724
20
-129.3016447211202
42
0.14775700190680119
10
60
20
-115
10
60
20
0
10
50
20
0
10
40
20
20
10
30
20
20
10
20
20
50
10
14.396860912528094
20
50
10
14.396860912528094
20
81.486232764908777
10
30.521345134559468
20
81.486232764908777
10
30.521345134559468
20
90
10
40
20
90
10
60
20
70
10
60
20
90
10
49.999999999999986
20
109.99999999999993
42
-0.10000000000000003
10
-50
20
110
10
-60
20
90
10
-60
20
70
0
CIRCLE
5
102
100
AcDbEntity
8
0
100
AcDbCircle
10
15.480407224635822
20
18.722650592295665
30
0
40
1.4999999999999991
210
0
220
0
230
1
0
LWPOLYLINE
5
103
100
AcDbEntity
8
0
100
AcDbPolyline
90
4
70
1
43
0.0
10
-90
20
-50
10
-70
20
-50
10
-70
20
-40
10
-90
20
-40
0
CIRCLE
5
104
100
AcDbEntity
8
0
100
AcDbCircle
10
50
20
-10
30
0
40
1.5000000000000033
210
0
220
0
230
1
0
CIRCLE
5
105
100
AcDbEntity
8
0
100
AcDbCircle
10
-30.316638946533203
20
94.865436553955078
30
0
40
1.5000000000000002
210
0
220
0
230
1
0
LWPOLYLINE
5
106
100
AcDbEntity
8
0
100
AcDbPolyline
90
4
70
1
43
0.0
10
-70
20
-70
10
-70
20
-60
10
-90
20
-60
10
-90
20
-70
0
LWPOLYLINE
5
107
100
AcDbEntity
8
0
100
AcDbPolyline
90
4
70
1
43
0.0
10
-70
20
-10
10
-70
20
0
10
-90
20
0
10
-90
20
-10
0
LWPOLYLINE
5
108
100
AcDbEntity
8
0
100
AcDbPolyline
90
8
70
1
43
0.0
10
4.4732866635867339
20
-158.42158848384011
10
5.3900573319047762
20
-154.26658636938609
10
3.9235634007323612
20
-154.2511977616675
10
4.1062648010651452
20
-153.41746187690561
10
8.0453379823825717
20
-153.4587964168403
10
7.8626365820497925
20
-154.29253230160219
10
6.4166049909690948
20
-154.27735841480268
10
5.5032435206390682
20
-158.432396303568
0
LWPOLYLINE
5
109
100
AcDbEntity
8
0
100
AcDbPolyline
90
8
70
1
43
0.0
10
-16.925947225006922
20
-157.09192740059331
10
-18.907420776732767
20
-157.07113487050219
10
-19.51925589220907
20
-158.16982349680902
10
-20.576496465397319
20
-158.1587293762681
10
-17.696766239976995
20
-153.18867245975559
10
-16.55426412836573
20
-153.20066126955527
10
-15.795041453950034
20
-158.20890342331396
10
-16.770430282716898
20
-158.1986682114663
0
LWPOLYLINE
5
110
100
AcDbEntity
8
0
100
AcDbPolyline
90
4
70
1
43
0.0
10
80
20
10
10
70
20
-20
10
100
20
-20
10
110
20
10
0
CIRCLE
5
111
100
AcDbEntity
8
0
100
AcDbCircle
10
-6.5221315952790171
20
-59.957515227920588
30
0
40
1.8372049488236089
210
0
220
0
230
1
0
LINE
5
112
100
AcDbEntity
8
0
100
AcDbLine
10
3.1431957481904904
20
-154.83308276283938
30
0
11
2.1571099184519511
21
-154.86707585049018
31
0
0
LWPOLYLINE
5
113
100
AcDbEntity
8
0
100
AcDbPolyline
90
12
70
1
43
0.0
10
31.475788643409075
20
-157.86928532882609
10
31.289680429142802
20
-158.7029854642937
10
27.384708763923697
20
-158.66200876754039
10
28.480774018641032
20
-153.6732350190301
10
32.187935910810019
20
-153.71213600518161
10
32.005232126422683
20
-154.5458718649266
10
29.328029475360573
20
-154.51777872351988
10
29.077377789094232
20
-155.650954604654
10
31.665912683813467
20
-155.6781173137617
10
31.483213667535228
20
-156.51185322354058
10
28.894678772815979
20
-156.48469051443274
10
28.566674703198519
20
-157.83875863363642
0
LWPOLYLINE
5
114
100
AcDbEntity
8
0
100
AcDbPolyline
90
4
70
1
43
0.0
10
-90
20
-30
10
-70
20
-30
10
-70
20
-20
10
-90
20
-20
0
SPLINE
5
115
100
AcDbEntity
8
0
100
AcDbSpline
70
0
71
3
72
9
73
5
74
0
42
0.000000001
43
0.0000000001
44
0.0000000001
40
0
40
0
40
0
40
0
40
0.062729556774530695
40
0.12766055579885471
40
0.12766055579885471
40
0.12766055579885471
40
0.12766055579885471
10
2.7873547350732286
20
-156.88948929354871
30
0
10
2.7618312891384145
20
-157.10305630816913
30
0
10
2.7098886729064411
20
-157.53768529629892
30
0
10
2.4063666326634841
20
-157.8537854929495
30
0
10
2.25198856987384
20
-158.01456108594195
30
0
0
LWPOLYLINE
5
116
100
AcDbEntity
8
0
100
AcDbPolyline
90
4
70
1
43
0.0
10
80
20
30
10
90
20
60
10
60
20
60
10
50
20
30
0
LINE
5
117
100
AcDbEntity
8
0
100
AcDbLine
10
-1.157429816096962
20
-156.74235930145952
30
0
11
-0.17809318649506106
21
-156.70147326412484
31
0
0
SPLINE
5
118
100
AcDbEntity
8
0
100
AcDbSpline
70
0
71
3
72
9
73
5
74
0
42
0.000000001
43
0.0000000001
44
0.0000000001
40
0
40
0
40
0
40
0
40
0.043719827590014096
40
0.076187932579304188
40
0.076187932579304188
40
0.076187932579304188
40
0.076187932579304188
10
0.80493607962479174
20
-157.6088366787277
30
0
10
0.95349595029284195
20
-157.60846938767082
30
0
10
1.2123823648639929
20
-157.60782933148081
30
0
10
1.4397682487622141
20
-157.48716362866281
30
0
10
1.5366705862000349
20
-157.43574096138371
30
0
0
LWPOLYLINE
5
119
100
AcDbEntity
8
0
100
AcDbPolyline
90
7
70
1
43
0.0
10
27.014275319359541
20
-153.65784636127754
10
28.034002198393285
20
-153.66854683305442
10
25.225890163293947
20
-158.63935527278358
10
24.127723121881385
20
-158.6278316916418
10
23.283239505056304
20
-153.61869485487858
10
24.309784780066082
20
-153.62946687527818
10
24.904440921977017
20
-157.41831620541342
0
LWPOLYLINE
5
120
100
AcDbEntity
8
0
100
AcDbPolyline
90
4
70
1
43
0.0
10
-80
20
30
10
-50
20
30
10
-40
20
60
10
-70
20
60
0
CIRCLE
5
121
100
AcDbEntity
8
0
100
AcDbCircle
10
13.486887828986482
20
-10
30
0
40
1.4999999999999991
210
0
220
0
230
1
0
CIRCLE
5
122
100
AcDbEntity
8
0
100
AcDbCircle
10
13.960111963336878
20
-46.730883267102222
30
0
40
1.4999999999999969
210
0
220
0
230
1
0
LWPOLYLINE
5
123
100
AcDbEntity
8
0
100
AcDbPolyline
90
4
70
1
43
0.0
10
-40.000000000000014
20
-110
42
-0.99999999999999989
10
-40
20
-100
10
40
20
-100
42
-0.99999999999999989
10
40
20
-110
0
SPLINE
5
124
100
AcDbEntity
8
0
100
AcDbSpline
70
0
71
3
72
9
73
5
74
0
42
0.000000001
43
0.0000000001
44
0.0000000001
40
0
40
0
40
0
40
0
40
0.043817498088552002
40
0.091210423456424869
40
0.091210423456424869
40
0.091210423456424869
40
0.091210423456424869
10
-0.98598031122836283
20
-157.63097353677881
30
0
10
-1.0405714517996587
20
-157.4940511693581
30
0
10
-1.1542082696392879
20
-157.20903382108631
30
0
10
-1.156328266155104
20
-156.90193027046831
30
0
10
-1.157429816096962
20
-156.74235930145952
30
0
0
LINE
5
125
100
AcDbEntity
8
0
100
AcDbLine
10
14.492040699787633
20
-155.06131809231982
30
0
11
13.50541805524297
21
-155.14646822222718
31
0
0
CIRCLE
5
126
100
AcDbEntity
8
0
100
AcDbCircle
10
-10
20
-10
30
0
40
1.5000000000000013
210
0
220
0
230
1
0
SPLINE
5
127
100
AcDbEntity
8
0
100
AcDbSpline
70
0
71
3
72
9
73
5
74
0
42
0.000000001
43
0.0000000001
44
0.0000000001
40
0
40
0
40
0
40
0
40
0.0307947222897938
40
0.061260374398211401
40
0.061260374398211401
40
0.061260374398211401
40
0.061260374398211401
10
0.034081448457770003
20
-155.8220004268675
30
0
10
-0.049627633191722004
20
-155.76089455438807
30
0
10
-0.21615128728156799
20
-155.63933578237533
30
0
10
-0.32725655304978402
20
-155.46569268340798
30
0
10
-0.38251077582526494
20
-155.37933751016368
30
0
0
SPLINE
5
128
100
AcDbEntity
8
0
100
AcDbSpline
70
0
71
3
72
9
73
5
74
0
42
0.000000001
43
0.0000000001
44
0.0000000001
40
0
40
0
40
0
40
0
40
0.0261364865043856
40
0.050499299804742201
40
0.050499299804742201
40
0.050499299804742201
40
0.050499299804742201
10
1.5366705862000349
20
-157.43574096138371
30
0
10
1.6029459762300657
20
-157.37465037785671
30
0
10
1.730999178417032
20
-157.2566149375439
30
0
10
1.7548401053162621
20
-157.08456756909814
30
0
10
1.7663418895627589
20
-157.00156527139347
30
0
0
LWPOLYLINE
5
129
100
AcDbEntity
8
0
100
AcDbPolyline
90
10
70
1
43
0.0
10
17.535321211636102
20
-158.55865453054778
10
16.505361970529226
20
-158.54784668580288
10
17.604836423234595
20
-153.5591087116039
10
21.103960948389396
20
-153.59582666421971
10
20.917847966014051
20
-154.42952674965318
10
18.44868268196613
20
-154.40361664178241
10
18.183709473553158
20
-155.60144797795482
10
20.605131681441641
20
-155.62685709536481
10
20.422432665163402
20
-156.46059300514369
10
18.001010457274912
20
-156.4351838877337
0
LWPOLYLINE
5
130
100
AcDbEntity
8
0
100
AcDbPolyline
90
2
70
1
43
0.0
10
-40
20
-140
10
40
20
-140
0
SPLINE
5
131
100
AcDbEntity
8
0
100
AcDbSpline
70
0
71
3
72
9
73
5
74
0
42
0.000000001
43
0.0000000001
44
0.0000000001
40
0
40
0
40
0
40
0
40
0.060914777789337397
40
0.12459931711481148
40
0.12459931711481148
40
0.12459931711481148
40
0.12459931711481148
10
2.6243935403422021
20
-153.72935165863981
30
0
10
2.7656991765463208
20
-153.88221447448419
30
0
10
3.0547355387308128
20
-154.1948906945687
30
0
10
3.1132752452085386
20
-154.61722268520242
30
0
10
3.1431957481904904
20
-154.83308276283938
30
0
0
CIRCLE
5
132
100
AcDbEntity
8
0
100
AcDbCircle
10
50.161758241142643
20
-46.730883267102222
30
0
40
1.4999999999999949
210
0
220
0
230
1
0
LWPOLYLINE
5
133
100
AcDbEntity
8
0
100
AcDbPolyline
90
4
70
1
43
0.0
10
21.840624264127225
20
-153.6035568174413
10
22.867169539137009
20
-153.61432883784099
10
21.771109052528725
20
-158.60310263638522
10
20.741149811421874
20
-158.59229479164028
0
LWPOLYLINE
5
134
100
AcDbEntity
8
0
100
AcDbPolyline
90
8
70
1
43
0.0
10
-3.8605564700761974
20
-153.33386228968618
10
-2.7180555504921937
20
-153.3458510869774
10
-1.9588304920219579
20
-158.35409326575311
10
-2.934221108829735
20
-158.3438580351426
10
-3.0897386471333954
20
-157.23711721801536
10
-5.071212198859242
20
-157.2163246879243
10
-5.6830455262946336
20
-158.31501333299386
10
-6.7402866954965157
20
-158.30391920619869
0
SPLINE
5
135
100
AcDbEntity
8
0
100
AcDbSpline
70
0
71
3
72
9
73
5
74
0
42
0.000000001
43
0.0000000001
44
0.0000000001
40
0
40
0
40
0
40
0
40
0.036728570399684801
40
0.063548031427163199
40
0.063548031427163199
40
0.063548031427163199
40
0.063548031427163199
10
1.2508745897269999
20
-154.1174164660234
30
0
10
1.1259987373449487
20
-154.11737822425178
30
0
10
0.90993765722905684
20
-154.11731205806882
30
0
10
0.72048820101176403
20
-154.2184182432874
30
0
10
0.64053399639535602
20
-154.26108854059186
30
0
0
SPLINE
5
136
100
AcDbEntity
8
0
100
AcDbSpline
70
0
71
3
72
9
73
5
74
0
42
0.000000001
43
0.0000000001
44
0.0000000001
40
0
40
0
40
0
40
0
40
0.047037922456764997
40
0.096510579047353884
40
0.096510579047353884
40
0.096510579047353884
40
0.096510579047353884
10
2.445275984926329
20
-156.00931686226619
30
0
10
2.5464128732581592
20
-156.13432394360839
30
0
10
2.7539216054927569
20
-156.3908086090704
30
0
10
2.7760244906704741
20
-156.72049003727278
30
0
10
2.7873547350732286
20
-156.88948929354871
30
0
0
LWPOLYLINE
5
137
100
AcDbEntity
8
0
100
AcDbPolyline
90
4
70
1
43
0.0
10
7.5495109065735244
20
-158.45386874571059
10
8.6489853592788855
20
-153.4651307715117
10
9.6755306342886591
20
-153.47590279191132
10
8.5794677636258552
20
-158.46467656543859
0
SPLINE
5
138
100
AcDbEntity
8
0
100
AcDbSpline
70
0
71
3
72
9
73
5
74
0
42
0.000000001
43
0.0000000001
44
0.0000000001
40
0
40
0
40
0
40
0
40
0.082099650043341493
40
0.16089464860982994
40
0.16089464860982994
40
0.16089464860982994
40
0.16089464860982994
10
9.9312333072822749
20
-156.41189920622833
30
0
10
9.9473273684539123
20
-156.1364019839948
30
0
10
9.9788676772804248
20
-155.5964967744008
30
0
10
10.190247103238351
20
-155.0989252039476
30
0
10
10.2937660313646
20
-154.85524928607632
30
0
0
SPLINE
5
139
100
AcDbEntity
8
0
100
AcDbSpline
70
0
71
3
72
9
73
5
74
0
42
0.000000001
43
0.0000000001
44
0.0000000001
40
0
40
0
40
0
40
0
40
0.039459115714509108
40
0.065823060946812006
40
0.065823060946812006
40
0.065823060946812006
40
0.065823060946812006
10
-0.17809318649506103
20
-156.70147326412484
30
0
10
-0.17415019164873399
20
-156.83525258292801
30
0
10
-0.167572751040064
20
-157.05841430603181
30
0
10
-0.065360701759255999
20
-157.25525089201591
30
0
10
-0.024421966450379005
20
-157.3340893552832
30
0
0
LWPOLYLINE
5
140
100
AcDbEntity
8
0
100
AcDbPolyline
90
10
70
1
43
0.0
10
-23.006842730045687
20
-153.13295133993074
10
-19.507717310870433
20
-153.16966930192785
10
-19.69382850520487
20
-154.00336940612414
10
-22.162997365334608
20
-153.97745926072781
10
-22.427967891686201
20
-155.17529062504428
10
-20.006545981804535
20
-155.20069973932726
10
-20.189247382137331
20
-156.0344356240891
10
-22.610668994012165
20
-156.0090265129333
10
-23.076359431678256
20
-158.13249714323891
10
-24.106316288730589
20
-158.12168932351102
0
CIRCLE
5
141
100
AcDbEntity
8
0
100
AcDbCircle
10
-12.830805817848923
20
47.747591694675002
30
0
40
1.5000000000000013
210
0
220
0
230
1
0
SPLINE
5
142
100
AcDbEntity
8
0
100
AcDbSpline
70
0
71
3
72
9
73
5
74
0
42
0.000000001
43
0.0000000001
44
0.0000000001
40
0
40
0
40
0
40
0
40
0.038786790043915602
40
0.078750656360007817
40
0.078750656360007817
40
0.078750656360007817
40
0.078750656360007817
10
11.936658886313934
20
-157.72564706018437
30
0
10
12.067817318848382
20
-157.7155909135769
30
0
10
12.334114494704993
20
-157.69517344296639
30
0
10
12.557539065968424
20
-157.5485410912454
30
0
10
12.67092110124802
20
-157.47412906761738
30
0
0
SPLINE
5
143
100
AcDbEntity
8
0
100
AcDbSpline
70
0
71
3
72
9
73
5
74
0
42
0.000000001
43
0.0000000001
44
0.0000000001
40
0
40
0
40
0
40
0
40
0.078008318977638588
40
0.17150386157655079
40
0.17150386157655079
40
0.17150386157655079
40
0.17150386157655079
10
10.431097408792134
20
-158.020234123622
30
0
10
10.283011497808801
20
-157.80024364137438
30
0
10
9.9574397394172269
20
-157.3165873120233
30
0
10
9.9404793076635336
20
-156.73108598175054
30
0
10
9.9312333072822749
20
-156.41189920622833
30
0
0
SPLINE
5
144
100
AcDbEntity
8
0
100
AcDbSpline
70
0
71
3
72
9
73
5
74
0
42
0.000000001
43
0.0000000001
44
0.0000000001
40
0
40
0
40
0
40
0
40
0.064051439029267201
40
0.14115476212809219
40
0.14115476212809219
40
0.14115476212809219
40
0.14115476212809219
10
-0.061375047800526987
20
-153.70457969442586
30
0
10
0.120638829862232
20
-153.58539236922618
30
0
10
0.52175590068649602
20
-153.32273068992254
30
0
10
1.003244072767697
20
-153.30957564122554
30
0
10
1.2662485760557241
20
-153.30238992566919
30
0
0
SPLINE
5
145
100
AcDbEntity
8
0
100
AcDbSpline
70
0
71
3
72
9
73
5
74
0
42
0.000000001
43
0.0000000001
44
0.0000000001
40
0
40
0
40
0
40
0
40
0.037761683864783097
40
0.089351554707493883
40
0.089351554707493883
40
0.089351554707493883
40
0.089351554707493883
10
-0.024421966450379005
20
-157.3340893552832
30
0
10
0.077836153939476987
20
-157.41229886438612
30
0
10
0.319798934810609
20
-157.59735791144217
30
0
10
0.62735761009916402
20
-157.60463501751013
30
0
10
0.80493607962479174
20
-157.6088366787277
30
0
0
SPLINE
5
146
100
AcDbEntity
8
0
100
AcDbSpline
70
0
71
3
72
9
73
5
74
0
42
0.000000001
43
0.0000000001
44
0.0000000001
40
0
40
0
40
0
40
0
40
0.021798836881752898
40
0.043181315860247503
40
0.043181315860247503
40
0.043181315860247503
40
0.043181315860247503
10
0.64053399639535602
20
-154.26108854059186
30
0
10
0.58676390332132611
20
-154.31344465526172
30
0
10
0.48025072624403803
20
-154.41715688252589
30
0
10
0.46276252891044306
20
-154.56468248583582
30
0
10
0.45410274158326708
20
-154.63773406031245
30
0
0
SPLINE
5
147
100
AcDbEntity
8
0
100
AcDbSpline
70
0
71
3
72
9
73
5
74
0
42
0.000000001
43
0.0000000001
44
0.0000000001
40
0
40
0
40
0
40
0
40
0.078739952135580993
40
0.14465301306367431
40
0.14465301306367431
40
0.14465301306367431
40
0.14465301306367431
10
1.2662485760557241
20
-153.30238992566919
30
0
10
1.5340803713363329
20
-153.31540699162099
30
0
10
2.0261136420053742
20
-153.33932061818658
30
0
10
2.4371152260175992
20
-153.60726105189639
30
0
10
2.6243935403422021
20
-153.72935165863981
30
0
0
CIRCLE
5
148
100
AcDbEntity
8
0
100
AcDbCircle
10
30.532608032226562
20
95.23646354675293
30
0
40
1.5000000000000002
210
0
220
0
230
1
0
SPLINE
5
149
100
AcDbEntity
8
0
100
AcDbSpline
70
0
71
3
72
9
73
5
74
0
42
0.000000001
43
0.0000000001
44
0.0000000001
40
0
40
0
40
0
40
0
40
0.030968019092086005
40
0.069295096205049103
40
0.069295096205049103
40
0.069295096205049103
40
0.069295096205049103
10
1.9036772934978079
20
-154.31527307745571
30
0
10
1.8151819815936898
20
-154.2587965240233
30
0
10
1.6171618520575892
20
-154.1324226609814
30
0
10
1.3813190856521822
20
-154.1227605654185
30
0
10
1.2508745897269999
20
-154.1174164660234
30
0
0
SPLINE
5
150
100
AcDbEntity
8
0
100
AcDbSpline
70
0
71
3
72
9
73
5
74
0
42
0.000000001
43
0.0000000001
44
0.0000000001
40
0
40
0
40
0
40
0
40
0.078222414805227306
40
0.12566341303982834
40
0.12566341303982834
40
0.12566341303982834
40
0.12566341303982834
10
1.3534457135108369
20
-155.394142949177
30
0
10
1.5938523880605753
20
-155.49822692253039
30
0
10
1.9800629559227281
20
-155.66543663303239
30
0
10
2.3177796933807349
20
-155.91507304012512
30
0
10
2.445275984926329
20
-156.00931686226619
30
0
0
SPLINE
5
151
100
AcDbEntity
8
0
100
AcDbSpline
70
0
71
3
72
9
73
5
74
0
42
0.000000001
43
0.0000000001
44
0.0000000001
40
0
40
0
40
0
40
0
40
0.030959427443247995
40
0.066302888432844098
40
0.066302888432844098
40
0.066302888432844098
40
0.066302888432844098
10
13.196588999717454
20
-154.51051890249391
30
0
10
13.109045013678642
20
-154.45246486164689
30
0
10
12.92156030809301
20
-154.32813599282611
30
0
10
12.696310882944529
20
-154.31492757494138
30
0
10
12.576239277335244
20
-154.30788668708146
30
0
0
SPLINE
5
152
100
AcDbEntity
8
0
100
AcDbSpline
70
0
71
3
72
9
73
5
74
0
42
0.000000001
43
0.0000000001
44
0.0000000001
40
0
40
0
40
0
40
0
40
0.0283910144912712
40
0.0800439623641475
40
0.0800439623641475
40
0.0800439623641475
40
0.0800439623641475
10
1.5861150699163051
20
-156.62448270426009
30
0
10
1.5066761085882521
20
-156.57282097417431
30
0
10
1.2827105566441952
20
-156.4271689200736
30
0
10
1.0372571564495781
20
-156.32076557128232
30
0
10
0.87886430193551202
20
-156.25210272069009
30
0
0
SPLINE
5
153
100
AcDbEntity
8
0
100
AcDbSpline
70
0
71
3
72
9
73
5
74
0
42
0.000000001
43
0.0000000001
44
0.0000000001
40
0
40
0
40
0
40
0
40
0.058844959909297799
40
0.1170014587255989
40
0.1170014587255989
40
0.1170014587255989
40
0.1170014587255989
10
-0.52936121896650401
20
-154.74679329065182
30
0
10
-0.50866372052133202
20
-154.54604299179033
30
0
10
-0.4675108755913901
20
-154.1468910874878
30
0
10
-0.19622154932202704
20
-153.85143732149598
30
0
10
-0.061375047800526987
20
-153.70457969442586
30
0
0
SPLINE
5
154
100
AcDbEntity
8
0
100
AcDbSpline
70
0
71
3
72
9
73
5
74
0
42
0.000000001
43
0.0000000001
44
0.0000000001
40
0
40
0
40
0
40
0
40
0.020051324680167099
40
0.040265701649320799
40
0.040265701649320799
40
0.040265701649320799
40
0.040265701649320799
10
0.45410274158326708
20
-154.63773406031245
30
0
10
0.46045835433119497
20
-154.70639520206331
30
0
10
0.47322126205867399
20
-154.84427582056298
30
0
10
0.56927153594243507
20
-154.94407372916442
30
0
10
0.61749114629931601
20
-154.99417474473285
30
0
0
SPLINE
5
155
100
AcDbEntity
8
0
100
AcDbSpline
70
0
71
3
72
9
73
5
74
0
42
0.000000001
43
0.0000000001
44
0.0000000001
40
0
40
0
40
0
40
0
40
0.047883438809550309
40
0.091176129357529501
40
0.091176129357529501
40
0.091176129357529501
40
0.091176129357529501
10
-0.32555303948646608
20
-158.23991515335368
30
0
10
-0.46876071129414998
20
-158.16272143181743
30
0
10
-0.7414462479712649
20
-158.01573481357599
30
0
10
-0.90725174399271014
20
-157.75484872883391
30
0
10
-0.98598031122836283
20
-157.63097353677881
30
0
0
LWPOLYLINE
5
156
100
AcDbEntity
8
0
100
AcDbPolyline
90
10
70
1
43
0.0
10
-11.029329789259108
20
-153.25863699342858
10
-10.074402704570307
20
-153.2686574906115
10
-11.170465575233115
20
-158.2574312641388
10
-12.128803049937201
20
-158.24737498013599
10
-13.44409185432341
20
-154.87390639031329
10
-14.181895984011295
20
-158.22583091431983
10
-15.140233458715384
20
-158.21577463031701
10
-14.044170588052573
20
-153.22700085678972
10
-13.082422723333211
20
-153.23709292761239
10
-11.763580375398099
20
-156.59695514818009
0
SPLINE
5
157
100
AcDbEntity
8
0
100
AcDbSpline
70
0
71
3
72
9
73
5
74
0
42
0.000000001
43
0.0000000001
44
0.0000000001
40
0
40
0
40
0
40
0
40
0.055377863426996708
40
0.094853487456091082
40
0.094853487456091082
40
0.094853487456091082
40
0.094853487456091082
10
0.87886430193551202
20
-156.25210272069009
30
0
10
0.71026107094211099
20
-156.17653475611587
30
0
10
0.42147050614951698
20
-156.0470988310685
30
0
10
0.14792441686087202
20
-155.88815064460908
30
0
10
0.034081448457770003
20
-155.8220004268675
30
0
0
SPLINE
5
158
100
AcDbEntity
8
0
100
AcDbSpline
70
0
71
3
72
9
73
5
74
0
42
0.000000001
43
0.0000000001
44
0.0000000001
40
0
40
0
40
0
40
0
40
0.071828446453645806
40
0.1558279867521653
40
0.1558279867521653
40
0.1558279867521653
40
0.1558279867521653
10
2.25198856987384
20
-158.01456108594195
30
0
10
2.0483357098407229
20
-158.14899128614911
30
0
10
1.6065216829180919
20
-158.44063044154254
30
0
10
1.0753997251118319
20
-158.45854343099859
30
0
10
0.78909685212963587
20
-158.46819948130786
30
0
0
SPLINE
5
159
100
AcDbEntity
8
0
100
AcDbSpline
70
0
71
3
72
9
73
5
74
0
42
0.000000001
43
0.0000000001
44
0.0000000001
40
0
40
0
40
0
40
0
40
0.0406213611054662
40
0.080897545525750902
40
0.080897545525750902
40
0.080897545525750902
40
0.080897545525750902
10
11.22219367703007
20
-157.39071038915654
30
0
10
11.32284170390964
20
-157.48726936035749
30
0
10
11.52328250931313
20
-157.67956680081912
30
0
10
11.799259276658541
20
-157.71033072862346
30
0
10
11.936658886313934
20
-157.72564706018437
30
0
0
SPLINE
5
160
100
AcDbEntity
8
0
100
AcDbSpline
70
0
71
3
72
9
73
5
74
0
42
0.000000001
43
0.0000000001
44
0.0000000001
40
0
40
0
40
0
40
0
40
0.032718720267587709
40
0.061879809348692499
40
0.061879809348692499
40
0.061879809348692499
40
0.061879809348692499
10
2.1571099184519489
20
-154.86707585049018
30
0
10
2.140418189814465
20
-154.75658786267499
30
0
10
2.1088496878272083
20
-154.5476256671669
30
0
10
1.9693955648595201
20
-154.3896973711924
30
0
10
1.9036772934978079
20
-154.31527307745571
30
0
0
LINE
5
161
100
AcDbEntity
8
0
100
AcDbLine
10
60
20
-170
30
0
11
40
21
-140
31
0
0
SPLINE
5
162
100
AcDbEntity
8
0
100
AcDbSpline
70
0
71
3
72
9
73
5
74
0
42
0.000000001
43
0.0000000001
44
0.0000000001
40
0
40
0
40
0
40
0
40
0.074883663271513787
40
0.1462442162475929
40
0.1462442162475929
40
0.1462442162475929
40
0.1462442162475929
10
10.2937660313646
20
-154.85524928607632
30
0
10
10.42004840412288
20
-154.63611251253434
30
0
10
10.66667184404406
20
-154.20814886468926
30
0
10
11.068902616954428
20
-153.922088961024
30
0
10
11.265173013933998
20
-153.78250468594211
30
0
0
SPLINE
5
163
100
AcDbEntity
8
0
100
AcDbSpline
70
0
71
3
72
9
73
5
74
0
42
0.000000001
43
0.0000000001
44
0.0000000001
40
0
40
0
40
0
40
0
40
0.082886586154874181
40
0.15720248755138061
40
0.15720248755138061
40
0.15720248755138061
40
0.15720248755138061
10
11.859394467669279
20
-158.58777606500578
30
0
10
11.575813012272695
20
-158.56723246300811
30
0
10
11.037973148431661
20
-158.528269519942
30
0
10
10.625900585472561
20
-158.1833101911017
30
0
10
10.431097408792134
20
-158.020234123622
30
0
0
SPLINE
5
164
100
AcDbEntity
8
0
100
AcDbSpline
70
0
71
3
72
9
73
5
74
0
42
0.000000001
43
0.0000000001
44
0.0000000001
40
0
40
0
40
0
40
0
40
0.041732344062342802
40
0.084784013016425505
40
0.084784013016425505
40
0.084784013016425505
40
0.084784013016425505
10
12.576239277335244
20
-154.30788668708146
30
0
10
12.435432255077217
20
-154.31786693251149
30
0
10
12.149366742196042
20
-154.33814293850764
30
0
10
11.902521607341823
20
-154.48443862167181
30
0
10
11.77717846008348
20
-154.55872471756319
30
0
0
LINE
5
165
100
AcDbEntity
8
0
100
AcDbLine
10
-40
20
-140
30
0
11
-60
21
-170
31
0
0
SPLINE
5
166
100
AcDbEntity
8
0
100
AcDbSpline
70
0
71
3
72
9
73
5
74
0
42
0.000000001
43
0.0000000001
44
0.0000000001
40
0
40
0
40
0
40
0
40
0.057495878772758101
40
0.1127285826235383
40
0.1127285826235383
40
0.1127285826235383
40
0.1127285826235383
10
11.176966134131376
20
-155.36249812696948
30
0
10
11.110410636747828
20
-155.543432191156
30
0
10
10.979919425099339
20
-155.89817832321654
30
0
10
10.955639565608461
20
-156.27527834479798
30
0
10
10.943743360958418
20
-156.46004296553031
30
0
0
SPLINE
5
167
100
AcDbEntity
8
0
100
AcDbSpline
70
0
71
3
72
9
73
5
74
0
42
0.000000001
43
0.0000000001
44
0.0000000001
40
0
40
0
40
0
40
0
40
0.070022044697743618
40
0.1402285956891911
40
0.1402285956891911
40
0.1402285956891911
40
0.1402285956891911
10
11.265173013933998
20
-153.78250468594211
30
0
10
11.475652716337573
20
-153.67528258798367
30
0
10
11.897166729767752
20
-153.46055586458613
30
0
10
12.369519320502508
20
-153.43445228058761
30
0
10
12.606006365704507
20
-153.42138331564473
30
0
0
SPLINE
5
168
100
AcDbEntity
8
0
100
AcDbSpline
70
0
71
3
72
9
73
5
74
0
42
0.000000001
43
0.0000000001
44
0.0000000001
40
0
40
0
40
0
40
0
40
0.047027913657339798
40
0.1013760306571674
40
0.1013760306571674
40
0.1013760306571674
40
0.1013760306571674
10
11.77717846008348
20
-154.55872471756319
30
0
10
11.656671361946652
20
-154.6618734954198
30
0
10
11.396899445119972
20
-154.88422683523481
30
0
10
11.253723409721649
20
-155.19558024999321
30
0
10
11.176966134131376
20
-155.36249812696948
30
0
0
ARC
5
169
100
AcDbEntity
8
0
100
AcDbCircle
10
0
20
-527.5
30
0
40
362.5
210
0
220
-0
230
1
100
AcDbArc
50
80.472716618547636
51
99.527283381452364
0
SPLINE
5
170
100
AcDbEntity
8
0
100
AcDbSpline
70
0
71
3
72
9
73
5
74
0
42
0.000000001
43
0.0000000001
44
0.0000000001
40
0
40
0
40
0
40
0
40
0.060398326404664499
40
0.11444041491199421
40
0.11444041491199421
40
0.11444041491199421
40
0.11444041491199421
10
0.78909685212963587
20
-158.46819948130786
30
0
10
0.58641996862522505
20
-158.45923017238815
30
0
10
0.20239564176035801
20
-158.44223547244567
30
0
10
-0.15620934634191103
20
-158.30481098745702
30
0
10
-0.32555303948646608
20
-158.23991515335368
30
0
0
LINE
5
171
100
AcDbEntity
8
0
100
AcDbLine
10
13.175192781215348
20
-156.71198407344318
30
0
11
14.210326577368875
21
-156.87974441259905
31
0
0
SPLINE
5
172
100
AcDbEntity
8
0
100
AcDbSpline
70
0
71
3
72
9
73
5
74
0
42
0.000000001
43
0.0000000001
44
0.0000000001
40
0
40
0
40
0
40
0
40
0.039505242834934999
40
0.071745477980545799
40
0.071745477980545799
40
0.071745477980545799
40
0.071745477980545799
10
13.50541805524297
20
-155.14646822222718
30
0
10
13.477873692496463
20
-155.01495417972711
30
0
10
13.427850370802796
20
-154.77611150561052
30
0
10
13.268290397532001
20
-154.59286452209869
30
0
10
13.196588999717454
20
-154.51051890249391
30
0
0
SPLINE
5
173
100
AcDbEntity
8
0
100
AcDbSpline
70
0
71
3
72
9
73
5
74
0
42
0.000000001
43
0.0000000001
44
0.0000000001
40
0
40
0
40
0
40
0
40
0.031769792310620597
40
0.083909748936022183
40
0.083909748936022183
40
0.083909748936022183
40
0.083909748936022183
10
0.61749114629931601
20
-154.99417474473285
30
0
10
0.70521940196983701
20
-155.05380890256231
30
0
10
0.93692554080562207
20
-155.21131346420901
30
0
10
1.1938177036681361
20
-155.32407501792537
30
0
10
1.3534457135108369
20
-155.394142949177
30
0
0
SPLINE
5
174
100
AcDbEntity
8
0
100
AcDbSpline
70
0
71
3
72
9
73
5
74
0
42
0.000000001
43
0.0000000001
44
0.0000000001
40
0
40
0
40
0
40
0
40
0.053691592268738896
40
0.098774606446682012
40
0.098774606446682012
40
0.098774606446682012
40
0.098774606446682012
10
10.943743360958418
20
-156.46004296553031
30
0
10
10.94904667373423
20
-156.642977277352
30
0
10
10.958802998889821
20
-156.97951534397043
30
0
10
11.13965063464291
20
-157.26184747614892
30
0
10
11.22219367703007
20
-157.39071038915654
30
0
0
SPLINE
5
175
100
AcDbEntity
8
0
100
AcDbSpline
70
0
71
3
72
9
73
5
74
0
42
0.000000001
43
0.0000000001
44
0.0000000001
40
0
40
0
40
0
40
0
40
0.031429957823450892
40
0.065497350110175198
40
0.065497350110175198
40
0.065497350110175198
40
0.065497350110175198
10
-0.38251077582526494
20
-155.37933751016368
30
0
10
-0.42624639410877602
20
-155.28297235403778
30
0
10
-0.51738769054611811
20
-155.08215559174187
30
0
10
-0.52526431799601303
20
-154.8615419335386
30
0
10
-0.52936121896650401
20
-154.74679329065182
30
0
0
SPLINE
5
176
100
AcDbEntity
8
0
100
AcDbSpline
70
0
71
3
72
9
73
5
74
0
42
0.000000001
43
0.0000000001
44
0.0000000001
40
0
40
0
40
0
40
0
40
0.020975444375032098
40
0.042921097430026797
40
0.042921097430026797
40
0.042921097430026797
40
0.042921097430026797
10
1.7663418895627589
20
-157.00156527139347
30
0
10
1.7587489402547041
20
-156.9298767926966
30
0
10
1.7432118335691094
20
-156.78318392060555
30
0
10
1.6392638872288461
20
-156.67817433837601
30
0
10
1.5861150699163051
20
-156.62448270426009
30
0
0
SPLINE
5
177
100
AcDbEntity
8
0
100
AcDbSpline
70
0
71
3
72
9
73
5
74
0
42
0.000000001
43
0.0000000001
44
0.0000000001
40
0
40
0
40
0
40
0
40
0.083436289189496096
40
0.15950036253912867
40
0.15950036253912867
40
0.15950036253912867
40
0.15950036253912867
10
14.210326577368875
20
-156.87974441259905
30
0
10
14.098840936890431
20
-157.1390073483289
30
0
10
13.885720240285213
20
-157.63462541384442
30
0
10
13.479802676437501
20
-157.98875464665159
30
0
10
13.28622478821895
20
-158.15763521538938
30
0
0
SPLINE
5
178
100
AcDbEntity
8
0
100
AcDbSpline
70
0
71
3
72
9
73
5
74
0
42
0.000000001
43
0.0000000001
44
0.0000000001
40
0
40
0
40
0
40
0
40
0.073882133436278294
40
0.15100211893725349
40
0.15100211893725349
40
0.15100211893725349
40
0.15100211893725349
10
13.28622478821895
20
-158.15763521538938
30
0
10
13.071041756710704
20
-158.28518512664058
30
0
10
12.631245391800478
20
-158.54587476801089
30
0
10
12.120329865510273
20
-158.57361072392825
30
0
10
11.859394467669279
20
-158.58777606500578
30
0
0
SPLINE
5
179
100
AcDbEntity
8
0
100
AcDbSpline
70
0
71
3
72
9
73
5
74
0
42
0.000000001
43
0.0000000001
44
0.0000000001
40
0
40
0
40
0
40
0
40
0.064997946559112105
40
0.13483192533705327
40
0.13483192533705327
40
0.13483192533705327
40
0.13483192533705327
10
13.914466263018122
20
-153.8699945500847
30
0
10
14.063131579355641
20
-154.03386833213241
30
0
10
14.37152333469208
20
-154.37380857202382
30
0
10
14.450919013433241
20
-154.82673321870544
30
0
10
14.492040699787633
20
-155.06131809231982
30
0
0
SPLINE
5
180
100
AcDbEntity
8
0
100
AcDbSpline
70
0
71
3
72
9
73
5
74
0
42
0.000000001
43
0.0000000001
44
0.0000000001
40
0
40
0
40
0
40
0
40
0.043315512441297797
40
0.092434288358543601
40
0.092434288358543601
40
0.092434288358543601
40
0.092434288358543601
10
12.67092110124802
20
-157.47412906761738
30
0
10
12.77725008316323
20
-157.37369593004371
30
0
10
13.004153638524389
20
-157.15937396832598
30
0
10
13.115842364706197
20
-156.86722793274652
30
0
10
13.175192781215348
20
-156.71198407344318
30
0
0
SPLINE
5
181
100
AcDbEntity
8
0
100
AcDbSpline
70
0
71
3
72
9
73
5
74
0
42
0.000000001
43
0.0000000001
44
0.0000000001
40
0
40
0
40
0
40
0
40
0.0742148981504476
40
0.14066445245018319
40
0.14066445245018319
40
0.14066445245018319
40
0.14066445245018319
10
12.606006365704507
20
-153.42138331564473
30
0
10
12.858259680850841
20
-153.43779842794197
30
0
10
13.336372234234259
20
-153.46891108646142
30
0
10
13.728993097012456
20
-153.74131268151868
30
0
10
13.914466263018122
20
-153.8699945500847
30
0
0
CIRCLE
5
182
100
AcDbEntity
8
0
100
AcDbCircle
10
-50.00000074505806
20
-59.00000087916851
30
0
40
1.5000000000000009
210
0
220
0
230
1
0
ENDSEC
0
SECTION
2
OBJECTS
0
DICTIONARY
5
C
100
AcDbDictionary
3
ACAD_GROUP
350
D
3
ACAD_MLINESTYLE
350
17
0
DICTIONARY
5
D
100
AcDbDictionary
0
DICTIONARY
5
1A
330
C
100
AcDbDictionary
0
DICTIONARY
5
17
100
AcDbDictionary
0
ENDSEC
0
EOF
