0
SECTION
2
HEADER
9
$INSUNITS
70
4
9
$ACADVER
1
AC1014
9
$HANDSEED
5
FFFF
0
ENDSEC
0
SECTION
2
TABLES
0
TABLE
2
VPORT
5
8
100
AcDbSymbolTable
0
ENDTAB
0
TABLE
2
LTYPE
5
5
100
AcDbSymbolTable
0
LTYPE
5
14
100
AcDbSymbolTableRecord
100
AcDbLinetypeTableRecord
2
BYBLOCK
70
0
0
LTYPE
5
15
100
AcDbSymbolTableRecord
100
AcDbLinetypeTableRecord
2
BYLAYER
70
0
0
ENDTAB
0
TABLE
2
LAYER
5
2
100
AcDbSymbolTable
70
2
0
LAYER
5
50
100
AcDbSymbolTableRecord
100
AcDbLayerTableRecord
2
0
70
0
6
CONTINUOUS
0
ENDTAB
0
TABLE
2
STYLE
5
3
100
AcDbSymbolTable
70
1
0
STYLE
5
11
100
AcDbSymbolTableRecord
100
AcDbTextStyleTableRecord
2
STANDARD
70
0
0
ENDTAB
0
TABLE
2
VIEW
5
6
100
AcDbSymbolTable
70
0
0
ENDTAB
0
TABLE
2
UCS
5
7
100
AcDbSymbolTable
70
0
0
ENDTAB
0
TABLE
2
APPID
5
9
100
AcDbSymbolTable
70
2
0
APPID
5
12
100
AcDbSymbolTableRecord
100
AcDbRegAppTableRecord
2
ACAD
70
0
0
ENDTAB
0
TABLE
2
DIMSTYLE
5
A
100
AcDbSymbolTable
70
1
0
ENDTAB
0
TABLE
2
BLOCK_RECORD
5
1
100
AcDbSymbolTable
70
1
0
BLOCK_RECORD
5
1F
100
AcDbSymbolTableRecord
100
AcDbBlockTableRecord
2
*MODEL_SPACE
0
BLOCK_RECORD
5
1B
100
AcDbSymbolTableRecord
100
AcDbBlockTableRecord
2
*PAPER_SPACE
0
ENDTAB
0
ENDSEC
0
SECTION
2
BLOCKS
0
BLOCK
5
20
100
AcDbEntity
100
AcDbBlockBegin
2
*MODEL_SPACE
0
ENDBLK
5
21
100
AcDbEntity
100
AcDbBlockEnd
0
BLOCK
5
1C
100
AcDbEntity
100
AcDbBlockBegin
2
*PAPER_SPACE
0
ENDBLK
5
1D
100
AcDbEntity
100
AcDbBlockEnd
0
ENDSEC
0
SECTION
2
ENTITIES
0
LWPOLYLINE
5
100
100
AcDbEntity
8
0
100
AcDbPolyline
90
7
70
1
43
0.0
10
82.221014281317707
20
-49.999999999999972
10
82.221014281317707
20
-99.999999999999972
10
112.22101428131772
20
-99.999999999999972
10
112.22101428131772
20
-49.999999999999972
10
122.22101428131772
20
-49.999999999999972
10
97.221014281317721
20
-16.989502633635677
10
72.221014281317707
20
-49.999999999999972
0
LWPOLYLINE
5
101
100
AcDbEntity
8
0
100
AcDbPolyline
90
2
70
1
43
0.0
10
112.22101428131772
20
-99.999999999999972
10
112.22101428131772
20
-49.999999999999972
0
LWPOLYLINE
5
102
100
AcDbEntity
8
0
100
AcDbPolyline
90
7
70
1
43
0.0
10
82.221014281317707
20
-99.999999999999972
10
82.221014281317707
20
-49.999999999999972
10
72.221014281317707
20
-49.999999999999972
10
97.221014281317721
20
-16.989502633635677
10
122.22101428131772
20
-49.999999999999972
10
112.22101428131772
20
-49.999999999999972
10
112.22101428131772
20
-99.999999999999972
0
LWPOLYLINE
5
103
100
AcDbEntity
8
0
100
AcDbPolyline
90
2
70
1
43
0.0
10
82.221014281317707
20
-49.999999999999972
10
82.221014281317707
20
-99.999999999999972
0
LWPOLYLINE
5
104
100
AcDbEntity
8
0
100
AcDbPolyline
90
2
70
1
43
0.0
10
30
20
-80
10
60
20
-80
0
SPLINE
5
105
100
AcDbEntity
8
0
100
AcDbSpline
70
0
71
2
72
6
73
3
74
0
42
0.000000001
43
0.0000000001
44
0.0000000001
40
-1
40
-1
40
-1
40
0
40
0
40
0
10
-25.989459591356365
20
98.774684846082579
30
0
10
-26.906964716308423
20
99.17021994779509
30
0
10
-28.26439999443943
20
99.170073367883475
30
0
0
SPLINE
5
106
100
AcDbEntity
8
0
100
AcDbSpline
70
0
71
2
72
6
73
3
74
0
42
0.000000001
43
0.0000000001
44
0.0000000001
40
-1
40
-1
40
-1
40
0
40
0
40
0
10
-28.26439999443943
20
99.170073367883475
30
0
10
-29.335341376802692
20
99.169957724437552
30
0
10
-30.191370132877744
20
98.777641689038674
30
0
0
SPLINE
5
107
100
AcDbEntity
8
0
100
AcDbSpline
70
0
71
2
72
6
73
3
74
0
42
0.000000001
43
0.0000000001
44
0.0000000001
40
-1
40
-1
40
-1
40
0
40
0
40
0
10
-30.191370132877744
20
98.777641689038674
30
0
10
-31.047398888824063
20
98.385324461546901
30
0
10
-31.504348416381951
20
97.679273594500529
30
0
0
SPLINE
5
108
100
AcDbEntity
8
0
100
AcDbSpline
70
0
71
2
72
6
73
3
74
0
42
0.000000001
43
0.0000000001
44
0.0000000001
40
-1
40
-1
40
-1
40
0
40
0
40
0
10
-31.504348416381951
20
97.679273594500529
30
0
10
-31.961297943811125
20
96.973221535361233
30
0
10
-31.961211763596911
20
96.175130843679412
30
0
0
SPLINE
5
109
100
AcDbEntity
8
0
100
AcDbSpline
70
0
71
2
72
6
73
3
74
0
42
0.000000001
43
0.0000000001
44
0.0000000001
40
-1
40
-1
40
-1
40
0
40
0
40
0
10
-31.961211763596911
20
96.175130843679412
30
0
10
-31.961124846942699
20
95.370220188582124
30
0
10
-31.544959951574128
20
94.752938625678539
30
0
0
SPLINE
5
110
100
AcDbEntity
8
0
100
AcDbSpline
70
0
71
2
72
6
73
3
74
0
42
0.000000001
43
0.0000000001
44
0.0000000001
40
-1
40
-1
40
-1
40
0
40
0
40
0
10
-31.544959951574128
20
94.752938625678539
30
0
10
-31.12879505633428
20
94.135658254867849
30
0
10
-30.255627599558565
20
93.733296017760864
30
0
0
SPLINE
5
111
100
AcDbEntity
8
0
100
AcDbSpline
70
0
71
2
72
6
73
3
74
0
42
0.000000001
43
0.0000000001
44
0.0000000001
40
-1
40
-1
40
-1
40
0
40
0
40
0
10
-30.255627599558565
20
93.733296017760864
30
0
10
-29.655325126679436
20
93.460509848326879
30
0
10
-28.042052341415484
20
93.095745077827715
30
0
0
SPLINE
5
112
100
AcDbEntity
8
0
100
AcDbSpline
70
0
71
2
72
6
73
3
74
0
42
0.000000001
43
0.0000000001
44
0.0000000001
40
-1
40
-1
40
-1
40
0
40
0
40
0
10
-28.042052341415484
20
93.095745077827715
30
0
10
-26.428779854239117
20
92.730980903342839
30
0
10
-26.046750427502513
20
92.383136664528195
30
0
0
SPLINE
5
113
100
AcDbEntity
8
0
100
AcDbSpline
70
0
71
2
72
6
73
3
74
0
42
0.000000001
43
0.0000000001
44
0.0000000001
40
-1
40
-1
40
-1
40
0
40
0
40
0
10
-26.046750427502513
20
92.383136664528195
30
0
10
-25.657899845257582
20
92.035293162282272
30
0
10
-25.657841655298533
20
91.496412340381312
30
0
0
SPLINE
5
114
100
AcDbEntity
8
0
100
AcDbSpline
70
0
71
2
72
6
73
3
74
0
42
0.000000001
43
0.0000000001
44
0.0000000001
40
-1
40
-1
40
-1
40
0
40
0
40
0
10
-25.657841655298533
20
91.496412340381312
30
0
10
-25.657774626257339
20
90.875675268194641
30
0
10
-26.206840267947783
20
90.43564369442727
30
0
0
SPLINE
5
115
100
AcDbEntity
8
0
100
AcDbSpline
70
0
71
2
72
6
73
3
74
0
42
0.000000001
43
0.0000000001
44
0.0000000001
40
-1
40
-1
40
-1
40
0
40
0
40
0
10
-26.206840267947783
20
90.43564369442727
30
0
10
-26.755905909573862
20
89.995611524613423
30
0
10
-27.956451630781118
20
89.995481886104301
30
0
0
SPLINE
5
116
100
AcDbEntity
8
0
100
AcDbSpline
70
0
71
2
72
6
73
3
74
0
42
0.000000001
43
0.0000000001
44
0.0000000001
40
-1
40
-1
40
-1
40
0
40
0
40
0
10
-27.956451630781118
20
89.995481886104301
30
0
10
-29.109248369360419
20
89.995357403672784
30
0
10
-29.699341943058059
20
90.479604671043106
30
0
0
SPLINE
5
117
100
AcDbEntity
8
0
100
AcDbSpline
70
0
71
2
72
6
73
3
74
0
42
0.000000001
43
0.0000000001
44
0.0000000001
40
-1
40
-1
40
-1
40
0
40
0
40
0
10
-29.699341943058059
20
90.479604671043106
30
0
10
-30.289434920709255
20
90.963851938477802
30
0
10
-30.391856426457096
20
91.911999386804666
30
0
0
LINE
5
118
100
AcDbEntity
8
0
100
AcDbLine
10
-30.391856426457096
20
91.911999386804666
30
0
11
-31.660604880708505
21
91.816364417191465
31
0
0
SPLINE
5
119
100
AcDbEntity
8
0
100
AcDbSpline
70
0
71
2
72
6
73
3
74
0
42
0.000000001
43
0.0000000001
44
0.0000000001
40
-1
40
-1
40
-1
40
0
40
0
40
0
10
-31.660604880708508
20
91.816364417191465
30
0
10
-31.626403487952793
20
90.936422350224788
30
0
10
-31.169302592883117
20
90.240701322405698
30
0
0
SPLINE
5
120
100
AcDbEntity
8
0
100
AcDbSpline
70
0
71
2
72
6
73
3
74
0
42
0.000000001
43
0.0000000001
44
0.0000000001
40
-1
40
-1
40
-1
40
0
40
0
40
0
10
-31.169302592883117
20
90.240701322405698
30
0
10
-30.712201101702632
20
89.54497969860455
30
0
10
-29.862913073142309
20
89.186954182386117
30
0
0
SPLINE
5
121
100
AcDbEntity
8
0
100
AcDbSpline
70
0
71
2
72
6
73
3
74
0
42
0.000000001
43
0.0000000001
44
0.0000000001
40
-1
40
-1
40
-1
40
0
40
0
40
0
10
-29.862913073142309
20
89.186954182386117
30
0
10
-29.013624448535538
20
88.828928666232059
30
0
10
-27.901755537075864
20
88.829048729154678
30
0
0
SPLINE
5
122
100
AcDbEntity
8
0
100
AcDbSpline
70
0
71
2
72
6
73
3
74
0
42
0.000000001
43
0.0000000001
44
0.0000000001
40
-1
40
-1
40
-1
40
0
40
0
40
0
10
-27.901755537075864
20
88.829048729154678
30
0
10
-26.892205746380434
20
88.829157743353363
30
0
10
-26.066867261745145
20
89.170310605723273
30
0
0
SPLINE
5
123
100
AcDbEntity
8
0
100
AcDbSpline
70
0
71
2
72
6
73
3
74
0
42
0.000000001
43
0.0000000001
44
0.0000000001
40
-1
40
-1
40
-1
40
0
40
0
40
0
10
-26.066867261745145
20
89.170310605723273
30
0
10
-25.241529075197441
20
89.511464064107443
30
0
10
-24.811859311715008
20
90.169763896288458
30
0
0
SPLINE
5
124
100
AcDbEntity
8
0
100
AcDbSpline
70
0
71
2
72
6
73
3
74
0
42
0.000000001
43
0.0000000001
44
0.0000000001
40
-1
40
-1
40
-1
40
0
40
0
40
0
10
-24.811859311715008
20
90.169763896288458
30
0
10
-24.382189548296935
20
90.828064324515921
30
0
10
-24.382271308905711
20
91.585226295008482
30
0
0
SPLINE
5
125
100
AcDbEntity
8
0
100
AcDbSpline
70
0
71
2
72
6
73
3
74
0
42
0.000000001
43
0.0000000001
44
0.0000000001
40
-1
40
-1
40
-1
40
0
40
0
40
0
10
-24.382271308905711
20
91.585226295008482
30
0
10
-24.38234570376288
20
92.274176114371301
30
0
10
-24.733701800397839
20
92.830072487092224
30
0
0
SPLINE
5
126
100
AcDbEntity
8
0
100
AcDbSpline
70
0
71
2
72
6
73
3
74
0
42
0.000000001
43
0.0000000001
44
0.0000000001
40
-1
40
-1
40
-1
40
0
40
0
40
0
10
-24.733701800397839
20
92.830072487092224
30
0
10
-25.085057897032804
20
93.385968859813119
30
0
10
-25.801333148504373
20
93.76106222416422
30
0
0
SPLINE
5
127
100
AcDbEntity
8
0
100
AcDbSpline
70
0
71
2
72
6
73
3
74
0
42
0.000000001
43
0.0000000001
44
0.0000000001
40
-1
40
-1
40
-1
40
0
40
0
40
0
10
-25.801333148504373
20
93.76106222416422
30
0
10
-26.353888550502855
20
94.054317612279419
30
0
10
-27.7318233174732
20
94.385001421294206
30
0
0
SPLINE
5
128
100
AcDbEntity
8
0
100
AcDbSpline
70
0
71
2
72
6
73
3
74
0
42
0.000000001
43
0.0000000001
44
0.0000000001
40
-1
40
-1
40
-1
40
0
40
0
40
0
10
-27.7318233174732
20
94.385001421294206
30
0
10
-29.109758084379184
20
94.715684634262544
30
0
10
-29.512230949376747
20
94.872530732794829
30
0
0
SPLINE
5
129
100
AcDbEntity
8
0
100
AcDbSpline
70
0
71
2
72
6
73
3
74
0
42
0.000000001
43
0.0000000001
44
0.0000000001
40
-1
40
-1
40
-1
40
0
40
0
40
0
10
-29.512230949376747
20
94.872530732794829
30
0
10
-30.139814957492
20
95.111208178347923
30
0
10
-30.412703880129595
20
95.462474184227347
30
0
0
SPLINE
5
130
100
AcDbEntity
8
0
100
AcDbSpline
70
0
71
2
72
6
73
3
74
0
42
0.000000001
43
0.0000000001
44
0.0000000001
40
-1
40
-1
40
-1
40
0
40
0
40
0
10
-30.412703880129595
20
95.462474184227347
30
0
10
-30.685593398877991
20
95.813740786088815
30
0
10
-30.685644223085433
20
96.284409456860075
30
0
0
SPLINE
5
131
100
AcDbEntity
8
0
100
AcDbSpline
70
0
71
2
72
6
73
3
74
0
42
0.000000001
43
0.0000000001
44
0.0000000001
40
-1
40
-1
40
-1
40
0
40
0
40
0
10
-30.685644223085433
20
96.284409456860075
30
0
10
-30.685694310659784
20
96.74825637607654
30
0
10
-30.402653346120225
20
97.140510538544035
30
0
0
SPLINE
5
132
100
AcDbEntity
8
0
100
AcDbSpline
70
0
71
2
72
6
73
3
74
0
42
0.000000001
43
0.0000000001
44
0.0000000001
40
-1
40
-1
40
-1
40
0
40
0
40
0
10
-30.402653346120225
20
97.140510538544035
30
0
10
-30.119612381580659
20
97.53276470101153
30
0
10
-29.539827741819664
20
97.757930210657975
30
0
0
SPLINE
5
133
100
AcDbEntity
8
0
100
AcDbSpline
70
0
71
2
72
6
73
3
74
0
42
0.000000001
43
0.0000000001
44
0.0000000001
40
-1
40
-1
40
-1
40
0
40
0
40
0
10
-29.539827741819664
20
97.757930210657975
30
0
10
-28.960043101929934
20
97.983094528211581
30
0
10
-28.202880237367726
20
97.983176288916894
30
0
0
SPLINE
5
134
100
AcDbEntity
8
0
100
AcDbSpline
70
0
71
2
72
6
73
3
74
0
42
0.000000001
43
0.0000000001
44
0.0000000001
40
-1
40
-1
40
-1
40
0
40
0
40
0
10
-28.202880237367726
20
97.983176288916894
30
0
10
-27.350220003596046
20
97.983268361713101
30
0
10
-26.668059596510343
20
97.686616986985541
30
0
0
SPLINE
5
135
100
AcDbEntity
8
0
100
AcDbSpline
70
0
71
2
72
6
73
3
74
0
42
0.000000001
43
0.0000000001
44
0.0000000001
40
-1
40
-1
40
-1
40
0
40
0
40
0
10
-26.668059596510343
20
97.686616986985541
30
0
10
-25.985899487319138
20
97.389964420132955
30
0
10
-25.661836711212992
20
96.90909959980371
30
0
0
SPLINE
5
136
100
AcDbEntity
8
0
100
AcDbSpline
70
0
71
2
72
6
73
3
74
0
42
0.000000001
43
0.0000000001
44
0.0000000001
40
-1
40
-1
40
-1
40
0
40
0
40
0
10
-25.661836711212992
20
96.90909959980371
30
0
10
-25.337773934978113
20
96.42823358738157
30
0
10
-25.24901610119047
20
95.677902347983874
30
0
0
LINE
5
137
100
AcDbEntity
8
0
100
AcDbLine
10
-25.24901610119047
20
95.67790234798386
30
0
11
-24.000733257153748
21
95.787177418835142
31
0
0
SPLINE
5
138
100
AcDbEntity
8
0
100
AcDbSpline
70
0
71
2
72
6
73
3
74
0
42
0.000000001
43
0.0000000001
44
0.0000000001
40
-1
40
-1
40
-1
40
0
40
0
40
0
10
-24.000733257153748
20
95.787177418835142
30
0
10
-24.028126678389825
20
96.789903405714256
30
0
10
-24.550040572332698
20
97.584525978995714
30
0
0
SPLINE
5
139
100
AcDbEntity
8
0
100
AcDbSpline
70
0
71
2
72
6
73
3
74
0
42
0.000000001
43
0.0000000001
44
0.0000000001
40
-1
40
-1
40
-1
40
0
40
0
40
0
10
-24.550040572332698
20
97.584525978995714
30
0
10
-25.071954466275578
20
98.379148552277172
30
0
10
-25.989459591356365
20
98.774684846082579
30
0
0
LWPOLYLINE
5
140
100
AcDbEntity
8
0
100
AcDbPolyline
90
8
70
1
43
0.0
10
-1.9988341101853058
20
100.59530201141689
10
-6.1780925839510381
20
100.73054858586755
10
-7.2459613517522303
20
103.79534086026125
10
-8.7526759883162129
20
103.84410022619878
10
-4.9854922683622691
20
93.716954035149485
10
-3.5605907559845478
20
93.670842254868788
10
0.60122655759638877
20
103.54139502501992
10
-0.80322227877770658
20
103.58684492846646
0
SPLINE
5
141
100
AcDbEntity
8
0
100
AcDbSpline
70
0
71
2
72
6
73
3
74
0
42
0.000000001
43
0.0000000001
44
0.0000000001
40
-1
40
-1
40
-1
40
0
40
0
40
0
10
19.241163280631277
20
103.03799762197843
30
0
10
18.578074582186122
20
102.89122886073294
30
0
10
18.131635568535394
20
102.57740782996981
30
0
0
SPLINE
5
142
100
AcDbEntity
8
0
100
AcDbSpline
70
0
71
2
72
6
73
3
74
0
42
0.000000001
43
0.0000000001
44
0.0000000001
40
-1
40
-1
40
-1
40
0
40
0
40
0
10
18.131635568535394
20
102.57740782996981
30
0
10
17.685197150648378
20
102.26358678084985
30
0
10
17.370020237122411
20
101.66932740087198
30
0
0
SPLINE
5
143
100
AcDbEntity
8
0
100
AcDbSpline
70
0
71
2
72
6
73
3
74
0
42
0.000000001
43
0.0000000001
44
0.0000000001
40
-1
40
-1
40
-1
40
0
40
0
40
0
10
17.370020237122411
20
101.66932740087198
30
0
10
17.054842764546365
20
101.07506923077833
30
0
10
17.033204597660479
20
100.37281037739093
30
0
0
SPLINE
5
144
100
AcDbEntity
8
0
100
AcDbSpline
70
0
71
2
72
6
73
3
74
0
42
0.000000001
43
0.0000000001
44
0.0000000001
40
-1
40
-1
40
-1
40
0
40
0
40
0
10
17.033204597660479
20
100.37281037739093
30
0
10
17.006314436401681
20
99.500099952677203
30
0
10
17.474057787460715
20
98.844182887040006
30
0
0
SPLINE
5
145
100
AcDbEntity
8
0
100
AcDbSpline
70
0
71
2
72
6
73
3
74
0
42
0.000000001
43
0.0000000001
44
0.0000000001
40
-1
40
-1
40
-1
40
0
40
0
40
0
10
17.474057787460715
20
98.844182887040006
30
0
10
17.941800542756042
20
98.188265839759637
30
0
10
18.840407480562568
20
97.894421660637931
30
0
0
SPLINE
5
146
100
AcDbEntity
8
0
100
AcDbSpline
70
0
71
2
72
6
73
3
74
0
42
0.000000001
43
0.0000000001
44
0.0000000001
40
-1
40
-1
40
-1
40
0
40
0
40
0
10
18.840407480562568
20
97.894421660637931
30
0
10
18.127434581416555
20
97.568339360754166
30
0
10
17.762277528584587
20
97.01315533356987
30
0
0
SPLINE
5
147
100
AcDbEntity
8
0
100
AcDbSpline
70
0
71
2
72
6
73
3
74
0
42
0.000000001
43
0.0000000001
44
0.0000000001
40
-1
40
-1
40
-1
40
0
40
0
40
0
10
17.762277528584587
20
97.01315533356987
30
0
10
17.39712049410943
20
96.457971902149268
30
0
10
17.377373042260704
20
95.817075519117182
30
0
0
SPLINE
5
148
100
AcDbEntity
8
0
100
AcDbSpline
70
0
71
2
72
6
73
3
74
0
42
0.000000001
43
0.0000000001
44
0.0000000001
40
-1
40
-1
40
-1
40
0
40
0
40
0
10
17.377373042260704
20
95.817075519117182
30
0
10
17.356155026113385
20
95.12845250546934
30
0
10
17.728760843115275
20
94.485704025639421
30
0
0
SPLINE
5
149
100
AcDbEntity
8
0
100
AcDbSpline
70
0
71
2
72
6
73
3
74
0
42
0.000000001
43
0.0000000001
44
0.0000000001
40
-1
40
-1
40
-1
40
0
40
0
40
0
10
17.728760843115275
20
94.485704025639421
30
0
10
18.101366045996645
20
93.842954968402609
30
0
10
18.784049482078547
20
93.518228522739705
30
0
0
SPLINE
5
150
100
AcDbEntity
8
0
100
AcDbSpline
70
0
71
2
72
6
73
3
74
0
42
0.000000001
43
0.0000000001
44
0.0000000001
40
-1
40
-1
40
-1
40
0
40
0
40
0
10
18.784049482078547
20
93.518228522739705
30
0
10
19.466732340753548
20
93.193502691197324
30
0
10
20.612164326368109
20
93.158209368330461
30
0
0
LINE
5
151
100
AcDbEntity
8
0
100
AcDbLine
10
20.612164326368109
20
93.158209368330432
30
0
11
24.362090033564961
21
93.042665765241821
31
0
0
LINE
5
152
100
AcDbEntity
8
0
100
AcDbLine
10
24.362090033564961
20
93.042665765241821
30
0
11
24.670066252257335
21
103.03792217259425
31
0
0
LINE
5
153
100
AcDbEntity
8
0
100
AcDbLine
10
24.670066252257335
20
103.03792217259425
30
0
11
20.85877807470515
21
103.15535649071911
31
0
0
SPLINE
5
154
100
AcDbEntity
8
0
100
AcDbSpline
70
0
71
2
72
6
73
3
74
0
42
0.000000001
43
0.0000000001
44
0.0000000001
40
-1
40
-1
40
-1
40
0
40
0
40
0
10
20.85877807470515
20
103.15535649071911
30
0
10
19.904251420026352
20
103.18476759310818
30
0
10
19.241163280631277
20
103.03799762197843
30
0
0
LWPOLYLINE
5
155
100
AcDbEntity
8
0
100
AcDbPolyline
90
12
70
1
43
0.0
10
3.1377889961004257
20
96.819919943809509
10
9.2769434303045273
20
96.819919943809509
10
9.2769434303045273
20
93.416099548339844
10
3.7448837608098984
20
93.416099548339844
10
3.7448837608098984
20
92.242838740348816
10
9.2769434303045273
20
92.242838740348816
10
9.2769434303045273
20
89.180083274841309
10
3.3697130531072617
20
89.180083274841309
10
3.3697130531072617
20
88.000001311302185
10
10.600272640585899
20
88.000001311302185
10
10.600272640585899
20
98.000001311302185
10
3.1377889961004257
20
98.000001311302185
0
CIRCLE
5
156
100
AcDbEntity
8
0
100
AcDbCircle
10
0
20
10
30
0
40
1.5000000000000013
210
0
220
-0
230
1
0
CIRCLE
5
157
100
AcDbEntity
8
0
100
AcDbCircle
10
18.754954371314554
20
-13.397943533872477
30
0
40
1.4999999999999991
210
0
220
-0
230
1
0
CIRCLE
5
158
100
AcDbEntity
8
0
100
AcDbCircle
10
-50
20
20
30
0
40
1.5000000000000036
210
0
220
-0
230
1
0
CIRCLE
5
159
100
AcDbEntity
8
0
100
AcDbCircle
10
50
20
10
30
0
40
1.4999999999999947
210
0
220
-0
230
1
0
CIRCLE
5
160
100
AcDbEntity
8
0
100
AcDbCircle
10
19.47517383016411
20
-45.087599723252112
30
0
40
1.4999999999999991
210
0
220
-0
230
1
0
CIRCLE
5
161
100
AcDbEntity
8
0
100
AcDbCircle
10
30
20
-66.334073759313441
30
0
40
1.5000000000000036
210
0
220
-0
230
1
0
CIRCLE
5
162
100
AcDbEntity
8
0
100
AcDbCircle
10
50
20
80
30
0
40
1.5000000000000036
210
0
220
-0
230
1
0
CIRCLE
5
163
100
AcDbEntity
8
0
100
AcDbCircle
10
-20
20
20
30
0
40
1.4999999999999991
210
0
220
-0
230
1
0
CIRCLE
5
164
100
AcDbEntity
8
0
100
AcDbCircle
10
-20.136896406560432
20
-46.167928911526424
30
0
40
1.5000000000000036
210
0
220
-0
230
1
0
CIRCLE
5
165
100
AcDbEntity
8
0
100
AcDbCircle
10
-29.85985910102919
20
-66.694183488738219
30
0
40
1.4999999999999991
210
0
220
-0
230
1
0
CIRCLE
5
166
100
AcDbEntity
8
0
100
AcDbCircle
10
0
20
80
30
0
40
1.4999999999999969
210
0
220
-0
230
1
0
CIRCLE
5
167
100
AcDbEntity
8
0
100
AcDbCircle
10
-20.857115865409952
20
-13.758053263297256
30
0
40
1.4999999999999991
210
0
220
-0
230
1
0
LWPOLYLINE
5
168
100
AcDbEntity
8
0
100
AcDbPolyline
90
19
70
1
43
0.0
10
60.000000000000007
20
0
42
0.41421356237309503
10
29.999999999999993
20
-30
10
30
20
-60
10
60
20
-40
10
60
20
-80
10
30
20
-80
10
0
20
-100
10
-30
20
-80
10
-60
20
-80
10
-60
20
-40
10
-30
20
-60
10
-30
20
-30.000000000000004
42
0.41421356237309515
10
-60.000000000000007
20
9.8607613152626476e-31
10
-60
20
60
10
-70
20
70
10
-70
20
110
10
70
20
110
10
70
20
70
10
60
20
60
0
LINE
5
169
100
AcDbEntity
8
0
100
AcDbLine
10
-13.810978716365288
20
97.23053194283537
30
0
11
-15.345767026893089
21
97.23053194283537
31
0
0
SPLINE
5
170
100
AcDbEntity
8
0
100
AcDbSpline
70
0
71
2
72
6
73
3
74
0
42
0.000000001
43
0.0000000001
44
0.0000000001
40
-1
40
-1
40
-1
40
0
40
0
40
0
10
-15.345767026893089
20
97.23053194283537
30
0
10
-15.857363229743431
20
97.23053194283537
30
0
10
-16.082465535155723
20
97.278280627718487
30
0
0
SPLINE
5
171
100
AcDbEntity
8
0
100
AcDbSpline
70
0
71
2
72
6
73
3
74
0
42
0.000000001
43
0.0000000001
44
0.0000000001
40
-1
40
-1
40
-1
40
0
40
0
40
0
10
-16.082465535155723
20
97.278280627718487
30
0
10
-16.389423495284507
20
97.353314530840436
30
0
10
-16.6861491260447
20
97.544310462465802
30
0
0
SPLINE
5
172
100
AcDbEntity
8
0
100
AcDbSpline
70
0
71
2
72
6
73
3
74
0
42
0.000000001
43
0.0000000001
44
0.0000000001
40
-1
40
-1
40
-1
40
0
40
0
40
0
10
-16.6861491260447
20
97.544310462465802
30
0
10
-16.982875352851341
20
97.735306394091168
30
0
10
-17.35804546450753
20
98.212796223154584
30
0
0
SPLINE
5
173
100
AcDbEntity
8
0
100
AcDbSpline
70
0
71
2
72
6
73
3
74
0
42
0.000000001
43
0.0000000001
44
0.0000000001
40
-1
40
-1
40
-1
40
0
40
0
40
0
10
-17.35804546450753
20
98.212796223154584
30
0
10
-17.733216172210167
20
98.690286052217999
30
0
10
-18.313025122634361
20
99.590694677820721
30
0
0
LINE
5
174
100
AcDbEntity
8
0
100
AcDbLine
10
-18.313025122634361
20
99.590694677820721
30
0
11
-19.636353736869285
21
101.67118645905546
31
0
0
LINE
5
175
100
AcDbEntity
8
0
100
AcDbLine
10
-19.636353736869285
20
101.67118645905546
30
0
11
-21.30074668501992
21
101.67118645905546
31
0
0
LINE
5
176
100
AcDbEntity
8
0
100
AcDbLine
10
-21.30074668501992
20
101.67118645905546
30
0
11
-19.561319833747337
21
98.949494731417218
31
0
0
SPLINE
5
177
100
AcDbEntity
8
0
100
AcDbSpline
70
0
71
2
72
6
73
3
74
0
42
0.000000001
43
0.0000000001
44
0.0000000001
40
-1
40
-1
40
-1
40
0
40
0
40
0
10
-19.561319833747337
20
98.949494731417218
30
0
10
-19.0429024753489
20
98.151404631128827
30
0
10
-18.463092928878257
20
97.619344961634198
30
0
0
SPLINE
5
178
100
AcDbEntity
8
0
100
AcDbSpline
70
0
71
2
72
6
73
3
74
0
42
0.000000001
43
0.0000000001
44
0.0000000001
40
-1
40
-1
40
-1
40
0
40
0
40
0
10
-18.463092928878257
20
97.619344961634198
30
0
10
-18.190241938582847
20
97.373778593531171
30
0
10
-17.665003424636314
20
97.121391069880048
30
0
0
SPLINE
5
179
100
AcDbEntity
8
0
100
AcDbSpline
70
0
71
2
72
6
73
3
74
0
42
0.000000001
43
0.0000000001
44
0.0000000001
40
-1
40
-1
40
-1
40
0
40
0
40
0
10
-17.665003424636314
20
97.121391069880048
30
0
10
-19.104294067374656
20
96.923573982706586
30
0
10
-19.793243294707725
20
96.193696629992047
30
0
0
SPLINE
5
180
100
AcDbEntity
8
0
100
AcDbSpline
70
0
71
2
72
6
73
3
74
0
42
0.000000001
43
0.0000000001
44
0.0000000001
40
-1
40
-1
40
-1
40
0
40
0
40
0
10
-19.793243294707725
20
96.193696629992047
30
0
10
-20.482193118087242
20
95.463819277277508
30
0
10
-20.482193118087242
20
94.399699342241803
30
0
0
SPLINE
5
181
100
AcDbEntity
8
0
100
AcDbSpline
70
0
71
2
72
6
73
3
74
0
42
0.000000001
43
0.0000000001
44
0.0000000001
40
-1
40
-1
40
-1
40
0
40
0
40
0
10
-20.482193118087242
20
94.399699342241803
30
0
10
-20.482193118087242
20
93.574324023714581
30
0
10
-20.066094881049583
20
92.892195951929608
30
0
0
SPLINE
5
182
100
AcDbEntity
8
0
100
AcDbSpline
70
0
71
2
72
6
73
3
74
0
42
0.000000001
43
0.0000000001
44
0.0000000001
40
-1
40
-1
40
-1
40
0
40
0
40
0
10
-20.066094881049583
20
92.892195951929608
30
0
10
-19.649996644011924
20
92.210067880144635
30
0
10
-18.954225665084312
20
91.940626871576825
30
0
0
SPLINE
5
183
100
AcDbEntity
8
0
100
AcDbSpline
70
0
71
2
72
6
73
3
74
0
42
0.000000001
43
0.0000000001
44
0.0000000001
40
-1
40
-1
40
-1
40
0
40
0
40
0
10
-18.954225665084312
20
91.940626871576825
30
0
10
-18.2584546861567
20
91.671186459055463
30
0
10
-16.921483760825584
20
91.671186459055463
30
0
0
LINE
5
184
100
AcDbEntity
8
0
100
AcDbLine
10
-16.921483760825588
20
91.671186459055463
30
0
11
-12.487649953118751
21
91.671186459055463
31
0
0
LINE
5
185
100
AcDbEntity
8
0
100
AcDbLine
10
-12.487649953118751
20
91.671186459055463
30
0
11
-12.487649953118751
21
101.67118645905546
31
0
0
LINE
5
186
100
AcDbEntity
8
0
100
AcDbLine
10
-12.487649953118751
20
101.67118645905546
30
0
11
-13.810978716365288
21
101.67118645905546
31
0
0
LINE
5
187
100
AcDbEntity
8
0
100
AcDbLine
10
-13.810978716365288
20
101.67118645905546
30
0
11
-13.810978716365288
21
97.23053194283537
31
0
0
SPLINE
5
188
100
AcDbEntity
8
0
100
AcDbSpline
70
0
71
2
72
6
73
3
74
0
42
0.000000001
43
0.0000000001
44
0.0000000001
40
0
40
0
40
0
40
1
40
1
40
1
10
-28.26439999443943
20
99.170073367883475
30
0
10
-26.906964716308423
20
99.17021994779509
30
0
10
-25.989459591356365
20
98.774684846082579
30
0
0
SPLINE
5
189
100
AcDbEntity
8
0
100
AcDbSpline
70
0
71
2
72
6
73
3
74
0
42
0.000000001
43
0.0000000001
44
0.0000000001
40
0
40
0
40
0
40
1
40
1
40
1
10
-25.989459591356365
20
98.774684846082579
30
0
10
-25.071954466275578
20
98.379148552277172
30
0
10
-24.550040572332698
20
97.584525978995714
30
0
0
SPLINE
5
190
100
AcDbEntity
8
0
100
AcDbSpline
70
0
71
2
72
6
73
3
74
0
42
0.000000001
43
0.0000000001
44
0.0000000001
40
0
40
0
40
0
40
1
40
1
40
1
10
-24.550040572332698
20
97.584525978995714
30
0
10
-24.028126678389825
20
96.789903405714256
30
0
10
-24.000733257153748
20
95.787177418835142
30
0
0
LINE
5
191
100
AcDbEntity
8
0
100
AcDbLine
10
-24.000733257153748
20
95.787177418835142
30
0
11
-25.24901610119047
21
95.677902347983874
31
0
0
SPLINE
5
192
100
AcDbEntity
8
0
100
AcDbSpline
70
0
71
2
72
6
73
3
74
0
42
0.000000001
43
0.0000000001
44
0.0000000001
40
0
40
0
40
0
40
1
40
1
40
1
10
-25.24901610119047
20
95.677902347983874
30
0
10
-25.337773934978113
20
96.42823358738157
30
0
10
-25.661836711212992
20
96.90909959980371
30
0
0
SPLINE
5
193
100
AcDbEntity
8
0
100
AcDbSpline
70
0
71
2
72
6
73
3
74
0
42
0.000000001
43
0.0000000001
44
0.0000000001
40
0
40
0
40
0
40
1
40
1
40
1
10
-25.661836711212992
20
96.90909959980371
30
0
10
-25.985899487319138
20
97.389964420132955
30
0
10
-26.668059596510343
20
97.686616986985541
30
0
0
SPLINE
5
194
100
AcDbEntity
8
0
100
AcDbSpline
70
0
71
2
72
6
73
3
74
0
42
0.000000001
43
0.0000000001
44
0.0000000001
40
0
40
0
40
0
40
1
40
1
40
1
10
-26.668059596510343
20
97.686616986985541
30
0
10
-27.350220003596046
20
97.983268361713101
30
0
10
-28.202880237367726
20
97.983176288916894
30
0
0
SPLINE
5
195
100
AcDbEntity
8
0
100
AcDbSpline
70
0
71
2
72
6
73
3
74
0
42
0.000000001
43
0.0000000001
44
0.0000000001
40
0
40
0
40
0
40
1
40
1
40
1
10
-28.202880237367726
20
97.983176288916894
30
0
10
-28.960043101929934
20
97.983094528211581
30
0
10
-29.539827741819664
20
97.757930210657975
30
0
0
SPLINE
5
196
100
AcDbEntity
8
0
100
AcDbSpline
70
0
71
2
72
6
73
3
74
0
42
0.000000001
43
0.0000000001
44
0.0000000001
40
0
40
0
40
0
40
1
40
1
40
1
10
-29.539827741819664
20
97.757930210657975
30
0
10
-30.119612381580659
20
97.53276470101153
30
0
10
-30.402653346120225
20
97.140510538544035
30
0
0
SPLINE
5
197
100
AcDbEntity
8
0
100
AcDbSpline
70
0
71
2
72
6
73
3
74
0
42
0.000000001
43
0.0000000001
44
0.0000000001
40
0
40
0
40
0
40
1
40
1
40
1
10
-30.402653346120225
20
97.140510538544035
30
0
10
-30.685694310659784
20
96.74825637607654
30
0
10
-30.685644223085433
20
96.284409456860075
30
0
0
SPLINE
5
198
100
AcDbEntity
8
0
100
AcDbSpline
70
0
71
2
72
6
73
3
74
0
42
0.000000001
43
0.0000000001
44
0.0000000001
40
0
40
0
40
0
40
1
40
1
40
1
10
-30.685644223085433
20
96.284409456860075
30
0
10
-30.685593398877991
20
95.813740786088815
30
0
10
-30.412703880129595
20
95.462474184227347
30
0
0
SPLINE
5
199
100
AcDbEntity
8
0
100
AcDbSpline
70
0
71
2
72
6
73
3
74
0
42
0.000000001
43
0.0000000001
44
0.0000000001
40
0
40
0
40
0
40
1
40
1
40
1
10
-30.412703880129595
20
95.462474184227347
30
0
10
-30.139814957492
20
95.111208178347923
30
0
10
-29.512230949376747
20
94.872530732794829
30
0
0
SPLINE
5
200
100
AcDbEntity
8
0
100
AcDbSpline
70
0
71
2
72
6
73
3
74
0
42
0.000000001
43
0.0000000001
44
0.0000000001
40
0
40
0
40
0
40
1
40
1
40
1
10
-29.512230949376747
20
94.872530732794829
30
0
10
-29.109758084379184
20
94.715684634262544
30
0
10
-27.7318233174732
20
94.385001421294206
30
0
0
SPLINE
5
201
100
AcDbEntity
8
0
100
AcDbSpline
70
0
71
2
72
6
73
3
74
0
42
0.000000001
43
0.0000000001
44
0.0000000001
40
0
40
0
40
0
40
1
40
1
40
1
10
-27.7318233174732
20
94.385001421294206
30
0
10
-26.353888550502855
20
94.054317612279419
30
0
10
-25.801333148504373
20
93.76106222416422
30
0
0
SPLINE
5
202
100
AcDbEntity
8
0
100
AcDbSpline
70
0
71
2
72
6
73
3
74
0
42
0.000000001
43
0.0000000001
44
0.0000000001
40
0
40
0
40
0
40
1
40
1
40
1
10
-25.801333148504373
20
93.76106222416422
30
0
10
-25.085057897032804
20
93.385968859813119
30
0
10
-24.733701800397839
20
92.830072487092224
30
0
0
SPLINE
5
203
100
AcDbEntity
8
0
100
AcDbSpline
70
0
71
2
72
6
73
3
74
0
42
0.000000001
43
0.0000000001
44
0.0000000001
40
0
40
0
40
0
40
1
40
1
40
1
10
-24.733701800397839
20
92.830072487092224
30
0
10
-24.38234570376288
20
92.274176114371301
30
0
10
-24.382271308905711
20
91.585226295008482
30
0
0
SPLINE
5
204
100
AcDbEntity
8
0
100
AcDbSpline
70
0
71
2
72
6
73
3
74
0
42
0.000000001
43
0.0000000001
44
0.0000000001
40
0
40
0
40
0
40
1
40
1
40
1
10
-24.382271308905711
20
91.585226295008482
30
0
10
-24.382189548296935
20
90.828064324515921
30
0
10
-24.811859311715008
20
90.169763896288458
30
0
0
SPLINE
5
205
100
AcDbEntity
8
0
100
AcDbSpline
70
0
71
2
72
6
73
3
74
0
42
0.000000001
43
0.0000000001
44
0.0000000001
40
0
40
0
40
0
40
1
40
1
40
1
10
-24.811859311715008
20
90.169763896288458
30
0
10
-25.241529075197441
20
89.511464064107443
30
0
10
-26.066867261745145
20
89.170310605723273
30
0
0
SPLINE
5
206
100
AcDbEntity
8
0
100
AcDbSpline
70
0
71
2
72
6
73
3
74
0
42
0.000000001
43
0.0000000001
44
0.0000000001
40
0
40
0
40
0
40
1
40
1
40
1
10
-26.066867261745145
20
89.170310605723273
30
0
10
-26.892205746380434
20
88.829157743353363
30
0
10
-27.901755537075864
20
88.829048729154678
30
0
0
SPLINE
5
207
100
AcDbEntity
8
0
100
AcDbSpline
70
0
71
2
72
6
73
3
74
0
42
0.000000001
43
0.0000000001
44
0.0000000001
40
0
40
0
40
0
40
1
40
1
40
1
10
-27.901755537075864
20
88.829048729154678
30
0
10
-29.013624448535538
20
88.828928666232059
30
0
10
-29.862913073142309
20
89.186954182386117
30
0
0
SPLINE
5
208
100
AcDbEntity
8
0
100
AcDbSpline
70
0
71
2
72
6
73
3
74
0
42
0.000000001
43
0.0000000001
44
0.0000000001
40
0
40
0
40
0
40
1
40
1
40
1
10
-29.862913073142309
20
89.186954182386117
30
0
10
-30.712201101702632
20
89.54497969860455
30
0
10
-31.169302592883117
20
90.240701322405698
30
0
0
SPLINE
5
209
100
AcDbEntity
8
0
100
AcDbSpline
70
0
71
2
72
6
73
3
74
0
42
0.000000001
43
0.0000000001
44
0.0000000001
40
0
40
0
40
0
40
1
40
1
40
1
10
-31.169302592883117
20
90.240701322405698
30
0
10
-31.626403487952793
20
90.936422350224788
30
0
10
-31.660604880708508
20
91.816364417191465
30
0
0
LINE
5
210
100
AcDbEntity
8
0
100
AcDbLine
10
-31.660604880708505
20
91.816364417191465
30
0
11
-30.391856426457096
21
91.911999386804666
31
0
0
SPLINE
5
211
100
AcDbEntity
8
0
100
AcDbSpline
70
0
71
2
72
6
73
3
74
0
42
0.000000001
43
0.0000000001
44
0.0000000001
40
0
40
0
40
0
40
1
40
1
40
1
10
-30.391856426457096
20
91.911999386804666
30
0
10
-30.289434920709255
20
90.963851938477802
30
0
10
-29.699341943058059
20
90.479604671043106
30
0
0
SPLINE
5
212
100
AcDbEntity
8
0
100
AcDbSpline
70
0
71
2
72
6
73
3
74
0
42
0.000000001
43
0.0000000001
44
0.0000000001
40
0
40
0
40
0
40
1
40
1
40
1
10
-29.699341943058059
20
90.479604671043106
30
0
10
-29.109248369360419
20
89.995357403672784
30
0
10
-27.956451630781118
20
89.995481886104301
30
0
0
SPLINE
5
213
100
AcDbEntity
8
0
100
AcDbSpline
70
0
71
2
72
6
73
3
74
0
42
0.000000001
43
0.0000000001
44
0.0000000001
40
0
40
0
40
0
40
1
40
1
40
1
10
-27.956451630781118
20
89.995481886104301
30
0
10
-26.755905909573862
20
89.995611524613423
30
0
10
-26.206840267947783
20
90.43564369442727
30
0
0
SPLINE
5
214
100
AcDbEntity
8
0
100
AcDbSpline
70
0
71
2
72
6
73
3
74
0
42
0.000000001
43
0.0000000001
44
0.0000000001
40
0
40
0
40
0
40
1
40
1
40
1
10
-26.206840267947783
20
90.43564369442727
30
0
10
-25.657774626257339
20
90.875675268194641
30
0
10
-25.657841655298533
20
91.496412340381312
30
0
0
SPLINE
5
215
100
AcDbEntity
8
0
100
AcDbSpline
70
0
71
2
72
6
73
3
74
0
42
0.000000001
43
0.0000000001
44
0.0000000001
40
0
40
0
40
0
40
1
40
1
40
1
10
-25.657841655298533
20
91.496412340381312
30
0
10
-25.657899845257582
20
92.035293162282272
30
0
10
-26.046750427502513
20
92.383136664528195
30
0
0
SPLINE
5
216
100
AcDbEntity
8
0
100
AcDbSpline
70
0
71
2
72
6
73
3
74
0
42
0.000000001
43
0.0000000001
44
0.0000000001
40
0
40
0
40
0
40
1
40
1
40
1
10
-26.046750427502513
20
92.383136664528195
30
0
10
-26.428779854239117
20
92.730980903342839
30
0
10
-28.042052341415484
20
93.095745077827715
30
0
0
SPLINE
5
217
100
AcDbEntity
8
0
100
AcDbSpline
70
0
71
2
72
6
73
3
74
0
42
0.000000001
43
0.0000000001
44
0.0000000001
40
0
40
0
40
0
40
1
40
1
40
1
10
-28.042052341415484
20
93.095745077827715
30
0
10
-29.655325126679436
20
93.460509848326879
30
0
10
-30.255627599558565
20
93.733296017760864
30
0
0
SPLINE
5
218
100
AcDbEntity
8
0
100
AcDbSpline
70
0
71
2
72
6
73
3
74
0
42
0.000000001
43
0.0000000001
44
0.0000000001
40
0
40
0
40
0
40
1
40
1
40
1
10
-30.255627599558565
20
93.733296017760864
30
0
10
-31.12879505633428
20
94.135658254867849
30
0
10
-31.544959951574128
20
94.752938625678539
30
0
0
SPLINE
5
219
100
AcDbEntity
8
0
100
AcDbSpline
70
0
71
2
72
6
73
3
74
0
42
0.000000001
43
0.0000000001
44
0.0000000001
40
0
40
0
40
0
40
1
40
1
40
1
10
-31.544959951574128
20
94.752938625678539
30
0
10
-31.961124846942699
20
95.370220188582124
30
0
10
-31.961211763596911
20
96.175130843679412
30
0
0
SPLINE
5
220
100
AcDbEntity
8
0
100
AcDbSpline
70
0
71
2
72
6
73
3
74
0
42
0.000000001
43
0.0000000001
44
0.0000000001
40
0
40
0
40
0
40
1
40
1
40
1
10
-31.961211763596911
20
96.175130843679412
30
0
10
-31.961297943811125
20
96.973221535361233
30
0
10
-31.504348416381951
20
97.679273594500529
30
0
0
SPLINE
5
221
100
AcDbEntity
8
0
100
AcDbSpline
70
0
71
2
72
6
73
3
74
0
42
0.000000001
43
0.0000000001
44
0.0000000001
40
0
40
0
40
0
40
1
40
1
40
1
10
-31.504348416381951
20
97.679273594500529
30
0
10
-31.047398888824063
20
98.385324461546901
30
0
10
-30.191370132877744
20
98.777641689038674
30
0
0
SPLINE
5
222
100
AcDbEntity
8
0
100
AcDbSpline
70
0
71
2
72
6
73
3
74
0
42
0.000000001
43
0.0000000001
44
0.0000000001
40
0
40
0
40
0
40
1
40
1
40
1
10
-30.191370132877744
20
98.777641689038674
30
0
10
-29.335341376802692
20
99.169957724437552
30
0
10
-28.26439999443943
20
99.170073367883475
30
0
0
LWPOLYLINE
5
223
100
AcDbEntity
8
0
100
AcDbPolyline
90
8
70
1
43
0.0
10
-6.1780925839510381
20
100.73054858586755
10
-1.9988341101853058
20
100.59530201141689
10
-0.80322227877770669
20
103.58684492846646
10
0.60122655759638866
20
103.54139502501992
10
-3.5605907559845478
20
93.670842254868788
10
-4.9854922683622691
20
93.716954035149485
10
-8.7526759883162129
20
103.84410022619878
10
-7.2459613517522303
20
103.79534086026125
0
SPLINE
5
224
100
AcDbEntity
8
0
100
AcDbSpline
70
0
71
2
72
6
73
3
74
0
42
0.000000001
43
0.0000000001
44
0.0000000001
40
0
40
0
40
0
40
1
40
1
40
1
10
18.131635568535394
20
102.57740782996981
30
0
10
18.578074582186122
20
102.89122886073294
30
0
10
19.241163280631277
20
103.03799762197843
30
0
0
SPLINE
5
225
100
AcDbEntity
8
0
100
AcDbSpline
70
0
71
2
72
6
73
3
74
0
42
0.000000001
43
0.0000000001
44
0.0000000001
40
0
40
0
40
0
40
1
40
1
40
1
10
19.241163280631277
20
103.03799762197843
30
0
10
19.904251420026352
20
103.18476759310818
30
0
10
20.85877807470515
20
103.15535649071911
30
0
0
LINE
5
226
100
AcDbEntity
8
0
100
AcDbLine
10
20.85877807470515
20
103.15535649071911
30
0
11
24.670066252257335
21
103.03792217259425
31
0
0
LINE
5
227
100
AcDbEntity
8
0
100
AcDbLine
10
24.670066252257335
20
103.03792217259425
30
0
11
24.362090033564961
21
93.042665765241821
31
0
0
LINE
5
228
100
AcDbEntity
8
0
100
AcDbLine
10
24.362090033564961
20
93.042665765241821
30
0
11
20.612164326368109
21
93.158209368330461
31
0
0
SPLINE
5
229
100
AcDbEntity
8
0
100
AcDbSpline
70
0
71
2
72
6
73
3
74
0
42
0.000000001
43
0.0000000001
44
0.0000000001
40
0
40
0
40
0
40
1
40
1
40
1
10
20.612164326368109
20
93.158209368330461
30
0
10
19.466732340753548
20
93.193502691197324
30
0
10
18.784049482078547
20
93.518228522739705
30
0
0
SPLINE
5
230
100
AcDbEntity
8
0
100
AcDbSpline
70
0
71
2
72
6
73
3
74
0
42
0.000000001
43
0.0000000001
44
0.0000000001
40
0
40
0
40
0
40
1
40
1
40
1
10
18.784049482078547
20
93.518228522739705
30
0
10
18.101366045996645
20
93.842954968402609
30
0
10
17.728760843115275
20
94.485704025639421
30
0
0
SPLINE
5
231
100
AcDbEntity
8
0
100
AcDbSpline
70
0
71
2
72
6
73
3
74
0
42
0.000000001
43
0.0000000001
44
0.0000000001
40
0
40
0
40
0
40
1
40
1
40
1
10
17.728760843115275
20
94.485704025639421
30
0
10
17.356155026113385
20
95.12845250546934
30
0
10
17.377373042260704
20
95.817075519117182
30
0
0
SPLINE
5
232
100
AcDbEntity
8
0
100
AcDbSpline
70
0
71
2
72
6
73
3
74
0
42
0.000000001
43
0.0000000001
44
0.0000000001
40
0
40
0
40
0
40
1
40
1
40
1
10
17.377373042260704
20
95.817075519117182
30
0
10
17.39712049410943
20
96.457971902149268
30
0
10
17.762277528584587
20
97.01315533356987
30
0
0
SPLINE
5
233
100
AcDbEntity
8
0
100
AcDbSpline
70
0
71
2
72
6
73
3
74
0
42
0.000000001
43
0.0000000001
44
0.0000000001
40
0
40
0
40
0
40
1
40
1
40
1
10
17.762277528584587
20
97.01315533356987
30
0
10
18.127434581416555
20
97.568339360754166
30
0
10
18.840407480562568
20
97.894421660637931
30
0
0
SPLINE
5
234
100
AcDbEntity
8
0
100
AcDbSpline
70
0
71
2
72
6
73
3
74
0
42
0.000000001
43
0.0000000001
44
0.0000000001
40
0
40
0
40
0
40
1
40
1
40
1
10
18.840407480562568
20
97.894421660637931
30
0
10
17.941800542756042
20
98.188265839759637
30
0
10
17.474057787460715
20
98.844182887040006
30
0
0
SPLINE
5
235
100
AcDbEntity
8
0
100
AcDbSpline
70
0
71
2
72
6
73
3
74
0
42
0.000000001
43
0.0000000001
44
0.0000000001
40
0
40
0
40
0
40
1
40
1
40
1
10
17.474057787460715
20
98.844182887040006
30
0
10
17.006314436401681
20
99.500099952677203
30
0
10
17.033204597660479
20
100.37281037739093
30
0
0
SPLINE
5
236
100
AcDbEntity
8
0
100
AcDbSpline
70
0
71
2
72
6
73
3
74
0
42
0.000000001
43
0.0000000001
44
0.0000000001
40
0
40
0
40
0
40
1
40
1
40
1
10
17.033204597660479
20
100.37281037739093
30
0
10
17.054842764546365
20
101.07506923077833
30
0
10
17.370020237122411
20
101.66932740087198
30
0
0
SPLINE
5
237
100
AcDbEntity
8
0
100
AcDbSpline
70
0
71
2
72
6
73
3
74
0
42
0.000000001
43
0.0000000001
44
0.0000000001
40
0
40
0
40
0
40
1
40
1
40
1
10
17.370020237122411
20
101.66932740087198
30
0
10
17.685197150648378
20
102.26358678084985
30
0
10
18.131635568535394
20
102.57740782996981
30
0
0
LWPOLYLINE
5
238
100
AcDbEntity
8
0
100
AcDbPolyline
90
12
70
1
43
0.0
10
9.2769434303045273
20
96.819919943809509
10
3.1377889961004257
20
96.819919943809509
10
3.1377889961004257
20
98.000001311302185
10
10.600272640585899
20
98.000001311302185
10
10.600272640585899
20
88.000001311302185
10
3.3697130531072617
20
88.000001311302185
10
3.3697130531072617
20
89.180083274841309
10
9.2769434303045273
20
89.180083274841309
10
9.2769434303045273
20
92.242838740348816
10
3.7448837608098984
20
92.242838740348816
10
3.7448837608098984
20
93.416099548339844
10
9.2769434303045273
20
93.416099548339844
0
CIRCLE
5
239
100
AcDbEntity
8
0
100
AcDbCircle
10
0
20
10
30
0
40
1.5000000000000013
210
0
220
-0
230
1
0
CIRCLE
5
240
100
AcDbEntity
8
0
100
AcDbCircle
10
18.754954371314554
20
-13.397943533872477
30
0
40
1.4999999999999991
210
0
220
-0
230
1
0
CIRCLE
5
241
100
AcDbEntity
8
0
100
AcDbCircle
10
-50
20
20
30
0
40
1.5000000000000036
210
0
220
-0
230
1
0
CIRCLE
5
242
100
AcDbEntity
8
0
100
AcDbCircle
10
50
20
10
30
0
40
1.4999999999999947
210
0
220
-0
230
1
0
CIRCLE
5
243
100
AcDbEntity
8
0
100
AcDbCircle
10
19.47517383016411
20
-45.087599723252112
30
0
40
1.4999999999999991
210
0
220
-0
230
1
0
CIRCLE
5
244
100
AcDbEntity
8
0
100
AcDbCircle
10
30
20
-66.334073759313441
30
0
40
1.5000000000000036
210
0
220
-0
230
1
0
CIRCLE
5
245
100
AcDbEntity
8
0
100
AcDbCircle
10
50
20
80
30
0
40
1.5000000000000036
210
0
220
-0
230
1
0
CIRCLE
5
246
100
AcDbEntity
8
0
100
AcDbCircle
10
-20
20
20
30
0
40
1.4999999999999991
210
0
220
-0
230
1
0
CIRCLE
5
247
100
AcDbEntity
8
0
100
AcDbCircle
10
-20.136896406560432
20
-46.167928911526424
30
0
40
1.5000000000000036
210
0
220
-0
230
1
0
CIRCLE
5
248
100
AcDbEntity
8
0
100
AcDbCircle
10
-29.85985910102919
20
-66.694183488738219
30
0
40
1.4999999999999991
210
0
220
-0
230
1
0
CIRCLE
5
249
100
AcDbEntity
8
0
100
AcDbCircle
10
0
20
80
30
0
40
1.4999999999999969
210
0
220
-0
230
1
0
CIRCLE
5
250
100
AcDbEntity
8
0
100
AcDbCircle
10
-20.857115865409952
20
-13.758053263297256
30
0
40
1.4999999999999991
210
0
220
-0
230
1
0
LWPOLYLINE
5
251
100
AcDbEntity
8
0
100
AcDbPolyline
90
19
70
1
43
0.0
10
60
20
0
42
0.41421356237309531
10
29.999999999999982
20
-30.000000000000007
10
30
20
-60
10
60
20
-40
10
60
20
-80
10
30
20
-80
10
0
20
-100
10
-30
20
-80
10
-60
20
-80
10
-60
20
-40
10
-30
20
-60
10
-30
20
-30.000000000000007
42
0.41421356237309503
10
-60
20
0
10
-60
20
60
10
-70
20
70
10
-70
20
110
10
70
20
110
10
70
20
70
10
60
20
60
0
LINE
5
252
100
AcDbEntity
8
0
100
AcDbLine
10
-15.345767026893089
20
97.23053194283537
30
0
11
-13.810978716365288
21
97.23053194283537
31
0
0
LINE
5
253
100
AcDbEntity
8
0
100
AcDbLine
10
-13.810978716365288
20
97.23053194283537
30
0
11
-13.810978716365288
21
101.67118645905546
31
0
0
LINE
5
254
100
AcDbEntity
8
0
100
AcDbLine
10
-13.810978716365288
20
101.67118645905546
30
0
11
-12.487649953118751
21
101.67118645905546
31
0
0
LINE
5
255
100
AcDbEntity
8
0
100
AcDbLine
10
-12.487649953118751
20
101.67118645905546
30
0
11
-12.487649953118751
21
91.671186459055463
31
0
0
LINE
5
256
100
AcDbEntity
8
0
100
AcDbLine
10
-12.487649953118751
20
91.671186459055463
30
0
11
-16.921483760825584
21
91.671186459055463
31
0
0
SPLINE
5
257
100
AcDbEntity
8
0
100
AcDbSpline
70
0
71
2
72
6
73
3
74
0
42
0.000000001
43
0.0000000001
44
0.0000000001
40
0
40
0
40
0
40
1
40
1
40
1
10
-16.921483760825584
20
91.671186459055463
30
0
10
-18.2584546861567
20
91.671186459055463
30
0
10
-18.954225665084312
20
91.940626871576825
30
0
0
SPLINE
5
258
100
AcDbEntity
8
0
100
AcDbSpline
70
0
71
2
72
6
73
3
74
0
42
0.000000001
43
0.0000000001
44
0.0000000001
40
0
40
0
40
0
40
1
40
1
40
1
10
-18.954225665084312
20
91.940626871576825
30
0
10
-19.649996644011924
20
92.210067880144635
30
0
10
-20.066094881049583
20
92.892195951929608
30
0
0
SPLINE
5
259
100
AcDbEntity
8
0
100
AcDbSpline
70
0
71
2
72
6
73
3
74
0
42
0.000000001
43
0.0000000001
44
0.0000000001
40
0
40
0
40
0
40
1
40
1
40
1
10
-20.066094881049583
20
92.892195951929608
30
0
10
-20.482193118087242
20
93.574324023714581
30
0
10
-20.482193118087242
20
94.399699342241803
30
0
0
SPLINE
5
260
100
AcDbEntity
8
0
100
AcDbSpline
70
0
71
2
72
6
73
3
74
0
42
0.000000001
43
0.0000000001
44
0.0000000001
40
0
40
0
40
0
40
1
40
1
40
1
10
-20.482193118087242
20
94.399699342241803
30
0
10
-20.482193118087242
20
95.463819277277508
30
0
10
-19.793243294707725
20
96.193696629992047
30
0
0
SPLINE
5
261
100
AcDbEntity
8
0
100
AcDbSpline
70
0
71
2
72
6
73
3
74
0
42
0.000000001
43
0.0000000001
44
0.0000000001
40
0
40
0
40
0
40
1
40
1
40
1
10
-19.793243294707725
20
96.193696629992047
30
0
10
-19.104294067374656
20
96.923573982706586
30
0
10
-17.665003424636314
20
97.121391069880048
30
0
0
SPLINE
5
262
100
AcDbEntity
8
0
100
AcDbSpline
70
0
71
2
72
6
73
3
74
0
42
0.000000001
43
0.0000000001
44
0.0000000001
40
0
40
0
40
0
40
1
40
1
40
1
10
-17.665003424636314
20
97.121391069880048
30
0
10
-18.190241938582847
20
97.373778593531171
30
0
10
-18.463092928878257
20
97.619344961634198
30
0
0
SPLINE
5
263
100
AcDbEntity
8
0
100
AcDbSpline
70
0
71
2
72
6
73
3
74
0
42
0.000000001
43
0.0000000001
44
0.0000000001
40
0
40
0
40
0
40
1
40
1
40
1
10
-18.463092928878257
20
97.619344961634198
30
0
10
-19.0429024753489
20
98.151404631128827
30
0
10
-19.561319833747337
20
98.949494731417218
30
0
0
LINE
5
264
100
AcDbEntity
8
0
100
AcDbLine
10
-19.561319833747337
20
98.949494731417218
30
0
11
-21.30074668501992
21
101.67118645905546
31
0
0
LINE
5
265
100
AcDbEntity
8
0
100
AcDbLine
10
-21.30074668501992
20
101.67118645905546
30
0
11
-19.636353736869285
21
101.67118645905546
31
0
0
LINE
5
266
100
AcDbEntity
8
0
100
AcDbLine
10
-19.636353736869285
20
101.67118645905546
30
0
11
-18.313025122634361
21
99.590694677820721
31
0
0
SPLINE
5
267
100
AcDbEntity
8
0
100
AcDbSpline
70
0
71
2
72
6
73
3
74
0
42
0.000000001
43
0.0000000001
44
0.0000000001
40
0
40
0
40
0
40
1
40
1
40
1
10
-18.313025122634361
20
99.590694677820721
30
0
10
-17.733216172210167
20
98.690286052217999
30
0
10
-17.35804546450753
20
98.212796223154584
30
0
0
SPLINE
5
268
100
AcDbEntity
8
0
100
AcDbSpline
70
0
71
2
72
6
73
3
74
0
42
0.000000001
43
0.0000000001
44
0.0000000001
40
0
40
0
40
0
40
1
40
1
40
1
10
-17.35804546450753
20
98.212796223154584
30
0
10
-16.982875352851341
20
97.735306394091168
30
0
10
-16.6861491260447
20
97.544310462465802
30
0
0
SPLINE
5
269
100
AcDbEntity
8
0
100
AcDbSpline
70
0
71
2
72
6
73
3
74
0
42
0.000000001
43
0.0000000001
44
0.0000000001
40
0
40
0
40
0
40
1
40
1
40
1
10
-16.6861491260447
20
97.544310462465802
30
0
10
-16.389423495284507
20
97.353314530840436
30
0
10
-16.082465535155723
20
97.278280627718487
30
0
0
SPLINE
5
270
100
AcDbEntity
8
0
100
AcDbSpline
70
0
71
2
72
6
73
3
74
0
42
0.000000001
43
0.0000000001
44
0.0000000001
40
0
40
0
40
0
40
1
40
1
40
1
10
-16.082465535155723
20
97.278280627718487
30
0
10
-15.857363229743431
20
97.23053194283537
30
0
10
-15.345767026893089
20
97.23053194283537
30
0
0
LWPOLYLINE
5
271
100
AcDbEntity
8
0
100
AcDbPolyline
90
2
70
1
43
0.0
10
-30
20
-80
10
0
20
-100
0
LWPOLYLINE
5
272
100
AcDbEntity
8
0
100
AcDbPolyline
90
2
70
1
43
0.0
10
-60
20
-80
10
-30
20
-80
0
LWPOLYLINE
5
273
100
AcDbEntity
8
0
100
AcDbPolyline
90
2
70
1
43
0.0
10
-60
20
-40
10
-60
20
-80
0
LWPOLYLINE
5
274
100
AcDbEntity
8
0
100
AcDbPolyline
90
2
70
1
43
0.0
10
-110
20
-50
10
-80
20
-50
0
LWPOLYLINE
5
275
100
AcDbEntity
8
0
100
AcDbPolyline
90
4
70
1
43
0.0
10
-110
20
-50
10
-80
20
-50
10
-70
20
-20
10
-100
20
-20
0
LWPOLYLINE
5
276
100
AcDbEntity
8
0
100
AcDbPolyline
90
4
70
1
43
0.0
10
-80
20
-50
10
-110
20
-50
10
-100
20
-20
10
-70
20
-20
0
LWPOLYLINE
5
277
100
AcDbEntity
8
0
100
AcDbPolyline
90
2
70
1
43
0.0
10
-100
20
-20
10
-110
20
-50
0
LWPOLYLINE
5
278
100
AcDbEntity
8
0
100
AcDbPolyline
90
2
70
1
43
0.0
10
-70
20
-20
10
-100
20
-20
0
LWPOLYLINE
5
279
100
AcDbEntity
8
0
100
AcDbPolyline
90
2
70
1
43
0.0
10
-110
20
0
10
-80
20
0
0
LWPOLYLINE
5
280
100
AcDbEntity
8
0
100
AcDbPolyline
90
4
70
1
43
0.0
10
-100
20
30
10
-110
20
0
10
-80
20
0
10
-70
20
30
0
LWPOLYLINE
5
281
100
AcDbEntity
8
0
100
AcDbPolyline
90
4
70
1
43
0.0
10
-110
20
0
10
-100
20
30
10
-70
20
30
10
-80
20
0
0
LWPOLYLINE
5
282
100
AcDbEntity
8
0
100
AcDbPolyline
90
2
70
1
43
0.0
10
-100
20
30
10
-110
20
0
0
LWPOLYLINE
5
283
100
AcDbEntity
8
0
100
AcDbPolyline
90
2
70
1
43
0.0
10
-70
20
30
10
-100
20
30
0
LWPOLYLINE
5
284
100
AcDbEntity
8
0
100
AcDbPolyline
90
2
70
1
43
0.0
10
-70
20
70
10
-60
20
60
0
LWPOLYLINE
5
285
100
AcDbEntity
8
0
100
AcDbPolyline
90
2
70
1
43
0.0
10
-70
20
110
10
-70
20
70
0
LWPOLYLINE
5
286
100
AcDbEntity
8
0
100
AcDbPolyline
90
2
70
1
43
0.0
10
70
20
110
10
-70
20
110
0
LWPOLYLINE
5
287
100
AcDbEntity
8
0
100
AcDbPolyline
90
8
70
1
43
0.0
10
4.9045013636350632
20
146.97135090827942
10
0.72305433452129364
20
146.97135090827942
10
-0.44338472187519073
20
150
10
-1.9508887082338333
20
150
10
2.1418809145689011
20
140
10
3.5675286501646042
20
140
10
7.407911941409111
20
150
10
6.0027288645505905
20
150
0
LWPOLYLINE
5
288
100
AcDbEntity
8
0
100
AcDbPolyline
90
12
70
1
43
0.0
10
8.1377886980772018
20
148.81991863250732
10
14.276943132281303
20
148.81991863250732
10
14.276943132281303
20
145.41609823703766
10
8.7448834627866745
20
145.41609823703766
10
8.7448834627866745
20
144.24283742904663
10
14.276943132281303
20
144.24283742904663
10
14.276943132281303
20
141.18008196353912
10
8.3697127550840378
20
141.18008196353912
10
8.3697127550840378
20
140
10
15.600272342562675
20
140
10
15.600272342562675
20
150
10
8.1377886980772018
20
150
0
LINE
5
289
100
AcDbEntity
8
0
100
AcDbLine
10
-4.3519783765077591
20
145.55934548377991
30
0
11
-5.8867669850587845
21
145.55934548377991
31
0
0
SPLINE
5
290
100
AcDbEntity
8
0
100
AcDbSpline
70
0
71
2
72
6
73
3
74
0
42
0.000000001
43
0.0000000001
44
0.0000000001
40
-1
40
-1
40
-1
40
0
40
0
40
0
10
-5.8867669850587845
20
145.55934548377991
30
0
10
-6.3983631879091263
20
145.55934548377991
30
0
10
-6.6234660893678665
20
145.60709416866302
30
0
0
SPLINE
5
291
100
AcDbEntity
8
0
100
AcDbSpline
70
0
71
2
72
6
73
3
74
0
42
0.000000001
43
0.0000000001
44
0.0000000001
40
-1
40
-1
40
-1
40
0
40
0
40
0
10
-6.6234660893678665
20
145.60709416866302
30
0
10
-6.9304228574037552
20
145.68212807178497
30
0
10
-7.2271490842103958
20
145.87312400341034
30
0
0
SPLINE
5
292
100
AcDbEntity
8
0
100
AcDbSpline
70
0
71
2
72
6
73
3
74
0
42
0.000000001
43
0.0000000001
44
0.0000000001
40
-1
40
-1
40
-1
40
0
40
0
40
0
10
-7.2271490842103958
20
145.87312400341034
30
0
10
-7.5238753110170364
20
146.06411993503571
30
0
10
-7.8990460187196732
20
146.54160976409912
30
0
0
SPLINE
5
293
100
AcDbEntity
8
0
100
AcDbSpline
70
0
71
2
72
6
73
3
74
0
42
0.000000001
43
0.0000000001
44
0.0000000001
40
-1
40
-1
40
-1
40
0
40
0
40
0
10
-7.8990460187196732
20
146.54160976409912
30
0
10
-8.2742167264223099
20
147.01909959316254
30
0
10
-8.8540268689393997
20
147.91950821876526
30
0
0
LINE
5
294
100
AcDbEntity
8
0
100
AcDbLine
10
-8.8540268689393997
20
147.91950821876526
30
0
11
-10.177354887127876
21
150
31
0
0
LINE
5
295
100
AcDbEntity
8
0
100
AcDbLine
10
-10.177354887127876
20
150
30
0
11
-11.841747835278511
21
150
31
0
0
LINE
5
296
100
AcDbEntity
8
0
100
AcDbLine
10
-11.841747835278511
20
150
30
0
11
-10.102319791913031
21
147.27830827236176
31
0
0
SPLINE
5
297
100
AcDbEntity
8
0
100
AcDbSpline
70
0
71
2
72
6
73
3
74
0
42
0.000000001
43
0.0000000001
44
0.0000000001
40
-1
40
-1
40
-1
40
0
40
0
40
0
10
-10.102319791913033
20
147.27830827236176
30
0
10
-9.583902433514595
20
146.48021817207336
30
0
10
-9.0040922909975052
20
145.94815850257874
30
0
0
SPLINE
5
298
100
AcDbEntity
8
0
100
AcDbSpline
70
0
71
2
72
6
73
3
74
0
42
0.000000001
43
0.0000000001
44
0.0000000001
40
-1
40
-1
40
-1
40
0
40
0
40
0
10
-9.0040922909975052
20
145.94815850257874
30
0
10
-8.731241300702095
20
145.70259213447571
30
0
10
-8.2060051709413528
20
145.45020461082458
30
0
0
SPLINE
5
299
100
AcDbEntity
8
0
100
AcDbSpline
70
0
71
2
72
6
73
3
74
0
42
0.000000001
43
0.0000000001
44
0.0000000001
40
-1
40
-1
40
-1
40
0
40
0
40
0
10
-8.2060051709413528
20
145.45020461082458
30
0
10
-9.6452952176332474
20
145.25238752365112
30
0
10
-10.334243848919868
20
144.52251017093658
30
0
0
SPLINE
5
300
100
AcDbEntity
8
0
100
AcDbSpline
70
0
71
2
72
6
73
3
74
0
42
0.000000001
43
0.0000000001
44
0.0000000001
40
-1
40
-1
40
-1
40
0
40
0
40
0
10
-10.334243848919868
20
144.52251017093658
30
0
10
-11.02319248020649
20
143.79263281822205
30
0
10
-11.02319248020649
20
142.72851288318634
30
0
0
SPLINE
5
301
100
AcDbEntity
8
0
100
AcDbSpline
70
0
71
2
72
6
73
3
74
0
42
0.000000001
43
0.0000000001
44
0.0000000001
40
-1
40
-1
40
-1
40
0
40
0
40
0
10
-11.02319248020649
20
142.72851288318634
30
0
10
-11.02319248020649
20
141.90313756465912
30
0
10
-10.607094839215279
20
141.22100949287415
30
0
0
SPLINE
5
302
100
AcDbEntity
8
0
100
AcDbSpline
70
0
71
2
72
6
73
3
74
0
42
0.000000001
43
0.0000000001
44
0.0000000001
40
-1
40
-1
40
-1
40
0
40
0
40
0
10
-10.607094839215279
20
141.22100949287415
30
0
10
-10.190997198224068
20
140.53888142108917
30
0
10
-9.4952250272035599
20
140.26944041252136
30
0
0
SPLINE
5
303
100
AcDbEntity
8
0
100
AcDbSpline
70
0
71
2
72
6
73
3
74
0
42
0.000000001
43
0.0000000001
44
0.0000000001
40
-1
40
-1
40
-1
40
0
40
0
40
0
10
-9.4952250272035599
20
140.26944041252136
30
0
10
-8.7994552403688431
20
140
30
0
10
-7.4624849110841751
20
140
30
0
0
LINE
5
304
100
AcDbEntity
8
0
100
AcDbLine
10
-7.4624849110841751
20
140
30
0
11
-3.0286503583192825
21
140
31
0
0
LINE
5
305
100
AcDbEntity
8
0
100
AcDbLine
10
-3.0286503583192825
20
140
30
0
11
-3.0286503583192825
21
150
31
0
0
LINE
5
306
100
AcDbEntity
8
0
100
AcDbLine
10
-3.0286503583192825
20
150
30
0
11
-4.3519783765077591
21
150
31
0
0
LINE
5
307
100
AcDbEntity
8
0
100
AcDbLine
10
-4.3519783765077591
20
150
30
0
11
-4.3519783765077591
21
145.55934548377991
31
0
0
SPLINE
5
308
100
AcDbEntity
8
0
100
AcDbSpline
70
0
71
2
72
6
73
3
74
0
42
0.000000001
43
0.0000000001
44
0.0000000001
40
-1
40
-1
40
-1
40
0
40
0
40
0
10
19.573669955134392
20
149.83287811279297
30
0
10
18.915415927767754
20
149.66575741767883
30
0
10
18.47885362803936
20
149.33833599090576
30
0
0
SPLINE
5
309
100
AcDbEntity
8
0
100
AcDbSpline
70
0
71
2
72
6
73
3
74
0
42
0.000000001
43
0.0000000001
44
0.0000000001
40
-1
40
-1
40
-1
40
0
40
0
40
0
10
18.47885362803936
20
149.33833599090576
30
0
10
18.042291924357414
20
149.01091456413269
30
0
10
17.745566293597221
20
148.40723037719727
30
0
0
SPLINE
5
310
100
AcDbEntity
8
0
100
AcDbSpline
70
0
71
2
72
6
73
3
74
0
42
0.000000001
43
0.0000000001
44
0.0000000001
40
-1
40
-1
40
-1
40
0
40
0
40
0
10
17.745566293597221
20
148.40723037719727
30
0
10
17.448840066790581
20
147.80354738235474
30
0
10
17.448840066790581
20
147.10095524787903
30
0
0
SPLINE
5
311
100
AcDbEntity
8
0
100
AcDbSpline
70
0
71
2
72
6
73
3
74
0
42
0.000000001
43
0.0000000001
44
0.0000000001
40
-1
40
-1
40
-1
40
0
40
0
40
0
10
17.448840066790581
20
147.10095524787903
30
0
10
17.448840066790581
20
146.22783064842224
30
0
10
17.936562225222588
20
145.58663010597229
30
0
0
SPLINE
5
312
100
AcDbEntity
8
0
100
AcDbSpline
70
0
71
2
72
6
73
3
74
0
42
0.000000001
43
0.0000000001
44
0.0000000001
40
-1
40
-1
40
-1
40
0
40
0
40
0
10
17.936562225222588
20
145.58663010597229
30
0
10
18.424283787608147
20
144.94542956352234
30
0
10
19.331514164805412
20
144.67939972877502
30
0
0
SPLINE
5
313
100
AcDbEntity
8
0
100
AcDbSpline
70
0
71
2
72
6
73
3
74
0
42
0.000000001
43
0.0000000001
44
0.0000000001
40
-1
40
-1
40
-1
40
0
40
0
40
0
10
19.331514164805412
20
144.67939972877502
30
0
10
18.628922030329704
20
144.33151423931122
30
0
10
18.281036540865898
20
143.76534759998322
30
0
0
SPLINE
5
314
100
AcDbEntity
8
0
100
AcDbSpline
70
0
71
2
72
6
73
3
74
0
42
0.000000001
43
0.0000000001
44
0.0000000001
40
-1
40
-1
40
-1
40
0
40
0
40
0
10
18.281036540865898
20
143.76534759998322
30
0
10
17.933151051402092
20
143.19918155670166
30
0
10
17.933151051402092
20
142.55798101425171
30
0
0
SPLINE
5
315
100
AcDbEntity
8
0
100
AcDbSpline
70
0
71
2
72
6
73
3
74
0
42
0.000000001
43
0.0000000001
44
0.0000000001
40
-1
40
-1
40
-1
40
0
40
0
40
0
10
17.933151051402092
20
142.55798101425171
30
0
10
17.933151051402092
20
141.86903119087219
30
0
10
18.325375244021416
20
141.23806297779083
30
0
0
SPLINE
5
316
100
AcDbEntity
8
0
100
AcDbSpline
70
0
71
2
72
6
73
3
74
0
42
0.000000001
43
0.0000000001
44
0.0000000001
40
-1
40
-1
40
-1
40
0
40
0
40
0
10
18.325375244021416
20
141.23806297779083
30
0
10
18.717598840594292
20
140.60709416866302
30
0
10
19.409959241747856
20
140.30354678630829
30
0
0
SPLINE
5
317
100
AcDbEntity
8
0
100
AcDbSpline
70
0
71
2
72
6
73
3
74
0
42
0.000000001
43
0.0000000001
44
0.0000000001
40
-1
40
-1
40
-1
40
0
40
0
40
0
10
19.409959241747856
20
140.30354678630829
30
0
10
20.102319046854973
20
140
30
0
10
21.24829463660717
20
140
30
0
0
LINE
5
318
100
AcDbEntity
8
0
100
AcDbLine
10
21.248294636607167
20
140
30
0
11
25
21
140
31
0
0
LINE
5
319
100
AcDbEntity
8
0
100
AcDbLine
10
25
20
140
30
0
11
25
21
150
31
0
0
LINE
5
320
100
AcDbEntity
8
0
100
AcDbLine
10
25
20
150
30
0
11
21.186903044581413
21
150
31
0
0
SPLINE
5
321
100
AcDbEntity
8
0
100
AcDbSpline
70
0
71
2
72
6
73
3
74
0
42
0.000000001
43
0.0000000001
44
0.0000000001
40
-1
40
-1
40
-1
40
0
40
0
40
0
10
21.186903044581413
20
150
30
0
10
20.231923386454582
20
150
30
0
10
19.573669955134392
20
149.83287811279297
30
0
0
SPLINE
5
322
100
AcDbEntity
8
0
100
AcDbSpline
70
0
71
2
72
6
73
3
74
0
42
0.000000001
43
0.0000000001
44
0.0000000001
40
-1
40
-1
40
-1
40
0
40
0
40
0
10
-14.635062292218208
20
149.77489829063416
30
0
10
-15.552525594830513
20
150.17053246498108
30
0
10
-16.909961774945259
20
150.17053246498108
30
0
0
SPLINE
5
323
100
AcDbEntity
8
0
100
AcDbSpline
70
0
71
2
72
6
73
3
74
0
42
0.000000001
43
0.0000000001
44
0.0000000001
40
-1
40
-1
40
-1
40
0
40
0
40
0
10
-16.909961774945259
20
150.17053246498108
30
0
10
-17.980899885296822
20
150.17053246498108
30
0
10
-18.836970403790474
20
149.7783088684082
30
0
0
SPLINE
5
324
100
AcDbEntity
8
0
100
AcDbSpline
70
0
71
2
72
6
73
3
74
0
42
0.000000001
43
0.0000000001
44
0.0000000001
40
-1
40
-1
40
-1
40
0
40
0
40
0
10
-18.836970403790474
20
149.7783088684082
30
0
10
-19.693045690655708
20
149.38608407974243
30
0
10
-20.150070264935493
20
148.68008255958557
30
0
0
SPLINE
5
325
100
AcDbEntity
8
0
100
AcDbSpline
70
0
71
2
72
6
73
3
74
0
42
0.000000001
43
0.0000000001
44
0.0000000001
40
-1
40
-1
40
-1
40
0
40
0
40
0
10
-20.150070264935493
20
148.68008255958557
30
0
10
-20.607094839215279
20
147.97407984733582
30
0
10
-20.607094839215279
20
147.17598915100098
30
0
0
SPLINE
5
326
100
AcDbEntity
8
0
100
AcDbSpline
70
0
71
2
72
6
73
3
74
0
42
0.000000001
43
0.0000000001
44
0.0000000001
40
-1
40
-1
40
-1
40
0
40
0
40
0
10
-20.607094839215279
20
147.17598915100098
30
0
10
-20.607094839215279
20
146.37107849121094
30
0
10
-20.190997198224068
20
145.75375199317932
30
0
0
SPLINE
5
327
100
AcDbEntity
8
0
100
AcDbSpline
70
0
71
2
72
6
73
3
74
0
42
0.000000001
43
0.0000000001
44
0.0000000001
40
-1
40
-1
40
-1
40
0
40
0
40
0
10
-20.190997198224068
20
145.75375199317932
30
0
10
-19.774899557232857
20
145.1364266872406
30
0
10
-18.901772573590279
20
144.73397016525269
30
0
0
SPLINE
5
328
100
AcDbEntity
8
0
100
AcDbSpline
70
0
71
2
72
6
73
3
74
0
42
0.000000001
43
0.0000000001
44
0.0000000001
40
-1
40
-1
40
-1
40
0
40
0
40
0
10
-18.901772573590279
20
144.73397016525269
30
0
10
-18.301501348614693
20
144.46111917495728
30
0
10
-16.68826587498188
20
144.09618020057678
30
0
0
SPLINE
5
329
100
AcDbEntity
8
0
100
AcDbSpline
70
0
71
2
72
6
73
3
74
0
42
0.000000001
43
0.0000000001
44
0.0000000001
40
-1
40
-1
40
-1
40
0
40
0
40
0
10
-16.68826587498188
20
144.09618020057678
30
0
10
-15.07503516972065
20
143.73124182224274
30
0
10
-14.693040922284126
20
143.38335633277893
30
0
0
SPLINE
5
330
100
AcDbEntity
8
0
100
AcDbSpline
70
0
71
2
72
6
73
3
74
0
42
0.000000001
43
0.0000000001
44
0.0000000001
40
-1
40
-1
40
-1
40
0
40
0
40
0
10
-14.693040922284126
20
143.38335633277893
30
0
10
-14.304227903485298
20
143.03547084331512
30
0
10
-14.304227903485298
20
142.4965900182724
30
0
0
SPLINE
5
331
100
AcDbEntity
8
0
100
AcDbSpline
70
0
71
2
72
6
73
3
74
0
42
0.000000001
43
0.0000000001
44
0.0000000001
40
-1
40
-1
40
-1
40
0
40
0
40
0
10
-14.304227903485298
20
142.4965900182724
30
0
10
-14.304227903485298
20
141.87585294246674
30
0
10
-14.853344038128853
20
141.43588066101074
30
0
0
SPLINE
5
332
100
AcDbEntity
8
0
100
AcDbSpline
70
0
71
2
72
6
73
3
74
0
42
0.000000001
43
0.0000000001
44
0.0000000001
40
-1
40
-1
40
-1
40
0
40
0
40
0
10
-14.853344038128853
20
141.43588066101074
30
0
10
-15.402455404400826
20
140.9959077835083
30
0
10
-16.603002622723579
20
140.9959077835083
30
0
0
SPLINE
5
333
100
AcDbEntity
8
0
100
AcDbSpline
70
0
71
2
72
6
73
3
74
0
42
0.000000001
43
0.0000000001
44
0.0000000001
40
-1
40
-1
40
-1
40
0
40
0
40
0
10
-16.603002622723579
20
140.9959077835083
30
0
10
-17.755799368023872
20
140.9959077835083
30
0
10
-18.345837667584419
20
141.48021876811981
30
0
0
SPLINE
5
334
100
AcDbEntity
8
0
100
AcDbSpline
70
0
71
2
72
6
73
3
74
0
42
0.000000001
43
0.0000000001
44
0.0000000001
40
-1
40
-1
40
-1
40
0
40
0
40
0
10
-18.345837667584419
20
141.48021876811981
30
0
10
-18.935880735516548
20
141.96452975273132
30
0
10
-19.038200452923775
20
142.91268825531006
30
0
0
LINE
5
335
100
AcDbEntity
8
0
100
AcDbLine
10
-19.038200452923775
20
142.91268825531006
30
0
11
-20.306959226727486
21
142.81719028949738
31
0
0
SPLINE
5
336
100
AcDbEntity
8
0
100
AcDbSpline
70
0
71
2
72
6
73
3
74
0
42
0.000000001
43
0.0000000001
44
0.0000000001
40
-1
40
-1
40
-1
40
0
40
0
40
0
10
-20.306959226727486
20
142.81719028949738
30
0
10
-20.272851064801216
20
141.93724453449249
30
0
10
-19.815826490521431
20
141.24147415161133
30
0
0
SPLINE
5
337
100
AcDbEntity
8
0
100
AcDbSpline
70
0
71
2
72
6
73
3
74
0
42
0.000000001
43
0.0000000001
44
0.0000000001
40
-1
40
-1
40
-1
40
0
40
0
40
0
10
-19.815826490521431
20
141.24147415161133
30
0
10
-19.358801916241646
20
140.54570317268372
30
0
10
-18.509550169110298
20
140.18758594989777
30
0
0
SPLINE
5
338
100
AcDbEntity
8
0
100
AcDbSpline
70
0
71
2
72
6
73
3
74
0
42
0.000000001
43
0.0000000001
44
0.0000000001
40
-1
40
-1
40
-1
40
0
40
0
40
0
10
-18.509550169110298
20
140.18758594989777
30
0
10
-17.660298421978951
20
139.82946872711182
30
0
10
-16.548433378338814
20
139.82946872711182
30
0
0
SPLINE
5
339
100
AcDbEntity
8
0
100
AcDbSpline
70
0
71
2
72
6
73
3
74
0
42
0.000000001
43
0.0000000001
44
0.0000000001
40
-1
40
-1
40
-1
40
0
40
0
40
0
10
-16.548433378338814
20
139.82946872711182
30
0
10
-15.538883283734322
20
139.82946872711182
30
0
10
-14.713506773114204
20
140.17053246498108
30
0
0
SPLINE
5
340
100
AcDbEntity
8
0
100
AcDbSpline
70
0
71
2
72
6
73
3
74
0
42
0.000000001
43
0.0000000001
44
0.0000000001
40
-1
40
-1
40
-1
40
0
40
0
40
0
10
-14.713506773114204
20
140.17053246498108
30
0
10
-13.888132646679878
20
140.51159679889679
30
0
10
-13.458390310406685
20
141.16985023021698
30
0
0
SPLINE
5
341
100
AcDbEntity
8
0
100
AcDbSpline
70
0
71
2
72
6
73
3
74
0
42
0.000000001
43
0.0000000001
44
0.0000000001
40
-1
40
-1
40
-1
40
0
40
0
40
0
10
-13.458390310406685
20
141.16985023021698
30
0
10
-13.028650358319283
20
141.82810425758362
30
0
10
-13.028650358319283
20
142.58526623249054
30
0
0
SPLINE
5
342
100
AcDbEntity
8
0
100
AcDbSpline
70
0
71
2
72
6
73
3
74
0
42
0.000000001
43
0.0000000001
44
0.0000000001
40
-1
40
-1
40
-1
40
0
40
0
40
0
10
-13.028650358319283
20
142.58526623249054
30
0
10
-13.028650358319283
20
143.27421605587006
30
0
10
-13.379945829510689
20
143.83015036582947
30
0
0
SPLINE
5
343
100
AcDbEntity
8
0
100
AcDbSpline
70
0
71
2
72
6
73
3
74
0
42
0.000000001
43
0.0000000001
44
0.0000000001
40
-1
40
-1
40
-1
40
0
40
0
40
0
10
-13.379945829510689
20
143.83015036582947
30
0
10
-13.731241300702095
20
144.38608467578888
30
0
10
-14.447479322552681
20
144.76125538349152
30
0
0
SPLINE
5
344
100
AcDbEntity
8
0
100
AcDbSpline
70
0
71
2
72
6
73
3
74
0
42
0.000000001
43
0.0000000001
44
0.0000000001
40
-1
40
-1
40
-1
40
0
40
0
40
0
10
-14.447479322552681
20
144.76125538349152
30
0
10
-15.000000074505806
20
145.05457043647766
30
0
10
-16.37790210545063
20
145.38540303707123
30
0
0
SPLINE
5
345
100
AcDbEntity
8
0
100
AcDbSpline
70
0
71
2
72
6
73
3
74
0
42
0.000000001
43
0.0000000001
44
0.0000000001
40
-1
40
-1
40
-1
40
0
40
0
40
0
10
-16.37790210545063
20
145.38540303707123
30
0
10
-17.755799368023872
20
145.71623504161835
30
0
10
-18.158254697918892
20
145.87312459945679
30
0
0
SPLINE
5
346
100
AcDbEntity
8
0
100
AcDbSpline
70
0
71
2
72
6
73
3
74
0
42
0.000000001
43
0.0000000001
44
0.0000000001
40
-1
40
-1
40
-1
40
0
40
0
40
0
10
-18.158254697918892
20
145.87312459945679
30
0
10
-18.785815313458443
20
146.11186981201172
30
0
10
-19.058661535382271
20
146.46316528320312
30
0
0
SPLINE
5
347
100
AcDbEntity
8
0
100
AcDbSpline
70
0
71
2
72
6
73
3
74
0
42
0.000000001
43
0.0000000001
44
0.0000000001
40
-1
40
-1
40
-1
40
0
40
0
40
0
10
-19.058661535382271
20
146.46316528320312
30
0
10
-19.331517294049263
20
146.81446135044098
30
0
10
-19.331517294049263
20
147.2851300239563
30
0
0
SPLINE
5
348
100
AcDbEntity
8
0
100
AcDbSpline
70
0
71
2
72
6
73
3
74
0
42
0.000000001
43
0.0000000001
44
0.0000000001
40
-1
40
-1
40
-1
40
0
40
0
40
0
10
-19.331517294049263
20
147.2851300239563
30
0
10
-19.331517294049263
20
147.74897694587708
30
0
10
-19.048433378338814
20
148.14120054244995
30
0
0
SPLINE
5
349
100
AcDbEntity
8
0
100
AcDbSpline
70
0
71
2
72
6
73
3
74
0
42
0.000000001
43
0.0000000001
44
0.0000000001
40
-1
40
-1
40
-1
40
0
40
0
40
0
10
-19.048433378338814
20
148.14120054244995
30
0
10
-18.765349462628365
20
148.53342413902283
30
0
10
-18.185539320111275
20
148.75852704048157
30
0
0
SPLINE
5
350
100
AcDbEntity
8
0
100
AcDbSpline
70
0
71
2
72
6
73
3
74
0
42
0.000000001
43
0.0000000001
44
0.0000000001
40
-1
40
-1
40
-1
40
0
40
0
40
0
10
-18.185539320111275
20
148.75852704048157
30
0
10
-17.605729177594185
20
148.98362874984741
30
0
10
-16.848568990826607
20
148.98362874984741
30
0
0
SPLINE
5
351
100
AcDbEntity
8
0
100
AcDbSpline
70
0
71
2
72
6
73
3
74
0
42
0.000000001
43
0.0000000001
44
0.0000000001
40
-1
40
-1
40
-1
40
0
40
0
40
0
10
-16.848568990826607
20
148.98362874984741
30
0
10
-15.995907858014107
20
148.98362874984741
30
0
10
-15.31377799808979
20
148.68690371513367
30
0
0
SPLINE
5
352
100
AcDbEntity
8
0
100
AcDbSpline
70
0
71
2
72
6
73
3
74
0
42
0.000000001
43
0.0000000001
44
0.0000000001
40
-1
40
-1
40
-1
40
0
40
0
40
0
10
-15.31377799808979
20
148.68690371513367
30
0
10
-14.631652906537056
20
148.39017748832703
30
0
10
-14.307642057538033
20
147.90927767753601
30
0
0
SPLINE
5
353
100
AcDbEntity
8
0
100
AcDbSpline
70
0
71
2
72
6
73
3
74
0
42
0.000000001
43
0.0000000001
44
0.0000000001
40
-1
40
-1
40
-1
40
0
40
0
40
0
10
-14.307642057538033
20
147.90927767753601
30
0
10
-13.983631208539009
20
147.4283766746521
30
0
10
-13.894953802227974
20
146.67803585529327
30
0
0
LINE
5
354
100
AcDbEntity
8
0
100
AcDbLine
10
-13.894953802227974
20
146.67803585529325
30
0
11
-12.64665849506855
21
146.78717613220215
31
0
0
SPLINE
5
355
100
AcDbEntity
8
0
100
AcDbSpline
70
0
71
2
72
6
73
3
74
0
42
0.000000001
43
0.0000000001
44
0.0000000001
40
-1
40
-1
40
-1
40
0
40
0
40
0
10
-12.64665849506855
20
146.78717613220215
30
0
10
-12.673943117260933
20
147.78990507125854
30
0
10
-13.195772245526314
20
148.58458399772644
30
0
0
SPLINE
5
356
100
AcDbEntity
8
0
100
AcDbSpline
70
0
71
2
72
6
73
3
74
0
42
0.000000001
43
0.0000000001
44
0.0000000001
40
-1
40
-1
40
-1
40
0
40
0
40
0
10
-13.195772245526314
20
148.58458399772644
30
0
10
-13.717598989605904
20
149.37926292419434
30
0
10
-14.635062292218208
20
149.77489829063416
30
0
0
LWPOLYLINE
5
357
100
AcDbEntity
8
0
100
AcDbPolyline
90
4
70
1
43
0.0
10
-70
20
160
10
70
20
160
10
50
20
130
10
-50
20
130
0
LWPOLYLINE
5
358
100
AcDbEntity
8
0
100
AcDbPolyline
90
2
70
1
43
0.0
10
-50
20
130
10
50
20
130
0
LWPOLYLINE
5
359
100
AcDbEntity
8
0
100
AcDbPolyline
90
8
70
1
43
0.0
10
0.72305433452129364
20
146.97135090827942
10
4.9045013636350632
20
146.97135090827942
10
6.0027288645505905
20
150
10
7.407911941409111
20
150
10
3.5675286501646042
20
140
10
2.1418809145689011
20
140
10
-1.9508887082338333
20
150
10
-0.44338472187519073
20
150
0
LWPOLYLINE
5
360
100
AcDbEntity
8
0
100
AcDbPolyline
90
12
70
1
43
0.0
10
14.276943132281303
20
148.81991863250732
10
8.1377886980772018
20
148.81991863250732
10
8.1377886980772018
20
150
10
15.600272342562675
20
150
10
15.600272342562675
20
140
10
8.3697127550840378
20
140
10
8.3697127550840378
20
141.18008196353912
10
14.276943132281303
20
141.18008196353912
10
14.276943132281303
20
144.24283742904663
10
8.7448834627866745
20
144.24283742904663
10
8.7448834627866745
20
145.41609823703766
10
14.276943132281303
20
145.41609823703766
0
LINE
5
361
100
AcDbEntity
8
0
100
AcDbLine
10
-5.8867669850587845
20
145.55934548377991
30
0
11
-4.3519783765077591
21
145.55934548377991
31
0
0
LINE
5
362
100
AcDbEntity
8
0
100
AcDbLine
10
-4.3519783765077591
20
145.55934548377991
30
0
11
-4.3519783765077591
21
150
31
0
0
LINE
5
363
100
AcDbEntity
8
0
100
AcDbLine
10
-4.3519783765077591
20
150
30
0
11
-3.0286503583192825
21
150
31
0
0
LINE
5
364
100
AcDbEntity
8
0
100
AcDbLine
10
-3.0286503583192825
20
150
30
0
11
-3.0286503583192825
21
140
31
0
0
LINE
5
365
100
AcDbEntity
8
0
100
AcDbLine
10
-3.0286503583192825
20
140
30
0
11
-7.4624849110841751
21
140
31
0
0
SPLINE
5
366
100
AcDbEntity
8
0
100
AcDbSpline
70
0
71
2
72
6
73
3
74
0
42
0.000000001
43
0.0000000001
44
0.0000000001
40
0
40
0
40
0
40
1
40
1
40
1
10
-7.4624849110841751
20
140
30
0
10
-8.7994552403688431
20
140
30
0
10
-9.4952250272035599
20
140.26944041252136
30
0
0
SPLINE
5
367
100
AcDbEntity
8
0
100
AcDbSpline
70
0
71
2
72
6
73
3
74
0
42
0.000000001
43
0.0000000001
44
0.0000000001
40
0
40
0
40
0
40
1
40
1
40
1
10
-9.4952250272035599
20
140.26944041252136
30
0
10
-10.190997198224068
20
140.53888142108917
30
0
10
-10.607094839215279
20
141.22100949287415
30
0
0
SPLINE
5
368
100
AcDbEntity
8
0
100
AcDbSpline
70
0
71
2
72
6
73
3
74
0
42
0.000000001
43
0.0000000001
44
0.0000000001
40
0
40
0
40
0
40
1
40
1
40
1
10
-10.607094839215279
20
141.22100949287415
30
0
10
-11.02319248020649
20
141.90313756465912
30
0
10
-11.02319248020649
20
142.72851288318634
30
0
0
SPLINE
5
369
100
AcDbEntity
8
0
100
AcDbSpline
70
0
71
2
72
6
73
3
74
0
42
0.000000001
43
0.0000000001
44
0.0000000001
40
0
40
0
40
0
40
1
40
1
40
1
10
-11.02319248020649
20
142.72851288318634
30
0
10
-11.02319248020649
20
143.79263281822205
30
0
10
-10.334243848919868
20
144.52251017093658
30
0
0
SPLINE
5
370
100
AcDbEntity
8
0
100
AcDbSpline
70
0
71
2
72
6
73
3
74
0
42
0.000000001
43
0.0000000001
44
0.0000000001
40
0
40
0
40
0
40
1
40
1
40
1
10
-10.334243848919868
20
144.52251017093658
30
0
10
-9.6452952176332474
20
145.25238752365112
30
0
10
-8.2060051709413528
20
145.45020461082458
30
0
0
SPLINE
5
371
100
AcDbEntity
8
0
100
AcDbSpline
70
0
71
2
72
6
73
3
74
0
42
0.000000001
43
0.0000000001
44
0.0000000001
40
0
40
0
40
0
40
1
40
1
40
1
10
-8.2060051709413528
20
145.45020461082458
30
0
10
-8.731241300702095
20
145.70259213447571
30
0
10
-9.0040922909975052
20
145.94815850257874
30
0
0
SPLINE
5
372
100
AcDbEntity
8
0
100
AcDbSpline
70
0
71
2
72
6
73
3
74
0
42
0.000000001
43
0.0000000001
44
0.0000000001
40
0
40
0
40
0
40
1
40
1
40
1
10
-9.0040922909975052
20
145.94815850257874
30
0
10
-9.583902433514595
20
146.48021817207336
30
0
10
-10.102319791913033
20
147.27830827236176
30
0
0
LINE
5
373
100
AcDbEntity
8
0
100
AcDbLine
10
-10.102319791913031
20
147.27830827236176
30
0
11
-11.841747835278511
21
150
31
0
0
LINE
5
374
100
AcDbEntity
8
0
100
AcDbLine
10
-11.841747835278511
20
150
30
0
11
-10.177354887127876
21
150
31
0
0
LINE
5
375
100
AcDbEntity
8
0
100
AcDbLine
10
-10.177354887127876
20
150
30
0
11
-8.8540268689393997
21
147.91950821876526
31
0
0
SPLINE
5
376
100
AcDbEntity
8
0
100
AcDbSpline
70
0
71
2
72
6
73
3
74
0
42
0.000000001
43
0.0000000001
44
0.0000000001
40
0
40
0
40
0
40
1
40
1
40
1
10
-8.8540268689393997
20
147.91950821876526
30
0
10
-8.2742167264223099
20
147.01909959316254
30
0
10
-7.8990460187196732
20
146.54160976409912
30
0
0
SPLINE
5
377
100
AcDbEntity
8
0
100
AcDbSpline
70
0
71
2
72
6
73
3
74
0
42
0.000000001
43
0.0000000001
44
0.0000000001
40
0
40
0
40
0
40
1
40
1
40
1
10
-7.8990460187196732
20
146.54160976409912
30
0
10
-7.5238753110170364
20
146.06411993503571
30
0
10
-7.2271490842103958
20
145.87312400341034
30
0
0
SPLINE
5
378
100
AcDbEntity
8
0
100
AcDbSpline
70
0
71
2
72
6
73
3
74
0
42
0.000000001
43
0.0000000001
44
0.0000000001
40
0
40
0
40
0
40
1
40
1
40
1
10
-7.2271490842103958
20
145.87312400341034
30
0
10
-6.9304228574037552
20
145.68212807178497
30
0
10
-6.6234660893678665
20
145.60709416866302
30
0
0
SPLINE
5
379
100
AcDbEntity
8
0
100
AcDbSpline
70
0
71
2
72
6
73
3
74
0
42
0.000000001
43
0.0000000001
44
0.0000000001
40
0
40
0
40
0
40
1
40
1
40
1
10
-6.6234660893678665
20
145.60709416866302
30
0
10
-6.3983631879091263
20
145.55934548377991
30
0
10
-5.8867669850587845
20
145.55934548377991
30
0
0
SPLINE
5
380
100
AcDbEntity
8
0
100
AcDbSpline
70
0
71
2
72
6
73
3
74
0
42
0.000000001
43
0.0000000001
44
0.0000000001
40
0
40
0
40
0
40
1
40
1
40
1
10
18.47885362803936
20
149.33833599090576
30
0
10
18.915415927767754
20
149.66575741767883
30
0
10
19.573669955134392
20
149.83287811279297
30
0
0
SPLINE
5
381
100
AcDbEntity
8
0
100
AcDbSpline
70
0
71
2
72
6
73
3
74
0
42
0.000000001
43
0.0000000001
44
0.0000000001
40
0
40
0
40
0
40
1
40
1
40
1
10
19.573669955134392
20
149.83287811279297
30
0
10
20.231923386454582
20
150
30
0
10
21.186903044581413
20
150
30
0
0
LINE
5
382
100
AcDbEntity
8
0
100
AcDbLine
10
21.186903044581413
20
150
30
0
11
25
21
150
31
0
0
LINE
5
383
100
AcDbEntity
8
0
100
AcDbLine
10
25
20
150
30
0
11
25
21
140
31
0
0
LINE
5
384
100
AcDbEntity
8
0
100
AcDbLine
10
25
20
140
30
0
11
21.24829463660717
21
140
31
0
0
SPLINE
5
385
100
AcDbEntity
8
0
100
AcDbSpline
70
0
71
2
72
6
73
3
74
0
42
0.000000001
43
0.0000000001
44
0.0000000001
40
0
40
0
40
0
40
1
40
1
40
1
10
21.24829463660717
20
140
30
0
10
20.102319046854973
20
140
30
0
10
19.409959241747856
20
140.30354678630829
30
0
0
SPLINE
5
386
100
AcDbEntity
8
0
100
AcDbSpline
70
0
71
2
72
6
73
3
74
0
42
0.000000001
43
0.0000000001
44
0.0000000001
40
0
40
0
40
0
40
1
40
1
40
1
10
19.409959241747856
20
140.30354678630829
30
0
10
18.717598840594292
20
140.60709416866302
30
0
10
18.325375244021416
20
141.23806297779083
30
0
0
SPLINE
5
387
100
AcDbEntity
8
0
100
AcDbSpline
70
0
71
2
72
6
73
3
74
0
42
0.000000001
43
0.0000000001
44
0.0000000001
40
0
40
0
40
0
40
1
40
1
40
1
10
18.325375244021416
20
141.23806297779083
30
0
10
17.933151051402092
20
141.86903119087219
30
0
10
17.933151051402092
20
142.55798101425171
30
0
0
SPLINE
5
388
100
AcDbEntity
8
0
100
AcDbSpline
70
0
71
2
72
6
73
3
74
0
42
0.000000001
43
0.0000000001
44
0.0000000001
40
0
40
0
40
0
40
1
40
1
40
1
10
17.933151051402092
20
142.55798101425171
30
0
10
17.933151051402092
20
143.19918155670166
30
0
10
18.281036540865898
20
143.76534759998322
30
0
0
SPLINE
5
389
100
AcDbEntity
8
0
100
AcDbSpline
70
0
71
2
72
6
73
3
74
0
42
0.000000001
43
0.0000000001
44
0.0000000001
40
0
40
0
40
0
40
1
40
1
40
1
10
18.281036540865898
20
143.76534759998322
30
0
10
18.628922030329704
20
144.33151423931122
30
0
10
19.331514164805412
20
144.67939972877502
30
0
0
SPLINE
5
390
100
AcDbEntity
8
0
100
AcDbSpline
70
0
71
2
72
6
73
3
74
0
42
0.000000001
43
0.0000000001
44
0.0000000001
40
0
40
0
40
0
40
1
40
1
40
1
10
19.331514164805412
20
144.67939972877502
30
0
10
18.424283787608147
20
144.94542956352234
30
0
10
17.936562225222588
20
145.58663010597229
30
0
0
SPLINE
5
391
100
AcDbEntity
8
0
100
AcDbSpline
70
0
71
2
72
6
73
3
74
0
42
0.000000001
43
0.0000000001
44
0.0000000001
40
0
40
0
40
0
40
1
40
1
40
1
10
17.936562225222588
20
145.58663010597229
30
0
10
17.448840066790581
20
146.22783064842224
30
0
10
17.448840066790581
20
147.10095524787903
30
0
0
SPLINE
5
392
100
AcDbEntity
8
0
100
AcDbSpline
70
0
71
2
72
6
73
3
74
0
42
0.000000001
43
0.0000000001
44
0.0000000001
40
0
40
0
40
0
40
1
40
1
40
1
10
17.448840066790581
20
147.10095524787903
30
0
10
17.448840066790581
20
147.80354738235474
30
0
10
17.745566293597221
20
148.40723037719727
30
0
0
SPLINE
5
393
100
AcDbEntity
8
0
100
AcDbSpline
70
0
71
2
72
6
73
3
74
0
42
0.000000001
43
0.0000000001
44
0.0000000001
40
0
40
0
40
0
40
1
40
1
40
1
10
17.745566293597221
20
148.40723037719727
30
0
10
18.042291924357414
20
149.01091456413269
30
0
10
18.47885362803936
20
149.33833599090576
30
0
0
SPLINE
5
394
100
AcDbEntity
8
0
100
AcDbSpline
70
0
71
2
72
6
73
3
74
0
42
0.000000001
43
0.0000000001
44
0.0000000001
40
0
40
0
40
0
40
1
40
1
40
1
10
-16.909961774945259
20
150.17053246498108
30
0
10
-15.552525594830513
20
150.17053246498108
30
0
10
-14.635062292218208
20
149.77489829063416
30
0
0
SPLINE
5
395
100
AcDbEntity
8
0
100
AcDbSpline
70
0
71
2
72
6
73
3
74
0
42
0.000000001
43
0.0000000001
44
0.0000000001
40
0
40
0
40
0
40
1
40
1
40
1
10
-14.635062292218208
20
149.77489829063416
30
0
10
-13.717598989605904
20
149.37926292419434
30
0
10
-13.195772245526314
20
148.58458399772644
30
0
0
SPLINE
5
396
100
AcDbEntity
8
0
100
AcDbSpline
70
0
71
2
72
6
73
3
74
0
42
0.000000001
43
0.0000000001
44
0.0000000001
40
0
40
0
40
0
40
1
40
1
40
1
10
-13.195772245526314
20
148.58458399772644
30
0
10
-12.673943117260933
20
147.78990507125854
30
0
10
-12.64665849506855
20
146.78717613220215
30
0
0
LINE
5
397
100
AcDbEntity
8
0
100
AcDbLine
10
-12.64665849506855
20
146.78717613220215
30
0
11
-13.894953802227974
21
146.67803585529327
31
0
0
SPLINE
5
398
100
AcDbEntity
8
0
100
AcDbSpline
70
0
71
2
72
6
73
3
74
0
42
0.000000001
43
0.0000000001
44
0.0000000001
40
0
40
0
40
0
40
1
40
1
40
1
10
-13.894953802227974
20
146.67803585529327
30
0
10
-13.983631208539009
20
147.4283766746521
30
0
10
-14.307642057538033
20
147.90927767753601
30
0
0
SPLINE
5
399
100
AcDbEntity
8
0
100
AcDbSpline
70
0
71
2
72
6
73
3
74
0
42
0.000000001
43
0.0000000001
44
0.0000000001
40
0
40
0
40
0
40
1
40
1
40
1
10
-14.307642057538033
20
147.90927767753601
30
0
10
-14.631652906537056
20
148.39017748832703
30
0
10
-15.31377799808979
20
148.68690371513367
30
0
0
SPLINE
5
400
100
AcDbEntity
8
0
100
AcDbSpline
70
0
71
2
72
6
73
3
74
0
42
0.000000001
43
0.0000000001
44
0.0000000001
40
0
40
0
40
0
40
1
40
1
40
1
10
-15.31377799808979
20
148.68690371513367
30
0
10
-15.995907858014107
20
148.98362874984741
30
0
10
-16.848568990826607
20
148.98362874984741
30
0
0
SPLINE
5
401
100
AcDbEntity
8
0
100
AcDbSpline
70
0
71
2
72
6
73
3
74
0
42
0.000000001
43
0.0000000001
44
0.0000000001
40
0
40
0
40
0
40
1
40
1
40
1
10
-16.848568990826607
20
148.98362874984741
30
0
10
-17.605729177594185
20
148.98362874984741
30
0
10
-18.185539320111275
20
148.75852704048157
30
0
0
SPLINE
5
402
100
AcDbEntity
8
0
100
AcDbSpline
70
0
71
2
72
6
73
3
74
0
42
0.000000001
43
0.0000000001
44
0.0000000001
40
0
40
0
40
0
40
1
40
1
40
1
10
-18.185539320111275
20
148.75852704048157
30
0
10
-18.765349462628365
20
148.53342413902283
30
0
10
-19.048433378338814
20
148.14120054244995
30
0
0
SPLINE
5
403
100
AcDbEntity
8
0
100
AcDbSpline
70
0
71
2
72
6
73
3
74
0
42
0.000000001
43
0.0000000001
44
0.0000000001
40
0
40
0
40
0
40
1
40
1
40
1
10
-19.048433378338814
20
148.14120054244995
30
0
10
-19.331517294049263
20
147.74897694587708
30
0
10
-19.331517294049263
20
147.2851300239563
30
0
0
SPLINE
5
404
100
AcDbEntity
8
0
100
AcDbSpline
70
0
71
2
72
6
73
3
74
0
42
0.000000001
43
0.0000000001
44
0.0000000001
40
0
40
0
40
0
40
1
40
1
40
1
10
-19.331517294049263
20
147.2851300239563
30
0
10
-19.331517294049263
20
146.81446135044098
30
0
10
-19.058661535382271
20
146.46316528320312
30
0
0
SPLINE
5
405
100
AcDbEntity
8
0
100
AcDbSpline
70
0
71
2
72
6
73
3
74
0
42
0.000000001
43
0.0000000001
44
0.0000000001
40
0
40
0
40
0
40
1
40
1
40
1
10
-19.058661535382271
20
146.46316528320312
30
0
10
-18.785815313458443
20
146.11186981201172
30
0
10
-18.158254697918892
20
145.87312459945679
30
0
0
SPLINE
5
406
100
AcDbEntity
8
0
100
AcDbSpline
70
0
71
2
72
6
73
3
74
0
42
0.000000001
43
0.0000000001
44
0.0000000001
40
0
40
0
40
0
40
1
40
1
40
1
10
-18.158254697918892
20
145.87312459945679
30
0
10
-17.755799368023872
20
145.71623504161835
30
0
10
-16.37790210545063
20
145.38540303707123
30
0
0
SPLINE
5
407
100
AcDbEntity
8
0
100
AcDbSpline
70
0
71
2
72
6
73
3
74
0
42
0.000000001
43
0.0000000001
44
0.0000000001
40
0
40
0
40
0
40
1
40
1
40
1
10
-16.37790210545063
20
145.38540303707123
30
0
10
-15.000000074505806
20
145.05457043647766
30
0
10
-14.447479322552681
20
144.76125538349152
30
0
0
SPLINE
5
408
100
AcDbEntity
8
0
100
AcDbSpline
70
0
71
2
72
6
73
3
74
0
42
0.000000001
43
0.0000000001
44
0.0000000001
40
0
40
0
40
0
40
1
40
1
40
1
10
-14.447479322552681
20
144.76125538349152
30
0
10
-13.731241300702095
20
144.38608467578888
30
0
10
-13.379945829510689
20
143.83015036582947
30
0
0
SPLINE
5
409
100
AcDbEntity
8
0
100
AcDbSpline
70
0
71
2
72
6
73
3
74
0
42
0.000000001
43
0.0000000001
44
0.0000000001
40
0
40
0
40
0
40
1
40
1
40
1
10
-13.379945829510689
20
143.83015036582947
30
0
10
-13.028650358319283
20
143.27421605587006
30
0
10
-13.028650358319283
20
142.58526623249054
30
0
0
SPLINE
5
410
100
AcDbEntity
8
0
100
AcDbSpline
70
0
71
2
72
6
73
3
74
0
42
0.000000001
43
0.0000000001
44
0.0000000001
40
0
40
0
40
0
40
1
40
1
40
1
10
-13.028650358319283
20
142.58526623249054
30
0
10
-13.028650358319283
20
141.82810425758362
30
0
10
-13.458390310406685
20
141.16985023021698
30
0
0
SPLINE
5
411
100
AcDbEntity
8
0
100
AcDbSpline
70
0
71
2
72
6
73
3
74
0
42
0.000000001
43
0.0000000001
44
0.0000000001
40
0
40
0
40
0
40
1
40
1
40
1
10
-13.458390310406685
20
141.16985023021698
30
0
10
-13.888132646679878
20
140.51159679889679
30
0
10
-14.713506773114204
20
140.17053246498108
30
0
0
SPLINE
5
412
100
AcDbEntity
8
0
100
AcDbSpline
70
0
71
2
72
6
73
3
74
0
42
0.000000001
43
0.0000000001
44
0.0000000001
40
0
40
0
40
0
40
1
40
1
40
1
10
-14.713506773114204
20
140.17053246498108
30
0
10
-15.538883283734322
20
139.82946872711182
30
0
10
-16.548433378338814
20
139.82946872711182
30
0
0
SPLINE
5
413
100
AcDbEntity
8
0
100
AcDbSpline
70
0
71
2
72
6
73
3
74
0
42
0.000000001
43
0.0000000001
44
0.0000000001
40
0
40
0
40
0
40
1
40
1
40
1
10
-16.548433378338814
20
139.82946872711182
30
0
10
-17.660298421978951
20
139.82946872711182
30
0
10
-18.509550169110298
20
140.18758594989777
30
0
0
SPLINE
5
414
100
AcDbEntity
8
0
100
AcDbSpline
70
0
71
2
72
6
73
3
74
0
42
0.000000001
43
0.0000000001
44
0.0000000001
40
0
40
0
40
0
40
1
40
1
40
1
10
-18.509550169110298
20
140.18758594989777
30
0
10
-19.358801916241646
20
140.54570317268372
30
0
10
-19.815826490521431
20
141.24147415161133
30
0
0
SPLINE
5
415
100
AcDbEntity
8
0
100
AcDbSpline
70
0
71
2
72
6
73
3
74
0
42
0.000000001
43
0.0000000001
44
0.0000000001
40
0
40
0
40
0
40
1
40
1
40
1
10
-19.815826490521431
20
141.24147415161133
30
0
10
-20.272851064801216
20
141.93724453449249
30
0
10
-20.306959226727486
20
142.81719028949738
30
0
0
LINE
5
416
100
AcDbEntity
8
0
100
AcDbLine
10
-20.306959226727486
20
142.81719028949738
30
0
11
-19.038200452923775
21
142.91268825531006
31
0
0
SPLINE
5
417
100
AcDbEntity
8
0
100
AcDbSpline
70
0
71
2
72
6
73
3
74
0
42
0.000000001
43
0.0000000001
44
0.0000000001
40
0
40
0
40
0
40
1
40
1
40
1
10
-19.038200452923775
20
142.91268825531006
30
0
10
-18.935880735516548
20
141.96452975273132
30
0
10
-18.345837667584419
20
141.48021876811981
30
0
0
SPLINE
5
418
100
AcDbEntity
8
0
100
AcDbSpline
70
0
71
2
72
6
73
3
74
0
42
0.000000001
43
0.0000000001
44
0.0000000001
40
0
40
0
40
0
40
1
40
1
40
1
10
-18.345837667584419
20
141.48021876811981
30
0
10
-17.755799368023872
20
140.9959077835083
30
0
10
-16.603002622723579
20
140.9959077835083
30
0
0
SPLINE
5
419
100
AcDbEntity
8
0
100
AcDbSpline
70
0
71
2
72
6
73
3
74
0
42
0.000000001
43
0.0000000001
44
0.0000000001
40
0
40
0
40
0
40
1
40
1
40
1
10
-16.603002622723579
20
140.9959077835083
30
0
10
-15.402455404400826
20
140.9959077835083
30
0
10
-14.853344038128853
20
141.43588066101074
30
0
0
SPLINE
5
420
100
AcDbEntity
8
0
100
AcDbSpline
70
0
71
2
72
6
73
3
74
0
42
0.000000001
43
0.0000000001
44
0.0000000001
40
0
40
0
40
0
40
1
40
1
40
1
10
-14.853344038128853
20
141.43588066101074
30
0
10
-14.304227903485298
20
141.87585294246674
30
0
10
-14.304227903485298
20
142.4965900182724
30
0
0
SPLINE
5
421
100
AcDbEntity
8
0
100
AcDbSpline
70
0
71
2
72
6
73
3
74
0
42
0.000000001
43
0.0000000001
44
0.0000000001
40
0
40
0
40
0
40
1
40
1
40
1
10
-14.304227903485298
20
142.4965900182724
30
0
10
-14.304227903485298
20
143.03547084331512
30
0
10
-14.693040922284126
20
143.38335633277893
30
0
0
SPLINE
5
422
100
AcDbEntity
8
0
100
AcDbSpline
70
0
71
2
72
6
73
3
74
0
42
0.000000001
43
0.0000000001
44
0.0000000001
40
0
40
0
40
0
40
1
40
1
40
1
10
-14.693040922284126
20
143.38335633277893
30
0
10
-15.07503516972065
20
143.73124182224274
30
0
10
-16.68826587498188
20
144.09618020057678
30
0
0
SPLINE
5
423
100
AcDbEntity
8
0
100
AcDbSpline
70
0
71
2
72
6
73
3
74
0
42
0.000000001
43
0.0000000001
44
0.0000000001
40
0
40
0
40
0
40
1
40
1
40
1
10
-16.68826587498188
20
144.09618020057678
30
0
10
-18.301501348614693
20
144.46111917495728
30
0
10
-18.901772573590279
20
144.73397016525269
30
0
0
SPLINE
5
424
100
AcDbEntity
8
0
100
AcDbSpline
70
0
71
2
72
6
73
3
74
0
42
0.000000001
43
0.0000000001
44
0.0000000001
40
0
40
0
40
0
40
1
40
1
40
1
10
-18.901772573590279
20
144.73397016525269
30
0
10
-19.774899557232857
20
145.1364266872406
30
0
10
-20.190997198224068
20
145.75375199317932
30
0
0
SPLINE
5
425
100
AcDbEntity
8
0
100
AcDbSpline
70
0
71
2
72
6
73
3
74
0
42
0.000000001
43
0.0000000001
44
0.0000000001
40
0
40
0
40
0
40
1
40
1
40
1
10
-20.190997198224068
20
145.75375199317932
30
0
10
-20.607094839215279
20
146.37107849121094
30
0
10
-20.607094839215279
20
147.17598915100098
30
0
0
SPLINE
5
426
100
AcDbEntity
8
0
100
AcDbSpline
70
0
71
2
72
6
73
3
74
0
42
0.000000001
43
0.0000000001
44
0.0000000001
40
0
40
0
40
0
40
1
40
1
40
1
10
-20.607094839215279
20
147.17598915100098
30
0
10
-20.607094839215279
20
147.97407984733582
30
0
10
-20.150070264935493
20
148.68008255958557
30
0
0
SPLINE
5
427
100
AcDbEntity
8
0
100
AcDbSpline
70
0
71
2
72
6
73
3
74
0
42
0.000000001
43
0.0000000001
44
0.0000000001
40
0
40
0
40
0
40
1
40
1
40
1
10
-20.150070264935493
20
148.68008255958557
30
0
10
-19.693045690655708
20
149.38608407974243
30
0
10
-18.836970403790474
20
149.7783088684082
30
0
0
SPLINE
5
428
100
AcDbEntity
8
0
100
AcDbSpline
70
0
71
2
72
6
73
3
74
0
42
0.000000001
43
0.0000000001
44
0.0000000001
40
0
40
0
40
0
40
1
40
1
40
1
10
-18.836970403790474
20
149.7783088684082
30
0
10
-17.980899885296822
20
150.17053246498108
30
0
10
-16.909961774945259
20
150.17053246498108
30
0
0
LWPOLYLINE
5
429
100
AcDbEntity
8
0
100
AcDbPolyline
90
4
70
1
43
0.0
10
70
20
160
10
-70
20
160
10
-50
20
130
10
50
20
130
0
SPLINE
5
430
100
AcDbEntity
8
0
100
AcDbSpline
70
0
71
2
72
6
73
3
74
0
42
0.000000001
43
0.0000000001
44
0.0000000001
40
0
40
0
40
0
40
1
40
1
40
1
10
-14.307642057538033
20
147.90927767753601
30
0
10
-14.631652906537056
20
148.39017748832703
30
0
10
-15.31377799808979
20
148.68690371513367
30
0
0
SPLINE
5
431
100
AcDbEntity
8
0
100
AcDbSpline
70
0
71
2
72
6
73
3
74
0
42
0.000000001
43
0.0000000001
44
0.0000000001
40
-1
40
-1
40
-1
40
0
40
0
40
0
10
-15.31377799808979
20
148.68690371513367
30
0
10
-14.631652906537056
20
148.39017748832703
30
0
10
-14.307642057538033
20
147.90927767753601
30
0
0
SPLINE
5
432
100
AcDbEntity
8
0
100
AcDbSpline
70
0
71
2
72
6
73
3
74
0
42
0.000000001
43
0.0000000001
44
0.0000000001
40
0
40
0
40
0
40
1
40
1
40
1
10
-13.894953802227974
20
146.67803585529327
30
0
10
-13.983631208539009
20
147.4283766746521
30
0
10
-14.307642057538033
20
147.90927767753601
30
0
0
SPLINE
5
433
100
AcDbEntity
8
0
100
AcDbSpline
70
0
71
2
72
6
73
3
74
0
42
0.000000001
43
0.0000000001
44
0.0000000001
40
-1
40
-1
40
-1
40
0
40
0
40
0
10
-14.307642057538033
20
147.90927767753601
30
0
10
-13.983631208539009
20
147.4283766746521
30
0
10
-13.894953802227974
20
146.67803585529327
30
0
0
SPLINE
5
434
100
AcDbEntity
8
0
100
AcDbSpline
70
0
71
2
72
6
73
3
74
0
42
0.000000001
43
0.0000000001
44
0.0000000001
40
0
40
0
40
0
40
1
40
1
40
1
10
-18.185539320111275
20
148.75852704048157
30
0
10
-18.765349462628365
20
148.53342413902283
30
0
10
-19.048433378338814
20
148.14120054244995
30
0
0
SPLINE
5
435
100
AcDbEntity
8
0
100
AcDbSpline
70
0
71
2
72
6
73
3
74
0
42
0.000000001
43
0.0000000001
44
0.0000000001
40
-1
40
-1
40
-1
40
0
40
0
40
0
10
-19.048433378338814
20
148.14120054244995
30
0
10
-18.765349462628365
20
148.53342413902283
30
0
10
-18.185539320111275
20
148.75852704048157
30
0
0
SPLINE
5
436
100
AcDbEntity
8
0
100
AcDbSpline
70
0
71
2
72
6
73
3
74
0
42
0.000000001
43
0.0000000001
44
0.0000000001
40
0
40
0
40
0
40
1
40
1
40
1
10
-19.048433378338814
20
148.14120054244995
30
0
10
-19.331517294049263
20
147.74897694587708
30
0
10
-19.331517294049263
20
147.2851300239563
30
0
0
SPLINE
5
437
100
AcDbEntity
8
0
100
AcDbSpline
70
0
71
2
72
6
73
3
74
0
42
0.000000001
43
0.0000000001
44
0.0000000001
40
-1
40
-1
40
-1
40
0
40
0
40
0
10
-19.331517294049263
20
147.2851300239563
30
0
10
-19.331517294049263
20
147.74897694587708
30
0
10
-19.048433378338814
20
148.14120054244995
30
0
0
SPLINE
5
438
100
AcDbEntity
8
0
100
AcDbSpline
70
0
71
2
72
6
73
3
74
0
42
0.000000001
43
0.0000000001
44
0.0000000001
40
0
40
0
40
0
40
1
40
1
40
1
10
-15.31377799808979
20
148.68690371513367
30
0
10
-15.995907858014107
20
148.98362874984741
30
0
10
-16.848568990826607
20
148.98362874984741
30
0
0
SPLINE
5
439
100
AcDbEntity
8
0
100
AcDbSpline
70
0
71
2
72
6
73
3
74
0
42
0.000000001
43
0.0000000001
44
0.0000000001
40
-1
40
-1
40
-1
40
0
40
0
40
0
10
-16.848568990826607
20
148.98362874984741
30
0
10
-15.995907858014107
20
148.98362874984741
30
0
10
-15.31377799808979
20
148.68690371513367
30
0
0
SPLINE
5
440
100
AcDbEntity
8
0
100
AcDbSpline
70
0
71
2
72
6
73
3
74
0
42
0.000000001
43
0.0000000001
44
0.0000000001
40
0
40
0
40
0
40
1
40
1
40
1
10
-16.848568990826607
20
148.98362874984741
30
0
10
-17.605729177594185
20
148.98362874984741
30
0
10
-18.185539320111275
20
148.75852704048157
30
0
0
SPLINE
5
441
100
AcDbEntity
8
0
100
AcDbSpline
70
0
71
2
72
6
73
3
74
0
42
0.000000001
43
0.0000000001
44
0.0000000001
40
-1
40
-1
40
-1
40
0
40
0
40
0
10
-18.185539320111275
20
148.75852704048157
30
0
10
-17.605729177594185
20
148.98362874984741
30
0
10
-16.848568990826607
20
148.98362874984741
30
0
0
SPLINE
5
442
100
AcDbEntity
8
0
100
AcDbSpline
70
0
71
2
72
6
73
3
74
0
42
0.000000001
43
0.0000000001
44
0.0000000001
40
0
40
0
40
0
40
1
40
1
40
1
10
-16.68826587498188
20
144.09618020057678
30
0
10
-18.301501348614693
20
144.46111917495728
30
0
10
-18.901772573590279
20
144.73397016525269
30
0
0
SPLINE
5
443
100
AcDbEntity
8
0
100
AcDbSpline
70
0
71
2
72
6
73
3
74
0
42
0.000000001
43
0.0000000001
44
0.0000000001
40
-1
40
-1
40
-1
40
0
40
0
40
0
10
-18.901772573590279
20
144.73397016525269
30
0
10
-18.301501348614693
20
144.46111917495728
30
0
10
-16.68826587498188
20
144.09618020057678
30
0
0
SPLINE
5
444
100
AcDbEntity
8
0
100
AcDbSpline
70
0
71
2
72
6
73
3
74
0
42
0.000000001
43
0.0000000001
44
0.0000000001
40
0
40
0
40
0
40
1
40
1
40
1
10
-14.693040922284126
20
143.38335633277893
30
0
10
-15.07503516972065
20
143.73124182224274
30
0
10
-16.68826587498188
20
144.09618020057678
30
0
0
SPLINE
5
445
100
AcDbEntity
8
0
100
AcDbSpline
70
0
71
2
72
6
73
3
74
0
42
0.000000001
43
0.0000000001
44
0.0000000001
40
-1
40
-1
40
-1
40
0
40
0
40
0
10
-16.68826587498188
20
144.09618020057678
30
0
10
-15.07503516972065
20
143.73124182224274
30
0
10
-14.693040922284126
20
143.38335633277893
30
0
0
LWPOLYLINE
5
446
100
AcDbEntity
8
0
100
AcDbPolyline
90
2
70
1
43
0.0
10
-13.894953802227974
20
146.67803585529327
10
-12.64665849506855
20
146.78717613220215
0
SPLINE
5
447
100
AcDbEntity
8
0
100
AcDbSpline
70
0
71
2
72
6
73
3
74
0
42
0.000000001
43
0.0000000001
44
0.0000000001
40
0
40
0
40
0
40
1
40
1
40
1
10
-13.195772245526314
20
148.58458399772644
30
0
10
-12.673943117260933
20
147.78990507125854
30
0
10
-12.64665849506855
20
146.78717613220215
30
0
0
SPLINE
5
448
100
AcDbEntity
8
0
100
AcDbSpline
70
0
71
2
72
6
73
3
74
0
42
0.000000001
43
0.0000000001
44
0.0000000001
40
-1
40
-1
40
-1
40
0
40
0
40
0
10
-12.64665849506855
20
146.78717613220215
30
0
10
-12.673943117260933
20
147.78990507125854
30
0
10
-13.195772245526314
20
148.58458399772644
30
0
0
SPLINE
5
449
100
AcDbEntity
8
0
100
AcDbSpline
70
0
71
2
72
6
73
3
74
0
42
0.000000001
43
0.0000000001
44
0.0000000001
40
0
40
0
40
0
40
1
40
1
40
1
10
-16.37790210545063
20
145.38540303707123
30
0
10
-15.000000074505806
20
145.05457043647766
30
0
10
-14.447479322552681
20
144.76125538349152
30
0
0
SPLINE
5
450
100
AcDbEntity
8
0
100
AcDbSpline
70
0
71
2
72
6
73
3
74
0
42
0.000000001
43
0.0000000001
44
0.0000000001
40
-1
40
-1
40
-1
40
0
40
0
40
0
10
-14.447479322552681
20
144.76125538349152
30
0
10
-15.000000074505806
20
145.05457043647766
30
0
10
-16.37790210545063
20
145.38540303707123
30
0
0
SPLINE
5
451
100
AcDbEntity
8
0
100
AcDbSpline
70
0
71
2
72
6
73
3
74
0
42
0.000000001
43
0.0000000001
44
0.0000000001
40
0
40
0
40
0
40
1
40
1
40
1
10
-14.447479322552681
20
144.76125538349152
30
0
10
-13.731241300702095
20
144.38608467578888
30
0
10
-13.379945829510689
20
143.83015036582947
30
0
0
SPLINE
5
452
100
AcDbEntity
8
0
100
AcDbSpline
70
0
71
2
72
6
73
3
74
0
42
0.000000001
43
0.0000000001
44
0.0000000001
40
-1
40
-1
40
-1
40
0
40
0
40
0
10
-13.379945829510689
20
143.83015036582947
30
0
10
-13.731241300702095
20
144.38608467578888
30
0
10
-14.447479322552681
20
144.76125538349152
30
0
0
SPLINE
5
453
100
AcDbEntity
8
0
100
AcDbSpline
70
0
71
2
72
6
73
3
74
0
42
0.000000001
43
0.0000000001
44
0.0000000001
40
0
40
0
40
0
40
1
40
1
40
1
10
-18.158254697918892
20
145.87312459945679
30
0
10
-17.755799368023872
20
145.71623504161835
30
0
10
-16.37790210545063
20
145.38540303707123
30
0
0
SPLINE
5
454
100
AcDbEntity
8
0
100
AcDbSpline
70
0
71
2
72
6
73
3
74
0
42
0.000000001
43
0.0000000001
44
0.0000000001
40
-1
40
-1
40
-1
40
0
40
0
40
0
10
-16.37790210545063
20
145.38540303707123
30
0
10
-17.755799368023872
20
145.71623504161835
30
0
10
-18.158254697918892
20
145.87312459945679
30
0
0
SPLINE
5
455
100
AcDbEntity
8
0
100
AcDbSpline
70
0
71
2
72
6
73
3
74
0
42
0.000000001
43
0.0000000001
44
0.0000000001
40
0
40
0
40
0
40
1
40
1
40
1
10
-19.058661535382271
20
146.46316528320312
30
0
10
-18.785815313458443
20
146.11186981201172
30
0
10
-18.158254697918892
20
145.87312459945679
30
0
0
SPLINE
5
456
100
AcDbEntity
8
0
100
AcDbSpline
70
0
71
2
72
6
73
3
74
0
42
0.000000001
43
0.0000000001
44
0.0000000001
40
-1
40
-1
40
-1
40
0
40
0
40
0
10
-18.158254697918892
20
145.87312459945679
30
0
10
-18.785815313458443
20
146.11186981201172
30
0
10
-19.058661535382271
20
146.46316528320312
30
0
0
SPLINE
5
457
100
AcDbEntity
8
0
100
AcDbSpline
70
0
71
2
72
6
73
3
74
0
42
0.000000001
43
0.0000000001
44
0.0000000001
40
0
40
0
40
0
40
1
40
1
40
1
10
-19.331517294049263
20
147.2851300239563
30
0
10
-19.331517294049263
20
146.81446135044098
30
0
10
-19.058661535382271
20
146.46316528320312
30
0
0
SPLINE
5
458
100
AcDbEntity
8
0
100
AcDbSpline
70
0
71
2
72
6
73
3
74
0
42
0.000000001
43
0.0000000001
44
0.0000000001
40
-1
40
-1
40
-1
40
0
40
0
40
0
10
-19.058661535382271
20
146.46316528320312
30
0
10
-19.331517294049263
20
146.81446135044098
30
0
10
-19.331517294049263
20
147.2851300239563
30
0
0
SPLINE
5
459
100
AcDbEntity
8
0
100
AcDbSpline
70
0
71
2
72
6
73
3
74
0
42
0.000000001
43
0.0000000001
44
0.0000000001
40
0
40
0
40
0
40
1
40
1
40
1
10
-18.901772573590279
20
144.73397016525269
30
0
10
-19.774899557232857
20
145.1364266872406
30
0
10
-20.190997198224068
20
145.75375199317932
30
0
0
SPLINE
5
460
100
AcDbEntity
8
0
100
AcDbSpline
70
0
71
2
72
6
73
3
74
0
42
0.000000001
43
0.0000000001
44
0.0000000001
40
-1
40
-1
40
-1
40
0
40
0
40
0
10
-20.190997198224068
20
145.75375199317932
30
0
10
-19.774899557232857
20
145.1364266872406
30
0
10
-18.901772573590279
20
144.73397016525269
30
0
0
SPLINE
5
461
100
AcDbEntity
8
0
100
AcDbSpline
70
0
71
2
72
6
73
3
74
0
42
0.000000001
43
0.0000000001
44
0.0000000001
40
0
40
0
40
0
40
1
40
1
40
1
10
-16.909961774945259
20
150.17053246498108
30
0
10
-15.552525594830513
20
150.17053246498108
30
0
10
-14.635062292218208
20
149.77489829063416
30
0
0
SPLINE
5
462
100
AcDbEntity
8
0
100
AcDbSpline
70
0
71
2
72
6
73
3
74
0
42
0.000000001
43
0.0000000001
44
0.0000000001
40
-1
40
-1
40
-1
40
0
40
0
40
0
10
-14.635062292218208
20
149.77489829063416
30
0
10
-15.552525594830513
20
150.17053246498108
30
0
10
-16.909961774945259
20
150.17053246498108
30
0
0
SPLINE
5
463
100
AcDbEntity
8
0
100
AcDbSpline
70
0
71
2
72
6
73
3
74
0
42
0.000000001
43
0.0000000001
44
0.0000000001
40
0
40
0
40
0
40
1
40
1
40
1
10
-20.190997198224068
20
145.75375199317932
30
0
10
-20.607094839215279
20
146.37107849121094
30
0
10
-20.607094839215279
20
147.17598915100098
30
0
0
SPLINE
5
464
100
AcDbEntity
8
0
100
AcDbSpline
70
0
71
2
72
6
73
3
74
0
42
0.000000001
43
0.0000000001
44
0.0000000001
40
-1
40
-1
40
-1
40
0
40
0
40
0
10
-20.607094839215279
20
147.17598915100098
30
0
10
-20.607094839215279
20
146.37107849121094
30
0
10
-20.190997198224068
20
145.75375199317932
30
0
0
SPLINE
5
465
100
AcDbEntity
8
0
100
AcDbSpline
70
0
71
2
72
6
73
3
74
0
42
0.000000001
43
0.0000000001
44
0.0000000001
40
0
40
0
40
0
40
1
40
1
40
1
10
-20.607094839215279
20
147.17598915100098
30
0
10
-20.607094839215279
20
147.97407984733582
30
0
10
-20.150070264935493
20
148.68008255958557
30
0
0
SPLINE
5
466
100
AcDbEntity
8
0
100
AcDbSpline
70
0
71
2
72
6
73
3
74
0
42
0.000000001
43
0.0000000001
44
0.0000000001
40
-1
40
-1
40
-1
40
0
40
0
40
0
10
-20.150070264935493
20
148.68008255958557
30
0
10
-20.607094839215279
20
147.97407984733582
30
0
10
-20.607094839215279
20
147.17598915100098
30
0
0
SPLINE
5
467
100
AcDbEntity
8
0
100
AcDbSpline
70
0
71
2
72
6
73
3
74
0
42
0.000000001
43
0.0000000001
44
0.0000000001
40
0
40
0
40
0
40
1
40
1
40
1
10
-20.150070264935493
20
148.68008255958557
30
0
10
-19.693045690655708
20
149.38608407974243
30
0
10
-18.836970403790474
20
149.7783088684082
30
0
0
SPLINE
5
468
100
AcDbEntity
8
0
100
AcDbSpline
70
0
71
2
72
6
73
3
74
0
42
0.000000001
43
0.0000000001
44
0.0000000001
40
-1
40
-1
40
-1
40
0
40
0
40
0
10
-18.836970403790474
20
149.7783088684082
30
0
10
-19.693045690655708
20
149.38608407974243
30
0
10
-20.150070264935493
20
148.68008255958557
30
0
0
SPLINE
5
469
100
AcDbEntity
8
0
100
AcDbSpline
70
0
71
2
72
6
73
3
74
0
42
0.000000001
43
0.0000000001
44
0.0000000001
40
0
40
0
40
0
40
1
40
1
40
1
10
-18.836970403790474
20
149.7783088684082
30
0
10
-17.980899885296822
20
150.17053246498108
30
0
10
-16.909961774945259
20
150.17053246498108
30
0
0
SPLINE
5
470
100
AcDbEntity
8
0
100
AcDbSpline
70
0
71
2
72
6
73
3
74
0
42
0.000000001
43
0.0000000001
44
0.0000000001
40
-1
40
-1
40
-1
40
0
40
0
40
0
10
-16.909961774945259
20
150.17053246498108
30
0
10
-17.980899885296822
20
150.17053246498108
30
0
10
-18.836970403790474
20
149.7783088684082
30
0
0
LWPOLYLINE
5
471
100
AcDbEntity
8
0
100
AcDbPolyline
90
2
70
1
43
0.0
10
70
20
160
10
-70
20
160
0
LWPOLYLINE
5
472
100
AcDbEntity
8
0
100
AcDbPolyline
90
2
70
1
43
0.0
10
-0.44338472187519073
20
150
10
-1.9508887082338333
20
150
0
LWPOLYLINE
5
473
100
AcDbEntity
8
0
100
AcDbPolyline
90
2
70
1
43
0.0
10
0.72305433452129364
20
146.97135090827942
10
-0.44338472187519073
20
150
0
LWPOLYLINE
5
474
100
AcDbEntity
8
0
100
AcDbPolyline
90
2
70
1
43
0.0
10
14.276943132281303
20
144.24283742904663
10
14.276943132281303
20
141.18008196353912
0
LWPOLYLINE
5
475
100
AcDbEntity
8
0
100
AcDbPolyline
90
2
70
1
43
0.0
10
8.7448834627866745
20
144.24283742904663
10
14.276943132281303
20
144.24283742904663
0
LWPOLYLINE
5
476
100
AcDbEntity
8
0
100
AcDbPolyline
90
2
70
1
43
0.0
10
14.276943132281303
20
145.41609823703766
10
8.7448834627866745
20
145.41609823703766
0
LWPOLYLINE
5
477
100
AcDbEntity
8
0
100
AcDbPolyline
90
2
70
1
43
0.0
10
14.276943132281303
20
148.81991863250732
10
14.276943132281303
20
145.41609823703766
0
LWPOLYLINE
5
478
100
AcDbEntity
8
0
100
AcDbPolyline
90
2
70
1
43
0.0
10
8.3697127550840378
20
140
10
15.600272342562675
20
140
0
LWPOLYLINE
5
479
100
AcDbEntity
8
0
100
AcDbPolyline
90
2
70
1
43
0.0
10
8.1377886980772018
20
150
10
8.1377886980772018
20
148.81991863250732
0
LWPOLYLINE
5
480
100
AcDbEntity
8
0
100
AcDbPolyline
90
2
70
1
43
0.0
10
14.276943132281303
20
141.18008196353912
10
8.3697127550840378
20
141.18008196353912
0
LWPOLYLINE
5
481
100
AcDbEntity
8
0
100
AcDbPolyline
90
2
70
1
43
0.0
10
8.1377886980772018
20
148.81991863250732
10
14.276943132281303
20
148.81991863250732
0
LWPOLYLINE
5
482
100
AcDbEntity
8
0
100
AcDbPolyline
90
2
70
1
43
0.0
10
8.7448834627866745
20
145.41609823703766
10
8.7448834627866745
20
144.24283742904663
0
LWPOLYLINE
5
483
100
AcDbEntity
8
0
100
AcDbPolyline
90
2
70
1
43
0.0
10
15.600272342562675
20
150
10
8.1377886980772018
20
150
0
LWPOLYLINE
5
484
100
AcDbEntity
8
0
100
AcDbPolyline
90
2
70
1
43
0.0
10
6.0027288645505905
20
150
10
4.9045013636350632
20
146.97135090827942
0
LWPOLYLINE
5
485
100
AcDbEntity
8
0
100
AcDbPolyline
90
2
70
1
43
0.0
10
7.407911941409111
20
150
10
6.0027288645505905
20
150
0
LWPOLYLINE
5
486
100
AcDbEntity
8
0
100
AcDbPolyline
90
2
70
1
43
0.0
10
3.5675286501646042
20
140
10
7.407911941409111
20
150
0
LWPOLYLINE
5
487
100
AcDbEntity
8
0
100
AcDbPolyline
90
2
70
1
43
0.0
10
15.600272342562675
20
140
10
15.600272342562675
20
150
0
SPLINE
5
488
100
AcDbEntity
8
0
100
AcDbSpline
70
0
71
2
72
6
73
3
74
0
42
0.000000001
43
0.0000000001
44
0.0000000001
40
0
40
0
40
0
40
1
40
1
40
1
10
19.409959241747856
20
140.30354678630829
30
0
10
18.717598840594292
20
140.60709416866302
30
0
10
18.325375244021416
20
141.23806297779083
30
0
0
SPLINE
5
489
100
AcDbEntity
8
0
100
AcDbSpline
70
0
71
2
72
6
73
3
74
0
42
0.000000001
43
0.0000000001
44
0.0000000001
40
-1
40
-1
40
-1
40
0
40
0
40
0
10
18.325375244021416
20
141.23806297779083
30
0
10
18.717598840594292
20
140.60709416866302
30
0
10
19.409959241747856
20
140.30354678630829
30
0
0
SPLINE
5
490
100
AcDbEntity
8
0
100
AcDbSpline
70
0
71
2
72
6
73
3
74
0
42
0.000000001
43
0.0000000001
44
0.0000000001
40
0
40
0
40
0
40
1
40
1
40
1
10
19.331514164805412
20
144.67939972877502
30
0
10
18.424283787608147
20
144.94542956352234
30
0
10
17.936562225222588
20
145.58663010597229
30
0
0
SPLINE
5
491
100
AcDbEntity
8
0
100
AcDbSpline
70
0
71
2
72
6
73
3
74
0
42
0.000000001
43
0.0000000001
44
0.0000000001
40
-1
40
-1
40
-1
40
0
40
0
40
0
10
17.936562225222588
20
145.58663010597229
30
0
10
18.424283787608147
20
144.94542956352234
30
0
10
19.331514164805412
20
144.67939972877502
30
0
0
SPLINE
5
492
100
AcDbEntity
8
0
100
AcDbSpline
70
0
71
2
72
6
73
3
74
0
42
0.000000001
43
0.0000000001
44
0.0000000001
40
0
40
0
40
0
40
1
40
1
40
1
10
17.933151051402092
20
142.55798101425171
30
0
10
17.933151051402092
20
143.19918155670166
30
0
10
18.281036540865898
20
143.76534759998322
30
0
0
SPLINE
5
493
100
AcDbEntity
8
0
100
AcDbSpline
70
0
71
2
72
6
73
3
74
0
42
0.000000001
43
0.0000000001
44
0.0000000001
40
-1
40
-1
40
-1
40
0
40
0
40
0
10
18.281036540865898
20
143.76534759998322
30
0
10
17.933151051402092
20
143.19918155670166
30
0
10
17.933151051402092
20
142.55798101425171
30
0
0
SPLINE
5
494
100
AcDbEntity
8
0
100
AcDbSpline
70
0
71
2
72
6
73
3
74
0
42
0.000000001
43
0.0000000001
44
0.0000000001
40
0
40
0
40
0
40
1
40
1
40
1
10
18.325375244021416
20
141.23806297779083
30
0
10
17.933151051402092
20
141.86903119087219
30
0
10
17.933151051402092
20
142.55798101425171
30
0
0
SPLINE
5
495
100
AcDbEntity
8
0
100
AcDbSpline
70
0
71
2
72
6
73
3
74
0
42
0.000000001
43
0.0000000001
44
0.0000000001
40
-1
40
-1
40
-1
40
0
40
0
40
0
10
17.933151051402092
20
142.55798101425171
30
0
10
17.933151051402092
20
141.86903119087219
30
0
10
18.325375244021416
20
141.23806297779083
30
0
0
SPLINE
5
496
100
AcDbEntity
8
0
100
AcDbSpline
70
0
71
2
72
6
73
3
74
0
42
0.000000001
43
0.0000000001
44
0.0000000001
40
0
40
0
40
0
40
1
40
1
40
1
10
18.281036540865898
20
143.76534759998322
30
0
10
18.628922030329704
20
144.33151423931122
30
0
10
19.331514164805412
20
144.67939972877502
30
0
0
SPLINE
5
497
100
AcDbEntity
8
0
100
AcDbSpline
70
0
71
2
72
6
73
3
74
0
42
0.000000001
43
0.0000000001
44
0.0000000001
40
-1
40
-1
40
-1
40
0
40
0
40
0
10
19.331514164805412
20
144.67939972877502
30
0
10
18.628922030329704
20
144.33151423931122
30
0
10
18.281036540865898
20
143.76534759998322
30
0
0
LINE
5
498
100
AcDbEntity
8
0
100
AcDbLine
10
21.678035482764244
20
141.18008196353912
30
0
11
23.67667131125927
21
141.18008196353912
31
0
0
LINE
5
499
100
AcDbEntity
8
0
100
AcDbLine
10
23.67667131125927
20
141.18008196353912
30
0
11
23.67667131125927
21
144.20190989971161
31
0
0
LINE
5
500
100
AcDbEntity
8
0
100
AcDbLine
10
23.67667131125927
20
144.20190989971161
30
0
11
21.514324471354485
21
144.20190989971161
31
0
0
SPLINE
5
501
100
AcDbEntity
8
0
100
AcDbSpline
70
0
71
2
72
6
73
3
74
0
42
0.000000001
43
0.0000000001
44
0.0000000001
40
0
40
0
40
0
40
1
40
1
40
1
10
21.514324471354485
20
144.20190989971161
30
0
10
20.634379312396049
20
144.20190989971161
30
0
10
20.252387449145317
20
144.08594787120819
30
0
0
SPLINE
5
502
100
AcDbEntity
8
0
100
AcDbSpline
70
0
71
2
72
6
73
3
74
0
42
0.000000001
43
0.0000000001
44
0.0000000001
40
0
40
0
40
0
40
1
40
1
40
1
10
20.252387449145317
20
144.08594787120819
30
0
10
19.747612401843071
20
143.93588006496429
30
0
10
19.4918143004179
20
143.58799457550049
30
0
0
SPLINE
5
503
100
AcDbEntity
8
0
100
AcDbSpline
70
0
71
2
72
6
73
3
74
0
42
0.000000001
43
0.0000000001
44
0.0000000001
40
0
40
0
40
0
40
1
40
1
40
1
10
19.4918143004179
20
143.58799457550049
30
0
10
19.236016198992729
20
143.24010908603668
30
0
10
19.236016198992729
20
142.71487057209015
30
0
0
SPLINE
5
504
100
AcDbEntity
8
0
100
AcDbSpline
70
0
71
2
72
6
73
3
74
0
42
0.000000001
43
0.0000000001
44
0.0000000001
40
0
40
0
40
0
40
1
40
1
40
1
10
19.236016198992729
20
142.71487057209015
30
0
10
19.236016198992729
20
142.216916680336
30
0
10
19.474761411547661
20
141.83833539485931
30
0
0
SPLINE
5
505
100
AcDbEntity
8
0
100
AcDbSpline
70
0
71
2
72
6
73
3
74
0
42
0.000000001
43
0.0000000001
44
0.0000000001
40
0
40
0
40
0
40
1
40
1
40
1
10
19.474761411547661
20
141.83833539485931
30
0
10
19.713506028056145
20
141.45975410938263
30
0
10
20.156889483332634
20
141.31991803646088
30
0
0
SPLINE
5
506
100
AcDbEntity
8
0
100
AcDbSpline
70
0
71
2
72
6
73
3
74
0
42
0.000000001
43
0.0000000001
44
0.0000000001
40
0
40
0
40
0
40
1
40
1
40
1
10
20.156889483332634
20
141.31991803646088
30
0
10
20.600272938609123
20
141.18008196353912
30
0
10
21.678035482764244
20
141.18008196353912
30
0
0
LWPOLYLINE
5
507
100
AcDbEntity
8
0
100
AcDbPolyline
90
2
70
1
43
0.0
10
23.67667131125927
20
144.20190989971161
10
23.67667131125927
20
141.18008196353912
0
LINE
5
508
100
AcDbEntity
8
0
100
AcDbLine
10
23.67667131125927
20
141.18008196353912
30
0
11
21.678035482764244
21
141.18008196353912
31
0
0
SPLINE
5
509
100
AcDbEntity
8
0
100
AcDbSpline
70
0
71
2
72
6
73
3
74
0
42
0.000000001
43
0.0000000001
44
0.0000000001
40
-1
40
-1
40
-1
40
0
40
0
40
0
10
21.678035482764244
20
141.18008196353912
30
0
10
20.600272938609123
20
141.18008196353912
30
0
10
20.156889483332634
20
141.31991803646088
30
0
0
SPLINE
5
510
100
AcDbEntity
8
0
100
AcDbSpline
70
0
71
2
72
6
73
3
74
0
42
0.000000001
43
0.0000000001
44
0.0000000001
40
-1
40
-1
40
-1
40
0
40
0
40
0
10
20.156889483332634
20
141.31991803646088
30
0
10
19.713506028056145
20
141.45975410938263
30
0
10
19.474761411547661
20
141.83833539485931
30
0
0
SPLINE
5
511
100
AcDbEntity
8
0
100
AcDbSpline
70
0
71
2
72
6
73
3
74
0
42
0.000000001
43
0.0000000001
44
0.0000000001
40
-1
40
-1
40
-1
40
0
40
0
40
0
10
19.474761411547661
20
141.83833539485931
30
0
10
19.236016198992729
20
142.216916680336
30
0
10
19.236016198992729
20
142.71487057209015
30
0
0
SPLINE
5
512
100
AcDbEntity
8
0
100
AcDbSpline
70
0
71
2
72
6
73
3
74
0
42
0.000000001
43
0.0000000001
44
0.0000000001
40
-1
40
-1
40
-1
40
0
40
0
40
0
10
19.236016198992729
20
142.71487057209015
30
0
10
19.236016198992729
20
143.24010908603668
30
0
10
19.4918143004179
20
143.58799457550049
30
0
0
SPLINE
5
513
100
AcDbEntity
8
0
100
AcDbSpline
70
0
71
2
72
6
73
3
74
0
42
0.000000001
43
0.0000000001
44
0.0000000001
40
-1
40
-1
40
-1
40
0
40
0
40
0
10
19.4918143004179
20
143.58799457550049
30
0
10
19.747612401843071
20
143.93588006496429
30
0
10
20.252387449145317
20
144.08594787120819
30
0
0
SPLINE
5
514
100
AcDbEntity
8
0
100
AcDbSpline
70
0
71
2
72
6
73
3
74
0
42
0.000000001
43
0.0000000001
44
0.0000000001
40
-1
40
-1
40
-1
40
0
40
0
40
0
10
20.252387449145317
20
144.08594787120819
30
0
10
20.634379312396049
20
144.20190989971161
30
0
10
21.514324471354485
20
144.20190989971161
30
0
0
LINE
5
515
100
AcDbEntity
8
0
100
AcDbLine
10
21.514324471354488
20
144.20190989971161
30
0
11
23.67667131125927
21
144.20190989971161
31
0
0
LINE
5
516
100
AcDbEntity
8
0
100
AcDbLine
10
23.67667131125927
20
144.20190989971161
30
0
11
23.67667131125927
21
141.18008196353912
31
0
0
SPLINE
5
517
100
AcDbEntity
8
0
100
AcDbSpline
70
0
71
2
72
6
73
3
74
0
42
0.000000001
43
0.0000000001
44
0.0000000001
40
0
40
0
40
0
40
1
40
1
40
1
10
21.514324471354485
20
144.20190989971161
30
0
10
20.634379312396049
20
144.20190989971161
30
0
10
20.252387449145317
20
144.08594787120819
30
0
0
SPLINE
5
518
100
AcDbEntity
8
0
100
AcDbSpline
70
0
71
2
72
6
73
3
74
0
42
0.000000001
43
0.0000000001
44
0.0000000001
40
-1
40
-1
40
-1
40
0
40
0
40
0
10
20.252387449145317
20
144.08594787120819
30
0
10
20.634379312396049
20
144.20190989971161
30
0
10
21.514324471354485
20
144.20190989971161
30
0
0
SPLINE
5
519
100
AcDbEntity
8
0
100
AcDbSpline
70
0
71
2
72
6
73
3
74
0
42
0.000000001
43
0.0000000001
44
0.0000000001
40
0
40
0
40
0
40
1
40
1
40
1
10
20.156889483332634
20
141.31991803646088
30
0
10
20.600272938609123
20
141.18008196353912
30
0
10
21.678035482764244
20
141.18008196353912
30
0
0
SPLINE
5
520
100
AcDbEntity
8
0
100
AcDbSpline
70
0
71
2
72
6
73
3
74
0
42
0.000000001
43
0.0000000001
44
0.0000000001
40
-1
40
-1
40
-1
40
0
40
0
40
0
10
21.678035482764244
20
141.18008196353912
30
0
10
20.600272938609123
20
141.18008196353912
30
0
10
20.156889483332634
20
141.31991803646088
30
0
0
SPLINE
5
521
100
AcDbEntity
8
0
100
AcDbSpline
70
0
71
2
72
6
73
3
74
0
42
0.000000001
43
0.0000000001
44
0.0000000001
40
0
40
0
40
0
40
1
40
1
40
1
10
21.24829463660717
20
140
30
0
10
20.102319046854973
20
140
30
0
10
19.409959241747856
20
140.30354678630829
30
0
0
SPLINE
5
522
100
AcDbEntity
8
0
100
AcDbSpline
70
0
71
2
72
6
73
3
74
0
42
0.000000001
43
0.0000000001
44
0.0000000001
40
-1
40
-1
40
-1
40
0
40
0
40
0
10
19.409959241747856
20
140.30354678630829
30
0
10
20.102319046854973
20
140
30
0
10
21.24829463660717
20
140
30
0
0
SPLINE
5
523
100
AcDbEntity
8
0
100
AcDbSpline
70
0
71
2
72
6
73
3
74
0
42
0.000000001
43
0.0000000001
44
0.0000000001
40
0
40
0
40
0
40
1
40
1
40
1
10
19.474761411547661
20
141.83833539485931
30
0
10
19.713506028056145
20
141.45975410938263
30
0
10
20.156889483332634
20
141.31991803646088
30
0
0
SPLINE
5
524
100
AcDbEntity
8
0
100
AcDbSpline
70
0
71
2
72
6
73
3
74
0
42
0.000000001
43
0.0000000001
44
0.0000000001
40
-1
40
-1
40
-1
40
0
40
0
40
0
10
20.156889483332634
20
141.31991803646088
30
0
10
19.713506028056145
20
141.45975410938263
30
0
10
19.474761411547661
20
141.83833539485931
30
0
0
LWPOLYLINE
5
525
100
AcDbEntity
8
0
100
AcDbPolyline
90
2
70
1
43
0.0
10
21.24829463660717
20
140
10
25
20
140
0
LWPOLYLINE
5
526
100
AcDbEntity
8
0
100
AcDbPolyline
90
2
70
1
43
0.0
10
23.67667131125927
20
141.18008196353912
10
21.678035482764244
20
141.18008196353912
0
SPLINE
5
527
100
AcDbEntity
8
0
100
AcDbSpline
70
0
71
2
72
6
73
3
74
0
42
0.000000001
43
0.0000000001
44
0.0000000001
40
0
40
0
40
0
40
1
40
1
40
1
10
19.236016198992729
20
142.71487057209015
30
0
10
19.236016198992729
20
142.216916680336
30
0
10
19.474761411547661
20
141.83833539485931
30
0
0
SPLINE
5
528
100
AcDbEntity
8
0
100
AcDbSpline
70
0
71
2
72
6
73
3
74
0
42
0.000000001
43
0.0000000001
44
0.0000000001
40
-1
40
-1
40
-1
40
0
40
0
40
0
10
19.474761411547661
20
141.83833539485931
30
0
10
19.236016198992729
20
142.216916680336
30
0
10
19.236016198992729
20
142.71487057209015
30
0
0
SPLINE
5
529
100
AcDbEntity
8
0
100
AcDbSpline
70
0
71
2
72
6
73
3
74
0
42
0.000000001
43
0.0000000001
44
0.0000000001
40
0
40
0
40
0
40
1
40
1
40
1
10
19.4918143004179
20
143.58799457550049
30
0
10
19.236016198992729
20
143.24010908603668
30
0
10
19.236016198992729
20
142.71487057209015
30
0
0
SPLINE
5
530
100
AcDbEntity
8
0
100
AcDbSpline
70
0
71
2
72
6
73
3
74
0
42
0.000000001
43
0.0000000001
44
0.0000000001
40
-1
40
-1
40
-1
40
0
40
0
40
0
10
19.236016198992729
20
142.71487057209015
30
0
10
19.236016198992729
20
143.24010908603668
30
0
10
19.4918143004179
20
143.58799457550049
30
0
0
SPLINE
5
531
100
AcDbEntity
8
0
100
AcDbSpline
70
0
71
2
72
6
73
3
74
0
42
0.000000001
43
0.0000000001
44
0.0000000001
40
0
40
0
40
0
40
1
40
1
40
1
10
17.936562225222588
20
145.58663010597229
30
0
10
17.448840066790581
20
146.22783064842224
30
0
10
17.448840066790581
20
147.10095524787903
30
0
0
SPLINE
5
532
100
AcDbEntity
8
0
100
AcDbSpline
70
0
71
2
72
6
73
3
74
0
42
0.000000001
43
0.0000000001
44
0.0000000001
40
-1
40
-1
40
-1
40
0
40
0
40
0
10
17.448840066790581
20
147.10095524787903
30
0
10
17.448840066790581
20
146.22783064842224
30
0
10
17.936562225222588
20
145.58663010597229
30
0
0
SPLINE
5
533
100
AcDbEntity
8
0
100
AcDbSpline
70
0
71
2
72
6
73
3
74
0
42
0.000000001
43
0.0000000001
44
0.0000000001
40
0
40
0
40
0
40
1
40
1
40
1
10
17.448840066790581
20
147.10095524787903
30
0
10
17.448840066790581
20
147.80354738235474
30
0
10
17.745566293597221
20
148.40723037719727
30
0
0
SPLINE
5
534
100
AcDbEntity
8
0
100
AcDbSpline
70
0
71
2
72
6
73
3
74
0
42
0.000000001
43
0.0000000001
44
0.0000000001
40
-1
40
-1
40
-1
40
0
40
0
40
0
10
17.745566293597221
20
148.40723037719727
30
0
10
17.448840066790581
20
147.80354738235474
30
0
10
17.448840066790581
20
147.10095524787903
30
0
0
SPLINE
5
535
100
AcDbEntity
8
0
100
AcDbSpline
70
0
71
2
72
6
73
3
74
0
42
0.000000001
43
0.0000000001
44
0.0000000001
40
0
40
0
40
0
40
1
40
1
40
1
10
20.252387449145317
20
144.08594787120819
30
0
10
19.747612401843071
20
143.93588006496429
30
0
10
19.4918143004179
20
143.58799457550049
30
0
0
SPLINE
5
536
100
AcDbEntity
8
0
100
AcDbSpline
70
0
71
2
72
6
73
3
74
0
42
0.000000001
43
0.0000000001
44
0.0000000001
40
-1
40
-1
40
-1
40
0
40
0
40
0
10
19.4918143004179
20
143.58799457550049
30
0
10
19.747612401843071
20
143.93588006496429
30
0
10
20.252387449145317
20
144.08594787120819
30
0
0
LWPOLYLINE
5
537
100
AcDbEntity
8
0
100
AcDbPolyline
90
2
70
1
43
0.0
10
25
20
140
10
25
20
150
0
LWPOLYLINE
5
538
100
AcDbEntity
8
0
100
AcDbPolyline
90
2
70
1
43
0.0
10
70
20
70
10
70
20
110
0
LWPOLYLINE
5
539
100
AcDbEntity
8
0
100
AcDbPolyline
90
2
70
1
43
0.0
10
97.221014281317721
20
83.010497366364319
10
72.221014281317707
20
50.000000000000036
0
LWPOLYLINE
5
540
100
AcDbEntity
8
0
100
AcDbPolyline
90
7
70
1
43
0.0
10
112.22101428131772
20
50.000000000000028
10
112.22101428131772
20
4.4408920985006262e-14
10
82.221014281317707
20
4.4408920985006262e-14
10
82.221014281317707
20
50.000000000000036
10
72.221014281317707
20
50.000000000000036
10
97.221014281317721
20
83.010497366364319
10
122.22101428131772
20
50.000000000000028
0
LWPOLYLINE
5
541
100
AcDbEntity
8
0
100
AcDbPolyline
90
7
70
1
43
0.0
10
112.22101428131772
20
4.4408920985006262e-14
10
112.22101428131772
20
50.000000000000028
10
122.22101428131772
20
50.000000000000028
10
97.221014281317721
20
83.010497366364319
10
72.221014281317707
20
50.000000000000036
10
82.221014281317707
20
50.000000000000036
10
82.221014281317707
20
4.4408920985006262e-14
0
LWPOLYLINE
5
542
100
AcDbEntity
8
0
100
AcDbPolyline
90
2
70
1
43
0.0
10
82.221014281317707
20
4.4408920985006262e-14
10
112.22101428131772
20
4.4408920985006262e-14
0
LWPOLYLINE
5
543
100
AcDbEntity
8
0
100
AcDbPolyline
90
2
70
1
43
0.0
10
97.221014281317721
20
-16.989502633635677
10
72.221014281317707
20
-49.999999999999972
0
LWPOLYLINE
5
544
100
AcDbEntity
8
0
100
AcDbPolyline
90
2
70
1
43
0.0
10
122.22101428131772
20
-49.999999999999972
10
97.221014281317721
20
-16.989502633635677
0
LWPOLYLINE
5
545
100
AcDbEntity
8
0
100
AcDbPolyline
90
2
70
1
43
0.0
10
82.221014281317707
20
50.000000000000036
10
82.221014281317707
20
4.4408920985006262e-14
0
ENDSEC
0
SECTION
2
OBJECTS
0
DICTIONARY
5
C
100
AcDbDictionary
3
ACAD_GROUP
350
D
3
ACAD_MLINESTYLE
350
17
0
DICTIONARY
5
D
100
AcDbDictionary
0
DICTIONARY
5
1A
330
C
100
AcDbDictionary
0
DICTIONARY
5
17
100
AcDbDictionary
0
ENDSEC
0
EOF
